# Blender 5.0.1
# www.blender.org
o hexagon_tree
v 0.000000 0.000000 -0.160592
v 0.000000 0.391608 -0.160592
v 0.139077 0.000000 -0.080296
v 0.139077 0.391608 -0.080296
v 0.139077 0.000000 0.080296
v 0.139077 0.391608 0.080296
v 0.000000 0.000000 0.160592
v 0.000000 0.391608 0.160592
v -0.139077 0.000000 0.080296
v -0.139077 0.391608 0.080296
v -0.139077 0.000000 -0.080296
v -0.139077 0.391608 -0.080296
v 0.497456 0.391608 -0.287206
v 0.000000 0.391608 -0.574413
v 0.497456 0.391608 0.287206
v 0.000000 0.391608 0.574413
v -0.497456 0.391608 0.287206
v -0.497456 0.391608 -0.287206
v 0.000000 2.176326 0.000000
vn 0.5000 -0.0000 -0.8660
vn 1.0000 -0.0000 -0.0000
vn 0.5000 -0.0000 0.8660
vn -0.5000 -0.0000 0.8660
vn -0.0000 -1.0000 -0.0000
vn -1.0000 -0.0000 -0.0000
vn -0.5000 -0.0000 -0.8660
vn -0.9633 0.2685 -0.0000
vn 0.4816 0.2685 0.8342
vn 0.4816 0.2685 -0.8342
vn -0.4816 0.2685 -0.8342
vn -0.4816 0.2685 0.8342
vn 0.9633 0.2685 -0.0000
vt 0.730122 0.841319
vt 0.730122 0.727799
vt 0.776675 0.727799
vt 0.776675 0.841319
vt 0.799951 0.727799
vt 0.799951 0.841319
vt 0.846504 0.727799
vt 0.846504 0.841319
vt 0.869780 0.727799
vt 0.869780 0.841319
vt 0.158519 0.325649
vt 0.158519 0.307920
vt 0.198082 0.285078
vt 0.198082 0.348491
vt 0.916333 0.727799
vt 0.916333 0.841319
vt 0.706846 0.841319
vt 0.706846 0.727799
vt 0.706846 0.911148
vt 0.706846 0.864595
vt 0.747162 0.841319
vt 0.787477 0.864595
vt 0.787477 0.911148
vt 0.747162 0.934425
vt 0.113648 0.233277
vt 0.088248 0.209244
vt 0.208537 0.049331
vt 0.143165 0.299056
vt 0.127812 0.307920
vt 0.088248 0.285078
vt 0.143165 0.253372
vt 0.143165 0.334513
vt 0.143165 0.380197
vt 0.127812 0.325649
vt 0.088248 0.348491
vt 0.294080 0.253372
vt 0.233936 0.233277
vt 0.328825 0.049331
vt 0.208537 0.249435
vt 0.173792 0.253372
vt 0.328825 0.249435
vt 0.208537 0.209244
s 0
f 1/1/1 2/2/1 4/3/1 3/4/1
f 3/4/2 4/3/2 6/5/2 5/6/2
f 5/6/3 6/5/3 8/7/3 7/8/3
f 7/8/4 8/7/4 10/9/4 9/10/4
f 10/11/5 8/12/5 16/13/5 17/14/5
f 9/10/6 10/9/6 12/15/6 11/16/6
f 11/17/7 12/18/7 2/2/7 1/1/7
f 1/19/5 3/20/5 5/21/5 7/22/5 9/23/5 11/24/5
f 18/25/8 17/26/8 19/27/8
f 6/28/5 4/29/5 13/30/5 15/31/5
f 12/32/5 10/11/5 17/14/5 18/33/5
f 4/29/5 2/34/5 14/35/5 13/30/5
f 8/12/5 6/28/5 15/31/5 16/13/5
f 2/34/5 12/32/5 18/33/5 14/35/5
f 16/36/9 15/37/9 19/38/9
f 13/39/10 14/40/10 19/27/10
f 14/40/11 18/25/11 19/27/11
f 17/41/12 16/36/12 19/38/12
f 15/37/13 13/42/13 19/38/13
