# Blender 5.0.1
# www.blender.org
o Cube.003
v -3.476063 -0.037558 3.476063
v -2.822470 0.300805 0.000000
v -3.476063 -0.037558 -3.476063
v 2.822470 0.300805 0.000000
v 3.476063 -0.037558 3.476063
v 3.476063 -0.037558 0.000000
v 3.476063 -0.037558 -3.476063
v -3.476063 -0.037558 0.000000
v 2.822470 0.300805 2.822470
v 2.822470 0.300805 -2.822470
v -2.822470 0.300805 2.822470
v -2.822470 0.300805 -2.822470
v -2.822470 0.300805 0.197963
v 3.476063 -0.037558 0.219174
v 2.822470 0.300805 0.197963
v -3.476063 -0.037558 0.219174
v 2.822470 0.300805 -0.197963
v -3.476063 -0.037558 -0.219174
v 3.476063 -0.037558 -0.219174
v -2.822470 0.300805 -0.197963
v -2.822470 0.545034 0.000000
v 2.822470 0.545034 0.000000
v 2.822470 0.545034 0.197963
v -2.822470 0.545034 0.197963
v -2.822470 0.545034 -0.197963
v 2.822470 0.545034 -0.197963
v -3.476063 -0.037558 -3.188881
v -3.476063 -0.037558 -0.506355
v 3.476063 -0.037558 -0.506355
v 3.476063 -0.037558 -3.188881
v 2.822470 0.300805 -2.589286
v 2.822470 0.300805 -0.431147
v -2.822470 0.300805 -0.431147
v -2.822470 0.300805 -2.589286
v 3.476063 -0.037558 0.506355
v 3.476063 -0.037558 3.188881
v 2.822470 0.300805 0.431147
v 2.822470 0.300805 2.589286
v -2.822470 0.300805 2.589286
v -2.822470 0.300805 0.431147
v -3.476063 -0.037558 0.506355
v -3.476063 -0.037558 3.188881
v -2.781833 0.300805 -0.392601
v -2.781833 0.300805 -0.238599
v 2.781833 0.300805 -0.238599
v 2.781833 0.300805 -0.392601
v -2.781833 0.300805 -2.781833
v -2.781833 0.300805 -2.627831
v 2.781833 0.300805 -2.627831
v 2.781833 0.300805 -2.781833
v -2.781833 0.300805 2.627831
v -2.781833 0.300805 2.781833
v 2.781833 0.300805 2.781833
v 2.781833 0.300805 2.627831
v -2.781833 0.300805 0.238599
v -2.781833 0.300805 0.392602
v 2.781833 0.300805 0.392602
v 2.781833 0.300805 0.238599
v -2.781833 0.308307 -0.238599
v -2.781833 0.308307 -0.392601
v 2.781833 0.308307 -0.392601
v 2.781833 0.308307 -0.238599
v -2.781833 0.308307 -2.627831
v -2.781833 0.308307 -2.781833
v 2.781833 0.308307 -2.781833
v 2.781833 0.308307 -2.627831
v -2.781833 0.308307 2.627831
v -2.781833 0.308307 2.781833
v 2.781833 0.308307 2.627831
v 2.781833 0.308307 2.781833
v -2.781833 0.308307 0.238599
v -2.781833 0.308307 0.392602
v 2.781833 0.308307 0.238599
v 2.781833 0.308307 0.392602
vn -0.0000 0.8881 0.4597
vn -0.0000 0.8881 -0.4597
vn -0.4597 0.8881 -0.0000
vn -0.0000 -0.0000 1.0000
vn 0.4597 0.8881 -0.0000
vn -0.0000 -1.0000 -0.0000
vn 1.0000 -0.0000 -0.0000
vn -0.0000 1.0000 -0.0000
vn -1.0000 -0.0000 -0.0000
vn -0.0000 -0.0000 -1.0000
vt 0.562500 0.937500
vt 0.437500 0.937500
vt 0.062500 0.937500
vt 0.062500 0.937500
vt 0.562500 0.937500
vt 0.562500 0.937500
vt 0.562500 0.937500
vt 0.562500 0.937500
vt 0.562500 0.937500
vt 0.062500 0.937500
s 0
f 5/1/1 9/1/1 11/1/1 1/1/1
f 3/1/2 12/1/2 10/1/2 7/1/2
f 16/1/3 13/1/3 2/1/3 8/1/3
f 13/2/4 15/2/4 23/2/4 24/2/4
f 6/1/5 4/1/5 15/1/5 14/1/5
f 8/1/6 6/1/6 14/1/6 16/1/6
f 19/1/5 17/1/5 4/1/5 6/1/5
f 15/2/7 4/2/7 22/2/7 23/2/7
f 8/1/3 2/1/3 20/1/3 18/1/3
f 18/1/6 19/1/6 6/1/6 8/1/6
f 21/2/8 24/2/8 23/2/8 22/2/8
f 25/2/8 21/2/8 22/2/8 26/2/8
f 2/2/9 13/2/9 24/2/9 21/2/9
f 20/2/9 2/2/9 21/2/9 25/2/9
f 4/2/7 17/2/7 26/2/7 22/2/7
f 17/2/10 20/2/10 25/2/10 26/2/10
f 34/1/3 27/1/3 28/1/3 33/1/3
f 40/1/3 41/1/3 42/1/3 39/1/3
f 36/1/6 42/1/6 41/1/6 35/1/6
f 38/1/5 36/1/5 35/1/5 37/1/5
f 32/1/5 29/1/5 30/1/5 31/1/5
f 33/1/8 32/1/8 31/1/8 34/1/8
f 29/1/6 28/1/6 27/1/6 30/1/6
f 39/1/8 38/1/8 37/1/8 40/1/8
f 20/1/3 33/1/3 28/1/3 18/1/3
f 34/1/3 12/1/3 3/1/3 27/1/3
f 28/1/6 29/1/6 19/1/6 18/1/6
f 3/1/6 7/1/6 30/1/6 27/1/6
f 7/1/5 10/1/5 31/1/5 30/1/5
f 29/1/5 32/1/5 17/1/5 19/1/5
f 51/3/9 52/3/9 68/3/9 67/3/9
f 46/3/10 43/4/10 60/3/10 61/3/10
f 14/1/6 35/1/6 41/1/6 16/1/6
f 15/1/5 37/1/5 35/1/5 14/1/5
f 38/1/5 9/1/5 5/1/5 36/1/5
f 36/1/6 5/1/6 1/1/6 42/1/6
f 47/3/9 48/3/9 63/3/9 64/3/9
f 43/3/9 44/3/9 59/3/9 60/3/9
f 1/1/3 11/1/3 39/1/3 42/1/3
f 41/1/3 40/1/3 13/1/3 16/1/3
f 33/1/8 20/1/8 44/5/8 43/5/8
f 20/1/8 17/1/8 45/6/8 44/5/8
f 17/1/8 32/1/8 46/7/8 45/6/8
f 32/1/8 33/1/8 43/5/8 46/7/8
f 12/1/8 34/1/8 48/8/8 47/8/8
f 34/1/8 31/1/8 49/1/8 48/8/8
f 31/1/8 10/1/8 50/9/8 49/1/8
f 10/1/8 12/1/8 47/8/8 50/9/8
f 39/1/8 11/1/8 52/8/8 51/8/8
f 11/1/8 9/1/8 53/1/8 52/8/8
f 9/1/8 38/1/8 54/1/8 53/1/8
f 38/1/8 39/1/8 51/8/8 54/1/8
f 13/1/8 40/1/8 56/5/8 55/5/8
f 40/1/8 37/1/8 57/1/8 56/5/8
f 37/1/8 15/1/8 58/1/8 57/1/8
f 15/1/8 13/1/8 55/5/8 58/1/8
f 60/3/8 59/3/8 62/3/8 61/3/8
f 64/3/8 63/3/8 66/3/8 65/3/8
f 67/3/8 68/3/8 70/3/8 69/3/8
f 71/3/8 72/3/8 74/3/8 73/3/8
f 50/3/10 47/3/10 64/10/10 65/3/10
f 55/3/9 56/3/9 72/3/9 71/3/9
f 44/3/4 45/3/4 62/3/4 59/3/4
f 54/3/10 51/3/10 67/3/10 69/3/10
f 48/3/4 49/3/4 66/3/4 63/3/4
f 58/3/10 55/3/10 71/3/10 73/3/10
f 45/3/7 46/3/7 61/3/7 62/3/7
f 52/3/4 53/3/4 70/3/4 68/3/4
f 49/3/7 50/3/7 65/3/7 66/3/7
f 56/3/4 57/3/4 74/3/4 72/3/4
f 53/3/7 54/3/7 69/3/7 70/3/7
f 57/3/7 58/3/7 73/3/7 74/3/7
o Cube.067
v 1.903826 -0.007169 -0.096174
v 1.903826 4.134178 -0.096174
v 2.096174 -0.007169 -0.096174
v 2.096174 4.134178 -0.096174
v 1.903826 -0.007169 0.096174
v 1.903826 4.134178 0.096180
v 2.096174 -0.007169 0.096174
v 2.096174 4.134178 0.096180
v 1.903826 4.383235 -0.096174
v 2.096174 4.383235 -0.096174
v 2.096174 4.383235 0.096180
v 1.903826 4.383235 0.096180
v 2.169960 4.741012 1.398448
v 2.169960 4.677279 1.398448
v 1.830040 4.677279 1.398448
v 1.830040 4.741012 0.638213
v 1.903826 4.667188 -0.519813
v 2.096174 4.667188 -0.519813
v 2.096174 4.725183 -0.519813
v 1.903826 4.725183 -0.519813
v 2.169960 4.677279 0.638213
v 1.830040 4.741012 1.398448
v 2.169960 4.741012 0.638213
v 2.096174 4.725183 0.580767
v 1.903826 4.667188 -0.580737
v 2.096174 4.667188 -0.580737
v 2.096174 4.725183 -0.580737
v 1.903826 4.725183 -0.580737
v 1.830040 4.677279 -0.638183
v 2.169960 4.677279 -0.638183
v 1.830040 4.741012 -0.638183
v 2.169960 4.741012 -0.638183
v 2.096174 4.725183 0.519843
v 1.903826 4.725183 0.580767
v 2.096174 4.667188 0.580767
v 1.830040 4.677279 0.638213
v 1.830040 4.741012 -1.398417
v 2.169960 4.741012 -1.398417
v 1.830040 4.677279 -1.398417
v 2.169960 4.677279 -1.398417
v 1.903826 4.725183 0.519843
v 1.903826 4.667188 0.580767
v 1.903826 4.667188 0.519843
v 2.096174 4.667188 0.519843
v 2.131428 4.677279 -0.676715
v 1.868572 4.677279 -0.676715
v 1.868572 4.677279 -1.359885
v 2.131428 4.677279 -1.359885
v 2.131428 4.677279 0.676745
v 1.868572 4.677279 0.676745
v 1.868572 4.677279 1.359916
v 2.131428 4.677279 1.359916
vn -0.0000 -0.0000 -1.0000
vn 1.0000 -0.0000 -0.0000
vn -0.0000 -0.0000 1.0000
vn -1.0000 -0.0000 -0.0000
vn -0.0000 -1.0000 -0.0000
vn -0.0000 1.0000 -0.0000
vn -0.0000 -0.6222 -0.7828
vn -0.0000 0.7781 0.6281
vn -0.6143 -0.0000 0.7891
vn -0.0000 0.9641 0.2656
vn 0.6143 -0.0000 -0.7891
vn 0.6143 -0.0000 0.7891
vn -0.0000 -0.9849 -0.1730
vn -0.0000 0.9641 -0.2656
vn -0.0000 -0.9849 0.1730
vn -0.0000 0.7782 -0.6281
vn -0.0000 -0.6222 0.7828
vn -0.6143 -0.0000 -0.7891
vt 0.437500 0.937500
vt 0.437500 0.937500
vt 0.437500 0.937500
vt 0.937500 0.937500
s 0
f 75/11/11 76/11/11 78/12/11 77/12/11
f 77/12/12 78/12/12 82/11/12 81/11/12
f 81/11/13 82/11/13 80/11/13 79/11/13
f 79/11/14 80/11/14 76/11/14 75/11/14
f 77/11/15 81/11/15 79/11/15 75/11/15
f 85/11/16 84/11/16 83/11/16 86/11/16
f 95/11/15 123/13/15 124/12/15 110/11/15
f 89/11/15 125/13/15 126/12/15 88/11/15
f 93/11/12 92/11/12 100/11/12 101/11/12
f 92/11/15 91/11/15 99/11/15 100/11/15
f 78/11/17 76/11/17 91/11/17 92/11/17
f 88/11/13 87/11/13 96/11/13 89/11/13
f 84/11/12 78/11/12 92/11/12 93/11/12
f 123/14/15 126/14/15 125/14/15 124/14/15
f 76/11/14 83/11/14 94/11/14 91/11/14
f 83/11/18 84/11/18 93/11/18 94/11/18
f 99/11/19 102/11/19 105/11/19 103/11/19
f 102/11/20 101/11/20 106/11/20 105/11/20
f 91/11/14 94/11/14 102/11/14 99/11/14
f 88/11/15 126/12/15 123/13/15 95/11/15
f 94/11/16 93/11/16 101/11/16 102/11/16
f 110/11/15 124/12/15 125/13/15 89/11/15
f 90/11/16 96/11/16 87/11/16 97/11/16
f 110/11/14 89/11/14 96/11/14 90/11/14
f 98/11/21 97/11/21 95/11/21 109/11/21
f 106/11/12 104/11/12 114/11/12 112/11/12
f 101/11/22 100/11/22 104/11/22 106/11/22
f 100/11/23 99/11/23 103/11/23 104/11/23
f 108/11/24 90/11/24 97/11/24 98/11/24
f 97/11/12 87/11/12 88/11/12 95/11/12
f 115/11/16 108/11/16 98/11/16 107/11/16
f 109/11/25 95/11/25 110/11/25 116/11/25
f 82/11/12 78/11/12 84/11/12 85/11/12
f 118/11/15 109/11/15 116/11/15 117/11/15
f 114/11/11 113/11/11 111/11/11 112/11/11
f 80/11/14 117/11/14 115/11/14 86/11/14
f 86/11/26 115/11/26 107/11/26 85/11/26
f 105/11/16 106/11/16 112/11/16 111/11/16
f 107/11/12 98/11/12 109/11/12 118/11/12
f 119/14/15 120/14/15 121/14/15 122/14/15
f 103/11/14 105/11/14 111/11/14 113/11/14
f 80/11/13 82/11/13 85/11/13 86/11/13
f 117/11/14 116/11/14 108/11/14 115/11/14
f 85/11/12 107/11/12 118/11/12 82/11/12
f 82/11/27 118/11/27 117/11/27 80/11/27
f 116/11/28 110/11/28 90/11/28 108/11/28
f 104/11/15 103/11/15 120/12/15 119/13/15
f 103/11/15 113/11/15 121/13/15 120/12/15
f 113/11/15 114/11/15 122/12/15 121/13/15
f 114/11/15 104/11/15 119/13/15 122/12/15
f 83/11/14 76/11/14 80/11/14 86/11/14
o Cube.015
v -2.096174 -0.007169 -0.096174
v -2.096174 4.134178 -0.096174
v -1.903826 -0.007169 -0.096174
v -1.903826 4.134178 -0.096174
v -2.096174 -0.007169 0.096174
v -2.096174 4.134178 0.096180
v -1.903826 -0.007169 0.096174
v -1.903826 4.134178 0.096180
v -2.096174 4.383235 -0.096174
v -1.903826 4.383235 -0.096174
v -1.903826 4.383235 0.096180
v -2.096174 4.383235 0.096180
v -1.830040 4.741012 1.398448
v -1.830040 4.677279 1.398448
v -2.169960 4.677279 1.398448
v -2.169960 4.741012 0.638213
v -2.096174 4.667188 -0.519813
v -1.903826 4.667188 -0.519813
v -1.903826 4.725183 -0.519813
v -2.096174 4.725183 -0.519813
v -1.830040 4.677279 0.638213
v -2.169960 4.741012 1.398448
v -1.830040 4.741012 0.638213
v -1.903826 4.725183 0.580767
v -2.096174 4.667188 -0.580737
v -1.903826 4.667188 -0.580737
v -1.903826 4.725183 -0.580737
v -2.096174 4.725183 -0.580737
v -2.169960 4.677279 -0.638183
v -1.830040 4.677279 -0.638183
v -2.169960 4.741012 -0.638183
v -1.830040 4.741012 -0.638183
v -1.903826 4.725183 0.519843
v -2.096174 4.725183 0.580767
v -1.903826 4.667188 0.580767
v -2.169960 4.677279 0.638213
v -2.169960 4.741012 -1.398417
v -1.830040 4.741012 -1.398417
v -2.169960 4.677279 -1.398417
v -1.830040 4.677279 -1.398417
v -2.096174 4.725183 0.519843
v -2.096174 4.667188 0.580767
v -2.096174 4.667188 0.519843
v -1.903826 4.667188 0.519843
v -1.868572 4.677279 -0.676715
v -2.131428 4.677279 -0.676715
v -2.131428 4.677279 -1.359885
v -1.868572 4.677279 -1.359885
v -1.868572 4.677279 0.676745
v -2.131428 4.677279 0.676745
v -2.131428 4.677279 1.359916
v -1.868572 4.677279 1.359916
vn -0.0000 -0.0000 -1.0000
vn 1.0000 -0.0000 -0.0000
vn -0.0000 -0.0000 1.0000
vn -1.0000 -0.0000 -0.0000
vn -0.0000 -1.0000 -0.0000
vn -0.0000 1.0000 -0.0000
vn -0.0000 -0.6222 -0.7828
vn -0.0000 0.7781 0.6281
vn -0.6143 -0.0000 0.7891
vn -0.0000 0.9641 0.2656
vn 0.6143 -0.0000 -0.7891
vn 0.6143 -0.0000 0.7891
vn -0.0000 -0.9849 -0.1730
vn -0.0000 0.9641 -0.2656
vn -0.0000 -0.9849 0.1730
vn -0.0000 0.7782 -0.6281
vn -0.0000 -0.6222 0.7828
vn -0.6143 -0.0000 -0.7891
vt 0.437500 0.937500
vt 0.437500 0.937500
vt 0.437500 0.937500
vt 0.937500 0.937500
s 0
f 127/15/29 128/15/29 130/16/29 129/16/29
f 129/16/30 130/16/30 134/15/30 133/15/30
f 133/15/31 134/15/31 132/15/31 131/15/31
f 131/15/32 132/15/32 128/15/32 127/15/32
f 129/15/33 133/15/33 131/15/33 127/15/33
f 137/15/34 136/15/34 135/15/34 138/15/34
f 147/15/33 175/17/33 176/16/33 162/15/33
f 141/15/33 177/17/33 178/16/33 140/15/33
f 145/15/30 144/15/30 152/15/30 153/15/30
f 144/15/33 143/15/33 151/15/33 152/15/33
f 130/15/35 128/15/35 143/15/35 144/15/35
f 140/15/31 139/15/31 148/15/31 141/15/31
f 136/15/30 130/15/30 144/15/30 145/15/30
f 175/18/33 178/18/33 177/18/33 176/18/33
f 128/15/32 135/15/32 146/15/32 143/15/32
f 135/15/36 136/15/36 145/15/36 146/15/36
f 151/15/37 154/15/37 157/15/37 155/15/37
f 154/15/38 153/15/38 158/15/38 157/15/38
f 143/15/32 146/15/32 154/15/32 151/15/32
f 140/15/33 178/16/33 175/17/33 147/15/33
f 146/15/34 145/15/34 153/15/34 154/15/34
f 162/15/33 176/16/33 177/17/33 141/15/33
f 142/15/34 148/15/34 139/15/34 149/15/34
f 162/15/32 141/15/32 148/15/32 142/15/32
f 150/15/39 149/15/39 147/15/39 161/15/39
f 158/15/30 156/15/30 166/15/30 164/15/30
f 153/15/40 152/15/40 156/15/40 158/15/40
f 152/15/41 151/15/41 155/15/41 156/15/41
f 160/15/42 142/15/42 149/15/42 150/15/42
f 149/15/30 139/15/30 140/15/30 147/15/30
f 167/15/34 160/15/34 150/15/34 159/15/34
f 161/15/43 147/15/43 162/15/43 168/15/43
f 134/15/30 130/15/30 136/15/30 137/15/30
f 170/15/33 161/15/33 168/15/33 169/15/33
f 166/15/29 165/15/29 163/15/29 164/15/29
f 132/15/32 169/15/32 167/15/32 138/15/32
f 138/15/44 167/15/44 159/15/44 137/15/44
f 157/15/34 158/15/34 164/15/34 163/15/34
f 159/15/30 150/15/30 161/15/30 170/15/30
f 171/18/33 172/18/33 173/18/33 174/18/33
f 155/15/32 157/15/32 163/15/32 165/15/32
f 132/15/31 134/15/31 137/15/31 138/15/31
f 169/15/32 168/15/32 160/15/32 167/15/32
f 137/15/30 159/15/30 170/15/30 134/15/30
f 134/15/45 170/15/45 169/15/45 132/15/45
f 168/15/46 162/15/46 142/15/46 160/15/46
f 156/15/33 155/15/33 172/16/33 171/17/33
f 155/15/33 165/15/33 173/17/33 172/16/33
f 165/15/33 166/15/33 174/16/33 173/17/33
f 166/15/33 156/15/33 171/17/33 174/16/33
f 135/15/32 128/15/32 132/15/32 138/15/32
