# Blender 5.0.1
# www.blender.org
o Dodecahedron
v 0.209750 -0.888513 0.645531
v 0.678756 -0.888513 0.000000
v -0.549125 -0.888513 0.398961
v -0.549125 -0.888513 -0.398961
v 0.209750 -0.888513 -0.645531
v 1.098253 -0.209750 0.000000
v 0.339378 -0.209750 1.044493
v -0.888503 -0.209750 0.645531
v -0.888503 -0.209750 -0.645531
v 0.339378 -0.209750 -1.044493
v 0.888503 0.209750 0.645531
v -0.339378 0.209750 1.044493
v -1.098253 0.209750 0.000000
v -0.339378 0.209750 -1.044493
v 0.888503 0.209750 -0.645531
v 0.549125 0.888513 0.398961
v -0.209750 0.888513 0.645531
v -0.678756 0.888513 0.000000
v -0.209750 0.888513 -0.645531
v 0.549125 0.888513 -0.398961
vn -0.0000 -1.0000 -0.0000
vn 0.7236 -0.4472 0.5257
vn -0.2764 -0.4472 0.8507
vn -0.8944 -0.4472 -0.0000
vn -0.2764 -0.4472 -0.8507
vn 0.7236 -0.4472 -0.5257
vn 0.2764 0.4472 0.8507
vn -0.7236 0.4472 0.5257
vn -0.7236 0.4472 -0.5257
vn 0.2764 0.4472 -0.8507
vn 0.8944 0.4472 -0.0000
vn -0.0000 1.0000 -0.0000
vt 0.562500 0.062500
s 0
f 1/1/1 3/1/1 4/1/1 5/1/1 2/1/1
f 1/1/2 2/1/2 6/1/2 11/1/2 7/1/2
f 1/1/3 7/1/3 12/1/3 8/1/3 3/1/3
f 3/1/4 8/1/4 13/1/4 9/1/4 4/1/4
f 4/1/5 9/1/5 14/1/5 10/1/5 5/1/5
f 2/1/6 5/1/6 10/1/6 15/1/6 6/1/6
f 7/1/7 11/1/7 16/1/7 17/1/7 12/1/7
f 8/1/8 12/1/8 17/1/8 18/1/8 13/1/8
f 9/1/9 13/1/9 18/1/9 19/1/9 14/1/9
f 10/1/10 14/1/10 19/1/10 20/1/10 15/1/10
f 6/1/11 15/1/11 20/1/11 16/1/11 11/1/11
f 16/1/12 20/1/12 19/1/12 18/1/12 17/1/12
