# Blender 5.0.1
# www.blender.org
o Icosahedron
v 0.620339 -0.939849 0.359461
v 1.005119 0.220946 0.581583
v -0.001373 -0.221734 1.161099
v -0.622585 -0.938853 0.358172
v 0.000001 -0.939361 -0.717579
v 1.005967 -0.222568 -0.579494
v -0.000001 0.939361 0.717579
v -1.005967 0.222568 0.579494
v -1.005119 -0.220946 -0.581583
v 0.001373 0.221734 -1.161099
v 0.622585 0.938853 -0.358172
v -0.620339 0.939849 -0.359461
vn 0.5763 -0.3338 0.7460
vn 0.9338 -0.3341 0.1283
vn -0.0013 -0.7453 0.6667
vn -0.0008 -1.0000 -0.0000
vn 0.5771 -0.7458 -0.3327
vn 0.9346 0.3326 -0.1264
vn 0.3562 0.3331 0.8730
vn -0.5784 -0.3328 0.7448
vn -0.5776 -0.7449 -0.3339
vn 0.3575 -0.3336 -0.8723
vn 0.5776 0.7449 0.3339
vn -0.3575 0.3336 0.8723
vn -0.9346 -0.3326 0.1264
vn -0.3562 -0.3331 -0.8730
vn 0.5784 0.3328 -0.7448
vn 0.0008 1.0000 -0.0000
vn -0.5771 0.7458 0.3327
vn -0.9338 0.3341 -0.1283
vn -0.5763 0.3338 -0.7460
vn 0.0013 0.7453 -0.6667
vt 0.437500 0.062500
s 0
f 1/1/1 2/1/1 3/1/1
f 2/1/2 1/1/2 6/1/2
f 1/1/3 3/1/3 4/1/3
f 1/1/4 4/1/4 5/1/4
f 1/1/5 5/1/5 6/1/5
f 2/1/6 6/1/6 11/1/6
f 3/1/7 2/1/7 7/1/7
f 4/1/8 3/1/8 8/1/8
f 5/1/9 4/1/9 9/1/9
f 6/1/10 5/1/10 10/1/10
f 2/1/11 11/1/11 7/1/11
f 3/1/12 7/1/12 8/1/12
f 4/1/13 8/1/13 9/1/13
f 5/1/14 9/1/14 10/1/14
f 6/1/15 10/1/15 11/1/15
f 7/1/16 11/1/16 12/1/16
f 8/1/17 7/1/17 12/1/17
f 9/1/18 8/1/18 12/1/18
f 10/1/19 9/1/19 12/1/19
f 11/1/20 10/1/20 12/1/20
