# Blender 5.0.1
# www.blender.org
o Cube
v -1.131973 0.000000 0.000000
v 0.000000 1.131973 0.000000
v 0.000000 0.000000 -1.131973
v 0.000000 0.000000 1.131973
v 1.131973 0.000000 0.000000
v 0.000000 -1.131973 0.000000
vn -0.5774 0.5774 -0.5774
vn 0.5774 0.5774 -0.5774
vn 0.5774 0.5774 0.5774
vn -0.5774 0.5774 0.5774
vn -0.5774 -0.5774 0.5774
vn 0.5774 -0.5774 -0.5774
vn -0.5774 -0.5774 -0.5774
vn 0.5774 -0.5774 0.5774
vt 0.312500 0.062500
s 0
f 1/1/1 2/1/1 3/1/1
f 3/1/2 2/1/2 5/1/2
f 5/1/3 2/1/3 4/1/3
f 4/1/4 2/1/4 1/1/4
f 4/1/5 1/1/5 6/1/5
f 3/1/6 5/1/6 6/1/6
f 1/1/7 3/1/7 6/1/7
f 5/1/8 4/1/8 6/1/8
