# Blender 5.0.1
# www.blender.org
o Cube
v -1.000000 0.000000 1.000000
v -1.000000 0.431534 1.000000
v -1.000000 0.000000 -1.000000
v -1.000000 0.431534 -1.000000
v 1.000000 0.000000 1.000000
v 1.000000 0.431534 1.000000
v 1.000000 0.000000 -1.000000
v 1.000000 0.431534 -1.000000
v 0.865583 0.637329 -0.214256
v 0.865583 0.637329 -0.134256
v 0.723583 0.637329 -0.134256
v 0.723583 0.637329 0.095744
v 0.724345 0.637329 0.108216
v 0.726518 0.637329 0.119184
v 0.729926 0.637329 0.128729
v 0.734397 0.637329 0.136929
v 0.739757 0.637329 0.143866
v 0.745833 0.637329 0.149619
v 0.752450 0.637329 0.154268
v 0.759435 0.637329 0.157892
v 0.766614 0.637329 0.160572
v 0.773814 0.637329 0.162388
v 0.780862 0.637329 0.163418
v 0.787583 0.637329 0.163744
v 0.795604 0.637329 0.163515
v 0.803675 0.637329 0.162827
v 0.811801 0.637329 0.161682
v 0.819990 0.637329 0.160077
v 0.828248 0.637329 0.158015
v 0.836582 0.637329 0.155494
v 0.845000 0.637329 0.152515
v 0.853508 0.637329 0.149077
v 0.862114 0.637329 0.145182
v 0.870823 0.637329 0.140827
v 0.879644 0.637329 0.136015
v 0.888583 0.637329 0.130744
v 0.888583 0.637329 0.213744
v 0.880499 0.637329 0.217906
v 0.871832 0.637329 0.221869
v 0.862707 0.637329 0.225604
v 0.853249 0.637329 0.229077
v 0.843582 0.637329 0.232260
v 0.833832 0.637329 0.235119
v 0.824124 0.637329 0.237624
v 0.814583 0.637329 0.239744
v 0.805332 0.637329 0.241447
v 0.796499 0.637329 0.242702
v 0.788207 0.637329 0.243479
v 0.780582 0.637329 0.243744
v 0.757333 0.637329 0.242517
v 0.736087 0.637329 0.238925
v 0.716848 0.637329 0.233104
v 0.699619 0.637329 0.225189
v 0.684405 0.637329 0.215315
v 0.671207 0.637329 0.203619
v 0.660031 0.637329 0.190235
v 0.650879 0.637329 0.175300
v 0.643754 0.637329 0.158947
v 0.638661 0.637329 0.141314
v 0.635603 0.637329 0.122534
v 0.634582 0.637329 0.102744
v 0.634582 0.637329 -0.134256
v 0.556583 0.637329 -0.134256
v 0.556583 0.637329 -0.144256
v 0.723583 0.637329 -0.307256
v 0.723583 0.637329 -0.214256
v 0.318582 0.637329 -0.111256
v 0.320582 0.637329 -0.111256
v 0.331791 0.637329 -0.130055
v 0.342920 0.637329 -0.146983
v 0.353973 0.637329 -0.162084
v 0.364953 0.637329 -0.175404
v 0.375863 0.637329 -0.186988
v 0.386707 0.637329 -0.196881
v 0.397489 0.637329 -0.205128
v 0.408212 0.637329 -0.211774
v 0.418879 0.637329 -0.216865
v 0.429494 0.637329 -0.220446
v 0.440061 0.637329 -0.222561
v 0.450582 0.637329 -0.223256
v 0.459544 0.637329 -0.222901
v 0.468439 0.637329 -0.221835
v 0.477286 0.637329 -0.220053
v 0.486101 0.637329 -0.217552
v 0.494902 0.637329 -0.214329
v 0.503707 0.637329 -0.210381
v 0.512533 0.637329 -0.205703
v 0.521397 0.637329 -0.200293
v 0.530317 0.637329 -0.194146
v 0.539309 0.637329 -0.187260
v 0.548392 0.637329 -0.179631
v 0.557583 0.637329 -0.171256
v 0.510583 0.637329 -0.094256
v 0.503678 0.637329 -0.100583
v 0.496517 0.637329 -0.106543
v 0.489176 0.637329 -0.112100
v 0.481731 0.637329 -0.117219
v 0.474257 0.637329 -0.121866
v 0.466832 0.637329 -0.126006
v 0.459533 0.637329 -0.129604
v 0.452434 0.637329 -0.132626
v 0.445614 0.637329 -0.135037
v 0.439147 0.637329 -0.136802
v 0.433111 0.637329 -0.137887
v 0.427582 0.637329 -0.138256
v 0.412624 0.637329 -0.137011
v 0.398328 0.637329 -0.133381
v 0.384817 0.637329 -0.127521
v 0.372212 0.637329 -0.119589
v 0.360635 0.637329 -0.109740
v 0.350208 0.637329 -0.098131
v 0.341051 0.637329 -0.084917
v 0.333286 0.637329 -0.070256
v 0.327036 0.637329 -0.054303
v 0.322420 0.637329 -0.037214
v 0.319562 0.637329 -0.019146
v 0.318582 0.637329 -0.000256
v 0.318582 0.637329 0.234744
v 0.229582 0.637329 0.234744
v 0.229582 0.637329 -0.214256
v 0.318582 0.637329 -0.214256
v 0.122551 0.637329 0.040257
v 0.116582 0.637329 0.072679
v 0.106864 0.637329 0.102838
v 0.093582 0.637329 0.130559
v 0.076926 0.637329 0.155669
v 0.057082 0.637329 0.177994
v 0.034239 0.637329 0.197361
v 0.008582 0.637329 0.213596
v -0.019699 0.637329 0.226525
v -0.050417 0.637329 0.235976
v -0.083386 0.637329 0.241773
v -0.118418 0.637329 0.243744
v -0.152070 0.637329 0.241697
v -0.183890 0.637329 0.235698
v -0.213668 0.637329 0.225963
v -0.241195 0.637329 0.212707
v -0.266265 0.637329 0.196146
v -0.288668 0.637329 0.176494
v -0.308195 0.637329 0.153968
v -0.324640 0.637329 0.128781
v -0.337793 0.637329 0.101150
v -0.347445 0.637329 0.071290
v -0.353390 0.637329 0.039417
v -0.355417 0.637329 0.005744
v -0.353313 0.637329 -0.025861
v -0.347167 0.637329 -0.056011
v -0.337230 0.637329 -0.084459
v -0.323751 0.637329 -0.110960
v -0.306980 0.637329 -0.135266
v -0.287167 0.637329 -0.157131
v -0.264563 0.637329 -0.176309
v -0.239417 0.637329 -0.192552
v -0.211980 0.637329 -0.205615
v -0.182501 0.637329 -0.215251
v -0.151230 0.637329 -0.221214
v -0.118418 0.637329 -0.223256
v -0.084017 0.637329 -0.221290
v -0.051459 0.637329 -0.215529
v -0.020964 0.637329 -0.206178
v 0.007249 0.637329 -0.193441
v 0.032963 0.637329 -0.177524
v 0.055957 0.637329 -0.158631
v 0.076015 0.637329 -0.136967
v 0.092916 0.637329 -0.112737
v 0.106442 0.637329 -0.086147
v 0.116374 0.637329 -0.057399
v 0.122494 0.637329 -0.026701
v 0.124582 0.637329 0.005744
v -0.263207 0.637329 0.028810
v -0.259649 0.637329 0.050434
v -0.253855 0.637329 0.070510
v -0.245936 0.637329 0.088929
v -0.236003 0.637329 0.105585
v -0.224167 0.637329 0.120369
v -0.210540 0.637329 0.133174
v -0.195232 0.637329 0.143892
v -0.178355 0.637329 0.152416
v -0.160019 0.637329 0.158638
v -0.140336 0.637329 0.162450
v -0.119417 0.637329 0.163744
v -0.096660 0.637329 0.162507
v -0.075445 0.637329 0.158851
v -0.055855 0.637329 0.152854
v -0.037973 0.637329 0.144596
v -0.021883 0.637329 0.134158
v -0.007667 0.637329 0.121619
v 0.004589 0.637329 0.107060
v 0.014805 0.637329 0.090559
v 0.022895 0.637329 0.072197
v 0.028777 0.637329 0.052054
v 0.032367 0.637329 0.030210
v 0.033583 0.637329 0.006744
v 0.032272 0.637329 -0.014483
v 0.028430 0.637329 -0.034575
v 0.022192 0.637329 -0.053397
v 0.013694 0.637329 -0.070811
v 0.003070 0.637329 -0.086685
v -0.009543 0.637329 -0.100881
v -0.024010 0.637329 -0.113265
v -0.040195 0.637329 -0.123700
v -0.057964 0.637329 -0.132053
v -0.077181 0.637329 -0.138186
v -0.097711 0.637329 -0.141966
v -0.119417 0.637329 -0.143256
v -0.139916 0.637329 -0.141967
v -0.159325 0.637329 -0.138191
v -0.177511 0.637329 -0.132068
v -0.194343 0.637329 -0.123737
v -0.209689 0.637329 -0.113337
v -0.223417 0.637329 -0.101006
v -0.235395 0.637329 -0.086883
v -0.245492 0.637329 -0.071108
v -0.253574 0.637329 -0.053818
v -0.259510 0.637329 -0.035154
v -0.263169 0.637329 -0.015254
v -0.264417 0.637329 0.005744
v -0.582847 0.637329 -0.445462
v -0.550607 0.637329 -0.440237
v -0.521652 0.637329 -0.431818
v -0.495936 0.637329 -0.420441
v -0.473415 0.637329 -0.406342
v -0.454042 0.637329 -0.389756
v -0.437775 0.637329 -0.370920
v -0.424566 0.637329 -0.350071
v -0.414371 0.637329 -0.327443
v -0.407144 0.637329 -0.303274
v -0.402842 0.637329 -0.277800
v -0.401418 0.637329 -0.251256
v -0.402926 0.637329 -0.225020
v -0.407482 0.637329 -0.199955
v -0.415136 0.637329 -0.176271
v -0.425936 0.637329 -0.154182
v -0.439930 0.637329 -0.133898
v -0.457168 0.637329 -0.115631
v -0.477696 0.637329 -0.099593
v -0.501566 0.637329 -0.085997
v -0.528824 0.637329 -0.075053
v -0.559519 0.637329 -0.066973
v -0.593701 0.637329 -0.061971
v -0.631418 0.637329 -0.060256
v -0.733418 0.637329 -0.060256
v -0.733418 0.637329 0.234744
v -0.831418 0.637329 0.234744
v -0.831418 0.637329 -0.447256
v -0.618418 0.637329 -0.447256
v -0.622418 0.637329 -0.148256
v -0.604721 0.637329 -0.149063
v -0.588181 0.637329 -0.151460
v -0.572871 0.637329 -0.155412
v -0.558862 0.637329 -0.160885
v -0.546228 0.637329 -0.167845
v -0.535043 0.637329 -0.176256
v -0.525378 0.637329 -0.186083
v -0.517306 0.637329 -0.197293
v -0.510902 0.637329 -0.209850
v -0.506237 0.637329 -0.223719
v -0.503385 0.637329 -0.238866
v -0.502418 0.637329 -0.255256
v -0.503000 0.637329 -0.267806
v -0.504830 0.637329 -0.280321
v -0.508027 0.637329 -0.292600
v -0.512714 0.637329 -0.304441
v -0.519012 0.637329 -0.315644
v -0.527043 0.637329 -0.326006
v -0.536927 0.637329 -0.335326
v -0.548788 0.637329 -0.343404
v -0.562746 0.637329 -0.350037
v -0.578922 0.637329 -0.355024
v -0.597439 0.637329 -0.358164
v -0.618418 0.637329 -0.359256
v -0.733418 0.637329 -0.359256
v -0.733418 0.637329 -0.148256
v 0.865583 0.417329 -0.214256
v 0.865583 0.417329 -0.134256
v 0.723583 0.417329 -0.134256
v 0.723583 0.417329 0.095744
v 0.724345 0.417329 0.108216
v 0.726518 0.417329 0.119184
v 0.729926 0.417329 0.128729
v 0.734397 0.417329 0.136929
v 0.739757 0.417329 0.143866
v 0.745833 0.417329 0.149619
v 0.752450 0.417329 0.154268
v 0.759435 0.417329 0.157892
v 0.766614 0.417329 0.160572
v 0.773814 0.417329 0.162388
v 0.780862 0.417329 0.163418
v 0.787583 0.417329 0.163744
v 0.795604 0.417329 0.163515
v 0.803675 0.417329 0.162827
v 0.811801 0.417329 0.161682
v 0.819990 0.417329 0.160077
v 0.828248 0.417329 0.158015
v 0.836582 0.417329 0.155494
v 0.845000 0.417329 0.152515
v 0.853508 0.417329 0.149077
v 0.862114 0.417329 0.145182
v 0.870823 0.417329 0.140827
v 0.879644 0.417329 0.136015
v 0.888583 0.417329 0.130744
v 0.888583 0.417329 0.213744
v 0.880499 0.417329 0.217906
v 0.871832 0.417329 0.221869
v 0.862707 0.417329 0.225604
v 0.853249 0.417329 0.229077
v 0.843582 0.417329 0.232260
v 0.833832 0.417329 0.235119
v 0.824124 0.417329 0.237624
v 0.814583 0.417329 0.239744
v 0.805332 0.417329 0.241447
v 0.796499 0.417329 0.242702
v 0.788207 0.417329 0.243479
v 0.780582 0.417329 0.243744
v 0.757333 0.417329 0.242517
v 0.736087 0.417329 0.238925
v 0.716848 0.417329 0.233104
v 0.699619 0.417329 0.225189
v 0.684405 0.417329 0.215315
v 0.671207 0.417329 0.203619
v 0.660031 0.417329 0.190235
v 0.650879 0.417329 0.175300
v 0.643754 0.417329 0.158947
v 0.638661 0.417329 0.141314
v 0.635603 0.417329 0.122534
v 0.634582 0.417329 0.102744
v 0.634582 0.417329 -0.134256
v 0.556583 0.417329 -0.134256
v 0.556583 0.417329 -0.144256
v 0.723583 0.417329 -0.307256
v 0.723583 0.417329 -0.214256
v 0.318582 0.417329 -0.111256
v 0.320582 0.417329 -0.111256
v 0.331791 0.417329 -0.130055
v 0.342920 0.417329 -0.146983
v 0.353973 0.417329 -0.162084
v 0.364953 0.417329 -0.175404
v 0.375863 0.417329 -0.186988
v 0.386707 0.417329 -0.196881
v 0.397489 0.417329 -0.205128
v 0.408212 0.417329 -0.211774
v 0.418879 0.417329 -0.216865
v 0.429494 0.417329 -0.220446
v 0.440061 0.417329 -0.222561
v 0.450582 0.417329 -0.223256
v 0.459544 0.417329 -0.222901
v 0.468439 0.417329 -0.221835
v 0.477286 0.417329 -0.220053
v 0.486101 0.417329 -0.217552
v 0.494902 0.417329 -0.214329
v 0.503707 0.417329 -0.210381
v 0.512533 0.417329 -0.205703
v 0.521397 0.417329 -0.200293
v 0.530317 0.417329 -0.194146
v 0.539309 0.417329 -0.187260
v 0.548392 0.417329 -0.179631
v 0.557583 0.417329 -0.171256
v 0.510583 0.417329 -0.094256
v 0.503678 0.417329 -0.100583
v 0.496517 0.417329 -0.106543
v 0.489176 0.417329 -0.112100
v 0.481731 0.417329 -0.117219
v 0.474257 0.417329 -0.121866
v 0.466832 0.417329 -0.126006
v 0.459533 0.417329 -0.129604
v 0.452434 0.417329 -0.132626
v 0.445614 0.417329 -0.135037
v 0.439147 0.417329 -0.136802
v 0.433111 0.417329 -0.137887
v 0.427582 0.417329 -0.138256
v 0.412624 0.417329 -0.137011
v 0.398328 0.417329 -0.133381
v 0.384817 0.417329 -0.127521
v 0.372212 0.417329 -0.119589
v 0.360635 0.417329 -0.109740
v 0.350208 0.417329 -0.098131
v 0.341051 0.417329 -0.084917
v 0.333286 0.417329 -0.070256
v 0.327036 0.417329 -0.054303
v 0.322420 0.417329 -0.037214
v 0.319562 0.417329 -0.019146
v 0.318582 0.417329 -0.000256
v 0.318582 0.417329 0.234744
v 0.229582 0.417329 0.234744
v 0.229582 0.417329 -0.214256
v 0.318582 0.417329 -0.214256
v 0.122551 0.417329 0.040257
v 0.116582 0.417329 0.072679
v 0.106864 0.417329 0.102838
v 0.093582 0.417329 0.130559
v 0.076926 0.417329 0.155669
v 0.057082 0.417329 0.177994
v 0.034239 0.417329 0.197361
v 0.008582 0.417329 0.213596
v -0.019699 0.417329 0.226525
v -0.050417 0.417329 0.235976
v -0.083386 0.417329 0.241773
v -0.118418 0.417329 0.243744
v -0.152070 0.417329 0.241697
v -0.183890 0.417329 0.235698
v -0.213668 0.417329 0.225963
v -0.241195 0.417329 0.212707
v -0.266265 0.417329 0.196146
v -0.288668 0.417329 0.176494
v -0.308195 0.417329 0.153968
v -0.324640 0.417329 0.128781
v -0.337793 0.417329 0.101150
v -0.347445 0.417329 0.071290
v -0.353390 0.417329 0.039417
v -0.355417 0.417329 0.005744
v -0.353313 0.417329 -0.025861
v -0.347167 0.417329 -0.056011
v -0.337230 0.417329 -0.084459
v -0.323751 0.417329 -0.110960
v -0.306980 0.417329 -0.135266
v -0.287167 0.417329 -0.157131
v -0.264563 0.417329 -0.176309
v -0.239417 0.417329 -0.192552
v -0.211980 0.417329 -0.205615
v -0.182501 0.417329 -0.215251
v -0.151230 0.417329 -0.221214
v -0.118418 0.417329 -0.223256
v -0.084017 0.417329 -0.221290
v -0.051459 0.417329 -0.215529
v -0.020964 0.417329 -0.206178
v 0.007249 0.417329 -0.193441
v 0.032963 0.417329 -0.177524
v 0.055957 0.417329 -0.158631
v 0.076015 0.417329 -0.136967
v 0.092916 0.417329 -0.112737
v 0.106442 0.417329 -0.086147
v 0.116374 0.417329 -0.057399
v 0.122494 0.417329 -0.026701
v 0.124582 0.417329 0.005744
v -0.263207 0.417329 0.028810
v -0.259649 0.417329 0.050434
v -0.253855 0.417329 0.070510
v -0.245936 0.417329 0.088929
v -0.236003 0.417329 0.105585
v -0.224167 0.417329 0.120369
v -0.210540 0.417329 0.133174
v -0.195232 0.417329 0.143892
v -0.178355 0.417329 0.152416
v -0.160019 0.417329 0.158638
v -0.140336 0.417329 0.162450
v -0.119417 0.417329 0.163744
v -0.096660 0.417329 0.162507
v -0.075445 0.417329 0.158851
v -0.055855 0.417329 0.152854
v -0.037973 0.417329 0.144596
v -0.021883 0.417329 0.134158
v -0.007667 0.417329 0.121619
v 0.004589 0.417329 0.107060
v 0.014805 0.417329 0.090559
v 0.022895 0.417329 0.072197
v 0.028777 0.417329 0.052054
v 0.032367 0.417329 0.030210
v 0.033583 0.417329 0.006744
v 0.032272 0.417329 -0.014483
v 0.028430 0.417329 -0.034575
v 0.022192 0.417329 -0.053397
v 0.013694 0.417329 -0.070811
v 0.003070 0.417329 -0.086685
v -0.009543 0.417329 -0.100881
v -0.024010 0.417329 -0.113265
v -0.040195 0.417329 -0.123700
v -0.057964 0.417329 -0.132053
v -0.077181 0.417329 -0.138186
v -0.097711 0.417329 -0.141966
v -0.119417 0.417329 -0.143256
v -0.139916 0.417329 -0.141967
v -0.159325 0.417329 -0.138191
v -0.177511 0.417329 -0.132068
v -0.194343 0.417329 -0.123737
v -0.209689 0.417329 -0.113337
v -0.223417 0.417329 -0.101006
v -0.235395 0.417329 -0.086883
v -0.245492 0.417329 -0.071108
v -0.253574 0.417329 -0.053818
v -0.259510 0.417329 -0.035154
v -0.263169 0.417329 -0.015254
v -0.264417 0.417329 0.005744
v -0.582847 0.417329 -0.445462
v -0.550607 0.417329 -0.440237
v -0.521652 0.417329 -0.431818
v -0.495936 0.417329 -0.420441
v -0.473415 0.417329 -0.406342
v -0.454042 0.417329 -0.389756
v -0.437775 0.417329 -0.370920
v -0.424566 0.417329 -0.350071
v -0.414371 0.417329 -0.327443
v -0.407144 0.417329 -0.303274
v -0.402842 0.417329 -0.277800
v -0.401418 0.417329 -0.251256
v -0.402926 0.417329 -0.225020
v -0.407482 0.417329 -0.199955
v -0.415136 0.417329 -0.176271
v -0.425936 0.417329 -0.154182
v -0.439930 0.417329 -0.133898
v -0.457168 0.417329 -0.115631
v -0.477696 0.417329 -0.099593
v -0.501566 0.417329 -0.085997
v -0.528824 0.417329 -0.075053
v -0.559519 0.417329 -0.066973
v -0.593701 0.417329 -0.061971
v -0.631418 0.417329 -0.060256
v -0.733418 0.417329 -0.060256
v -0.733418 0.417329 0.234744
v -0.831418 0.417329 0.234744
v -0.831418 0.417329 -0.447256
v -0.618418 0.417329 -0.447256
v -0.622418 0.417329 -0.148256
v -0.604721 0.417329 -0.149063
v -0.588181 0.417329 -0.151460
v -0.572871 0.417329 -0.155412
v -0.558862 0.417329 -0.160885
v -0.546228 0.417329 -0.167845
v -0.535043 0.417329 -0.176256
v -0.525378 0.417329 -0.186083
v -0.517306 0.417329 -0.197293
v -0.510902 0.417329 -0.209850
v -0.506237 0.417329 -0.223719
v -0.503385 0.417329 -0.238866
v -0.502418 0.417329 -0.255256
v -0.503000 0.417329 -0.267806
v -0.504830 0.417329 -0.280321
v -0.508027 0.417329 -0.292600
v -0.512714 0.417329 -0.304441
v -0.519012 0.417329 -0.315644
v -0.527043 0.417329 -0.326006
v -0.536927 0.417329 -0.335326
v -0.548788 0.417329 -0.343404
v -0.562746 0.417329 -0.350037
v -0.578922 0.417329 -0.355024
v -0.597439 0.417329 -0.358164
v -0.618418 0.417329 -0.359256
v -0.733418 0.417329 -0.359256
v -0.733418 0.417329 -0.148256
v -0.582847 0.417329 -0.445462
v -0.582847 0.637329 -0.445462
v -0.550607 0.417329 -0.440237
v -0.550607 0.637329 -0.440237
v -0.521652 0.417329 -0.431818
v -0.521652 0.637329 -0.431818
v -0.495936 0.417329 -0.420441
v -0.495936 0.637329 -0.420441
v -0.473415 0.417329 -0.406342
v -0.473415 0.637329 -0.406342
v -0.454042 0.417329 -0.389756
v -0.454042 0.637329 -0.389756
v -0.437775 0.417329 -0.370920
v -0.437775 0.637329 -0.370920
v -0.424566 0.417329 -0.350071
v -0.424566 0.637329 -0.350071
v -0.414371 0.417329 -0.327443
v -0.414371 0.637329 -0.327443
v -0.407144 0.417329 -0.303274
v -0.407144 0.637329 -0.303274
v -0.402842 0.417329 -0.277800
v -0.402842 0.637329 -0.277800
v -0.401418 0.417329 -0.251256
v -0.401418 0.637329 -0.251256
v -0.402926 0.417329 -0.225020
v -0.402926 0.637329 -0.225020
v -0.407482 0.417329 -0.199955
v -0.407482 0.637329 -0.199955
v -0.415136 0.417329 -0.176271
v -0.415136 0.637329 -0.176271
v -0.425936 0.417329 -0.154182
v -0.425936 0.637329 -0.154182
v -0.439930 0.417329 -0.133898
v -0.439930 0.637329 -0.133898
v -0.457168 0.417329 -0.115631
v -0.457168 0.637329 -0.115631
v -0.477696 0.417329 -0.099593
v -0.477696 0.637329 -0.099593
v -0.501566 0.417329 -0.085997
v -0.501566 0.637329 -0.085997
v -0.528824 0.417329 -0.075053
v -0.528824 0.637329 -0.075053
v -0.559519 0.417329 -0.066973
v -0.559519 0.637329 -0.066973
v -0.593701 0.417329 -0.061971
v -0.593701 0.637329 -0.061971
v -0.631418 0.417329 -0.060256
v -0.631418 0.637329 -0.060256
v -0.733418 0.417329 -0.060256
v -0.733418 0.637329 -0.060256
v -0.733418 0.417329 0.234744
v -0.733418 0.637329 0.234744
v -0.831418 0.417329 0.234744
v -0.831418 0.637329 0.234744
v -0.831418 0.417329 -0.447256
v -0.831418 0.637329 -0.447256
v -0.618418 0.417329 -0.447256
v -0.618418 0.637329 -0.447256
v -0.622418 0.417329 -0.148256
v -0.622418 0.637329 -0.148256
v -0.604721 0.417329 -0.149063
v -0.604721 0.637329 -0.149063
v -0.588181 0.417329 -0.151460
v -0.588181 0.637329 -0.151460
v -0.572871 0.417329 -0.155412
v -0.572871 0.637329 -0.155412
v -0.558862 0.417329 -0.160885
v -0.558862 0.637329 -0.160885
v -0.546228 0.417329 -0.167845
v -0.546228 0.637329 -0.167845
v -0.535043 0.417329 -0.176256
v -0.535043 0.637329 -0.176256
v -0.525378 0.417329 -0.186083
v -0.525378 0.637329 -0.186083
v -0.517306 0.417329 -0.197293
v -0.517306 0.637329 -0.197293
v -0.510902 0.417329 -0.209850
v -0.510902 0.637329 -0.209850
v -0.506237 0.417329 -0.223719
v -0.506237 0.637329 -0.223719
v -0.503385 0.417329 -0.238866
v -0.503385 0.637329 -0.238866
v -0.502418 0.417329 -0.255256
v -0.502418 0.637329 -0.255256
v -0.503000 0.417329 -0.267806
v -0.503000 0.637329 -0.267806
v -0.504830 0.417329 -0.280321
v -0.504830 0.637329 -0.280321
v -0.508027 0.417329 -0.292600
v -0.508027 0.637329 -0.292600
v -0.512714 0.417329 -0.304441
v -0.512714 0.637329 -0.304441
v -0.519012 0.417329 -0.315644
v -0.519012 0.637329 -0.315644
v -0.527043 0.417329 -0.326006
v -0.527043 0.637329 -0.326006
v -0.536927 0.417329 -0.335326
v -0.536927 0.637329 -0.335326
v -0.548788 0.417329 -0.343404
v -0.548788 0.637329 -0.343404
v -0.562746 0.417329 -0.350037
v -0.562746 0.637329 -0.350037
v -0.578922 0.417329 -0.355024
v -0.578922 0.637329 -0.355024
v -0.597439 0.417329 -0.358164
v -0.597439 0.637329 -0.358164
v -0.618418 0.417329 -0.359256
v -0.618418 0.637329 -0.359256
v -0.733418 0.417329 -0.359256
v -0.733418 0.637329 -0.359256
v -0.733418 0.417329 -0.148256
v -0.733418 0.637329 -0.148256
v 0.122551 0.417329 0.040257
v 0.122551 0.637329 0.040257
v 0.116582 0.417329 0.072679
v 0.116582 0.637329 0.072679
v 0.106864 0.417329 0.102838
v 0.106864 0.637329 0.102838
v 0.093582 0.417329 0.130559
v 0.093582 0.637329 0.130559
v 0.076926 0.417329 0.155669
v 0.076926 0.637329 0.155669
v 0.057082 0.417329 0.177994
v 0.057082 0.637329 0.177994
v 0.034239 0.417329 0.197361
v 0.034239 0.637329 0.197361
v 0.008582 0.417329 0.213596
v 0.008582 0.637329 0.213596
v -0.019699 0.417329 0.226525
v -0.019699 0.637329 0.226525
v -0.050417 0.417329 0.235976
v -0.050417 0.637329 0.235976
v -0.083386 0.417329 0.241773
v -0.083386 0.637329 0.241773
v -0.118418 0.417329 0.243744
v -0.118418 0.637329 0.243744
v -0.152070 0.417329 0.241697
v -0.152070 0.637329 0.241697
v -0.183890 0.417329 0.235698
v -0.183890 0.637329 0.235698
v -0.213668 0.417329 0.225963
v -0.213668 0.637329 0.225963
v -0.241195 0.417329 0.212707
v -0.241195 0.637329 0.212707
v -0.266265 0.417329 0.196146
v -0.266265 0.637329 0.196146
v -0.288668 0.417329 0.176494
v -0.288668 0.637329 0.176494
v -0.308195 0.417329 0.153968
v -0.308195 0.637329 0.153968
v -0.324640 0.417329 0.128781
v -0.324640 0.637329 0.128781
v -0.337793 0.417329 0.101150
v -0.337793 0.637329 0.101150
v -0.347445 0.417329 0.071290
v -0.347445 0.637329 0.071290
v -0.353390 0.417329 0.039417
v -0.353390 0.637329 0.039417
v -0.355417 0.417329 0.005744
v -0.355417 0.637329 0.005744
v -0.353313 0.417329 -0.025861
v -0.353313 0.637329 -0.025861
v -0.347167 0.417329 -0.056011
v -0.347167 0.637329 -0.056011
v -0.337230 0.417329 -0.084459
v -0.337230 0.637329 -0.084459
v -0.323751 0.417329 -0.110960
v -0.323751 0.637329 -0.110960
v -0.306980 0.417329 -0.135266
v -0.306980 0.637329 -0.135266
v -0.287167 0.417329 -0.157131
v -0.287167 0.637329 -0.157131
v -0.264563 0.417329 -0.176309
v -0.264563 0.637329 -0.176309
v -0.239417 0.417329 -0.192552
v -0.239417 0.637329 -0.192552
v -0.211980 0.417329 -0.205615
v -0.211980 0.637329 -0.205615
v -0.182501 0.417329 -0.215251
v -0.182501 0.637329 -0.215251
v -0.151230 0.417329 -0.221214
v -0.151230 0.637329 -0.221214
v -0.118418 0.417329 -0.223256
v -0.118418 0.637329 -0.223256
v -0.084017 0.417329 -0.221290
v -0.084017 0.637329 -0.221290
v -0.051459 0.417329 -0.215529
v -0.051459 0.637329 -0.215529
v -0.020964 0.417329 -0.206178
v -0.020964 0.637329 -0.206178
v 0.007249 0.417329 -0.193441
v 0.007249 0.637329 -0.193441
v 0.032963 0.417329 -0.177524
v 0.032963 0.637329 -0.177524
v 0.055957 0.417329 -0.158631
v 0.055957 0.637329 -0.158631
v 0.076015 0.417329 -0.136967
v 0.076015 0.637329 -0.136967
v 0.092916 0.417329 -0.112737
v 0.092916 0.637329 -0.112737
v 0.106442 0.417329 -0.086147
v 0.106442 0.637329 -0.086147
v 0.116374 0.417329 -0.057399
v 0.116374 0.637329 -0.057399
v 0.122494 0.417329 -0.026701
v 0.122494 0.637329 -0.026701
v 0.124582 0.417329 0.005744
v 0.124582 0.637329 0.005744
v -0.263207 0.417329 0.028810
v -0.263207 0.637329 0.028810
v -0.259649 0.417329 0.050434
v -0.259649 0.637329 0.050434
v -0.253855 0.417329 0.070510
v -0.253855 0.637329 0.070510
v -0.245936 0.417329 0.088929
v -0.245936 0.637329 0.088929
v -0.236003 0.417329 0.105585
v -0.236003 0.637329 0.105585
v -0.224167 0.417329 0.120369
v -0.224167 0.637329 0.120369
v -0.210540 0.417329 0.133174
v -0.210540 0.637329 0.133174
v -0.195232 0.417329 0.143892
v -0.195232 0.637329 0.143892
v -0.178355 0.417329 0.152416
v -0.178355 0.637329 0.152416
v -0.160019 0.417329 0.158638
v -0.160019 0.637329 0.158638
v -0.140336 0.417329 0.162450
v -0.140336 0.637329 0.162450
v -0.119417 0.417329 0.163744
v -0.119417 0.637329 0.163744
v -0.096660 0.417329 0.162507
v -0.096660 0.637329 0.162507
v -0.075445 0.417329 0.158851
v -0.075445 0.637329 0.158851
v -0.055855 0.417329 0.152854
v -0.055855 0.637329 0.152854
v -0.037973 0.417329 0.144596
v -0.037973 0.637329 0.144596
v -0.021883 0.417329 0.134158
v -0.021883 0.637329 0.134158
v -0.007667 0.417329 0.121619
v -0.007667 0.637329 0.121619
v 0.004589 0.417329 0.107060
v 0.004589 0.637329 0.107060
v 0.014805 0.417329 0.090559
v 0.014805 0.637329 0.090559
v 0.022895 0.417329 0.072197
v 0.022895 0.637329 0.072197
v 0.028777 0.417329 0.052054
v 0.028777 0.637329 0.052054
v 0.032367 0.417329 0.030210
v 0.032367 0.637329 0.030210
v 0.033583 0.417329 0.006744
v 0.033583 0.637329 0.006744
v 0.032272 0.417329 -0.014483
v 0.032272 0.637329 -0.014483
v 0.028430 0.417329 -0.034575
v 0.028430 0.637329 -0.034575
v 0.022192 0.417329 -0.053397
v 0.022192 0.637329 -0.053397
v 0.013694 0.417329 -0.070811
v 0.013694 0.637329 -0.070811
v 0.003070 0.417329 -0.086685
v 0.003070 0.637329 -0.086685
v -0.009543 0.417329 -0.100881
v -0.009543 0.637329 -0.100881
v -0.024010 0.417329 -0.113265
v -0.024010 0.637329 -0.113265
v -0.040195 0.417329 -0.123700
v -0.040195 0.637329 -0.123700
v -0.057964 0.417329 -0.132053
v -0.057964 0.637329 -0.132053
v -0.077181 0.417329 -0.138186
v -0.077181 0.637329 -0.138186
v -0.097711 0.417329 -0.141966
v -0.097711 0.637329 -0.141966
v -0.119417 0.417329 -0.143256
v -0.119417 0.637329 -0.143256
v -0.139916 0.417329 -0.141967
v -0.139916 0.637329 -0.141967
v -0.159325 0.417329 -0.138191
v -0.159325 0.637329 -0.138191
v -0.177511 0.417329 -0.132068
v -0.177511 0.637329 -0.132068
v -0.194343 0.417329 -0.123737
v -0.194343 0.637329 -0.123737
v -0.209689 0.417329 -0.113337
v -0.209689 0.637329 -0.113337
v -0.223417 0.417329 -0.101006
v -0.223417 0.637329 -0.101006
v -0.235395 0.417329 -0.086883
v -0.235395 0.637329 -0.086883
v -0.245492 0.417329 -0.071108
v -0.245492 0.637329 -0.071108
v -0.253574 0.417329 -0.053818
v -0.253574 0.637329 -0.053818
v -0.259510 0.417329 -0.035154
v -0.259510 0.637329 -0.035154
v -0.263169 0.417329 -0.015254
v -0.263169 0.637329 -0.015254
v -0.264417 0.417329 0.005744
v -0.264417 0.637329 0.005744
v 0.318582 0.417329 -0.111256
v 0.318582 0.637329 -0.111256
v 0.320582 0.417329 -0.111256
v 0.320582 0.637329 -0.111256
v 0.331791 0.417329 -0.130055
v 0.331791 0.637329 -0.130055
v 0.342920 0.417329 -0.146983
v 0.342920 0.637329 -0.146983
v 0.353973 0.417329 -0.162084
v 0.353973 0.637329 -0.162084
v 0.364953 0.417329 -0.175404
v 0.364953 0.637329 -0.175404
v 0.375863 0.417329 -0.186988
v 0.375863 0.637329 -0.186988
v 0.386707 0.417329 -0.196881
v 0.386707 0.637329 -0.196881
v 0.397489 0.417329 -0.205128
v 0.397489 0.637329 -0.205128
v 0.408212 0.417329 -0.211774
v 0.408212 0.637329 -0.211774
v 0.418879 0.417329 -0.216865
v 0.418879 0.637329 -0.216865
v 0.429494 0.417329 -0.220446
v 0.429494 0.637329 -0.220446
v 0.440061 0.417329 -0.222561
v 0.440061 0.637329 -0.222561
v 0.450582 0.417329 -0.223256
v 0.450582 0.637329 -0.223256
v 0.459544 0.417329 -0.222901
v 0.459544 0.637329 -0.222901
v 0.468439 0.417329 -0.221835
v 0.468439 0.637329 -0.221835
v 0.477286 0.417329 -0.220053
v 0.477286 0.637329 -0.220053
v 0.486101 0.417329 -0.217552
v 0.486101 0.637329 -0.217552
v 0.494902 0.417329 -0.214329
v 0.494902 0.637329 -0.214329
v 0.503707 0.417329 -0.210381
v 0.503707 0.637329 -0.210381
v 0.512533 0.417329 -0.205703
v 0.512533 0.637329 -0.205703
v 0.521397 0.417329 -0.200293
v 0.521397 0.637329 -0.200293
v 0.530317 0.417329 -0.194146
v 0.530317 0.637329 -0.194146
v 0.539309 0.417329 -0.187260
v 0.539309 0.637329 -0.187260
v 0.548392 0.417329 -0.179631
v 0.548392 0.637329 -0.179631
v 0.557583 0.417329 -0.171256
v 0.557583 0.637329 -0.171256
v 0.510583 0.417329 -0.094256
v 0.510583 0.637329 -0.094256
v 0.503678 0.417329 -0.100583
v 0.503678 0.637329 -0.100583
v 0.496517 0.417329 -0.106543
v 0.496517 0.637329 -0.106543
v 0.489176 0.417329 -0.112100
v 0.489176 0.637329 -0.112100
v 0.481731 0.417329 -0.117219
v 0.481731 0.637329 -0.117219
v 0.474257 0.417329 -0.121866
v 0.474257 0.637329 -0.121866
v 0.466832 0.417329 -0.126006
v 0.466832 0.637329 -0.126006
v 0.459533 0.417329 -0.129604
v 0.459533 0.637329 -0.129604
v 0.452434 0.417329 -0.132626
v 0.452434 0.637329 -0.132626
v 0.445614 0.417329 -0.135037
v 0.445614 0.637329 -0.135037
v 0.439147 0.417329 -0.136802
v 0.439147 0.637329 -0.136802
v 0.433111 0.417329 -0.137887
v 0.433111 0.637329 -0.137887
v 0.427582 0.417329 -0.138256
v 0.427582 0.637329 -0.138256
v 0.412624 0.417329 -0.137011
v 0.412624 0.637329 -0.137011
v 0.398328 0.417329 -0.133381
v 0.398328 0.637329 -0.133381
v 0.384817 0.417329 -0.127521
v 0.384817 0.637329 -0.127521
v 0.372212 0.417329 -0.119589
v 0.372212 0.637329 -0.119589
v 0.360635 0.417329 -0.109740
v 0.360635 0.637329 -0.109740
v 0.350208 0.417329 -0.098131
v 0.350208 0.637329 -0.098131
v 0.341051 0.417329 -0.084917
v 0.341051 0.637329 -0.084917
v 0.333286 0.417329 -0.070256
v 0.333286 0.637329 -0.070256
v 0.327036 0.417329 -0.054303
v 0.327036 0.637329 -0.054303
v 0.322420 0.417329 -0.037214
v 0.322420 0.637329 -0.037214
v 0.319562 0.417329 -0.019146
v 0.319562 0.637329 -0.019146
v 0.318582 0.417329 -0.000256
v 0.318582 0.637329 -0.000256
v 0.318582 0.417329 0.234744
v 0.318582 0.637329 0.234744
v 0.229582 0.417329 0.234744
v 0.229582 0.637329 0.234744
v 0.229582 0.417329 -0.214256
v 0.229582 0.637329 -0.214256
v 0.318582 0.417329 -0.214256
v 0.318582 0.637329 -0.214256
v 0.865583 0.417329 -0.214256
v 0.865583 0.637329 -0.214256
v 0.865583 0.417329 -0.134256
v 0.865583 0.637329 -0.134256
v 0.723583 0.417329 -0.134256
v 0.723583 0.637329 -0.134256
v 0.723583 0.417329 0.095744
v 0.723583 0.637329 0.095744
v 0.724345 0.417329 0.108216
v 0.724345 0.637329 0.108216
v 0.726518 0.417329 0.119184
v 0.726518 0.637329 0.119184
v 0.729926 0.417329 0.128729
v 0.729926 0.637329 0.128729
v 0.734397 0.417329 0.136929
v 0.734397 0.637329 0.136929
v 0.739757 0.417329 0.143866
v 0.739757 0.637329 0.143866
v 0.745833 0.417329 0.149619
v 0.745833 0.637329 0.149619
v 0.752450 0.417329 0.154268
v 0.752450 0.637329 0.154268
v 0.759435 0.417329 0.157892
v 0.759435 0.637329 0.157892
v 0.766614 0.417329 0.160572
v 0.766614 0.637329 0.160572
v 0.773814 0.417329 0.162388
v 0.773814 0.637329 0.162388
v 0.780862 0.417329 0.163418
v 0.780862 0.637329 0.163418
v 0.787583 0.417329 0.163744
v 0.787583 0.637329 0.163744
v 0.795604 0.417329 0.163515
v 0.795604 0.637329 0.163515
v 0.803675 0.417329 0.162827
v 0.803675 0.637329 0.162827
v 0.811801 0.417329 0.161682
v 0.811801 0.637329 0.161682
v 0.819990 0.417329 0.160077
v 0.819990 0.637329 0.160077
v 0.828248 0.417329 0.158015
v 0.828248 0.637329 0.158015
v 0.836582 0.417329 0.155494
v 0.836582 0.637329 0.155494
v 0.845000 0.417329 0.152515
v 0.845000 0.637329 0.152515
v 0.853508 0.417329 0.149077
v 0.853508 0.637329 0.149077
v 0.862114 0.417329 0.145182
v 0.862114 0.637329 0.145182
v 0.870823 0.417329 0.140827
v 0.870823 0.637329 0.140827
v 0.879644 0.417329 0.136015
v 0.879644 0.637329 0.136015
v 0.888583 0.417329 0.130744
v 0.888583 0.637329 0.130744
v 0.888583 0.417329 0.213744
v 0.888583 0.637329 0.213744
v 0.880499 0.417329 0.217906
v 0.880499 0.637329 0.217906
v 0.871832 0.417329 0.221869
v 0.871832 0.637329 0.221869
v 0.862707 0.417329 0.225604
v 0.862707 0.637329 0.225604
v 0.853249 0.417329 0.229077
v 0.853249 0.637329 0.229077
v 0.843582 0.417329 0.232260
v 0.843582 0.637329 0.232260
v 0.833832 0.417329 0.235119
v 0.833832 0.637329 0.235119
v 0.824124 0.417329 0.237624
v 0.824124 0.637329 0.237624
v 0.814583 0.417329 0.239744
v 0.814583 0.637329 0.239744
v 0.805332 0.417329 0.241447
v 0.805332 0.637329 0.241447
v 0.796499 0.417329 0.242702
v 0.796499 0.637329 0.242702
v 0.788207 0.417329 0.243479
v 0.788207 0.637329 0.243479
v 0.780582 0.417329 0.243744
v 0.780582 0.637329 0.243744
v 0.757333 0.417329 0.242517
v 0.757333 0.637329 0.242517
v 0.736087 0.417329 0.238925
v 0.736087 0.637329 0.238925
v 0.716848 0.417329 0.233104
v 0.716848 0.637329 0.233104
v 0.699619 0.417329 0.225189
v 0.699619 0.637329 0.225189
v 0.684405 0.417329 0.215315
v 0.684405 0.637329 0.215315
v 0.671207 0.417329 0.203619
v 0.671207 0.637329 0.203619
v 0.660031 0.417329 0.190235
v 0.660031 0.637329 0.190235
v 0.650879 0.417329 0.175300
v 0.650879 0.637329 0.175300
v 0.643754 0.417329 0.158947
v 0.643754 0.637329 0.158947
v 0.638661 0.417329 0.141314
v 0.638661 0.637329 0.141314
v 0.635603 0.417329 0.122534
v 0.635603 0.637329 0.122534
v 0.634582 0.417329 0.102744
v 0.634582 0.637329 0.102744
v 0.634582 0.417329 -0.134256
v 0.634582 0.637329 -0.134256
v 0.556583 0.417329 -0.134256
v 0.556583 0.637329 -0.134256
v 0.556583 0.417329 -0.144256
v 0.556583 0.637329 -0.144256
v 0.723583 0.417329 -0.307256
v 0.723583 0.637329 -0.307256
v 0.723583 0.417329 -0.214256
v 0.723583 0.637329 -0.214256
vn -1.0000 -0.0000 -0.0000
vn -0.0000 -0.0000 -1.0000
vn 1.0000 -0.0000 -0.0000
vn -0.0000 -0.0000 1.0000
vn -0.0000 -1.0000 -0.0000
vn -0.0000 1.0000 -0.0000
vn -0.0003 1.0000 -0.0000
vn 0.0001 -1.0000 -0.0000
vn 0.1053 -0.0000 -0.9944
vn 0.2200 -0.0000 -0.9755
vn 0.3427 -0.0000 -0.9395
vn 0.4688 -0.0000 -0.8833
vn 0.5921 -0.0000 -0.8058
vn 0.7056 -0.0000 -0.7086
vn 0.8030 -0.0000 -0.5960
vn 0.8804 -0.0000 -0.4742
vn 0.9370 -0.0000 -0.3494
vn 0.9739 -0.0000 -0.2269
vn 0.9939 -0.0000 -0.1102
vn 1.0000 -0.0000 0.0019
vn 0.9930 -0.0000 0.1183
vn 0.9698 -0.0000 0.2437
vn 0.9273 -0.0000 0.3743
vn 0.8631 -0.0000 0.5050
vn 0.7775 -0.0000 0.6289
vn 0.6734 -0.0000 0.7393
vn 0.5568 -0.0000 0.8307
vn 0.4348 -0.0000 0.9005
vn 0.3142 -0.0000 0.9494
vn 0.2000 -0.0000 0.9798
vn 0.0952 -0.0000 0.9955
vn 0.0227 -0.0000 0.9997
vn 0.7071 -0.0000 0.7071
vn -0.7071 -0.0000 0.7071
vn -0.7071 -0.0000 -0.7071
vn 0.0252 -0.0000 -0.9997
vn -0.0228 -0.0000 -0.9997
vn -0.0946 -0.0000 -0.9955
vn -0.1970 -0.0000 -0.9804
vn -0.3075 -0.0000 -0.9516
vn -0.4241 -0.0000 -0.9056
vn -0.5431 -0.0000 -0.8397
vn -0.6588 -0.0000 -0.7523
vn -0.7645 -0.0000 -0.6446
vn -0.8536 -0.0000 -0.5209
vn -0.9218 -0.0000 -0.3876
vn -0.9676 -0.0000 -0.2525
vn -0.9925 -0.0000 -0.1222
vn -1.0000 -0.0000 -0.0063
vn -0.9954 -0.0000 0.0956
vn -0.9801 -0.0000 0.1986
vn -0.9505 -0.0000 0.3106
vn -0.9028 -0.0000 0.4300
vn -0.8333 -0.0000 0.5528
vn -0.7405 -0.0000 0.6721
vn -0.6264 -0.0000 0.7795
vn -0.4975 -0.0000 0.8674
vn -0.3629 -0.0000 0.9318
vn -0.2314 -0.0000 0.9729
vn -0.1098 -0.0000 0.9940
vn -0.0260 -0.0000 0.9997
vn 0.7071 -0.0000 -0.7071
vn 0.9928 -0.0000 0.1201
vn 0.9697 -0.0000 0.2444
vn 0.9289 -0.0000 0.3702
vn 0.8697 -0.0000 0.4936
vn 0.7923 -0.0000 0.6101
vn 0.6988 -0.0000 0.7153
vn 0.5921 -0.0000 0.8058
vn 0.4763 -0.0000 0.8793
vn 0.3557 -0.0000 0.9346
vn 0.2341 -0.0000 0.9722
vn 0.1149 -0.0000 0.9934
vn -0.0023 -0.0000 1.0000
vn -0.1232 -0.0000 0.9924
vn -0.2485 -0.0000 0.9686
vn -0.3731 -0.0000 0.9278
vn -0.4937 -0.0000 0.8697
vn -0.6067 -0.0000 0.7949
vn -0.7092 -0.0000 0.7050
vn -0.7983 -0.0000 0.6022
vn -0.8721 -0.0000 0.4894
vn -0.9292 -0.0000 0.3695
vn -0.9693 -0.0000 0.2460
vn -0.9925 -0.0000 0.1220
vn -1.0000 -0.0000 -0.0032
vn -0.9911 -0.0000 -0.1334
vn -0.9641 -0.0000 -0.2654
vn -0.9198 -0.0000 -0.3925
vn -0.8591 -0.0000 -0.5118
vn -0.7838 -0.0000 -0.6210
vn -0.6955 -0.0000 -0.7185
vn -0.5960 -0.0000 -0.8030
vn -0.4873 -0.0000 -0.8733
vn -0.3710 -0.0000 -0.9286
vn -0.2495 -0.0000 -0.9684
vn -0.1250 -0.0000 -0.9922
vn -0.0025 -0.0000 -1.0000
vn 0.1158 -0.0000 -0.9933
vn 0.2341 -0.0000 -0.9722
vn 0.3530 -0.0000 -0.9356
vn 0.4699 -0.0000 -0.8827
vn 0.5819 -0.0000 -0.8133
vn 0.6859 -0.0000 -0.7277
vn 0.7788 -0.0000 -0.6272
vn 0.8578 -0.0000 -0.5140
vn 0.9204 -0.0000 -0.3909
vn 0.9652 -0.0000 -0.2616
vn 0.9915 -0.0000 -0.1302
vn 1.0000 -0.0000 -0.0027
vn 0.9942 -0.0000 -0.1075
vn 0.9755 -0.0000 -0.2202
vn 0.9416 -0.0000 -0.3368
vn 0.8907 -0.0000 -0.4546
vn 0.8217 -0.0000 -0.5699
vn 0.7346 -0.0000 -0.6786
vn 0.6308 -0.0000 -0.7760
vn 0.5135 -0.0000 -0.8581
vn 0.3870 -0.0000 -0.9221
vn 0.2563 -0.0000 -0.9666
vn 0.1262 -0.0000 -0.9920
vn 0.0038 -0.0000 -1.0000
vn -0.1123 -0.0000 -0.9937
vn -0.2318 -0.0000 -0.9728
vn -0.3568 -0.0000 -0.9342
vn -0.4830 -0.0000 -0.8756
vn -0.6045 -0.0000 -0.7966
vn -0.7152 -0.0000 -0.6989
vn -0.8098 -0.0000 -0.5867
vn -0.8848 -0.0000 -0.4659
vn -0.9395 -0.0000 -0.3425
vn -0.9751 -0.0000 -0.2217
vn -0.9942 -0.0000 -0.1071
vn -1.0000 -0.0000 0.0050
vn -0.9922 -0.0000 0.1250
vn -0.9678 -0.0000 0.2517
vn -0.9260 -0.0000 0.3774
vn -0.8669 -0.0000 0.4985
vn -0.7912 -0.0000 0.6116
vn -0.7006 -0.0000 0.7136
vn -0.5975 -0.0000 0.8019
vn -0.4847 -0.0000 0.8747
vn -0.3655 -0.0000 0.9308
vn -0.2431 -0.0000 0.9700
vn -0.1204 -0.0000 0.9927
vn 0.0017 -0.0000 1.0000
vn 0.1271 -0.0000 0.9919
vn 0.2556 -0.0000 0.9668
vn 0.3822 -0.0000 0.9241
vn 0.5035 -0.0000 0.8640
vn 0.6161 -0.0000 0.7877
vn 0.7171 -0.0000 0.6970
vn 0.8043 -0.0000 0.5943
vn 0.8760 -0.0000 0.4823
vn 0.9314 -0.0000 0.3640
vn 0.9702 -0.0000 0.2424
vn 0.9927 -0.0000 0.1203
vn 1.0000 -0.0000 0.0035
vn -0.4939 -0.0000 -0.8695
vn -0.8475 -0.0000 -0.5309
vn -0.8215 -0.0000 -0.5702
vn -0.7896 -0.0000 -0.6136
vn -0.7502 -0.0000 -0.6612
vn -0.7015 -0.0000 -0.7127
vn -0.6414 -0.0000 -0.7672
vn -0.5679 -0.0000 -0.8231
vn -0.4795 -0.0000 -0.8775
vn -0.3758 -0.0000 -0.9267
vn -0.2585 -0.0000 -0.9660
vn -0.1314 -0.0000 -0.9913
vn -0.0132 -0.0000 -0.9999
vn 0.0794 -0.0000 -0.9968
vn 0.1584 -0.0000 -0.9874
vn 0.2353 -0.0000 -0.9719
vn 0.3086 -0.0000 -0.9512
vn 0.3767 -0.0000 -0.9263
vn 0.4390 -0.0000 -0.8985
vn 0.4949 -0.0000 -0.8690
vn 0.5444 -0.0000 -0.8388
vn 0.5879 -0.0000 -0.8089
vn 0.6257 -0.0000 -0.7800
vn 0.6585 -0.0000 -0.7526
vn 0.9900 -0.0000 -0.1414
vn 0.1400 -0.0000 0.9902
vn -0.6579 -0.0000 0.7531
vn -0.6218 -0.0000 0.7832
vn -0.5852 -0.0000 0.8109
vn -0.5474 -0.0000 0.8368
vn -0.5077 -0.0000 0.8616
vn -0.4647 -0.0000 0.8855
vn -0.4171 -0.0000 0.9089
vn -0.3627 -0.0000 0.9319
vn -0.2985 -0.0000 0.9544
vn -0.2203 -0.0000 0.9754
vn -0.1219 -0.0000 0.9925
vn 0.0082 -0.0000 1.0000
vn 0.1651 -0.0000 0.9863
vn 0.3230 -0.0000 0.9464
vn 0.4666 -0.0000 0.8845
vn 0.5918 -0.0000 0.8061
vn 0.6975 -0.0000 0.7166
vn 0.7845 -0.0000 0.6201
vn 0.8543 -0.0000 0.5197
vn 0.9089 -0.0000 0.4171
vn 0.9497 -0.0000 0.3132
vn 0.9780 -0.0000 0.2088
vn 0.9946 -0.0000 0.1042
vn 0.9997 -0.0000 0.0259
vn 0.9995 -0.0000 -0.0305
vn 0.9918 -0.0000 -0.1280
vn 0.9640 -0.0000 -0.2660
vn 0.9126 -0.0000 -0.4087
vn 0.8373 -0.0000 -0.5468
vn 0.7417 -0.0000 -0.6708
vn 0.6329 -0.0000 -0.7742
vn 0.5189 -0.0000 -0.8548
vn 0.4059 -0.0000 -0.9139
vn 0.2975 -0.0000 -0.9547
vn 0.1948 -0.0000 -0.9808
vn 0.0967 -0.0000 -0.9953
vn 0.0099 -0.0000 -1.0000
vn -0.0567 -0.0000 -0.9984
vn -0.1660 -0.0000 -0.9861
vn -0.2174 -0.0000 -0.9761
vn -0.2660 -0.0000 -0.9640
vn -0.3117 -0.0000 -0.9502
vn -0.3542 -0.0000 -0.9352
vn -0.3936 -0.0000 -0.9193
vn -0.4299 -0.0000 -0.9029
vn -0.4631 -0.0000 -0.8863
vn -0.4935 -0.0000 -0.8697
vn 0.4960 -0.0000 -0.8683
vn 0.8537 -0.0000 0.5207
vn 0.4369 -0.0000 0.8995
vn 0.3974 -0.0000 0.9176
vn 0.3618 -0.0000 0.9322
vn 0.3288 -0.0000 0.9444
vn 0.2971 -0.0000 0.9548
vn 0.2657 -0.0000 0.9641
vn 0.2334 -0.0000 0.9724
vn 0.1990 -0.0000 0.9800
vn 0.1609 -0.0000 0.9870
vn 0.1170 -0.0000 0.9931
vn 0.0640 -0.0000 0.9979
vn -0.0090 -0.0000 1.0000
vn -0.1099 -0.0000 0.9939
vn -0.2286 -0.0000 0.9735
vn -0.3544 -0.0000 0.9351
vn -0.4822 -0.0000 0.8761
vn -0.6055 -0.0000 0.7958
vn -0.7174 -0.0000 0.6966
vn -0.8123 -0.0000 0.5833
vn -0.8868 -0.0000 0.4621
vn -0.9407 -0.0000 0.3392
vn -0.9756 -0.0000 0.2195
vn -0.9943 -0.0000 0.1063
vn -0.9997 -0.0000 0.0258
vn -0.9215 -0.0000 -0.3883
vn 0.3883 -0.0000 -0.9215
vt 0.110459 0.755431
vt 0.158689 0.755431
vt 0.158689 0.803662
vt 0.110459 0.803662
vt 0.158689 0.851892
vt 0.110459 0.851892
vt 0.158689 0.900122
vt 0.110459 0.900122
vt 0.158689 0.948353
vt 0.110459 0.948353
vt 0.062228 0.851892
vt 0.062228 0.900122
vt 0.206919 0.851892
vt 0.206919 0.900122
vt 0.903313 0.077902
vt 0.909794 0.077902
vt 0.906553 0.077902
vt 0.725088 0.077902
vt 0.728329 0.077902
vt 0.900072 0.077902
vt 0.896832 0.077902
vt 0.893591 0.077902
vt 0.731569 0.077902
vt 0.734810 0.077902
vt 0.738050 0.077902
vt 0.890351 0.077902
vt 0.741291 0.077902
vt 0.744531 0.077902
vt 0.887111 0.077902
vt 0.747772 0.077902
vt 0.809340 0.077902
vt 0.815821 0.077902
vt 0.812580 0.077902
vt 0.806099 0.077902
vt 0.751012 0.077902
vt 0.802859 0.077902
vt 0.883870 0.077902
vt 0.754252 0.077902
vt 0.799619 0.077902
vt 0.796378 0.077902
vt 0.757493 0.077902
vt 0.793138 0.077902
vt 0.760733 0.077902
vt 0.789897 0.077902
vt 0.763974 0.077902
vt 0.786657 0.077902
vt 0.880630 0.077902
vt 0.783416 0.077902
vt 0.767214 0.077902
vt 0.780176 0.077902
vt 0.770455 0.077902
vt 0.776935 0.077902
vt 0.773695 0.077902
vt 0.877389 0.077902
vt 0.874149 0.077902
vt 0.870908 0.077902
vt 0.819061 0.077902
vt 0.867668 0.077902
vt 0.822302 0.077902
vt 0.825542 0.077902
vt 0.864427 0.077902
vt 0.828783 0.077902
vt 0.832023 0.077902
vt 0.835263 0.077902
vt 0.861187 0.077902
vt 0.838504 0.077902
vt 0.841744 0.077902
vt 0.857947 0.077902
vt 0.844985 0.077902
vt 0.848225 0.077902
vt 0.854706 0.077902
vt 0.851466 0.077902
vt 0.766134 0.077902
vt 0.772975 0.077902
vt 0.769554 0.077902
vt 0.776395 0.077902
vt 0.762713 0.077902
vt 0.779816 0.077902
vt 0.759293 0.077902
vt 0.783236 0.077902
vt 0.755873 0.077902
vt 0.790077 0.077902
vt 0.902953 0.077902
vt 0.906373 0.077902
vt 0.752452 0.077902
vt 0.793498 0.077902
vt 0.796918 0.077902
vt 0.749032 0.077902
vt 0.800339 0.077902
vt 0.745611 0.077902
vt 0.803759 0.077902
vt 0.807180 0.077902
vt 0.742191 0.077902
vt 0.810600 0.077902
vt 0.738770 0.077902
vt 0.844805 0.077902
vt 0.841384 0.077902
vt 0.837964 0.077902
vt 0.834543 0.077902
vt 0.831123 0.077902
vt 0.827702 0.077902
vt 0.824282 0.077902
vt 0.820861 0.077902
vt 0.817441 0.077902
vt 0.814021 0.077902
vt 0.735350 0.077902
vt 0.851646 0.077902
vt 0.731929 0.077902
vt 0.858487 0.077902
vt 0.855066 0.077902
vt 0.861907 0.077902
vt 0.865328 0.077902
vt 0.728509 0.077902
vt 0.868748 0.077902
vt 0.872168 0.077902
vt 0.885850 0.077902
vt 0.882430 0.077902
vt 0.879009 0.077902
vt 0.875589 0.077902
vt 0.889271 0.077902
vt 0.892691 0.077902
vt 0.896112 0.077902
vt 0.899532 0.077902
vt 0.791193 0.077902
vt 0.795082 0.077902
vt 0.797026 0.077902
vt 0.789249 0.077902
vt 0.798970 0.077902
vt 0.787305 0.077902
vt 0.800915 0.077902
vt 0.785361 0.077902
vt 0.804803 0.077902
vt 0.781472 0.077902
vt 0.806748 0.077902
vt 0.779528 0.077902
vt 0.886462 0.077902
vt 0.888407 0.077902
vt 0.884518 0.077902
vt 0.882574 0.077902
vt 0.892295 0.077902
vt 0.808692 0.077902
vt 0.777584 0.077902
vt 0.894239 0.077902
vt 0.878685 0.077902
vt 0.896184 0.077902
vt 0.876741 0.077902
vt 0.898128 0.077902
vt 0.874797 0.077902
vt 0.810636 0.077902
vt 0.775639 0.077902
vt 0.872853 0.077902
vt 0.902017 0.077902
vt 0.903961 0.077902
vt 0.868964 0.077902
vt 0.814525 0.077902
vt 0.771751 0.077902
vt 0.905905 0.077902
vt 0.867020 0.077902
vt 0.907849 0.077902
vt 0.865075 0.077902
vt 0.816469 0.077902
vt 0.769807 0.077902
vt 0.863131 0.077902
vt 0.767862 0.077902
vt 0.818413 0.077902
vt 0.820357 0.077902
vt 0.859243 0.077902
vt 0.765918 0.077902
vt 0.727033 0.077902
vt 0.857298 0.077902
vt 0.824246 0.077902
vt 0.855354 0.077902
vt 0.728977 0.077902
vt 0.826190 0.077902
vt 0.853410 0.077902
vt 0.762029 0.077902
vt 0.730921 0.077902
vt 0.828134 0.077902
vt 0.830079 0.077902
vt 0.849521 0.077902
vt 0.760085 0.077902
vt 0.732865 0.077902
vt 0.847577 0.077902
vt 0.833967 0.077902
vt 0.845633 0.077902
vt 0.835912 0.077902
vt 0.843689 0.077902
vt 0.758141 0.077902
vt 0.837856 0.077902
vt 0.839800 0.077902
vt 0.756197 0.077902
vt 0.736754 0.077902
vt 0.738698 0.077902
vt 0.752308 0.077902
vt 0.740642 0.077902
vt 0.750364 0.077902
vt 0.742587 0.077902
vt 0.748420 0.077902
vt 0.746475 0.077902
vt 0.812404 0.077902
vt 0.906435 0.077902
vt 0.815762 0.077902
vt 0.819120 0.077902
vt 0.728447 0.077902
vt 0.731805 0.077902
vt 0.735163 0.077902
vt 0.738521 0.077902
vt 0.741880 0.077902
vt 0.745238 0.077902
vt 0.903077 0.077902
vt 0.748596 0.077902
vt 0.899719 0.077902
vt 0.896361 0.077902
vt 0.893002 0.077902
vt 0.751955 0.077902
vt 0.889644 0.077902
vt 0.886286 0.077902
vt 0.882927 0.077902
vt 0.755313 0.077902
vt 0.879569 0.077902
vt 0.876211 0.077902
vt 0.758671 0.077902
vt 0.869494 0.077902
vt 0.866136 0.077902
vt 0.862778 0.077902
vt 0.859419 0.077902
vt 0.765388 0.077902
vt 0.856061 0.077902
vt 0.768746 0.077902
vt 0.852703 0.077902
vt 0.849345 0.077902
vt 0.772104 0.077902
vt 0.845986 0.077902
vt 0.842628 0.077902
vt 0.775463 0.077902
vt 0.839270 0.077902
vt 0.832553 0.077902
vt 0.829195 0.077902
vt 0.778821 0.077902
vt 0.825837 0.077902
vt 0.822478 0.077902
vt 0.805687 0.077902
vt 0.782179 0.077902
vt 0.785537 0.077902
vt 0.788896 0.077902
vt 0.792254 0.077902
vt 0.795612 0.077902
vt 0.802329 0.077902
vt 0.809045 0.077902
vt 0.725088 0.262608
vt 0.731457 0.262608
vt 0.731457 0.077902
vt 0.737827 0.262608
vt 0.737827 0.077902
vt 0.744196 0.262608
vt 0.744196 0.077902
vt 0.750565 0.262608
vt 0.750565 0.077902
vt 0.756934 0.262608
vt 0.756934 0.077902
vt 0.763303 0.262608
vt 0.763303 0.077902
vt 0.769672 0.262608
vt 0.769672 0.077902
vt 0.776042 0.262608
vt 0.776042 0.077902
vt 0.782411 0.262608
vt 0.782411 0.077902
vt 0.788780 0.262608
vt 0.788780 0.077902
vt 0.795149 0.262608
vt 0.795149 0.077902
vt 0.801518 0.262608
vt 0.801518 0.077902
vt 0.807887 0.262608
vt 0.807887 0.077902
vt 0.814256 0.262608
vt 0.814256 0.077902
vt 0.820626 0.262608
vt 0.820626 0.077902
vt 0.826995 0.262608
vt 0.826995 0.077902
vt 0.833364 0.262608
vt 0.833364 0.077902
vt 0.839733 0.262608
vt 0.839733 0.077902
vt 0.846102 0.262608
vt 0.846102 0.077902
vt 0.852471 0.262608
vt 0.852471 0.077902
vt 0.858840 0.262608
vt 0.858840 0.077902
vt 0.865210 0.262608
vt 0.865210 0.077902
vt 0.871579 0.262608
vt 0.871579 0.077902
vt 0.877948 0.262608
vt 0.877948 0.077902
vt 0.884317 0.262608
vt 0.884317 0.077902
vt 0.890686 0.262608
vt 0.890686 0.077902
vt 0.897055 0.262608
vt 0.897055 0.077902
vt 0.903424 0.262608
vt 0.903424 0.077902
vt 0.909794 0.262608
vt 0.731929 0.262608
vt 0.738770 0.262608
vt 0.745611 0.262608
vt 0.752452 0.262608
vt 0.759293 0.262608
vt 0.766134 0.262608
vt 0.772975 0.262608
vt 0.779816 0.262608
vt 0.786657 0.262608
vt 0.793498 0.262608
vt 0.800339 0.262608
vt 0.807180 0.262608
vt 0.814021 0.262608
vt 0.820861 0.262608
vt 0.827702 0.262608
vt 0.834543 0.262608
vt 0.841384 0.262608
vt 0.848225 0.262608
vt 0.855066 0.262608
vt 0.861907 0.262608
vt 0.868748 0.262608
vt 0.875589 0.262608
vt 0.882430 0.262608
vt 0.889271 0.262608
vt 0.896112 0.262608
vt 0.902953 0.262608
vt 0.728936 0.262608
vt 0.728936 0.077902
vt 0.732784 0.262608
vt 0.732784 0.077902
vt 0.736632 0.262608
vt 0.736632 0.077902
vt 0.740480 0.262608
vt 0.740480 0.077902
vt 0.744328 0.262608
vt 0.744328 0.077902
vt 0.748177 0.262608
vt 0.748177 0.077902
vt 0.752025 0.262608
vt 0.752025 0.077902
vt 0.755873 0.262608
vt 0.759721 0.262608
vt 0.759721 0.077902
vt 0.763569 0.262608
vt 0.763569 0.077902
vt 0.767417 0.262608
vt 0.767417 0.077902
vt 0.771265 0.262608
vt 0.771265 0.077902
vt 0.775113 0.262608
vt 0.775113 0.077902
vt 0.778961 0.262608
vt 0.778961 0.077902
vt 0.782809 0.262608
vt 0.782809 0.077902
vt 0.790505 0.262608
vt 0.790505 0.077902
vt 0.794353 0.262608
vt 0.794353 0.077902
vt 0.798201 0.262608
vt 0.798201 0.077902
vt 0.802049 0.262608
vt 0.802049 0.077902
vt 0.805897 0.262608
vt 0.805897 0.077902
vt 0.809745 0.262608
vt 0.809745 0.077902
vt 0.813593 0.262608
vt 0.813593 0.077902
vt 0.817441 0.262608
vt 0.821289 0.262608
vt 0.821289 0.077902
vt 0.825137 0.262608
vt 0.825137 0.077902
vt 0.828985 0.262608
vt 0.828985 0.077902
vt 0.832833 0.262608
vt 0.832833 0.077902
vt 0.836681 0.262608
vt 0.836681 0.077902
vt 0.840529 0.262608
vt 0.840529 0.077902
vt 0.844377 0.262608
vt 0.844377 0.077902
vt 0.852073 0.262608
vt 0.852073 0.077902
vt 0.855921 0.262608
vt 0.855921 0.077902
vt 0.859769 0.262608
vt 0.859769 0.077902
vt 0.863617 0.262608
vt 0.863617 0.077902
vt 0.867465 0.262608
vt 0.867465 0.077902
vt 0.871313 0.262608
vt 0.871313 0.077902
vt 0.875161 0.262608
vt 0.875161 0.077902
vt 0.879009 0.262608
vt 0.882857 0.262608
vt 0.882857 0.077902
vt 0.886705 0.262608
vt 0.886705 0.077902
vt 0.890553 0.262608
vt 0.890553 0.077902
vt 0.894401 0.262608
vt 0.894401 0.077902
vt 0.898250 0.262608
vt 0.898250 0.077902
vt 0.902098 0.262608
vt 0.902098 0.077902
vt 0.905946 0.262608
vt 0.905946 0.077902
vt 0.728447 0.262608
vt 0.731805 0.262608
vt 0.735163 0.262608
vt 0.738521 0.262608
vt 0.741880 0.262608
vt 0.745238 0.262608
vt 0.748596 0.262608
vt 0.751955 0.262608
vt 0.755313 0.262608
vt 0.758671 0.262608
vt 0.762029 0.262608
vt 0.765388 0.262608
vt 0.768746 0.262608
vt 0.772104 0.262608
vt 0.775463 0.262608
vt 0.778821 0.262608
vt 0.782179 0.262608
vt 0.785537 0.262608
vt 0.788896 0.262608
vt 0.792254 0.262608
vt 0.795612 0.262608
vt 0.798970 0.262608
vt 0.802329 0.262608
vt 0.805687 0.262608
vt 0.809045 0.262608
vt 0.812404 0.262608
vt 0.815762 0.262608
vt 0.819120 0.262608
vt 0.822478 0.262608
vt 0.825837 0.262608
vt 0.829195 0.262608
vt 0.832553 0.262608
vt 0.835912 0.262608
vt 0.839270 0.262608
vt 0.842628 0.262608
vt 0.845986 0.262608
vt 0.849345 0.262608
vt 0.852703 0.262608
vt 0.856061 0.262608
vt 0.859419 0.262608
vt 0.862778 0.262608
vt 0.866136 0.262608
vt 0.869494 0.262608
vt 0.872853 0.262608
vt 0.876211 0.262608
vt 0.879569 0.262608
vt 0.882927 0.262608
vt 0.886286 0.262608
vt 0.889644 0.262608
vt 0.893002 0.262608
vt 0.896361 0.262608
vt 0.899719 0.262608
vt 0.903077 0.262608
vt 0.906435 0.262608
vt 0.728273 0.262608
vt 0.728273 0.077902
vt 0.734642 0.262608
vt 0.734642 0.077902
vt 0.741011 0.262608
vt 0.741011 0.077902
vt 0.747380 0.262608
vt 0.747380 0.077902
vt 0.753749 0.262608
vt 0.753749 0.077902
vt 0.760119 0.262608
vt 0.760119 0.077902
vt 0.766488 0.262608
vt 0.766488 0.077902
vt 0.772857 0.262608
vt 0.772857 0.077902
vt 0.779226 0.262608
vt 0.779226 0.077902
vt 0.785595 0.262608
vt 0.785595 0.077902
vt 0.791964 0.262608
vt 0.791964 0.077902
vt 0.798334 0.262608
vt 0.798334 0.077902
vt 0.804703 0.262608
vt 0.804703 0.077902
vt 0.811072 0.262608
vt 0.811072 0.077902
vt 0.823810 0.262608
vt 0.823810 0.077902
vt 0.830179 0.262608
vt 0.830179 0.077902
vt 0.836548 0.262608
vt 0.836548 0.077902
vt 0.842918 0.262608
vt 0.842918 0.077902
vt 0.849287 0.262608
vt 0.849287 0.077902
vt 0.855656 0.262608
vt 0.855656 0.077902
vt 0.862025 0.262608
vt 0.862025 0.077902
vt 0.868394 0.262608
vt 0.868394 0.077902
vt 0.874763 0.262608
vt 0.874763 0.077902
vt 0.881132 0.262608
vt 0.881132 0.077902
vt 0.887502 0.262608
vt 0.887502 0.077902
vt 0.893871 0.262608
vt 0.893871 0.077902
vt 0.900240 0.262608
vt 0.900240 0.077902
vt 0.906609 0.262608
vt 0.906609 0.077902
s 0
f 1/1/1 2/2/1 4/3/1 3/4/1
f 3/4/2 4/3/2 8/5/2 7/6/2
f 7/6/3 8/5/3 6/7/3 5/8/3
f 5/8/4 6/7/4 2/9/4 1/10/4
f 3/11/5 7/6/5 5/8/5 1/12/5
f 8/5/6 4/13/6 2/14/6 6/7/6
f 64/15/6 66/16/6 65/17/6
f 64/15/6 9/18/6 66/16/6
f 64/15/6 10/19/6 9/18/6
f 63/20/6 10/19/6 64/15/6
f 62/21/5 10/19/5 63/20/5
f 61/22/6 11/23/6 62/21/6
f 11/23/6 10/19/6 62/21/6
f 61/22/6 12/24/6 11/23/6
f 61/22/6 13/25/6 12/24/6
f 60/26/6 13/25/6 61/22/6
f 60/26/6 14/27/6 13/25/6
f 60/26/6 15/28/6 14/27/6
f 59/29/6 15/28/6 60/26/6
f 59/29/6 16/30/6 15/28/6
f 35/31/6 37/32/6 36/33/6
f 34/34/6 37/32/6 35/31/6
f 59/29/6 17/35/6 16/30/6
f 33/36/6 37/32/6 34/34/6
f 58/37/6 17/35/6 59/29/6
f 58/37/6 18/38/6 17/35/6
f 32/39/6 37/32/6 33/36/6
f 31/40/6 37/32/6 32/39/6
f 58/37/6 19/41/6 18/38/6
f 30/42/6 37/32/6 31/40/6
f 58/37/6 20/43/6 19/41/6
f 29/44/6 37/32/6 30/42/6
f 58/37/6 21/45/6 20/43/6
f 28/46/6 37/32/6 29/44/6
f 57/47/6 21/45/6 58/37/6
f 27/48/6 37/32/6 28/46/6
f 57/47/6 22/49/6 21/45/6
f 26/50/6 37/32/6 27/48/6
f 57/47/6 23/51/6 22/49/6
f 25/52/6 37/32/6 26/50/6
f 57/47/6 24/53/6 23/51/6
f 24/53/6 37/32/6 25/52/6
f 57/47/6 37/32/6 24/53/6
f 56/54/6 37/32/6 57/47/6
f 55/55/6 37/32/6 56/54/6
f 54/56/6 37/32/6 55/55/6
f 54/56/6 38/57/6 37/32/6
f 53/58/6 38/57/6 54/56/6
f 53/58/6 39/59/6 38/57/6
f 53/58/6 40/60/6 39/59/6
f 52/61/6 40/60/6 53/58/6
f 52/61/6 41/62/6 40/60/6
f 52/61/6 42/63/6 41/62/6
f 52/61/6 43/64/6 42/63/6
f 51/65/6 43/64/6 52/61/6
f 51/65/6 44/66/6 43/64/6
f 51/65/6 45/67/6 44/66/6
f 50/68/6 45/67/6 51/65/6
f 50/68/6 46/69/6 45/67/6
f 50/68/6 47/70/6 46/69/6
f 49/71/6 47/70/6 50/68/6
f 49/71/6 48/72/6 47/70/6
f 79/73/6 81/74/6 80/75/6
f 79/73/6 82/76/6 81/74/6
f 78/77/6 82/76/6 79/73/6
f 78/77/6 83/78/6 82/76/6
f 77/79/6 83/78/6 78/77/6
f 77/79/6 84/80/6 83/78/6
f 77/79/6 85/46/6 84/80/6
f 76/81/6 85/46/6 77/79/6
f 76/81/6 86/82/6 85/46/6
f 119/83/6 121/16/6 120/84/6
f 119/83/6 67/18/6 121/16/6
f 75/85/6 86/82/6 76/81/6
f 75/85/6 87/86/6 86/82/6
f 75/85/6 88/87/6 87/86/6
f 74/88/6 88/87/6 75/85/6
f 74/88/6 89/89/6 88/87/6
f 73/90/6 89/89/6 74/88/6
f 73/90/6 90/91/6 89/89/6
f 73/90/6 91/92/6 90/91/6
f 72/93/6 91/92/6 73/90/6
f 72/93/6 92/94/6 91/92/6
f 71/95/6 92/94/6 72/93/6
f 71/95/6 102/96/6 92/94/6
f 102/96/6 101/97/6 92/94/6
f 101/97/6 100/98/6 92/94/6
f 100/98/6 99/99/6 92/94/6
f 99/99/6 98/100/6 92/94/6
f 98/100/6 97/101/6 92/94/6
f 97/101/6 96/102/6 92/94/6
f 96/102/6 95/103/6 92/94/6
f 95/103/6 94/104/6 92/94/6
f 94/104/6 93/105/6 92/94/6
f 70/106/6 104/107/6 71/95/6
f 104/107/6 103/70/6 71/95/6
f 103/70/7 102/96/7 71/95/7
f 69/108/6 106/109/6 70/106/6
f 106/109/6 105/110/6 70/106/6
f 105/110/6 104/107/6 70/106/6
f 69/108/6 107/111/6 106/109/6
f 69/108/6 108/112/6 107/111/6
f 68/113/6 108/112/6 69/108/6
f 68/113/6 109/114/6 108/112/6
f 68/113/6 110/115/6 109/114/6
f 119/83/6 68/113/6 67/18/6
f 119/83/6 114/116/6 68/113/6
f 114/116/6 113/117/6 68/113/6
f 113/117/6 112/118/6 68/113/6
f 112/118/6 111/119/6 68/113/6
f 111/119/6 110/115/6 68/113/6
f 119/83/6 115/120/6 114/116/6
f 119/83/6 116/121/6 115/120/6
f 119/83/6 117/122/6 116/121/6
f 119/83/6 118/123/6 117/122/6
f 156/124/6 158/125/6 157/42/6
f 156/124/6 159/126/6 158/125/6
f 155/127/6 159/126/6 156/124/6
f 155/127/6 160/128/6 159/126/6
f 154/129/6 160/128/6 155/127/6
f 154/129/6 161/130/6 160/128/6
f 153/131/6 161/130/6 154/129/6
f 153/131/6 162/36/6 161/130/6
f 152/48/6 162/36/6 153/131/6
f 152/48/6 163/132/6 162/36/6
f 151/133/6 163/132/6 152/48/6
f 151/133/6 164/134/6 163/132/6
f 150/135/6 205/136/6 151/133/6
f 205/136/6 164/134/6 151/133/6
f 150/135/6 206/137/6 205/136/6
f 204/138/6 164/134/6 205/136/6
f 150/135/6 207/26/6 206/137/6
f 203/139/6 164/134/6 204/138/6
f 150/135/6 208/140/6 207/26/6
f 202/47/6 164/134/6 203/139/6
f 202/47/6 165/141/6 164/134/6
f 149/142/6 208/140/6 150/135/6
f 149/142/6 209/143/6 208/140/6
f 201/144/6 165/141/6 202/47/6
f 149/142/6 210/145/6 209/143/6
f 200/146/6 165/141/6 201/144/6
f 149/142/6 211/147/6 210/145/6
f 199/148/6 165/141/6 200/146/6
f 199/148/6 166/149/6 165/141/6
f 148/150/6 211/147/6 149/142/6
f 148/150/6 212/20/6 211/147/6
f 198/151/6 166/149/6 199/148/6
f 148/150/6 213/152/6 212/20/6
f 197/56/6 166/149/6 198/151/6
f 197/56/6 167/33/6 166/149/6
f 147/53/6 213/152/6 148/150/6
f 147/53/6 214/153/6 213/152/6
f 196/154/6 167/33/6 197/56/6
f 196/154/6 168/155/6 167/33/6
f 146/156/6 214/153/6 147/53/6
f 146/156/6 215/157/6 214/153/6
f 195/158/6 168/155/6 196/154/6
f 146/156/6 216/159/6 215/157/6
f 194/160/6 168/155/6 195/158/6
f 194/160/6 169/161/6 168/155/6
f 145/162/6 216/159/6 146/156/6
f 145/162/6 217/16/6 216/159/6
f 193/163/6 169/161/6 194/160/6
f 144/164/6 217/16/6 145/162/6
f 144/164/6 170/165/6 217/16/6
f 193/163/6 122/18/6 169/161/6
f 192/65/6 122/18/6 193/163/6
f 144/164/6 171/166/6 170/165/6
f 191/167/6 122/18/6 192/65/6
f 143/168/6 171/166/6 144/164/6
f 191/167/6 123/169/6 122/18/6
f 143/168/6 172/59/6 171/166/6
f 190/170/6 123/169/6 191/167/6
f 143/168/6 173/171/6 172/59/6
f 142/45/6 173/171/6 143/168/6
f 189/172/6 123/169/6 190/170/6
f 189/172/6 124/173/6 123/169/6
f 142/45/6 174/174/6 173/171/6
f 188/175/6 124/173/6 189/172/6
f 141/176/6 174/174/6 142/45/6
f 188/175/6 125/177/6 124/173/6
f 141/176/6 175/178/6 174/174/6
f 187/72/6 125/177/6 188/175/6
f 141/176/6 176/179/6 175/178/6
f 186/180/6 125/177/6 187/72/6
f 140/181/6 176/179/6 141/176/6
f 186/180/6 126/182/6 125/177/6
f 140/181/6 177/63/6 176/179/6
f 185/183/6 126/182/6 186/180/6
f 140/181/6 178/184/6 177/63/6
f 184/185/6 126/182/6 185/183/6
f 140/181/6 179/186/6 178/184/6
f 183/187/6 126/182/6 184/185/6
f 139/188/6 179/186/6 140/181/6
f 183/187/6 127/24/6 126/182/6
f 139/188/6 180/189/6 179/186/6
f 182/67/6 127/24/6 183/187/6
f 139/188/6 181/190/6 180/189/6
f 181/190/6 127/24/6 182/67/6
f 139/188/6 127/24/6 181/190/6
f 138/191/6 127/24/6 139/188/6
f 138/191/6 128/192/6 127/24/6
f 137/38/6 128/192/6 138/191/6
f 137/38/6 129/193/6 128/192/6
f 136/194/6 129/193/6 137/38/6
f 136/194/6 130/195/6 129/193/6
f 135/196/6 130/195/6 136/194/6
f 135/196/6 131/197/6 130/195/6
f 134/198/6 131/197/6 135/196/6
f 134/198/6 132/28/6 131/197/6
f 133/199/6 132/28/6 134/198/6
f 244/200/6 272/201/6 245/202/6
f 272/201/6 246/203/6 245/202/6
f 272/201/6 218/18/6 246/203/6
f 272/201/6 219/204/6 218/18/6
f 272/201/6 220/205/6 219/204/6
f 272/201/6 221/206/6 220/205/6
f 272/201/6 222/207/6 221/206/6
f 272/201/6 223/208/6 222/207/6
f 272/201/6 224/209/6 223/208/6
f 272/201/6 271/210/6 224/209/6
f 271/210/6 225/211/6 224/209/6
f 244/200/6 273/16/6 272/201/6
f 270/212/6 225/211/6 271/210/6
f 269/213/6 225/211/6 270/212/6
f 268/214/6 225/211/6 269/213/6
f 268/214/6 226/215/6 225/211/6
f 267/216/6 226/215/6 268/214/6
f 266/217/6 226/215/6 267/216/6
f 265/218/6 226/215/6 266/217/6
f 265/218/6 227/219/6 226/215/6
f 264/220/6 227/219/6 265/218/6
f 263/221/6 227/219/6 264/220/6
f 262/151/6 227/219/6 263/221/6
f 262/151/6 228/222/6 227/219/6
f 261/223/6 228/222/6 262/151/6
f 260/224/6 228/222/6 261/223/6
f 260/224/6 229/176/6 228/222/6
f 259/225/6 229/176/6 260/224/6
f 258/226/6 229/176/6 259/225/6
f 258/226/6 230/227/6 229/176/6
f 257/228/6 230/227/6 258/226/6
f 257/228/6 231/229/6 230/227/6
f 256/230/6 231/229/6 257/228/6
f 255/231/6 231/229/6 256/230/6
f 255/231/6 232/232/6 231/229/6
f 254/233/6 232/232/6 255/231/6
f 253/234/6 232/232/6 254/233/6
f 253/234/6 233/235/6 232/232/6
f 252/236/6 233/235/6 253/234/6
f 251/186/6 233/235/6 252/236/6
f 250/237/6 233/235/6 251/186/6
f 249/238/6 233/235/6 250/237/6
f 249/238/6 234/239/6 233/235/6
f 248/240/6 234/239/6 249/238/6
f 247/241/6 234/239/6 248/240/6
f 244/200/6 242/242/6 273/16/6
f 242/242/6 247/241/6 273/16/6
f 242/242/6 234/239/6 247/241/6
f 242/242/6 235/243/6 234/239/6
f 242/242/6 236/244/6 235/243/6
f 242/242/6 237/245/6 236/244/6
f 242/242/6 238/246/6 237/245/6
f 242/242/6 239/247/6 238/246/6
f 242/242/6 240/128/6 239/247/6
f 242/242/6 241/248/6 240/128/6
f 244/200/6 243/249/6 242/242/6
f 329/15/5 330/17/5 331/16/5
f 329/15/5 331/16/5 274/18/5
f 329/15/5 274/18/5 275/19/5
f 328/20/5 329/15/5 275/19/5
f 327/21/6 328/20/6 275/19/6
f 326/22/5 327/21/5 276/23/5
f 276/23/6 327/21/6 275/19/6
f 326/22/5 276/23/5 277/24/5
f 326/22/5 277/24/5 278/25/5
f 325/26/5 326/22/5 278/25/5
f 325/26/5 278/25/5 279/27/5
f 325/26/5 279/27/5 280/28/5
f 324/29/5 325/26/5 280/28/5
f 324/29/5 280/28/5 281/30/5
f 300/31/5 301/33/5 302/32/5
f 299/34/5 300/31/5 302/32/5
f 324/29/5 281/30/5 282/35/5
f 298/36/5 299/34/5 302/32/5
f 323/37/5 324/29/5 282/35/5
f 323/37/5 282/35/5 283/38/5
f 297/39/5 298/36/5 302/32/5
f 296/40/5 297/39/5 302/32/5
f 323/37/5 283/38/5 284/41/5
f 295/42/5 296/40/5 302/32/5
f 323/37/5 284/41/5 285/43/5
f 294/44/5 295/42/5 302/32/5
f 323/37/5 285/43/5 286/45/5
f 293/46/5 294/44/5 302/32/5
f 322/47/5 323/37/5 286/45/5
f 292/48/5 293/46/5 302/32/5
f 322/47/5 286/45/5 287/49/5
f 291/50/5 292/48/5 302/32/5
f 322/47/5 287/49/5 288/51/5
f 290/52/5 291/50/5 302/32/5
f 322/47/5 288/51/5 289/53/5
f 289/53/5 290/52/5 302/32/5
f 322/47/5 289/53/5 302/32/5
f 321/54/5 322/47/5 302/32/5
f 320/55/5 321/54/5 302/32/5
f 319/56/5 320/55/5 302/32/5
f 319/56/5 302/32/5 303/57/5
f 318/58/5 319/56/5 303/57/5
f 318/58/5 303/57/5 304/59/5
f 318/58/5 304/59/5 305/60/5
f 317/61/5 318/58/5 305/60/5
f 317/61/5 305/60/5 306/62/5
f 317/61/5 306/62/5 307/63/5
f 317/61/5 307/63/5 308/64/5
f 316/65/5 317/61/5 308/64/5
f 316/65/5 308/64/5 309/66/5
f 316/65/5 309/66/5 310/67/5
f 315/68/5 316/65/5 310/67/5
f 315/68/5 310/67/5 311/69/5
f 315/68/5 311/69/5 312/70/5
f 314/71/5 315/68/5 312/70/5
f 314/71/5 312/70/5 313/72/5
f 344/73/5 345/75/5 346/74/5
f 344/73/5 346/74/5 347/76/5
f 343/77/5 344/73/5 347/76/5
f 343/77/5 347/76/5 348/78/5
f 342/79/5 343/77/5 348/78/5
f 342/79/5 348/78/5 349/80/5
f 342/79/5 349/80/5 350/46/5
f 341/81/5 342/79/5 350/46/5
f 341/81/5 350/46/5 351/82/5
f 384/83/5 385/84/5 386/16/5
f 384/83/5 386/16/5 332/18/5
f 340/85/5 341/81/5 351/82/5
f 340/85/5 351/82/5 352/86/5
f 340/85/5 352/86/5 353/87/5
f 339/88/5 340/85/5 353/87/5
f 339/88/5 353/87/5 354/89/5
f 338/90/5 339/88/5 354/89/5
f 338/90/5 354/89/5 355/91/5
f 338/90/5 355/91/5 356/92/5
f 337/93/5 338/90/5 356/92/5
f 337/93/5 356/92/5 357/94/5
f 336/95/5 337/93/5 357/94/5
f 336/95/5 357/94/5 367/96/5
f 367/96/5 357/94/5 366/97/5
f 366/97/5 357/94/5 365/98/5
f 365/98/5 357/94/5 364/99/5
f 364/99/5 357/94/5 363/100/5
f 363/100/5 357/94/5 362/101/5
f 362/101/5 357/94/5 361/102/5
f 361/102/5 357/94/5 360/103/5
f 360/103/5 357/94/5 359/104/5
f 359/104/5 357/94/5 358/105/5
f 335/106/5 336/95/5 369/107/5
f 369/107/5 336/95/5 368/70/5
f 368/70/8 336/95/8 367/96/8
f 334/108/5 335/106/5 371/109/5
f 371/109/5 335/106/5 370/110/5
f 370/110/5 335/106/5 369/107/5
f 334/108/5 371/109/5 372/111/5
f 334/108/5 372/111/5 373/112/5
f 333/113/5 334/108/5 373/112/5
f 333/113/5 373/112/5 374/114/5
f 333/113/5 374/114/5 375/115/5
f 384/83/5 332/18/5 333/113/5
f 384/83/5 333/113/5 379/116/5
f 379/116/5 333/113/5 378/117/5
f 378/117/5 333/113/5 377/118/5
f 377/118/5 333/113/5 376/119/5
f 376/119/5 333/113/5 375/115/5
f 384/83/5 379/116/5 380/120/5
f 384/83/5 380/120/5 381/121/5
f 384/83/5 381/121/5 382/122/5
f 384/83/5 382/122/5 383/123/5
f 421/124/5 422/42/5 423/125/5
f 421/124/5 423/125/5 424/126/5
f 420/127/5 421/124/5 424/126/5
f 420/127/5 424/126/5 425/128/5
f 419/129/5 420/127/5 425/128/5
f 419/129/5 425/128/5 426/130/5
f 418/131/5 419/129/5 426/130/5
f 418/131/5 426/130/5 427/36/5
f 417/48/5 418/131/5 427/36/5
f 417/48/5 427/36/5 428/132/5
f 416/133/5 417/48/5 428/132/5
f 416/133/5 428/132/5 429/134/5
f 415/135/5 416/133/5 470/136/5
f 470/136/5 416/133/5 429/134/5
f 415/135/5 470/136/5 471/137/5
f 469/138/5 470/136/5 429/134/5
f 415/135/5 471/137/5 472/26/5
f 468/139/5 469/138/5 429/134/5
f 415/135/5 472/26/5 473/140/5
f 467/47/5 468/139/5 429/134/5
f 467/47/5 429/134/5 430/141/5
f 414/142/5 415/135/5 473/140/5
f 414/142/5 473/140/5 474/143/5
f 466/144/5 467/47/5 430/141/5
f 414/142/5 474/143/5 475/145/5
f 465/146/5 466/144/5 430/141/5
f 414/142/5 475/145/5 476/147/5
f 464/148/5 465/146/5 430/141/5
f 464/148/5 430/141/5 431/149/5
f 413/150/5 414/142/5 476/147/5
f 413/150/5 476/147/5 477/20/5
f 463/151/5 464/148/5 431/149/5
f 413/150/5 477/20/5 478/152/5
f 462/56/5 463/151/5 431/149/5
f 462/56/5 431/149/5 432/33/5
f 412/53/5 413/150/5 478/152/5
f 412/53/5 478/152/5 479/153/5
f 461/154/5 462/56/5 432/33/5
f 461/154/5 432/33/5 433/155/5
f 411/156/5 412/53/5 479/153/5
f 411/156/5 479/153/5 480/157/5
f 460/158/5 461/154/5 433/155/5
f 411/156/5 480/157/5 481/159/5
f 459/160/5 460/158/5 433/155/5
f 459/160/5 433/155/5 434/161/5
f 410/162/5 411/156/5 481/159/5
f 410/162/5 481/159/5 482/16/5
f 458/163/5 459/160/5 434/161/5
f 409/164/5 410/162/5 482/16/5
f 409/164/5 482/16/5 435/165/5
f 458/163/5 434/161/5 387/18/5
f 457/65/5 458/163/5 387/18/5
f 409/164/5 435/165/5 436/166/5
f 456/167/5 457/65/5 387/18/5
f 408/168/5 409/164/5 436/166/5
f 456/167/5 387/18/5 388/169/5
f 408/168/5 436/166/5 437/59/5
f 455/170/5 456/167/5 388/169/5
f 408/168/5 437/59/5 438/171/5
f 407/45/5 408/168/5 438/171/5
f 454/172/5 455/170/5 388/169/5
f 454/172/5 388/169/5 389/173/5
f 407/45/5 438/171/5 439/174/5
f 453/175/5 454/172/5 389/173/5
f 406/176/5 407/45/5 439/174/5
f 453/175/5 389/173/5 390/177/5
f 406/176/5 439/174/5 440/178/5
f 452/72/5 453/175/5 390/177/5
f 406/176/5 440/178/5 441/179/5
f 451/180/5 452/72/5 390/177/5
f 405/181/5 406/176/5 441/179/5
f 451/180/5 390/177/5 391/182/5
f 405/181/5 441/179/5 442/63/5
f 450/183/5 451/180/5 391/182/5
f 405/181/5 442/63/5 443/184/5
f 449/185/5 450/183/5 391/182/5
f 405/181/5 443/184/5 444/186/5
f 448/187/5 449/185/5 391/182/5
f 404/188/5 405/181/5 444/186/5
f 448/187/5 391/182/5 392/24/5
f 404/188/5 444/186/5 445/189/5
f 447/67/5 448/187/5 392/24/5
f 404/188/5 445/189/5 446/190/5
f 446/190/5 447/67/5 392/24/5
f 404/188/5 446/190/5 392/24/5
f 403/191/5 404/188/5 392/24/5
f 403/191/5 392/24/5 393/192/5
f 402/38/5 403/191/5 393/192/5
f 402/38/5 393/192/5 394/193/5
f 401/194/5 402/38/5 394/193/5
f 401/194/5 394/193/5 395/195/5
f 400/196/5 401/194/5 395/195/5
f 400/196/5 395/195/5 396/197/5
f 399/198/5 400/196/5 396/197/5
f 399/198/5 396/197/5 397/28/5
f 398/199/5 399/198/5 397/28/5
f 509/200/5 510/202/5 537/201/5
f 537/201/5 510/202/5 511/203/5
f 537/201/5 511/203/5 483/18/5
f 537/201/5 483/18/5 484/204/5
f 537/201/5 484/204/5 485/205/5
f 537/201/5 485/205/5 486/206/5
f 537/201/5 486/206/5 487/207/5
f 537/201/5 487/207/5 488/208/5
f 537/201/5 488/208/5 489/209/5
f 537/201/5 489/209/5 536/210/5
f 536/210/5 489/209/5 490/211/5
f 509/200/5 537/201/5 538/16/5
f 535/212/5 536/210/5 490/211/5
f 534/213/5 535/212/5 490/211/5
f 533/214/5 534/213/5 490/211/5
f 533/214/5 490/211/5 491/215/5
f 532/216/5 533/214/5 491/215/5
f 531/217/5 532/216/5 491/215/5
f 530/218/5 531/217/5 491/215/5
f 530/218/5 491/215/5 492/219/5
f 529/220/5 530/218/5 492/219/5
f 528/221/5 529/220/5 492/219/5
f 527/151/5 528/221/5 492/219/5
f 527/151/5 492/219/5 493/222/5
f 526/223/5 527/151/5 493/222/5
f 525/224/5 526/223/5 493/222/5
f 525/224/5 493/222/5 494/176/5
f 524/225/5 525/224/5 494/176/5
f 523/226/5 524/225/5 494/176/5
f 523/226/5 494/176/5 495/227/5
f 522/228/5 523/226/5 495/227/5
f 522/228/5 495/227/5 496/229/5
f 521/230/5 522/228/5 496/229/5
f 520/231/5 521/230/5 496/229/5
f 520/231/5 496/229/5 497/232/5
f 519/233/5 520/231/5 497/232/5
f 518/234/5 519/233/5 497/232/5
f 518/234/5 497/232/5 498/235/5
f 517/236/5 518/234/5 498/235/5
f 516/186/5 517/236/5 498/235/5
f 515/237/5 516/186/5 498/235/5
f 514/238/5 515/237/5 498/235/5
f 514/238/5 498/235/5 499/239/5
f 513/240/5 514/238/5 499/239/5
f 512/241/5 513/240/5 499/239/5
f 509/200/5 538/16/5 507/242/5
f 507/242/5 538/16/5 512/241/5
f 507/242/5 512/241/5 499/239/5
f 507/242/5 499/239/5 500/243/5
f 507/242/5 500/243/5 501/244/5
f 507/242/5 501/244/5 502/245/5
f 507/242/5 502/245/5 503/246/5
f 507/242/5 503/246/5 504/247/5
f 507/242/5 504/247/5 505/128/5
f 507/242/5 505/128/5 506/248/5
f 509/200/5 507/242/5 508/249/5
s 1
f 540/250/9 542/251/10 541/252/10 539/18/9
f 542/251/10 544/253/11 543/254/11 541/252/10
f 544/253/11 546/255/12 545/256/12 543/254/11
f 546/255/12 548/257/13 547/258/13 545/256/12
f 548/257/13 550/259/14 549/260/14 547/258/13
f 550/259/14 552/261/15 551/262/15 549/260/14
f 552/261/15 554/263/16 553/264/16 551/262/15
f 554/263/16 556/265/17 555/266/17 553/264/16
f 556/265/17 558/267/18 557/268/18 555/266/17
f 558/267/18 560/269/19 559/270/19 557/268/18
f 560/269/19 562/271/20 561/272/20 559/270/19
f 562/271/20 564/273/21 563/274/21 561/272/20
f 564/273/21 566/275/22 565/276/22 563/274/21
f 566/275/22 568/277/23 567/278/23 565/276/22
f 568/277/23 570/279/24 569/280/24 567/278/23
f 570/279/24 572/281/25 571/282/25 569/280/24
f 572/281/25 574/283/26 573/284/26 571/282/25
f 574/283/26 576/285/27 575/286/27 573/284/26
f 576/285/27 578/287/28 577/288/28 575/286/27
f 578/287/28 580/289/29 579/290/29 577/288/28
f 580/289/29 582/291/30 581/292/30 579/290/29
f 582/291/30 584/293/31 583/294/31 581/292/30
f 584/293/31 586/295/32 585/296/32 583/294/31
f 586/295/32 588/297/33 587/298/33 585/296/32
f 588/297/33 590/299/33 589/300/33 587/298/33
f 590/299/33 592/301/34 591/302/34 589/300/33
f 592/301/34 594/303/35 593/304/35 591/302/34
f 594/303/35 596/305/36 595/306/36 593/304/35
f 596/305/36 540/307/9 539/16/9 595/306/36
f 598/250/37 600/308/38 599/108/38 597/18/37
f 600/308/38 602/309/39 601/95/39 599/108/38
f 602/309/39 604/310/40 603/90/40 601/95/39
f 604/310/40 606/311/41 605/85/41 603/90/40
f 606/311/41 608/312/42 607/79/42 605/85/41
f 608/312/42 610/313/43 609/73/43 607/79/42
f 610/313/43 612/314/44 611/74/44 609/73/43
f 612/314/44 614/315/45 613/78/45 611/74/44
f 614/315/45 616/316/46 615/46/46 613/78/45
f 616/316/46 618/317/47 617/86/47 615/46/46
f 618/317/47 620/318/48 619/89/48 617/86/47
f 620/318/48 622/319/49 621/92/49 619/89/48
f 622/319/49 624/320/50 623/105/50 621/92/49
f 624/320/50 626/321/51 625/103/51 623/105/50
f 626/321/51 628/322/52 627/101/52 625/103/51
f 628/322/52 630/323/53 629/99/53 627/101/52
f 630/323/53 632/324/54 631/97/54 629/99/53
f 632/324/54 634/325/55 633/70/55 631/97/54
f 634/325/55 636/326/56 635/110/56 633/70/55
f 636/326/56 638/327/57 637/111/57 635/110/56
f 638/327/57 640/328/58 639/114/58 637/111/57
f 640/328/58 642/329/59 641/119/59 639/114/58
f 642/329/59 644/330/60 643/117/60 641/119/59
f 644/330/60 646/331/61 645/120/61 643/117/60
f 646/331/61 648/332/33 647/122/33 645/120/61
f 648/332/33 650/333/62 649/83/62 647/122/33
f 650/333/62 598/307/37 597/16/37 649/83/62
f 652/250/63 654/334/64 653/335/64 651/18/63
f 654/334/64 656/336/65 655/337/65 653/335/64
f 656/336/65 658/338/66 657/339/66 655/337/65
f 658/338/66 660/340/67 659/341/67 657/339/66
f 660/340/67 662/342/68 661/343/68 659/341/67
f 662/342/68 664/344/69 663/345/69 661/343/68
f 664/344/69 666/346/70 665/347/70 663/345/69
f 666/346/70 668/348/71 667/81/71 665/347/70
f 668/348/71 670/349/72 669/350/72 667/81/71
f 670/349/72 672/351/73 671/352/73 669/350/72
f 672/351/73 674/353/74 673/354/74 671/352/73
f 674/353/74 676/355/75 675/356/75 673/354/74
f 676/355/75 678/357/76 677/358/76 675/356/75
f 678/357/76 680/359/77 679/360/77 677/358/76
f 680/359/77 682/361/78 681/362/78 679/360/77
f 682/361/78 684/316/79 683/46/79 681/362/78
f 684/316/79 686/363/80 685/364/80 683/46/79
f 686/363/80 688/365/81 687/366/81 685/364/80
f 688/365/81 690/367/82 689/368/82 687/366/81
f 690/367/82 692/369/83 691/370/83 689/368/82
f 692/369/83 694/371/84 693/372/84 691/370/83
f 694/371/84 696/373/85 695/374/85 693/372/84
f 696/373/85 698/375/86 697/376/86 695/374/85
f 698/375/86 700/377/87 699/104/87 697/376/86
f 700/377/87 702/378/88 701/379/88 699/104/87
f 702/378/88 704/380/89 703/381/89 701/379/88
f 704/380/89 706/382/90 705/383/90 703/381/89
f 706/382/90 708/384/91 707/385/91 705/383/90
f 708/384/91 710/386/92 709/387/92 707/385/91
f 710/386/92 712/388/93 711/389/93 709/387/92
f 712/388/93 714/390/94 713/391/94 711/389/93
f 714/390/94 716/325/95 715/70/95 713/391/94
f 716/325/95 718/392/96 717/393/96 715/70/95
f 718/392/96 720/394/97 719/395/97 717/393/96
f 720/394/97 722/396/98 721/397/98 719/395/97
f 722/396/98 724/398/99 723/399/99 721/397/98
f 724/398/99 726/400/100 725/401/100 723/399/99
f 726/400/100 728/402/101 727/403/101 725/401/100
f 728/402/101 730/404/102 729/405/102 727/403/101
f 730/404/102 732/406/103 731/118/103 729/405/102
f 732/406/103 734/407/104 733/408/104 731/118/103
f 734/407/104 736/409/105 735/410/105 733/408/104
f 736/409/105 738/411/106 737/412/106 735/410/105
f 738/411/106 740/413/107 739/414/107 737/412/106
f 740/413/107 742/415/108 741/416/108 739/414/107
f 742/415/108 744/417/109 743/418/109 741/416/108
f 744/417/109 746/419/110 745/420/110 743/418/109
f 746/419/110 652/307/63 651/16/63 745/420/110
f 748/250/111 750/334/112 749/335/112 747/18/111
f 750/334/112 752/336/113 751/337/113 749/335/112
f 752/336/113 754/338/114 753/339/114 751/337/113
f 754/338/114 756/340/115 755/341/115 753/339/114
f 756/340/115 758/342/116 757/343/116 755/341/115
f 758/342/116 760/344/117 759/345/117 757/343/116
f 760/344/117 762/346/118 761/347/118 759/345/117
f 762/346/118 764/348/119 763/81/119 761/347/118
f 764/348/119 766/349/120 765/350/120 763/81/119
f 766/349/120 768/351/121 767/352/121 765/350/120
f 768/351/121 770/353/122 769/354/122 767/352/121
f 770/353/122 772/355/123 771/356/123 769/354/122
f 772/355/123 774/357/124 773/358/124 771/356/123
f 774/357/124 776/359/125 775/360/125 773/358/124
f 776/359/125 778/361/126 777/362/126 775/360/125
f 778/361/126 780/316/127 779/46/127 777/362/126
f 780/316/127 782/363/128 781/364/128 779/46/127
f 782/363/128 784/365/129 783/366/129 781/364/128
f 784/365/129 786/367/130 785/368/130 783/366/129
f 786/367/130 788/369/131 787/370/131 785/368/130
f 788/369/131 790/371/132 789/372/132 787/370/131
f 790/371/132 792/373/133 791/374/133 789/372/132
f 792/373/133 794/375/134 793/376/134 791/374/133
f 794/375/134 796/377/135 795/104/135 793/376/134
f 796/377/135 798/378/136 797/379/136 795/104/135
f 798/378/136 800/380/137 799/381/137 797/379/136
f 800/380/137 802/382/138 801/383/138 799/381/137
f 802/382/138 804/384/139 803/385/139 801/383/138
f 804/384/139 806/386/140 805/387/140 803/385/139
f 806/386/140 808/388/141 807/389/141 805/387/140
f 808/388/141 810/390/142 809/391/142 807/389/141
f 810/390/142 812/325/143 811/70/143 809/391/142
f 812/325/143 814/392/144 813/393/144 811/70/143
f 814/392/144 816/394/145 815/395/145 813/393/144
f 816/394/145 818/396/146 817/397/146 815/395/145
f 818/396/146 820/398/147 819/399/147 817/397/146
f 820/398/147 822/400/148 821/401/148 819/399/147
f 822/400/148 824/402/149 823/403/149 821/401/148
f 824/402/149 826/404/150 825/405/150 823/403/149
f 826/404/150 828/406/151 827/118/151 825/405/150
f 828/406/151 830/407/152 829/408/152 827/118/151
f 830/407/152 832/409/153 831/410/153 829/408/152
f 832/409/153 834/411/154 833/412/154 831/410/153
f 834/411/154 836/413/155 835/414/155 833/412/154
f 836/413/155 838/415/156 837/416/156 835/414/155
f 838/415/156 840/417/157 839/418/157 837/416/156
f 840/417/157 842/419/158 841/420/158 839/418/157
f 842/419/158 748/307/111 747/16/111 841/420/158
f 844/250/62 846/421/159 845/204/159 843/18/62
f 846/421/159 848/422/160 847/205/160 845/204/159
f 848/422/160 850/423/161 849/206/161 847/205/160
f 850/423/161 852/424/162 851/207/162 849/206/161
f 852/424/162 854/425/163 853/208/163 851/207/162
f 854/425/163 856/426/164 855/209/164 853/208/163
f 856/426/164 858/427/165 857/211/165 855/209/164
f 858/427/165 860/428/166 859/215/166 857/211/165
f 860/428/166 862/429/167 861/219/167 859/215/166
f 862/429/167 864/430/168 863/222/168 861/219/167
f 864/430/168 866/431/169 865/176/169 863/222/168
f 866/431/169 868/432/170 867/227/170 865/176/169
f 868/432/170 870/433/171 869/229/171 867/227/170
f 870/433/171 872/434/172 871/232/172 869/229/171
f 872/434/172 874/435/173 873/235/173 871/232/172
f 874/435/173 876/436/174 875/239/174 873/235/173
f 876/436/174 878/437/175 877/243/175 875/239/174
f 878/437/175 880/438/176 879/244/176 877/243/175
f 880/438/176 882/439/177 881/245/177 879/244/176
f 882/439/177 884/440/178 883/246/178 881/245/177
f 884/440/178 886/441/179 885/247/179 883/246/178
f 886/441/179 888/442/180 887/128/180 885/247/179
f 888/442/180 890/443/181 889/248/181 887/128/180
f 890/443/181 892/444/182 891/242/182 889/248/181
f 892/444/182 894/445/183 893/249/183 891/242/182
f 894/445/183 896/446/184 895/200/184 893/249/183
f 896/446/184 898/447/185 897/202/185 895/200/184
f 898/447/185 900/448/186 899/203/186 897/202/185
f 900/448/186 902/449/187 901/241/187 899/203/186
f 902/449/187 904/450/188 903/240/188 901/241/187
f 904/450/188 906/451/189 905/238/189 903/240/188
f 906/451/189 908/452/190 907/237/190 905/238/189
f 908/452/190 910/453/191 909/186/191 907/237/190
f 910/453/191 912/454/192 911/236/192 909/186/191
f 912/454/192 914/455/193 913/234/193 911/236/192
f 914/455/193 916/456/194 915/233/194 913/234/193
f 916/456/194 918/457/195 917/231/195 915/233/194
f 918/457/195 920/458/196 919/230/196 917/231/195
f 920/458/196 922/459/197 921/228/197 919/230/196
f 922/459/197 924/460/198 923/226/198 921/228/197
f 924/460/198 926/461/199 925/225/199 923/226/198
f 926/461/199 928/462/200 927/224/200 925/225/199
f 928/462/200 930/463/201 929/223/201 927/224/200
f 930/463/201 932/464/202 931/151/202 929/223/201
f 932/464/202 934/465/203 933/221/203 931/151/202
f 934/465/203 936/466/204 935/220/204 933/221/203
f 936/466/204 938/467/205 937/218/205 935/220/204
f 938/467/205 940/468/206 939/217/206 937/218/205
f 940/468/206 942/469/207 941/216/207 939/217/206
f 942/469/207 944/470/208 943/214/208 941/216/207
f 944/470/208 946/471/33 945/213/33 943/214/208
f 946/471/33 948/472/34 947/212/34 945/213/33
f 948/472/34 950/473/35 949/210/35 947/212/34
f 950/473/35 952/474/62 951/201/62 949/210/35
f 952/474/62 844/307/62 843/16/62 951/201/62
f 954/250/62 956/475/33 955/476/33 953/18/62
f 956/475/33 958/251/33 957/252/33 955/476/33
f 958/251/33 960/477/209 959/478/209 957/252/33
f 960/477/209 962/253/210 961/254/210 959/478/209
f 962/253/210 964/479/211 963/480/211 961/254/210
f 964/479/211 966/255/212 965/256/212 963/480/211
f 966/255/212 968/481/213 967/482/213 965/256/212
f 968/481/213 970/257/214 969/258/214 967/482/213
f 970/257/214 972/483/215 971/484/215 969/258/214
f 972/483/215 974/259/216 973/260/216 971/484/215
f 974/259/216 976/485/217 975/486/217 973/260/216
f 976/485/217 978/261/218 977/262/218 975/486/217
f 978/261/218 980/487/219 979/488/219 977/262/218
f 980/487/219 982/263/220 981/264/220 979/488/219
f 982/263/220 984/489/221 983/490/221 981/264/220
f 984/489/221 986/265/222 985/266/222 983/490/221
f 986/265/222 988/491/123 987/492/123 985/266/222
f 988/491/123 990/267/223 989/268/223 987/492/123
f 990/267/223 992/493/224 991/494/224 989/268/223
f 992/493/224 994/269/225 993/270/225 991/494/224
f 994/269/225 996/495/226 995/496/226 993/270/225
f 996/495/226 998/271/227 997/272/227 995/496/226
f 998/271/227 1000/497/228 999/498/228 997/272/227
f 1000/497/228 1002/273/229 1001/274/229 999/498/228
f 1002/273/229 1004/499/230 1003/500/230 1001/274/229
f 1004/499/230 1006/275/231 1005/276/231 1003/500/230
f 1006/275/231 1008/501/232 1007/502/232 1005/276/231
f 1008/501/232 1010/277/233 1009/278/233 1007/502/232
f 1010/277/233 1012/377/234 1011/104/234 1009/278/233
f 1012/377/234 1014/279/235 1013/280/235 1011/104/234
f 1014/279/235 1016/503/236 1015/504/236 1013/280/235
f 1016/503/236 1018/281/237 1017/282/237 1015/504/236
f 1018/281/237 1020/505/238 1019/506/238 1017/282/237
f 1020/505/238 1022/283/239 1021/284/239 1019/506/238
f 1022/283/239 1024/507/240 1023/508/240 1021/284/239
f 1024/507/240 1026/285/241 1025/286/241 1023/508/240
f 1026/285/241 1028/509/242 1027/510/242 1025/286/241
f 1028/509/242 1030/287/243 1029/288/243 1027/510/242
f 1030/287/243 1032/511/244 1031/512/244 1029/288/243
f 1032/511/244 1034/289/245 1033/290/245 1031/512/244
f 1034/289/245 1036/513/246 1035/514/246 1033/290/245
f 1036/513/246 1038/291/247 1037/292/247 1035/514/246
f 1038/291/247 1040/515/248 1039/516/248 1037/292/247
f 1040/515/248 1042/293/249 1041/294/249 1039/516/248
f 1042/293/249 1044/517/250 1043/518/250 1041/294/249
f 1044/517/250 1046/295/251 1045/296/251 1043/518/250
f 1046/295/251 1048/519/252 1047/520/252 1045/296/251
f 1048/519/252 1050/297/253 1049/298/253 1047/520/252
f 1050/297/253 1052/521/254 1051/522/254 1049/298/253
f 1052/521/254 1054/299/255 1053/300/255 1051/522/254
f 1054/299/255 1056/523/256 1055/524/256 1053/300/255
f 1056/523/256 1058/301/257 1057/302/257 1055/524/256
f 1058/301/257 1060/525/34 1059/526/34 1057/302/257
f 1060/525/34 1062/303/34 1061/304/34 1059/526/34
f 1062/303/34 1064/527/258 1063/528/258 1061/304/34
f 1064/527/258 1066/305/259 1065/306/259 1063/528/258
f 1066/305/259 1068/529/62 1067/530/62 1065/306/259
f 1068/529/62 954/307/62 953/16/62 1067/530/62
