# Blender 5.0.1
# www.blender.org
o square_tree
v -0.154532 0.000000 0.154532
v -0.091733 0.471355 0.091733
v -0.154532 0.000000 -0.154532
v -0.091733 0.471355 -0.091733
v 0.154532 0.000000 0.154532
v 0.091733 0.471355 0.091733
v 0.154532 0.000000 -0.154532
v 0.091733 0.471355 -0.091733
v -0.529463 0.352389 0.529463
v -0.529463 0.352389 -0.529463
v 0.529463 0.352389 0.529463
v 0.529463 0.352389 -0.529463
v 0.000000 1.872200 0.000000
vn -0.9912 0.1321 -0.0000
vn -0.0000 0.1321 -0.9912
vn 0.9912 0.1321 -0.0000
vn -0.0000 0.1321 0.9912
vn -0.0000 -1.0000 -0.0000
vn 0.9443 0.3290 -0.0000
vn -0.9443 0.3290 -0.0000
vn -0.0000 0.3290 0.9443
vn -0.0000 0.3290 -0.9443
vt 0.704153 0.837574
vt 0.704153 0.743162
vt 0.785420 0.743162
vt 0.785420 0.837574
vt 0.866687 0.743162
vt 0.866687 0.837574
vt 0.704153 0.931987
vt 0.785420 0.931987
vt 0.866687 0.931987
vt 0.947954 0.743162
vt 0.947954 0.824429
vt 0.866687 0.824429
vt 0.155514 0.225623
vt 0.077115 0.203123
vt 0.155514 0.077784
vt 0.233914 0.225623
vt 0.155514 0.203123
vt 0.233914 0.077784
vt 0.312313 0.225623
vt 0.233914 0.203123
vt 0.312313 0.077784
vt 0.155514 0.373461
vt 0.077115 0.350961
vt 0.155514 0.225623
s 0
f 1/1/1 2/2/1 4/3/1 3/4/1
f 3/4/2 4/3/2 8/5/2 7/6/2
f 7/7/3 8/1/3 6/4/3 5/8/3
f 5/8/4 6/4/4 2/6/4 1/9/4
f 3/10/5 7/11/5 5/12/5 1/5/5
f 11/13/6 12/14/6 13/15/6
f 10/16/7 9/17/7 13/18/7
f 9/19/8 11/20/8 13/21/8
f 12/22/9 10/23/9 13/24/9
