# Blender 5.0.1
# www.blender.org
o Cube.001
v -1.389413 1.013912 1.000000
v -1.389413 3.013912 1.000000
v -1.389413 1.013912 -1.000000
v -1.389413 3.013912 -1.000000
v 1.000000 1.139598 0.874314
v 1.000000 3.013912 1.000000
v 1.000000 1.139598 -0.874314
v 1.000000 3.013912 -1.000000
v -1.389413 2.604547 1.000000
v -1.389413 2.604547 -1.000000
v 1.000000 2.478861 -0.874314
v 1.000000 2.478861 0.874314
v 1.000000 2.604547 -1.000000
v 1.000000 1.013912 -1.000000
v 1.000000 1.013912 1.000000
v 1.000000 2.604547 1.000000
v 1.237577 2.478861 -0.874314
v 1.237577 1.139598 -0.874314
v 1.237577 1.139598 0.874314
v 1.237577 2.478861 0.874314
v 1.237577 2.588015 -1.016832
v 1.237577 1.030445 -1.016832
v 1.237577 1.030445 1.016832
v 1.237577 2.588015 1.016832
v 1.888526 2.014053 -1.016832
v 1.888526 1.030445 -1.016832
v 1.888526 1.030445 1.016832
v 1.888526 2.014053 1.016832
v 0.151438 0.940629 0.958206
v 0.151438 0.940629 -0.958206
v -0.859953 0.956855 -0.958206
v -0.859953 0.956855 0.958206
v -0.770734 0.948068 -0.958206
v -0.770734 0.948067 0.958206
v -0.684943 0.922043 -0.958206
v -0.684943 0.922043 0.958206
v -0.605877 0.879782 -0.958206
v -0.605877 0.879782 0.958206
v -0.536576 0.822908 -0.958206
v -0.536576 0.822907 0.958206
v -0.479701 0.753606 -0.958206
v -0.479701 0.753606 0.958206
v -0.437440 0.674540 -0.958206
v -0.437440 0.674540 0.958206
v -0.411416 0.588750 -0.958206
v -0.411416 0.588750 0.958206
v -0.402628 0.499530 -0.958206
v -0.402628 0.499530 0.958206
v -0.411416 0.410310 -0.958206
v -0.411416 0.410310 0.958206
v -0.437440 0.324519 -0.958206
v -0.437440 0.324519 0.958206
v -0.479701 0.245454 -0.958206
v -0.479701 0.245453 0.958206
v -0.536576 0.176152 -0.958206
v -0.536576 0.176152 0.958206
v -0.605877 0.119278 -0.958206
v -0.605877 0.119278 0.958206
v -0.684943 0.077017 -0.958206
v -0.684943 0.077017 0.958206
v -0.770734 0.050992 -0.958206
v -0.770734 0.050992 0.958206
v -0.859953 0.042205 -0.958206
v -0.859953 0.042205 0.958206
v -0.949173 0.050992 -0.958206
v -0.949173 0.050992 0.958206
v -1.034964 0.077017 -0.958206
v -1.034964 0.077017 0.958206
v -1.114030 0.119278 -0.958206
v -1.114030 0.119278 0.958206
v -1.183331 0.176152 -0.958206
v -1.183331 0.176152 0.958206
v -1.240205 0.245454 -0.958206
v -1.240205 0.245453 0.958206
v -1.282466 0.324519 -0.958206
v -1.282466 0.324519 0.958206
v -1.308491 0.410310 -0.958206
v -1.308491 0.410310 0.958206
v -1.317279 0.499530 -0.958206
v -1.317279 0.499530 0.958206
v -1.308491 0.588750 -0.958206
v -1.308491 0.588750 0.958206
v -1.282466 0.674540 -0.958206
v -1.282466 0.674540 0.958206
v -1.240205 0.753606 -0.958206
v -1.240205 0.753606 0.958206
v -1.183331 0.822908 -0.958206
v -1.183331 0.822907 0.958206
v -1.114030 0.879782 -0.958206
v -1.114030 0.879782 0.958206
v -1.034964 0.922043 -0.958206
v -1.034964 0.922043 0.958206
v -0.949173 0.948068 -0.958206
v -0.949173 0.948067 0.958206
v 0.240657 0.931842 -0.958206
v 0.240657 0.931842 0.958206
v 0.326448 0.905818 -0.958206
v 0.326448 0.905818 0.958206
v 0.405514 0.863556 -0.958206
v 0.405514 0.863556 0.958206
v 0.474815 0.806682 -0.958206
v 0.474815 0.806682 0.958206
v 0.531690 0.737381 -0.958206
v 0.531690 0.737381 0.958206
v 0.573951 0.658315 -0.958206
v 0.573951 0.658315 0.958206
v 0.599975 0.572524 -0.958206
v 0.599975 0.572524 0.958206
v 0.608763 0.483304 -0.958206
v 0.608763 0.483304 0.958206
v 0.599975 0.394085 -0.958206
v 0.599975 0.394085 0.958206
v 0.573951 0.308293 -0.958206
v 0.573951 0.308293 0.958206
v 0.531690 0.229228 -0.958206
v 0.531690 0.229228 0.958206
v 0.474815 0.159927 -0.958206
v 0.474815 0.159927 0.958206
v 0.405514 0.103053 -0.958206
v 0.405514 0.103053 0.958206
v 0.326448 0.060791 -0.958206
v 0.326448 0.060791 0.958206
v 0.240657 0.034766 -0.958206
v 0.240657 0.034766 0.958206
v 0.151438 0.025979 -0.958206
v 0.151438 0.025979 0.958206
v 0.062218 0.034766 -0.958206
v 0.062218 0.034766 0.958206
v -0.023573 0.060791 -0.958206
v -0.023573 0.060791 0.958206
v -0.102639 0.103053 -0.958206
v -0.102639 0.103053 0.958206
v -0.171940 0.159927 -0.958206
v -0.171940 0.159927 0.958206
v -0.228814 0.229228 -0.958206
v -0.228814 0.229228 0.958206
v -0.271075 0.308293 -0.958206
v -0.271075 0.308293 0.958206
v -0.297100 0.394085 -0.958206
v -0.297100 0.394085 0.958206
v -0.305887 0.483304 -0.958206
v -0.305887 0.483304 0.958206
v -0.297100 0.572524 -0.958206
v -0.297100 0.572524 0.958206
v -0.271075 0.658315 -0.958206
v -0.271075 0.658315 0.958206
v -0.228814 0.737381 -0.958206
v -0.228814 0.737381 0.958206
v -0.171940 0.806682 -0.958206
v -0.171940 0.806682 0.958206
v -0.102639 0.863556 -0.958206
v -0.102639 0.863556 0.958206
v -0.023573 0.905818 -0.958206
v -0.023573 0.905818 0.958206
v 0.062218 0.931842 -0.958206
v 0.062218 0.931842 0.958206
v 1.287225 0.946038 0.958206
v 1.287225 0.946038 -0.958206
v 1.376444 0.937251 -0.958206
v 1.376444 0.937250 0.958206
v 1.462235 0.911226 -0.958206
v 1.462235 0.911226 0.958206
v 1.541301 0.868965 -0.958206
v 1.541301 0.868965 0.958206
v 1.610602 0.812091 -0.958206
v 1.610602 0.812090 0.958206
v 1.667476 0.742789 -0.958206
v 1.667476 0.742789 0.958206
v 1.709738 0.663723 -0.958206
v 1.709738 0.663723 0.958206
v 1.735762 0.577933 -0.958206
v 1.735762 0.577933 0.958206
v 1.744550 0.488713 -0.958206
v 1.744550 0.488713 0.958206
v 1.735762 0.399493 -0.958206
v 1.735762 0.399493 0.958206
v 1.709738 0.313702 -0.958206
v 1.709738 0.313702 0.958206
v 1.667476 0.234637 -0.958206
v 1.667476 0.234636 0.958206
v 1.610602 0.165335 -0.958206
v 1.610602 0.165335 0.958206
v 1.541301 0.108461 -0.958206
v 1.541301 0.108461 0.958206
v 1.462235 0.066200 -0.958206
v 1.462235 0.066200 0.958206
v 1.376444 0.040175 -0.958206
v 1.376444 0.040175 0.958206
v 1.287225 0.031388 -0.958206
v 1.287225 0.031388 0.958206
v 1.198005 0.040175 -0.958206
v 1.198005 0.040175 0.958206
v 1.112214 0.066200 -0.958206
v 1.112214 0.066200 0.958206
v 1.033148 0.108461 -0.958206
v 1.033148 0.108461 0.958206
v 0.963847 0.165335 -0.958206
v 0.963847 0.165335 0.958206
v 0.906973 0.234637 -0.958206
v 0.906973 0.234636 0.958206
v 0.864711 0.313702 -0.958206
v 0.864711 0.313702 0.958206
v 0.838687 0.399493 -0.958206
v 0.838687 0.399493 0.958206
v 0.829899 0.488713 -0.958206
v 0.829899 0.488713 0.958206
v 0.838687 0.577933 -0.958206
v 0.838687 0.577933 0.958206
v 0.864711 0.663723 -0.958206
v 0.864711 0.663723 0.958206
v 0.906973 0.742789 -0.958206
v 0.906973 0.742789 0.958206
v 0.963847 0.812091 -0.958206
v 0.963847 0.812090 0.958206
v 1.033148 0.868965 -0.958206
v 1.033148 0.868965 0.958206
v 1.112214 0.911226 -0.958206
v 1.112214 0.911226 0.958206
v 1.198005 0.937251 -0.958206
v 1.198005 0.937250 0.958206
vn -1.0000 -0.0000 -0.0000
vn -0.0000 -0.0000 -1.0000
vn 1.0000 -0.0000 -0.0000
vn -0.0000 -0.0000 1.0000
vn -0.0000 -1.0000 -0.0000
vn -0.0000 1.0000 -0.0000
vn 0.6614 0.7501 -0.0000
vn 0.6344 0.7730 -0.0000
vn 0.0980 0.9952 -0.0000
vn -0.4714 0.8819 -0.0000
vn 0.2903 0.9569 -0.0000
vn 0.8819 0.4714 -0.0000
vn -0.6344 0.7730 -0.0000
vn 0.4714 0.8819 -0.0000
vn 0.9569 0.2903 -0.0000
vn -0.7730 0.6344 -0.0000
vn 0.9952 0.0980 -0.0000
vn -0.8819 0.4714 -0.0000
vn 0.7730 0.6344 -0.0000
vn 0.9952 -0.0980 -0.0000
vn -0.9569 0.2903 -0.0000
vn 0.9569 -0.2903 -0.0000
vn -0.9952 0.0980 -0.0000
vn 0.8819 -0.4714 -0.0000
vn -0.9952 -0.0980 -0.0000
vn 0.7730 -0.6344 -0.0000
vn -0.9569 -0.2903 -0.0000
vn 0.6344 -0.7730 -0.0000
vn -0.8819 -0.4714 -0.0000
vn 0.4714 -0.8819 -0.0000
vn -0.7730 -0.6344 -0.0000
vn 0.2903 -0.9569 -0.0000
vn -0.6344 -0.7730 -0.0000
vn 0.0980 -0.9952 -0.0000
vn -0.4714 -0.8819 -0.0000
vn -0.0980 -0.9952 -0.0000
vn -0.2903 -0.9569 -0.0000
vn -0.0980 0.9952 -0.0000
vn -0.2903 0.9569 -0.0000
vt 0.573829 0.000000
vt 0.625000 0.000000
vt 0.625000 0.250000
vt 0.573829 0.250000
vt 0.625000 0.500000
vt 0.573829 0.500000
vt 0.625000 0.750000
vt 0.573829 0.750000
vt 0.625000 1.000000
vt 0.573829 1.000000
vt 0.125000 0.500000
vt 0.375000 0.500000
vt 0.375000 0.750000
vt 0.125000 0.750000
vt 0.875000 0.500000
vt 0.875000 0.750000
vt 0.375000 1.000000
vt 0.558119 0.515711
vt 0.558119 0.734289
vt 0.375000 0.250000
vt 0.375000 0.000000
vt 0.390711 0.515711
vt 0.390711 0.734289
vt 0.906250 0.500000
vt 0.906250 1.000000
vt 0.875000 1.000000
vt 0.296822 0.485388
vt 0.250000 0.490000
vt 0.203178 0.485388
vt 0.158156 0.471731
vt 0.116663 0.449553
vt 0.080294 0.419706
vt 0.050447 0.383337
vt 0.028269 0.341844
vt 0.014612 0.296822
vt 0.010000 0.250000
vt 0.014612 0.203178
vt 0.028269 0.158156
vt 0.050447 0.116663
vt 0.080294 0.080294
vt 0.116663 0.050447
vt 0.158156 0.028269
vt 0.203178 0.014612
vt 0.250000 0.010000
vt 0.296822 0.014612
vt 0.341844 0.028269
vt 0.383337 0.050447
vt 0.419706 0.080294
vt 0.449553 0.116663
vt 0.471731 0.158156
vt 0.485388 0.203178
vt 0.490000 0.250000
vt 0.485388 0.296822
vt 0.471731 0.341844
vt 0.449553 0.383337
vt 0.419706 0.419706
vt 0.383337 0.449553
vt 0.341844 0.471731
vt 1.000000 0.500000
vt 1.000000 1.000000
vt 0.968750 1.000000
vt 0.968750 0.500000
vt 0.750000 0.490000
vt 0.796822 0.485388
vt 0.841844 0.471731
vt 0.883337 0.449553
vt 0.919706 0.419706
vt 0.949553 0.383337
vt 0.971731 0.341844
vt 0.985388 0.296822
vt 0.990000 0.250000
vt 0.985388 0.203178
vt 0.971731 0.158156
vt 0.949553 0.116663
vt 0.919706 0.080294
vt 0.883337 0.050447
vt 0.841844 0.028269
vt 0.796822 0.014612
vt 0.750000 0.010000
vt 0.703178 0.014612
vt 0.658156 0.028269
vt 0.616663 0.050447
vt 0.580294 0.080294
vt 0.550447 0.116663
vt 0.528269 0.158156
vt 0.514612 0.203178
vt 0.510000 0.250000
vt 0.514612 0.296822
vt 0.528269 0.341844
vt 0.550447 0.383337
vt 0.580294 0.419706
vt 0.616663 0.449553
vt 0.658156 0.471731
vt 0.703178 0.485388
vt 0.093750 0.500000
vt 0.093750 1.000000
vt 0.062500 1.000000
vt 0.062500 0.500000
vt 0.937500 1.000000
vt 0.937500 0.500000
vt 0.843750 0.500000
vt 0.843750 1.000000
vt 0.812500 1.000000
vt 0.812500 0.500000
vt 0.125000 1.000000
vt 0.781250 1.000000
vt 0.781250 0.500000
vt 0.156250 0.500000
vt 0.156250 1.000000
vt 0.750000 1.000000
vt 0.750000 0.500000
vt 0.187500 0.500000
vt 0.187500 1.000000
vt 0.718750 1.000000
vt 0.718750 0.500000
vt 0.218750 0.500000
vt 0.218750 1.000000
vt 0.687500 1.000000
vt 0.687500 0.500000
vt 0.250000 0.500000
vt 0.250000 1.000000
vt 0.656250 1.000000
vt 0.656250 0.500000
vt 0.281250 0.500000
vt 0.281250 1.000000
vt 0.312500 0.500000
vt 0.312500 1.000000
vt 0.593750 1.000000
vt 0.593750 0.500000
vt 0.343750 0.500000
vt 0.343750 1.000000
vt 0.562500 1.000000
vt 0.562500 0.500000
vt 0.531250 1.000000
vt 0.531250 0.500000
vt 0.406250 0.500000
vt 0.406250 1.000000
vt 0.500000 1.000000
vt 0.500000 0.500000
vt 0.437500 0.500000
vt 0.437500 1.000000
vt 0.468750 1.000000
vt 0.468750 0.500000
vt 0.031250 0.500000
vt 0.031250 1.000000
vt 0.000000 1.000000
vt 0.000000 0.500000
s 0
f 9/1/1 2/2/1 4/3/1 10/4/1
f 10/4/2 4/3/2 8/5/2 13/6/2
f 13/6/3 8/5/3 6/7/3 16/8/3
f 16/8/4 6/7/4 2/9/4 9/10/4
f 3/11/5 14/12/5 15/13/5 1/14/5
f 8/5/6 4/15/6 2/16/6 6/7/6
f 15/13/4 16/8/4 9/10/4 1/17/4
f 11/18/6 12/19/6 20/19/6 17/18/6
f 3/20/2 10/4/2 13/6/2 14/12/2
f 1/21/1 9/1/1 10/4/1 3/20/1
f 11/18/3 7/22/3 14/12/3 13/6/3
f 7/22/3 5/23/3 15/13/3 14/12/3
f 5/23/3 12/19/3 16/8/3 15/13/3
f 12/19/3 11/18/3 13/6/3 16/8/3
f 20/19/1 19/23/1 23/23/1 24/19/1
f 5/23/5 7/22/5 18/22/5 19/23/5
f 12/19/4 5/23/4 19/23/4 20/19/4
f 7/22/2 11/18/2 17/18/2 18/22/2
f 22/22/2 21/18/2 25/18/2 26/22/2
f 18/22/1 17/18/1 21/18/1 22/22/1
f 17/18/1 20/19/1 24/19/1 21/18/1
f 19/23/1 18/22/1 22/22/1 23/23/1
f 26/22/3 25/18/3 28/19/3 27/23/3
f 21/18/7 24/19/7 28/19/7 25/18/7
f 23/23/5 22/22/5 26/22/5 27/23/5
f 24/19/4 23/23/4 27/23/4 28/19/4
f 163/24/8 164/25/8 166/26/8 165/15/8
f 96/27/4 29/28/4 156/29/4 154/30/4 152/31/4 150/32/4 148/33/4 146/34/4 144/35/4 142/36/4 140/37/4 138/38/4 136/39/4 134/40/4 132/41/4 130/42/4 128/43/4 126/44/4 124/45/4 122/46/4 120/47/4 118/48/4 116/49/4 114/50/4 112/51/4 110/52/4 108/53/4 106/54/4 104/55/4 102/56/4 100/57/4 98/58/4
f 31/59/9 32/60/9 34/61/9 33/62/9
f 158/63/2 159/64/2 161/65/2 163/66/2 165/67/2 167/68/2 169/69/2 171/70/2 173/71/2 175/72/2 177/73/2 179/74/2 181/75/2 183/76/2 185/77/2 187/78/2 189/79/2 191/80/2 193/81/2 195/82/2 197/83/2 199/84/2 201/85/2 203/86/2 205/87/2 207/88/2 209/89/2 211/90/2 213/91/2 215/92/2 217/93/2 219/94/2
f 151/95/10 152/96/10 154/97/10 153/98/10
f 33/62/11 34/61/11 36/99/11 35/100/11
f 167/101/12 168/102/12 170/103/12 169/104/12
f 149/11/13 150/105/13 152/96/13 151/95/13
f 35/100/14 36/99/14 38/25/14 37/24/14
f 169/104/15 170/103/15 172/106/15 171/107/15
f 147/108/16 148/109/16 150/105/16 149/11/16
f 37/24/8 38/25/8 40/26/8 39/15/8
f 171/107/17 172/106/17 174/110/17 173/111/17
f 145/112/18 146/113/18 148/109/18 147/108/18
f 39/15/19 40/26/19 42/102/19 41/101/19
f 173/111/20 174/110/20 176/114/20 175/115/20
f 143/116/21 144/117/21 146/113/21 145/112/21
f 41/101/12 42/102/12 44/103/12 43/104/12
f 175/115/22 176/114/22 178/118/22 177/119/22
f 141/120/23 142/121/23 144/117/23 143/116/23
f 43/104/15 44/103/15 46/106/15 45/107/15
f 177/119/24 178/118/24 180/122/24 179/123/24
f 139/124/25 140/125/25 142/121/25 141/120/25
f 45/107/17 46/106/17 48/110/17 47/111/17
f 179/123/26 180/122/26 182/9/26 181/5/26
f 137/126/27 138/127/27 140/125/27 139/124/27
f 47/111/20 48/110/20 50/114/20 49/115/20
f 181/5/28 182/9/28 184/128/28 183/129/28
f 135/130/29 136/131/29 138/127/29 137/126/29
f 49/115/22 50/114/22 52/118/22 51/119/22
f 183/129/30 184/128/30 186/132/30 185/133/30
f 133/12/31 134/17/31 136/131/31 135/130/31
f 51/119/24 52/118/24 54/122/24 53/123/24
f 185/133/32 186/132/32 188/134/32 187/135/32
f 131/136/33 132/137/33 134/17/33 133/12/33
f 53/123/26 54/122/26 56/9/26 55/5/26
f 187/135/34 188/134/34 190/138/34 189/139/34
f 129/140/35 130/141/35 132/137/35 131/136/35
f 55/5/28 56/9/28 58/128/28 57/129/28
f 189/139/36 190/138/36 192/142/36 191/143/36
f 127/143/37 128/142/37 130/141/37 129/140/37
f 57/129/30 58/128/30 60/132/30 59/133/30
f 191/143/37 192/142/37 194/141/37 193/140/37
f 125/139/36 126/138/36 128/142/36 127/143/36
f 59/133/32 60/132/32 62/134/32 61/135/32
f 193/140/35 194/141/35 196/137/35 195/136/35
f 123/135/34 124/134/34 126/138/34 125/139/34
f 61/135/34 62/134/34 64/138/34 63/139/34
f 195/136/33 196/137/33 198/17/33 197/12/33
f 121/133/32 122/132/32 124/134/32 123/135/32
f 63/139/36 64/138/36 66/142/36 65/143/36
f 197/12/31 198/17/31 200/131/31 199/130/31
f 119/129/30 120/128/30 122/132/30 121/133/30
f 65/143/37 66/142/37 68/141/37 67/140/37
f 199/130/29 200/131/29 202/127/29 201/126/29
f 117/5/28 118/9/28 120/128/28 119/129/28
f 67/140/35 68/141/35 70/137/35 69/136/35
f 201/126/27 202/127/27 204/125/27 203/124/27
f 115/123/26 116/122/26 118/9/26 117/5/26
f 69/136/33 70/137/33 72/17/33 71/12/33
f 203/124/25 204/125/25 206/121/25 205/120/25
f 113/119/24 114/118/24 116/122/24 115/123/24
f 71/12/31 72/17/31 74/131/31 73/130/31
f 205/120/23 206/121/23 208/117/23 207/116/23
f 111/115/22 112/114/22 114/118/22 113/119/22
f 73/130/29 74/131/29 76/127/29 75/126/29
f 207/116/21 208/117/21 210/113/21 209/112/21
f 109/111/20 110/110/20 112/114/20 111/115/20
f 75/126/27 76/127/27 78/125/27 77/124/27
f 209/112/18 210/113/18 212/109/18 211/108/18
f 107/107/17 108/106/17 110/110/17 109/111/17
f 77/124/25 78/125/25 80/121/25 79/120/25
f 211/108/16 212/109/16 214/105/16 213/11/16
f 105/104/15 106/103/15 108/106/15 107/107/15
f 79/120/23 80/121/23 82/117/23 81/116/23
f 213/11/13 214/105/13 216/96/13 215/95/13
f 103/101/12 104/102/12 106/103/12 105/104/12
f 81/116/21 82/117/21 84/113/21 83/112/21
f 215/95/10 216/96/10 218/97/10 217/98/10
f 101/15/19 102/26/19 104/102/19 103/101/19
f 83/112/18 84/113/18 86/109/18 85/108/18
f 160/27/4 157/28/4 220/29/4 218/30/4 216/31/4 214/32/4 212/33/4 210/34/4 208/35/4 206/36/4 204/37/4 202/38/4 200/39/4 198/40/4 196/41/4 194/42/4 192/43/4 190/44/4 188/45/4 186/46/4 184/47/4 182/48/4 180/49/4 178/50/4 176/51/4 174/52/4 172/53/4 170/54/4 168/55/4 166/56/4 164/57/4 162/58/4
f 99/24/8 100/25/8 102/26/8 101/15/8
f 85/108/16 86/109/16 88/105/16 87/11/16
f 30/63/2 95/64/2 97/65/2 99/66/2 101/67/2 103/68/2 105/69/2 107/70/2 109/71/2 111/72/2 113/73/2 115/74/2 117/75/2 119/76/2 121/77/2 123/78/2 125/79/2 127/80/2 129/81/2 131/82/2 133/83/2 135/84/2 137/85/2 139/86/2 141/87/2 143/88/2 145/89/2 147/90/2 149/91/2 151/92/2 153/93/2 155/94/2
f 97/100/14 98/99/14 100/25/14 99/24/14
f 87/11/13 88/105/13 90/96/13 89/95/13
f 155/144/38 156/145/38 29/146/38 30/147/38
f 95/62/11 96/61/11 98/99/11 97/100/11
f 89/95/10 90/96/10 92/97/10 91/98/10
f 34/27/4 32/28/4 94/29/4 92/30/4 90/31/4 88/32/4 86/33/4 84/34/4 82/35/4 80/36/4 78/37/4 76/38/4 74/39/4 72/40/4 70/41/4 68/42/4 66/43/4 64/44/4 62/45/4 60/46/4 58/47/4 56/48/4 54/49/4 52/50/4 50/51/4 48/52/4 46/53/4 44/54/4 42/55/4 40/56/4 38/57/4 36/58/4
f 30/59/9 29/60/9 96/61/9 95/62/9
f 91/98/39 92/97/39 94/145/39 93/144/39
f 165/15/19 166/26/19 168/102/19 167/101/19
f 153/98/39 154/97/39 156/145/39 155/144/39
f 93/144/38 94/145/38 32/146/38 31/147/38
f 31/63/2 33/64/2 35/65/2 37/66/2 39/67/2 41/68/2 43/69/2 45/70/2 47/71/2 49/72/2 51/73/2 53/74/2 55/75/2 57/76/2 59/77/2 61/78/2 63/79/2 65/80/2 67/81/2 69/82/2 71/83/2 73/84/2 75/85/2 77/86/2 79/87/2 81/88/2 83/89/2 85/90/2 87/91/2 89/92/2 91/93/2 93/94/2
f 161/100/14 162/99/14 164/25/14 163/24/14
f 219/144/38 220/145/38 157/146/38 158/147/38
f 159/62/11 160/61/11 162/99/11 161/100/11
f 158/59/9 157/60/9 160/61/9 159/62/9
f 217/98/39 218/97/39 220/145/39 219/144/39
