<?xml version="1.0" encoding="UTF-8" standalone="no"?>
<!-- Created with Inkscape (http://www.inkscape.org/) -->

<svg
   width="231.28209mm"
   height="185.4718mm"
   viewBox="0 0 231.28209 185.4718"
   version="1.1"
   id="svg1"
   xml:space="preserve"
   xmlns="http://www.w3.org/2000/svg"
   xmlns:svg="http://www.w3.org/2000/svg"><defs
     id="defs1" /><g
     id="layer1"
     transform="translate(-154.67487,14.053192)"><path
       style="fill:#fefefe"
       d="m 162.44767,171.22535 c -0.44668,-0.27091 -0.86591,-0.66606 -0.86591,-0.81617 0,-0.0573 -0.20832,-0.56142 -0.46294,-1.12018 -1.10844,-2.43243 -1.86133,-10.35046 -1.47484,-15.51065 0.62502,-8.34494 2.54582,-15.02185 6.07109,-21.10376 0.36806,-0.635 0.80848,-1.403 0.9787,-1.70667 0.34063,-0.60766 1.63801,-2.47026 1.82695,-2.62288 0.0655,-0.0529 0.39002,-0.47344 0.72112,-0.93449 0.65717,-0.9151 1.38511,-1.7988 3.33042,-4.04302 2.01906,-2.32931 7.5979,-7.42912 9.71946,-8.88489 0.22506,-0.15443 1.40484,-1.03537 2.62174,-1.95764 1.2169,-0.92227 2.43986,-1.78043 2.71769,-1.90702 0.27784,-0.12659 0.50516,-0.28691 0.50516,-0.35627 0,-0.0694 0.36801,-0.32943 0.8178,-0.57795 0.44979,-0.24851 1.16417,-0.68631 1.5875,-0.97289 0.94275,-0.6382 3.04636,-1.89696 6.35,-3.79971 3.9308,-2.26396 15.46975,-7.867727 19.43485,-9.438317 0.52917,-0.2096 2.26098,-0.95997 3.84848,-1.66748 1.5875,-0.70751 3.36262,-1.48951 3.9447,-1.73778 0.58208,-0.24827 1.53458,-0.68398 2.11667,-0.96825 0.58208,-0.28426 1.75106,-0.80028 2.59772,-1.14669 3.18982,-1.30513 4.89009,-2.09129 9.23637,-4.27068 5.42958,-2.7226 8.74542,-4.45405 9.71742,-5.0742 6.58661,-4.20237 7.57602,-4.94913 10.83656,-8.17885 2.95514,-2.9272 3.66105,-3.86726 4.61122,-6.14068 0.73525,-1.75922 0.90853,-4.05162 0.44339,-5.8658 -0.51759,-2.01872 -2.16678,-4.77642 -4.2454,-7.09895 -1.93241,-2.15916 -6.96873,-6.84864 -9.32521,-8.68298 -0.6174,-0.48061 -1.11423,-0.88742 -1.8395,-1.50623 -0.21166,-0.18059 -1.46723,-1.20369 -2.79015,-2.27355 -1.32292,-1.06985 -2.58781,-2.10747 -2.81087,-2.30581 -0.22307,-0.19834 -0.93879,-0.82676 -1.59049,-1.39648 -1.45795,-1.27453 -2.18233,-1.99652 -4.19648,-4.18264 -4.81106,-5.22183 -6.76424,-9.10394 -7.37835,-14.66514 -0.37342,-3.38147 0.10851,-5.72281 1.84139,-8.9460805 1.47928,-2.75157 2.63187,-4.22021 5.76514,-7.34604 2.95085,-2.94383999 4.63797,-4.24069 11.15981,-8.57832 2.16017,-1.43672 8.19975,-4.8719995 10.58334,-6.0197495 2.52967,-1.2181 4.52197,-1.7896 4.52197,-1.29714 0,0.11695 0.0856,0.21263 0.19022,0.21263 0.2928,0 0.96432,0.63278 0.96432,0.90868 0,0.13523 0.0866,0.24587 0.19243,0.24587 0.56817,0 -0.0941,2.15466 -0.7759,2.5243195 -0.15534,0.0842 -1.36482,0.6829 -2.68774,1.3304 -1.32292,0.6475 -2.53519,1.29166 -2.69394,1.43146 -0.15875,0.13981 -0.60506,0.41471 -0.99181,0.6109 -1.65144,0.83775 -4.86004,2.75812 -7.16678,4.28937 -1.36514,0.9062 -2.83718,1.87880001 -3.27121,2.16132001 -0.43403,0.28252 -0.87573,0.58852 -0.98156,0.67999 -0.10584,0.0915 -0.71197,0.53197999 -1.34697,0.97890999 -1.53786,1.08238 -2.23788,1.69649 -4.60303,4.03808 -2.59149,2.56567 -3.76497,4.10743 -4.96731,6.5262205 -0.95257,1.91632 -0.98152,2.02425 -1.05895,3.94922 -0.10996,2.73388 0.40886,5.22499 1.58218,7.5968 0.48138,0.97309 0.9836,1.88229 1.11605,2.02045 0.13245,0.13816 0.57852,0.72745 0.99128,1.30953 0.41276,0.58208 1.01738,1.34975 1.34361,1.70593 1.60874,1.75643 3.90431,4.16446 4.22851,4.43565 0.20029,0.16755 0.76906,0.65099 1.26393,1.07433 2.08545,1.78399 2.86416,2.43275 4.04842,3.37286 0.68792,0.54609 1.42394,1.1365 1.63561,1.31202 0.21167,0.17552 0.8611,0.7079 1.44318,1.18306 4.01863,3.28046 5.52834,4.62752 8.73527,7.79418 2.20563,2.17793 4.11971,4.42023 4.92775,5.77273 0.25292,0.42333 0.51158,0.81299 0.57481,0.8659 0.29048,0.24311 1.03807,1.73804 1.6418,3.28305 1.93339,4.9478 0.91312,10.26162 -2.85703,14.88012 -0.63551,0.7785 -5.07435,5.26409 -5.54285,5.60123 -0.14708,0.10583 -0.61297,0.47685 -1.03532,0.82449 -1.01152,0.83259 -0.83298,0.70084 -3.39366,2.50419 -1.23249,0.86797 -2.32931,1.57814 -2.43737,1.57814 -0.10806,0 -0.22534,0.0702 -0.26062,0.15597 -0.0353,0.0858 -0.62698,0.49058 -1.3149,0.89954 -0.68792,0.40895 -1.46185,0.87996 -1.71985,1.04667 -0.25801,0.16672 -1.23764,0.69278 -2.17698,1.16903 -8.36131,4.23926 -12.39789,6.22515 -13.66914,6.72485 -0.82419,0.32398 -1.99317,0.83713 -2.59772,1.14034 -0.60455,0.30321 -1.31567,0.61332 -1.58025,0.68915 -0.44757,0.12826 -3.03075,1.27569 -5.96515,2.64968 -0.68792,0.3221 -2.03008,0.91138 -2.98258,1.3095 -4.50581,1.883317 -8.29369,3.612227 -12.79534,5.840207 -2.69827,1.33545 -4.96032,2.42809 -5.02677,2.42809 -0.0664,0 -0.80286,0.40207 -1.63647,0.89349 -0.83361,0.49142 -2.77123,1.63262 -4.30581,2.53599 -2.89286,1.70296 -5.18848,3.13317 -6.35,3.95617 -1.42148,1.0072 -5.5119,4.04857 -6.0866,4.5256 -0.33138,0.27506 -0.97853,0.80318 -1.4381,1.17359 -2.62074,2.11232 -6.84716,6.38901 -8.52551,8.6269 -0.22113,0.29486 -0.51191,0.66086 -0.64616,0.81332 -0.6141,0.6974 -1.00666,1.2117 -1.00666,1.31884 0,0.0643 -0.20263,0.33538 -0.4503,0.60247 -0.60164,0.64884 -2.48465,3.86719 -3.59286,6.14075 -2.58027,5.29353 -4.0403,12.27643 -4.0372,19.30871 0.002,3.76865 0.15329,5.38886 0.88684,9.47671 0.54025,3.0106 0.52506,3.52828 -0.12621,4.3006 -0.45478,0.53931 -1.95926,0.75645 -2.59012,0.37383 z m 154.00852,-0.51239 c -1.30558,-0.54087 -4.90547,-5.07052 -8.28554,-10.42549 -1.22717,-1.94417 -4.06681,-8.10374 -4.8347,-10.48713 -1.55627,-4.83031 -1.12138,-10.9872 1.18249,-16.7409 0.21189,-0.52917 0.57351,-1.43838 0.80361,-2.02046 0.74982,-1.89682 2.91051,-5.87193 3.45158,-6.35 0.0599,-0.0529 0.28207,-0.41009 0.49374,-0.79373 0.21166,-0.38363 0.55803,-0.93562 0.76969,-1.22663 0.21167,-0.29101 0.70547,-0.97292 1.09733,-1.51536 0.39186,-0.54244 0.78282,-1.07284 0.86879,-1.17867 0.086,-0.10584 0.4871,-0.64703 0.89141,-1.20265 0.4043,-0.55563 0.80848,-1.01023 0.89817,-1.01023 0.0897,0 0.21234,-0.15154 0.27257,-0.33674 0.0602,-0.18521 0.39155,-0.63981 0.73627,-1.01023 0.34473,-0.37042 1.01542,-1.14974 1.49044,-1.73182 0.85445,-1.04706 6.87809,-7.23276 10.36667,-10.64558 0.99274,-0.97118 2.46479,-2.44977 3.27121,-3.28574 0.80643,-0.835977 2.23315,-2.308027 3.17048,-3.271217 2.07855,-2.13587 3.22027,-3.37267 4.35712,-4.72 0.47625,-0.56443 0.95323,-1.12315 1.05996,-1.24162 0.10674,-0.11846 0.75617,-0.86482 1.44319,-1.65857 0.68701,-0.79375 1.29242,-1.48647 1.34533,-1.53939 0.91271,-0.91271 3.35646,-4.82427 4.62836,-7.40833 1.84925,-3.75704 2.301,-7.83474 1.25776,-11.35303 -0.93429,-3.15085 -2.82666,-6.66524 -4.81414,-8.94051 -1.832,-2.09728 -5.90781,-5.9586 -7.30791,-6.92334 -0.22149,-0.15261 -0.446,-0.32729 -0.49892,-0.38818 -0.21668,-0.2493 -3.24897,-2.66829 -4.23333,-3.3771 -0.58208,-0.41915 -1.14492,-0.83395 -1.25076,-0.92179 -0.19578,-0.1625 -2.66566,-1.73965 -4.17286,-2.66461 -0.45659,-0.2802 -1.4796,-0.91957 -2.27335,-1.42081 -3.31169,-2.0913 -5.37588,-3.27108 -8.70288,-4.97408 -1.93383,-0.98987 -4.64174,-2.40115 -6.01757,-3.13616 -2.50024,-1.3357 -3.97129,-2.06186 -7.40834,-3.65696 -3.26109,-1.51345 -8.78122,-4.48816 -11.83409,-6.37721 -4.50654,-2.78855 -8.03753,-6.3584 -9.26427,-9.36622 -0.4952,-1.21418 -0.54908,-1.56513 -0.54645,-3.55985 0.003,-2.00461 0.0543,-2.33059 0.54873,-3.46364 1.36939,-3.1380305 5.94277,-8.1103405 9.86561,-10.72617049 0.19718,-0.13148 1.10994,-0.75927001 2.02837,-1.39508001 0.91843,-0.63581 1.75547,-1.15602 1.8601,-1.15602 0.10463,0 0.2191,-0.0731 0.25438,-0.16249 0.32958,-0.83492 10.65555,-6.22142 16.03535,-8.3647695 0.9525,-0.37948 2.68432,-1.08314 3.84849,-1.56368 1.16416,-0.48054 2.2725,-0.8745 2.46296,-0.87547 0.52557,-0.003 1.40025,0.50743 1.84959,1.07867 0.81329,1.03393 0.26935,2.8043695 -1.02143,3.3245895 -0.32845,0.13237 -0.98684,0.4032 -1.46309,0.60184 -0.47625,0.19864 -1.08239,0.41716 -1.34697,0.48561 -0.5957,0.1541 -1.66873,0.66244 -9.04394,4.28455 -6.2235,3.05648 -8.77107,4.60033001 -14.01301,8.49202 -3.12664,2.32126 -5.75692,5.20497 -6.82544,7.4830705 -1.10842,2.36314 -0.46071,4.33007 2.33962,7.10481 3.02139,2.9938 8.42963,6.21437 18.63799,11.09878 2.35195,1.12534 5.46923,2.6812 6.92727,3.45745 1.45804,0.77626 3.73338,1.97229 5.05629,2.65784 2.75432,1.42733 5.37019,2.87271 6.35,3.50865 0.37042,0.24041 1.32292,0.84939 2.11667,1.35328 0.79375,0.5039 2.00602,1.28223 2.69394,1.72964 0.68792,0.44741 1.59712,1.01622 2.02045,1.26404 0.42334,0.24781 0.98618,0.60944 1.25076,0.80362 0.26458,0.19417 1.21708,0.88979 2.11667,1.54581 0.89958,0.65602 1.93867,1.47585 2.30909,1.82185 0.37042,0.34599 0.73224,0.62982 0.80406,0.63074 0.0718,9.2e-4 0.24499,0.113 0.38485,0.24907 0.21551,0.2097 1.88212,1.60655 2.9594,2.4804 1.65277,1.34067 5.5326,5.3336 7.17684,7.38606 1.52607,1.90495 3.6524,6.02948 4.45807,8.6475 1.28569,4.17782 1.27139,7.98224 -0.0452,12.02581 -0.4756,1.46069 -2.04907,4.88768 -2.80271,6.10424 -1.36164,2.19803 -2.6943,4.21833 -2.95502,4.4798 -0.15829,0.15875 -0.36879,0.42965 -0.46777,0.602 -0.14776,0.25731 -1.72257,2.11677 -2.4912,2.9415 -0.10702,0.11482 -0.62656,0.72806 -1.15455,1.36274 -0.52798,0.63468 -1.21974,1.43061 -1.53724,1.76873 -0.3175,0.33812 -0.66386,0.71077 -0.76969,0.82812 -0.10584,0.11734 -0.46718,0.49039 -0.80298,0.829 -0.3358,0.3386 -1.35736,1.39496 -2.27012,2.347457 -2.04584,2.13491 -5.62664,5.75765 -7.25528,7.34026 -0.66939,0.65047 -1.4434,1.42979 -1.72003,1.73182 -0.27662,0.30202 -0.66628,0.69222 -0.86591,0.86711 -0.19962,0.1749 -0.58781,0.56456 -0.86264,0.86591 -0.27482,0.30136 -0.66448,0.69102 -0.8659,0.86591 -0.20143,0.17489 -0.59086,0.56455 -0.86541,0.86591 -0.27455,0.30136 -0.64557,0.67781 -0.8245,0.83656 -0.43727,0.38797 -1.73394,1.80317 -2.90966,3.17564 -3.43428,4.00899 -3.66114,4.28779 -4.61853,5.67588 -0.47446,0.68791 -1.20027,1.727 -1.6129,2.30909 -2.16416,3.05292 -3.43959,5.46945 -4.87491,9.23636 -2.46368,6.46576 -2.42788,11.49435 0.121,16.99755 2.536,5.47541 3.35082,6.88623 6.07534,10.51912 2.17862,2.90499 2.86516,3.76412 3.45579,4.32453 0.65498,0.62148 1.16558,1.50876 1.16558,2.02547 0,0.51935 -0.55769,1.49605 -1.09602,1.9195 -0.49363,0.38829 -1.55483,0.49996 -2.20228,0.23175 z m -75.0709,-10.60538 c -1.0045,-0.88196 -1.25307,-1.76682 -1.89546,-6.74739 -0.26995,-2.09299 -0.14812,-7.60206 0.17526,-7.92545 0.12834,-0.12833 0.23334,-0.3741 0.23334,-0.54616 0,-0.17205 0.22345,-0.52274 0.49656,-0.77931 0.39951,-0.37532 0.70052,-0.4665 1.54004,-0.4665 0.91137,0 1.10379,0.0702 1.51992,0.55447 0.64935,0.7557 0.75686,1.53438 0.50577,3.66338 -0.11759,0.99709 -0.21341,2.44757 -0.21292,3.22328 10e-4,1.69013 0.68056,6.49834 0.95748,6.77527 0.4264,0.42639 0.11025,1.57959 -0.63824,2.32808 -0.18833,0.18834 -0.71303,0.3842 -1.16599,0.43525 -0.71822,0.081 -0.91211,0.0151 -1.51576,-0.51492 z m 119.74041,-1.80394 c -0.55017,-0.25841 -1.14139,-0.8292 -1.49129,-1.43974 -0.17699,-0.30882 -0.24053,-1.86916 -0.24053,-5.9064 v -5.4867 l -4.7625,-0.022 c -2.61937,-0.0121 -7.02873,-0.077 -9.79856,-0.14432 -5.00131,-0.12145 -5.03952,-0.12555 -5.53716,-0.59346 -1.03456,-0.97274 -1.31142,-2.13144 -0.79395,-3.32269 0.15098,-0.34755 0.76437,-1.88747 1.36309,-3.42206 1.12623,-2.88665 1.96096,-5.00786 4.80835,-12.21894 0.91937,-2.32833 2.1457,-5.4456 2.72516,-6.92727 0.57947,-1.48166 1.30157,-3.30007 1.60466,-4.04091 0.30309,-0.74083 1.02582,-2.55924 1.60606,-4.04091 1.12825,-2.88103 2.9384,-7.4737 5.57439,-14.143177 0.89932,-2.27541 2.04335,-5.17621 2.54229,-6.44621 1.44591,-3.68042 1.70145,-4.07332 2.91317,-4.47914 0.83664,-0.2802 2.11064,0.11212 2.67906,0.82499 0.38376,0.48128 1.0966,2.17287 2.69589,6.39742 1.2121,3.20175 1.75108,4.61168 2.44539,6.39688 0.53303,1.370507 1.28801,3.356807 1.90162,5.003027 0.21697,0.58209 0.55144,1.44799 0.74327,1.92424 0.19184,0.47625 0.75194,1.9483 1.24468,3.27122 0.49274,1.32291 1.0992,2.92484 1.34769,3.55984 0.24849,0.635 0.66386,1.71739 0.92305,2.40531 0.58268,1.54649 1.99633,5.24953 2.35068,6.15757 0.14454,0.37042 0.48481,1.25743 0.75615,1.97113 0.27133,0.7137 0.70843,1.86103 0.97133,2.54962 0.26291,0.68859 0.69311,1.81537 0.95601,2.50396 0.26291,0.68859 0.69448,1.81482 0.95907,2.50274 0.26458,0.68791 0.70306,1.83469 0.97439,2.5484 0.27133,0.7137 0.61324,1.60071 0.75979,1.97112 0.14654,0.37042 0.5431,1.40951 0.88122,2.30909 1.79055,4.76376 1.96372,5.40713 1.52783,5.67652 -0.10583,0.0654 -0.19242,0.25519 -0.19242,0.42174 0,0.35349 -0.71133,1.02144 -1.08778,1.02144 -0.14256,0 -0.25919,0.0866 -0.25919,0.19242 0,0.1258 -3.43291,0.19243 -9.91386,0.19243 h -9.91386 l 0.0138,5.53891 c 0.008,3.0464 -0.0513,5.70885 -0.13105,5.91654 -0.29643,0.77249 -1.56126,1.64721 -2.33724,1.61637 -0.18023,-0.007 -0.54417,-0.1147 -0.80875,-0.23898 z m 18.3738,-18.26883 c -0.13191,-0.45743 -1.5477,-4.25671 -2.31253,-6.20568 -0.24919,-0.635 -0.75217,-1.93386 -1.11774,-2.88636 -0.607,-1.58157 -0.98272,-2.5737 -2.36831,-6.25379 -0.25901,-0.68792 -0.59252,-1.55382 -0.74113,-1.92424 -0.14861,-0.37042 -0.4966,-1.27962 -0.77331,-2.02046 -0.2767,-0.74083 -0.62307,-1.65003 -0.76969,-2.02045 -0.14663,-0.37042 -0.4886,-1.25742 -0.75993,-1.97113 -0.27133,-0.7137 -0.70981,-1.86048 -0.97439,-2.54839 -0.6344,-1.64943 -1.20352,-3.14795 -2.30298,-6.06381 -1.97708,-5.24338 -3.93913,-10.360847 -4.70699,-12.276907 l -0.33169,-0.82766 -0.59446,1.40493 c -0.32695,0.77272 -1.06857,2.61721 -1.64804,4.098877 -0.57946,1.48167 -1.80579,4.59894 -2.72516,6.92727 -0.91937,2.32834 -2.133,5.40231 -2.69695,6.83106 -0.56394,1.42875 -1.76173,4.45943 -2.66174,6.73485 -2.85207,7.21065 -4.86489,12.32449 -5.98333,15.20152 -0.59657,1.53458 -1.20931,3.07085 -1.36164,3.41394 l -0.27696,0.62379 10.91621,0.0513 c 6.00391,0.0282 13.93107,0.0722 17.61591,0.0978 l 6.69971,0.0465 z m -133.63592,-6.2145 c -0.26458,-0.14115 -0.6489,-0.56988 -0.85403,-0.95272 -0.34016,-0.63484 -0.35147,-0.80014 -0.1286,-1.87918 0.77094,-3.73254 3.73611,-9.77467 6.43544,-13.11352 1.72608,-2.13501 3.50433,-3.96167 3.85668,-3.96167 0.17145,0 0.31172,-0.0866 0.31172,-0.19242 0,-0.27185 1.0759,-0.2393 1.59011,0.0481 1.74938,0.97777 1.9578,2.42669 0.56604,3.93517 -4.25349,4.61022 -7.01304,9.07377 -8.49734,13.74437 -0.45719,1.43863 -0.89263,2.14211 -1.50471,2.43097 -0.62194,0.29351 -1.14711,0.27602 -1.77531,-0.0591 z m 23.79034,-26.84832 c -0.27885,-0.21935 -0.50701,-0.52242 -0.50701,-0.67349 0,-0.15107 -0.0866,-0.27467 -0.19242,-0.27467 -0.2884,0 -0.23171,-1.01668 0.093,-1.66755 0.27485,-0.55094 2.04286,-2.01139 2.93769,-2.42664 0.23813,-0.1105 0.43295,-0.26618 0.43295,-0.34595 0,-0.0798 0.43088,-0.41015 0.9575,-0.73419 0.52663,-0.32403 1.12656,-0.74276 1.33318,-0.930517 0.49323,-0.44817 0.74946,-0.64844 1.55561,-1.21585 0.36921,-0.25986 0.75887,-0.56571 0.86591,-0.67965 0.10704,-0.11395 0.58428,-0.50201 1.06053,-0.86236 0.47625,-0.36035 1.16898,-0.93745 1.5394,-1.28245 0.37041,-0.34499 0.73224,-0.62801 0.80405,-0.62893 0.0718,-9.2e-4 0.245,-0.11298 0.38485,-0.24903 0.13985,-0.13606 0.67529,-0.54736 1.18986,-0.91402 0.80818,-0.57587 1.0871,-0.66665 2.04836,-0.66665 1.30402,0 1.80844,0.3431 2.1422,1.45708 0.3935,1.31338 -0.0851,2.06305 -2.3308,3.65074 -0.36756,0.25987 -0.77134,0.55908 -0.89728,0.66491 -0.38032,0.31958 -2.59835,1.982897 -3.72609,2.794237 -0.58209,0.41876 -1.30993,0.95717 -1.61743,1.19645 -0.3075,0.23929 -0.83778,0.60825 -1.17839,0.81992 -1.07194,0.66614 -3.63952,2.38256 -3.90013,2.60723 -0.95663,0.82469 -2.21373,0.97634 -2.99553,0.36138 z M 177.55298,89.993043 c -0.55017,-0.25842 -1.1414,-0.82921 -1.49129,-1.43974 -0.17699,-0.30883 -0.24053,-1.86917 -0.24053,-5.9064 v -5.48671 l -4.7625,-0.022 c -2.61938,-0.0121 -7.02873,-0.077 -9.79856,-0.14432 -5.00132,-0.12146 -5.03952,-0.12555 -5.53717,-0.59347 -1.03455,-0.97273 -1.31142,-2.13143 -0.79394,-3.32268 0.15098,-0.34755 0.76437,-1.88748 1.36309,-3.42206 1.12623,-2.88665 1.96096,-5.00786 4.80835,-12.21894 0.91937,-2.32833 2.14569,-5.44561 2.72516,-6.92727 0.57947,-1.48167 1.30157,-3.30008 1.60466,-4.04091 0.30309,-0.74083 1.02582,-2.55924 1.60605,-4.04091 1.12825,-2.88104 2.93841,-7.4737 5.5744,-14.14318 0.89932,-2.27542 2.04334,-5.17621 2.54228,-6.44621 1.44324,-3.67361 1.70284,-4.07395 2.90199,-4.47524 0.87456,-0.29268 2.12993,0.0901 2.6858,0.81884 0.51303,0.67262 1.68935,3.51898 3.00214,7.26435 0.34894,0.99553 0.73734,1.46195 0.73734,0.88547 0,-0.20303 1.36081,-3.73643 2.69394,-6.99494 0.30309,-0.74083 1.02606,-2.55924 1.60661,-4.04091 1.24166,-3.16897 3.81902,-9.7083505 5.80175,-14.72045049 0.77453,-1.95792001 1.81623,-4.59894001 2.31489,-5.86894001 1.44475,-3.67957 1.70076,-4.07327 2.91266,-4.47914 0.83664,-0.2801995 2.11064,0.11212 2.67906,0.82499 0.38502,0.48286 1.06912,2.10685 2.71465,6.4443 1.25334,3.30370001 1.44122,3.79806 1.68192,4.42576 0.14204,0.37041 0.47716,1.23632 0.74471,1.92424 0.53302,1.37051 1.288,3.35681 1.90162,5.00303 0.21696,0.58208 0.55144,1.4479905 0.74327,1.9242405 0.19183,0.47625 0.75194,1.9483 1.24468,3.27121 0.49274,1.32292 1.0992,2.92485 1.34769,3.55985 0.24849,0.635 0.66386,1.71739 0.92305,2.40531 0.58267,1.54649 1.99632,5.24953 2.35067,6.15757 0.14455,0.37042 0.47638,1.23633 0.7374,1.92424 0.26101,0.68792 0.69811,1.83525 0.97133,2.54963 0.27322,0.71437 0.72031,1.88335 0.99352,2.59772 0.27322,0.71438 0.69592,1.81841 0.93934,2.45341 0.24341,0.635 0.67345,1.76068 0.95563,2.50152 0.28219,0.74083 0.63297,1.65003 0.77952,2.02045 0.14655,0.37042 0.5431,1.40951 0.88123,2.30909 1.79055,4.76375 1.96371,5.40712 1.52783,5.67652 -0.10584,0.0654 -0.19243,0.25519 -0.19243,0.42174 0,0.35349 -0.71132,1.02144 -1.08777,1.02144 -0.14256,0 -0.2592,0.0866 -0.2592,0.19242 0,0.1258 -3.4329,0.19243 -9.91385,0.19243 h -9.91386 l 0.0138,5.53891 c 0.008,3.0464 -0.0514,5.70884 -0.13106,5.91654 -0.22422,0.58432 -0.89432,1.17082 -1.64986,1.44403 -0.78943,0.28546 -1.67986,0.0273 -2.36203,-0.68491 -0.85041,-0.8878 -0.86591,-1.00823 -0.86591,-6.72787 v -5.4867 h -2.21007 -2.21008 l 0.40392,1.01022 c 0.22215,0.55563 0.4747,1.22671 0.56123,1.49129 0.0865,0.26459 0.42882,1.17379 0.76066,2.02046 0.33185,0.84666 0.76444,1.97235 0.96132,2.50151 0.19688,0.52917 0.54378,1.43837 0.77089,2.02046 0.22712,0.58208 0.56966,1.49128 0.76121,2.02045 0.19156,0.52917 0.44117,1.1786 0.55469,1.44318 0.11353,0.26459 0.42811,1.065 0.69907,1.7787 0.27097,0.71371 0.69905,1.83939 0.95131,2.50152 2.96607,7.7854 3.09844,8.21661 2.61403,8.51599 -0.10584,0.0654 -0.19243,0.2552 -0.19243,0.42174 0,0.3535 -0.71132,1.02145 -1.08777,1.02145 -0.14256,0 -0.2592,0.0866 -0.2592,0.19242 0,0.12579 -3.4329,0.19242 -9.91385,0.19242 h -9.91386 l 0.0138,5.53892 c 0.008,3.0464 -0.0513,5.70884 -0.13105,5.91654 -0.29644,0.77249 -1.56126,1.64721 -2.33725,1.61637 -0.18022,-0.007 -0.54416,-0.1147 -0.80874,-0.23898 z m 18.3738,-18.26883 c -0.13191,-0.45744 -1.5477,-4.25671 -2.31253,-6.20568 -0.24919,-0.635 -0.75218,-1.93387 -1.11774,-2.88637 -0.60701,-1.58156 -0.98273,-2.57369 -2.36832,-6.25378 -0.259,-0.68792 -0.59251,-1.55383 -0.74112,-1.92425 -0.14862,-0.37041 -0.4966,-1.27962 -0.77331,-2.02045 -0.27671,-0.74083 -0.62307,-1.65004 -0.7697,-2.02045 -0.14662,-0.37042 -0.48859,-1.25743 -0.75992,-1.97113 -0.27134,-0.7137 -0.70981,-1.86048 -0.9744,-2.5484 -0.63439,-1.64942 -1.20352,-3.14794 -2.30298,-6.06381 -1.97708,-5.24338 -3.93912,-10.36085 -4.70699,-12.2769 l -0.33168,-0.82767 -0.59446,1.40494 c -0.32695,0.77271 -1.06857,2.61721 -1.64804,4.09888 -0.57947,1.48166 -1.80579,4.59893 -2.72516,6.92727 -0.91938,2.32833 -2.133,5.40231 -2.69695,6.83106 -0.56395,1.42875 -1.76173,4.45943 -2.66174,6.73485 -2.85208,7.21065 -4.86489,12.32449 -5.98333,15.20151 -0.59657,1.53458 -1.20931,3.07086 -1.36164,3.41394 l -0.27696,0.6238 10.9162,0.0513 c 6.00392,0.0282 13.93108,0.0722 17.61592,0.0978 l 6.69971,0.0465 z m 21.74394,-27.13182 c -0.13191,-0.45743 -1.5477,-4.25671 -2.31253,-6.20568 -0.24919,-0.635 -0.75218,-1.93386 -1.11775,-2.88636 -0.607,-1.58157 -0.98272,-2.5737 -2.36831,-6.25379 -0.25901,-0.68792 -0.59251,-1.55383 -0.74113,-1.92424 -0.14861,-0.37042 -0.4966,-1.27962 -0.7733,-2.02046 -0.27671,-0.74083 -0.62307,-1.65004 -0.7697,-2.02045 -0.14663,-0.37042 -0.48859,-1.25743 -0.75993,-1.97113 -0.27133,-0.7137 -0.70981,-1.86048 -0.97439,-2.5484 -0.63439,-1.64942 -1.20352,-3.14794 -2.30298,-6.06381 -1.97708,-5.2433805 -3.93912,-10.3608505 -4.70699,-12.27690049 l -0.33169,-0.82767 -0.59445,1.40494 c -0.32695,0.77271999 -1.06857,2.61720999 -1.64804,4.09887999 -0.57947,1.48166 -1.80579,4.59894 -2.72516,6.9272705 -0.91938,2.32833 -2.133,5.40231 -2.69695,6.83106 -0.56395,1.42875 -1.76141,4.45943 -2.66103,6.73485 -0.89962,2.27542 -1.99549,5.05512 -2.43528,6.17713 l -0.79961,2.04001 0.61108,1.61605 c 0.33609,0.88883 0.77004,2.00571 0.96434,2.48196 0.19429,0.47625 0.75406,1.9483 1.24394,3.27121 0.48987,1.32292 1.01328,2.68559 1.16314,3.02815 l 0.27246,0.62285 6.59485,0.0532 c 3.62716,0.0293 9.60972,0.0737 13.29456,0.0987 l 6.69971,0.0455 z m 78.68925,40.96628 c -0.86412,-0.48173 -1.13957,-0.93643 -1.13957,-1.88114 0,-0.78915 0.097,-1.02141 0.6887,-1.64935 0.73879,-0.78402 1.57585,-2.06993 2.35461,-3.61723 1.43881,-2.85871 1.93607,-4.46626 2.14281,-6.92727 0.12839,-1.52845 0.45158,-2.55854 0.9198,-2.93163 0.13424,-0.10697 0.56571,-0.30836 0.95882,-0.44753 0.59827,-0.21181 0.80209,-0.20938 1.25076,0.0149 1.55499,0.77731 1.90016,1.61178 1.5934,3.85222 -0.49463,3.6126 -2.06486,7.41598 -4.56509,11.05749 -1.62944,2.37324 -3.00259,3.19942 -4.20424,2.52954 z m 1.91134,-27.63941 c -0.227,-0.0916 -0.65824,-0.49742 -0.95831,-0.90182 -0.65977,-0.88916 -2.17049,-2.38532 -3.45598,-3.42269 -0.52014,-0.41974 -0.98901,-0.81098 -1.04193,-0.86942 -0.5453,-0.60218 -7.10501,-4.73486 -9.05137,-5.70245 -1.91845,-0.95372 -2.35266,-2.54999 -1.04062,-3.82556 0.55234,-0.53699 1.1673,-0.86591 1.61891,-0.86591 0.50878,0 4.3491,1.97675 6.16399,3.17282 1.85678,1.22368 4.85367,3.49712 6.21748,4.71657 2.77999,2.48573 4.37694,4.48957 4.50856,5.65728 0.0849,0.75348 0.0298,0.89228 -0.60834,1.53038 -0.72812,0.72811 -1.434,0.88139 -2.35239,0.5108 z m -30.56758,-23.12317 c -1.86936,-0.96809 -3.6064,-2.30121 -5.48409,-4.20884 -2.26678,-2.30293 -2.17236,-2.19159 -3.13557,-3.69733 -1.72343,-2.69417 -2.63282,-5.11928 -2.78161,-7.41791 -0.10915,-1.68628 0.0446,-2.26142 0.80752,-3.02166 0.61354,-0.61134 2.06515,-0.53425 2.74518,0.14578 0.4634,0.4634 0.54496,0.72563 0.64371,2.06949 0.099,1.34793 0.23623,1.78662 1.10578,3.5359 1.66582,3.35119 4.51957,6.35419 7.78491,8.19205 1.29251,0.72747 2.25887,1.80697 2.25887,2.52333 0,1.8745 -2.05938,2.85556 -3.9447,1.87919 z M 259.33482,8.2111925 c -0.86014,-0.4081 -1.21458,-0.92181 -1.30819,-1.89602 -0.0807,-0.83972 -0.0139,-1.04533 0.6714,-2.06585 1.47957,-2.20343 3.18123,-4.02180999 5.15722,-5.51093 0.52916,-0.39878 1.00541,-0.78508 1.05833,-0.85843 0.0529,-0.0734 0.31269,-0.24588 0.57727,-0.38341 0.26459,-0.13753 1.0478,-0.61816 1.74048,-1.06808 2.25798,-1.46662 3.29676,-1.72561 4.39856,-1.09668 1.16361,0.66421 1.32411,2.61851 0.29922,3.6434 -0.1297,0.12969001 -0.83039,0.56065001 -1.55711,0.95769001 -2.53131,1.38296999 -6.00909,3.87807999 -6.49409,4.65915999 -0.0934,0.15036 -0.39643,0.52054 -0.67348,0.82263 -0.79752,0.86959 -0.9177,1.02504 -1.17728,1.5228 -0.31635,0.60662 -0.73528,0.99096 -1.40406,1.28812 -0.63362,0.28154 -0.66526,0.28119 -1.28827,-0.0144 z"
       id="path61" /></g></svg>
