<?xml version="1.0" encoding="UTF-8" standalone="no"?>
<!-- Created with Inkscape (http://www.inkscape.org/) -->

<svg
   width="114.86003mm"
   height="114.45152mm"
   viewBox="0 0 114.86003 114.45152"
   version="1.1"
   id="svg1"
   xml:space="preserve"
   xmlns="http://www.w3.org/2000/svg"
   xmlns:svg="http://www.w3.org/2000/svg"><defs
     id="defs1"><filter
       style="color-interpolation-filters:sRGB"
       id="filter9621"
       x="0"
       y="0"
       width="1"
       height="1"><feColorMatrix
         values="-1 0 0 0 1 0 -1 0 0 1 0 0 -1 0 1 -0.21 -0.72 -0.07 2 0 "
         result="color2"
         id="feColorMatrix9621" /></filter></defs><g
     id="layer1"
     transform="translate(401.36846,-31.755213)"><g
       id="g9625"><g
         id="g9615"
         transform="translate(-294.31012,250.61226)"
         style="filter:url(#filter9621)"><path
           style="fill:#fd8a91"
           d="m -50.535403,-104.86711 c -0.436563,-0.26785 -13.261996,-13.01692 -28.500963,-28.33127 -29.451974,-29.59768 -28.358024,-28.40525 -27.864244,-30.37262 0.0999,-0.39788 0.91906,-1.44046 1.82045,-2.31684 0.90139,-0.87638 4.61302,-4.51522 8.248072,-8.0863 3.635052,-3.57109 12.562311,-12.31728 19.838352,-19.43598 7.276042,-7.11869 15.967604,-15.64315 19.314583,-18.94324 3.346979,-3.30009 6.36029,-6.14065 6.696247,-6.31237 0.335957,-0.17172 0.935991,-0.2408 1.333409,-0.15351 0.50466,0.11084 9.188977,8.63417 28.795712,28.26189 15.4402234,15.45674 28.2158531,28.3836 28.3902882,28.72635 0.8088965,1.58938 1.5991873,0.73269 -27.3930592,29.69464 -15.064093,15.04835 -27.593636,27.44172 -27.843429,27.54083 -0.840287,0.3334 -2.036042,0.21887 -2.835418,-0.27158 z m -0.48809,-15.98134 c -0.09711,-4.98409 -0.254579,-15.68464 -0.349921,-23.779 l -0.173349,-14.71703 -6.373487,-0.17931 c -6.778019,-0.19069 -41.245723,-0.69347 -41.328047,-0.60285 -0.101515,0.11174 47.930333,48.30514 48.160259,48.32224 0.143935,0.0107 0.169949,-3.63449 0.06454,-9.04405 z"
           id="path9621" /><path
           style="fill:#a2a0a0"
           d="m -50.535403,-104.86711 c -0.436563,-0.26785 -13.261996,-13.01692 -28.500963,-28.33127 -29.451974,-29.59768 -28.358024,-28.40525 -27.864244,-30.37262 0.0999,-0.39788 0.91906,-1.44046 1.82045,-2.31684 0.90139,-0.87638 4.61302,-4.51522 8.248072,-8.0863 3.635052,-3.57109 12.562311,-12.31728 19.838352,-19.43598 7.276042,-7.11869 15.967604,-15.64315 19.314583,-18.94324 3.346979,-3.30009 6.36029,-6.14065 6.696247,-6.31237 0.335957,-0.17172 0.935991,-0.2408 1.333409,-0.15351 0.50466,0.11084 9.188977,8.63417 28.795712,28.26189 15.4402234,15.45674 28.2158531,28.3836 28.3902882,28.72635 0.8088965,1.58938 1.5991873,0.73269 -27.3930592,29.69464 -15.064093,15.04835 -27.593636,27.44172 -27.843429,27.54083 -0.840287,0.3334 -2.036042,0.21887 -2.835418,-0.27158 z m -0.48809,-15.98134 c -0.09711,-4.98409 -0.254579,-15.68464 -0.349921,-23.779 l -0.173349,-14.71703 -6.373487,-0.17931 c -6.778019,-0.19069 -41.245723,-0.69347 -41.328047,-0.60285 -0.101515,0.11174 47.930333,48.30514 48.160259,48.32224 0.143935,0.0107 0.169949,-3.63449 0.06454,-9.04405 z m 45.6673104,-37.81247 c -7.2212894,-0.23076 -41.3746334,-0.80831 -41.4751314,-0.70136 -0.107959,0.11488 0.354372,34.50584 0.557354,41.45934 l 0.16515,5.6575 23.122175,-23.11999 23.12217465,-23.12 z m -46.5054924,-17.35315 c -0.110583,-6.51206 -0.274129,-17.10176 -0.363436,-23.53268 l -0.162376,-11.69257 -5.029066,4.9457 c -2.765986,2.72013 -10.743173,10.539 -17.727082,17.37525 -6.98391,6.83626 -15.307847,15.00793 -18.49764,18.15928 l -5.799623,5.72973 5.667331,0.16756 c 7.557267,0.22344 27.929866,0.59014 35.796391,0.64432 l 6.316561,0.0435 z"
           id="path9620" /><path
           style="fill:#9f575c"
           d="m -50.025578,-104.63365 c -0.887264,-0.35906 -56.296662,-56.02855 -56.688042,-56.95414 -0.71992,-1.70254 -0.47135,-2.04675 6.37154,-8.82335 3.528258,-3.49407 12.249074,-12.06018 19.379594,-19.0358 7.130521,-6.97562 15.881614,-15.55471 19.446875,-19.06465 3.56526,-3.50993 7.37526,-7.23008 8.466666,-8.26699 3.35918,-3.19145 -0.508654,-6.36595 32.201735,26.42932 15.540555,15.58088 28.3479223,28.57737 28.4608162,28.88108 0.1128939,0.30371 0.083585,0.92048 -0.065131,1.3706 -0.1831561,0.55437 -9.0416708,9.58052 -27.4573432,27.97694 -14.952824,14.9372 -27.447015,27.28994 -27.764871,27.45052 -0.670188,0.3386 -1.570749,0.35256 -2.351839,0.0365 z m -0.932111,-21.04344 c -0.121352,-7.85813 -0.297862,-18.70341 -0.392244,-24.10062 l -0.171605,-9.81312 -11.413182,-0.17633 c -6.277251,-0.097 -17.128182,-0.24854 -24.113182,-0.33678 l -12.7,-0.16044 24.462666,24.49278 c 13.454465,13.47103 24.481907,24.46786 24.505425,24.4374 0.02352,-0.0305 -0.05653,-6.48477 -0.177878,-14.34289 z m 45.6015064,-32.98383 c -7.2212894,-0.23076 -41.3746334,-0.80831 -41.4751314,-0.70136 -0.107959,0.11488 0.354372,34.50584 0.557354,41.45934 l 0.16515,5.6575 23.122175,-23.11999 23.12217465,-23.12 z m -46.5054924,-17.35315 c -0.110583,-6.51206 -0.274129,-17.10176 -0.363436,-23.53268 l -0.162376,-11.69257 -5.029066,4.9457 c -2.765986,2.72013 -10.743173,10.539 -17.727082,17.37525 -6.98391,6.83626 -15.307847,15.00793 -18.49764,18.15928 l -5.799623,5.72973 5.667331,0.16756 c 7.557267,0.22344 27.929866,0.59014 35.796391,0.64432 l 6.316561,0.0435 z"
           id="path9619" /><path
           style="fill:#d0005e"
           d="m -50.27082,-104.86828 c -0.436563,-0.28349 -13.273306,-13.00708 -28.526096,-28.27463 -25.151824,-25.17617 -27.755214,-27.86097 -27.978094,-28.85293 -0.43228,-1.92393 -2.63356,0.43088 23.431274,-25.06552 6.839479,-6.69032 15.531042,-15.20814 19.314583,-18.9285 13.345709,-13.12283 12.85669,-12.6765 13.895938,-12.68271 0.885428,-0.005 2.327128,1.39053 29.236457,28.30593 15.5678064,15.57132 28.3711102,28.5789 28.4517864,28.90573 0.080676,0.32683 0.098489,0.89189 0.039583,1.25569 -0.073661,0.45493 -8.12633955,8.67473 -25.7907954,26.32604 -14.126032,14.11552 -26.546426,26.47417 -27.600875,27.46367 -2.196978,2.06164 -3.165689,2.39666 -4.473761,1.54723 z m -0.530975,-14.65725 c -0.08133,-4.54753 -0.26648,-15.40551 -0.411435,-24.12885 -0.144954,-8.72334 -0.290028,-15.88709 -0.322384,-15.91945 -0.03236,-0.0324 -8.750234,-0.18555 -19.37306,-0.34042 -10.622825,-0.15488 -21.44168,-0.35575 -24.041899,-0.44638 -3.233581,-0.1127 -4.69687,-0.0776 -4.630208,0.11103 0.127265,0.36015 48.452754,48.9255 48.721538,48.96337 0.11293,0.0159 0.138782,-3.69178 0.05745,-8.2393 z m 51.3889805,-39.2442 c -0.17914382,-0.14683 -47.3210955,-0.69497 -47.4641755,-0.55189 -0.187066,0.18707 0.407853,46.36688 0.605294,46.98515 0.07521,0.23552 8.86407,-8.36139 23.518488,-23.00484 12.8691203,-12.85948 23.37229759,-23.40227 23.3403935,-23.42842 z m -52.2288065,-5.33809 c 0.118148,-0.20275 -0.169641,-22.54101 -0.494178,-38.35823 -0.170226,-8.29641 -0.206397,-8.77279 -0.642866,-8.46667 -0.25437,0.17841 -6.342603,6.09675 -13.529406,13.15187 -14.545128,14.27861 -24.12225,23.67485 -29.843272,29.27961 l -3.811775,3.73432 11.484691,0.18244 c 17.479611,0.27768 34.933694,0.58553 35.876888,0.63279 0.464354,0.0233 0.896317,-0.047 0.959918,-0.15613 z"
           id="path9618" /><path
           style="fill:#55182c"
           d="m -50.27082,-104.86828 c -0.436563,-0.28349 -13.273306,-13.00708 -28.526096,-28.27463 -25.151824,-25.17617 -27.755214,-27.86097 -27.978094,-28.85293 -0.43228,-1.92393 -2.63356,0.43088 23.431274,-25.06552 6.839479,-6.69032 15.531042,-15.20814 19.314583,-18.9285 13.345709,-13.12283 12.85669,-12.6765 13.895938,-12.68271 0.885428,-0.005 2.327128,1.39053 29.236457,28.30593 15.5678064,15.57132 28.3711102,28.5789 28.4517864,28.90573 0.080676,0.32683 0.098489,0.89189 0.039583,1.25569 -0.073661,0.45493 -8.12633955,8.67473 -25.7907954,26.32604 -14.126032,14.11552 -26.546426,26.47417 -27.600875,27.46367 -2.196978,2.06164 -3.165689,2.39666 -4.473761,1.54723 z m -0.530975,-14.65725 c -0.08133,-4.54753 -0.26648,-15.40551 -0.411435,-24.12885 -0.144954,-8.72334 -0.290028,-15.88709 -0.322384,-15.91945 -0.03236,-0.0324 -8.750234,-0.18555 -19.37306,-0.34042 -10.622825,-0.15488 -21.44168,-0.35575 -24.041899,-0.44638 -3.233581,-0.1127 -4.69687,-0.0776 -4.630208,0.11103 0.127265,0.36015 48.452754,48.9255 48.721538,48.96337 0.11293,0.0159 0.138782,-3.69178 0.05745,-8.2393 z m 51.3889805,-39.2442 c -0.17914382,-0.14683 -47.3210955,-0.69497 -47.4641755,-0.55189 -0.187066,0.18707 0.407853,46.36688 0.605294,46.98515 0.07521,0.23552 8.86407,-8.36139 23.518488,-23.00484 12.8691203,-12.85948 23.37229759,-23.40227 23.3403935,-23.42842 z m -24.3889245,-28.41224 c -13.090357,-13.09096 -23.829475,-23.77292 -23.864708,-23.73769 -0.137523,0.13752 0.475935,41.99822 0.650149,44.36444 l 0.185061,2.51354 11.509375,0.1905 c 6.330156,0.10477 13.354843,0.22708 15.610416,0.2718 2.255573,0.0447 7.613137,0.10783 11.9056982,0.14024 l 7.80465679,0.0589 z m -27.839882,23.07415 c 0.118148,-0.20275 -0.169641,-22.54101 -0.494178,-38.35823 -0.170226,-8.29641 -0.206397,-8.77279 -0.642866,-8.46667 -0.25437,0.17841 -6.342603,6.09675 -13.529406,13.15187 -14.545128,14.27861 -24.12225,23.67485 -29.843272,29.27961 l -3.811775,3.73432 11.484691,0.18244 c 17.479611,0.27768 34.933694,0.58553 35.876888,0.63279 0.464354,0.0233 0.896317,-0.047 0.959918,-0.15613 z"
           id="path9617" /><path
           style="fill:#020202"
           d="m -78.422499,-132.79594 -28.156901,-28.15323 -0.12433,-1.49923 -0.12433,-1.49924 3.01091,-2.96873 c 1.656,-1.63281 8.785344,-8.61912 15.842979,-15.52514 14.054139,-13.75224 22.92912,-22.45598 31.160774,-30.55954 2.95002,-2.90411 5.641972,-5.38661 5.982115,-5.51665 0.340143,-0.13005 0.903052,-0.16366 1.25091,-0.0747 0.362831,0.0928 12.673731,12.20893 28.876738,28.41992 25.9964739,26.00926 28.2442702,28.32722 28.2442702,29.12585 0,0.47723 -0.1686609,1.1892 -0.374802,1.58216 -0.206141,0.39295 -5.5341877,5.81654 -11.8401037,12.05241 -6.3059155,6.23586 -18.5518435,18.41001 -27.2131725,27.05364 l -15.74787,15.7157 h -1.315142 -1.315142 z m 27.521866,-0.21218 c -0.164345,-11.97523 -0.367549,-22.85684 -0.451565,-24.18135 l -0.152756,-2.40822 -2.954808,-0.17027 c -1.625144,-0.0937 -5.514651,-0.16976 -8.643349,-0.16915 -3.128698,6.2e-4 -12.629863,-0.1329 -21.113701,-0.2967 -8.483838,-0.1638 -15.501123,-0.22186 -15.593966,-0.12902 -0.09284,0.0928 10.89048,11.2353 24.407387,24.76102 13.516907,13.52571 24.626903,24.54149 24.68888,24.47952 0.06198,-0.062 -0.02178,-9.9106 -0.186122,-21.88583 z m 28.281908,-2.40316 c 12.8407894,-12.77537 23.28981063,-23.28502 23.22004737,-23.35478 -0.21180137,-0.2118 -47.41813337,-0.89318 -47.62634437,-0.68745 -0.173119,0.17107 -0.06875,8.42874 0.48473,38.35221 0.09231,4.99054 0.259372,9.03867 0.371255,8.99583 0.111882,-0.0428 10.709523,-10.53045 23.550312,-23.30581 z m 22.75102809,-27.89653 c 0,-0.36248 -47.74057109,-47.95227 -47.90993809,-47.75862 -0.09308,0.10643 -0.07757,5.67038 0.03446,12.36434 0.112034,6.69396 0.289771,17.24848 0.394971,23.45449 l 0.191273,11.28365 4.793056,0.16069 c 4.006076,0.13431 23.909466,0.46445 38.7258667,0.64235 2.0736718,0.0249 3.77031239,-0.0412 3.77031239,-0.1469 z m -51.58917709,-2.25522 c 0.01594,-5.76785 -0.607238,-41.9964 -0.752866,-43.76767 l -0.177747,-2.16194 -3.836458,3.7255 c -2.110052,2.04903 -6.753489,6.58978 -10.31875,10.09057 -3.56526,3.50078 -9.341701,9.16703 -12.836537,12.59165 -14.753814,14.45739 -20.519144,20.18721 -20.416048,20.29031 0.09742,0.0974 22.163045,0.52786 35.898419,0.70029 2.837656,0.0356 6.796484,0.0918 8.797395,0.12485 l 3.638021,0.0601 z"
           id="path9616" /></g><path
         style="fill:#000000;stroke-width:0.707107"
         d="m -1396.004,433.81001 c -49.6739,-49.78032 -90.3203,-90.79416 -90.3253,-91.14188 -0.011,-0.7888 120.2512,0.76586 163.7776,2.11719 l 14.9407,0.46385 0.4421,24.83498 c 0.9125,51.26136 1.9716,141.74142 1.7309,147.87157 l -0.2498,6.36396 z"
         id="path9622"
         transform="scale(0.26458333)" /><path
         style="fill:#000000;stroke-width:0.25"
         d="m -1305.375,525.2284 c -0.5382,-0.57803 -0.6186,-0.75854 -0.2847,-0.63913 0.3565,0.12745 0.4296,0.0732 0.3125,-0.23188 -0.084,-0.21906 -0.1607,-0.58596 -0.1704,-0.81534 -0.016,-0.36966 -0.037,-0.36695 -0.1919,0.0239 -0.139,0.35134 -2.6876,-2.08506 -12.545,-11.99259 -6.8038,-6.83843 -37.9642,-38.09191 -69.2455,-69.45218 -31.2812,-31.36027 -66.2573,-66.51986 -77.7246,-78.13241 l -20.8496,-21.11374 2.0996,-0.18922 c 5.3105,-0.47859 102.7706,0.7322 145.9746,1.8135 13.2248,0.33099 30.113,0.81492 30.1819,0.86487 0.067,0.0484 0.4573,20.10938 0.8153,41.88585 0.496,30.15956 1.5004,113.12653 1.502,124.0625 7e-4,4.86022 0.044,5.4375 0.4085,5.4375 0.3732,0 0.3943,-0.93635 0.2486,-11.0625 -0.088,-6.08438 -0.2189,-14.04375 -0.292,-17.6875 -0.2959,-14.75191 -0.6091,-36.95115 -0.7179,-50.875 -0.1,-12.77675 -0.054,-11.38879 0.3402,10.375 0.5988,33.03069 1.0791,69.90668 0.9731,74.70446 l -0.085,3.82947 z m -0.1925,-4.66033 c -0.054,-0.51869 -0.099,-0.15557 -0.1005,0.80693 0,0.9625 0.043,1.38688 0.098,0.94307 0.055,-0.4438 0.056,-1.2313 0,-1.75 z"
         id="path9623"
         transform="scale(0.26458333)" /><path
         style="fill:#000000;stroke-width:0.25"
         d="m -1305.2172,525.1645 c -0.1532,-0.18453 -0.2097,-0.40429 -0.1256,-0.48836 0.084,-0.0841 0.07,-0.46747 -0.031,-0.852 -0.1488,-0.56639 -0.2145,-0.61613 -0.3457,-0.26197 -0.126,0.3399 -17.6864,-17.15381 -78.9251,-78.625 -43.3197,-43.48419 -83.8672,-84.23717 -90.1055,-90.56217 l -11.3425,-11.5 2.4837,-0.20553 c 6.661,-0.55122 117.9144,0.98888 159.7152,2.21096 6.8648,0.2007 12.5367,0.3097 12.6042,0.24224 0.067,-0.0675 0.062,-0.18377 -0.013,-0.25846 -0.198,-0.19796 -21.6503,-0.79686 -41.8226,-1.16759 -9.625,-0.17689 -17.05,-0.36093 -16.5,-0.40898 1.3945,-0.12181 58.338,0.69028 60.5625,0.86371 2.1585,0.16828 2.4159,0.59127 0.375,0.61622 -2.148,0.0263 -2.8455,0.44297 -0.7781,0.46486 l 1.6594,0.0176 0.1575,6.0625 c 0.5366,20.64486 2.1427,140.13488 2.1474,159.75 0,4.88829 0.054,5.6875 0.3763,5.6875 0.3191,0 0.375,0.65278 0.375,4.375 0,2.40625 -0.043,4.375 -0.094,4.375 -0.052,0 -0.2197,-0.15098 -0.3728,-0.3355 z m -0.3564,-4.227 c -0.06,-0.30938 -0.1083,-0.0562 -0.1083,0.5625 0,0.61875 0.049,0.87187 0.1083,0.5625 0.06,-0.30938 0.06,-0.81563 0,-1.125 z"
         id="path9624"
         transform="scale(0.26458333)" /><path
         style="fill:#000000;stroke-width:0.25"
         d="m -1305.1853,525.20345 c -0.1707,-0.20595 -0.2416,-0.44324 -0.1575,-0.52731 0.084,-0.0841 0.07,-0.46747 -0.031,-0.852 -0.1505,-0.57278 -0.2133,-0.61916 -0.3476,-0.25658 -0.1285,0.34703 -17.2438,-16.70354 -79.2999,-79 -43.5247,-43.69341 -84.078,-84.44881 -90.1183,-90.56756 l -10.9824,-11.125 2.3734,-0.21012 c 6.2736,-0.55542 118.1443,0.99329 159.9823,2.21474 6.7975,0.19845 12.4131,0.30672 12.4792,0.2406 0.066,-0.0661 0.052,-0.18834 -0.031,-0.2716 -0.1384,-0.13837 -8.0718,-0.49822 -14.807,-0.67163 -1.5125,-0.0389 -0.3875,-0.0944 2.5,-0.12324 6.6359,-0.0663 15.375,0.20992 15.375,0.48593 0,0.11568 -0.5625,0.21032 -1.25,0.21032 -0.6875,0 -1.25,0.1125 -1.25,0.25 0,0.13836 0.6573,0.25 1.472,0.25 h 1.4721 l 0.1576,5.8125 c 0.4389,16.17988 1.4529,87.89717 1.922,135.9375 0.2408,24.65704 0.3432,29.42029 0.6376,29.65697 0.2816,0.22638 0.3373,1.13359 0.2822,4.60145 -0.055,3.48073 -0.1288,4.24677 -0.3788,3.94503 z m -0.3914,-3.88619 c -0.063,-0.24325 -0.1195,-0.10476 -0.1246,0.30774 -0.01,0.4125 0.047,0.61151 0.1153,0.44226 0.069,-0.16926 0.073,-0.50676 0.01,-0.75 z"
         id="path9625"
         transform="scale(0.26458333)" /></g></g></svg>
