# Blender 5.0.1
# www.blender.org
mtllib Load.mtl
o load
v 11.027594 3.792392 0.000000
v 7.223866 6.878990 2.672995
v 7.223875 6.878987 -2.672994
v 7.199544 6.888522 1.323070
v 7.199553 6.888519 -1.323069
v -1.301260 4.040703 -1.323068
v -0.350802 5.208538 -1.323068
v 0.863027 6.164639 -1.323068
v 2.234935 6.845475 -1.323068
v 3.730645 7.236062 -1.323069
v 5.272975 7.282438 -1.323069
v -1.301260 4.040703 1.323071
v -0.350802 5.208538 1.323070
v 0.863027 6.164639 1.323070
v 2.234934 6.845474 1.323070
v 3.730645 7.236062 1.323070
v 5.272975 7.282438 1.323070
v 6.304440 7.139818 -1.323069
v -0.867481 4.633158 -1.323068
v 0.232219 5.721923 -1.323068
v 1.532017 6.539692 -1.323068
v 2.967917 7.080436 -1.323069
v 4.501964 7.296618 -1.323069
v 6.304440 7.139818 1.323070
v -0.867481 4.633158 1.323070
v 0.232219 5.721923 1.323070
v 1.532017 6.539692 1.323070
v 2.967917 7.080436 1.323070
v 4.501964 7.296618 1.323070
v 9.378810 5.674982 1.336497
v 9.378815 5.674977 -1.336497
v 10.004424 5.109642 0.890999
v 10.563994 4.474517 0.445499
v 8.693146 6.165438 -1.781996
v 7.956092 6.574402 -2.227495
v 7.956087 6.574405 2.227496
v 8.693146 6.165438 1.781997
v 10.563994 4.474517 -0.445499
v 10.004424 5.109642 -0.890998
v 9.949532 3.064120 0.000000
v 6.724906 5.677474 2.672995
v 6.724915 5.677471 -2.672994
v 6.749228 5.667942 1.323070
v 6.749237 5.667939 -1.323069
v -0.250689 3.273304 -1.323068
v 0.564758 4.284227 -1.323068
v 1.555590 5.063296 -1.323068
v 2.693677 5.628036 -1.323069
v 3.911766 5.947731 -1.323069
v 5.172301 5.985339 -1.323069
v -0.250689 3.273304 1.323071
v 0.564758 4.284227 1.323070
v 1.555590 5.063296 1.323070
v 2.693676 5.628036 1.323070
v 3.911766 5.947731 1.323070
v 5.172301 5.985339 1.323070
v 6.039522 5.866075 -1.323069
v 0.143250 3.813997 -1.323068
v 1.036819 4.699564 -1.323068
v 2.110335 5.374296 -1.323068
v 3.297376 5.821843 -1.323069
v 4.540885 5.996201 -1.323069
v 6.039522 5.866075 1.323070
v 0.143250 3.813997 1.323070
v 1.036819 4.699564 1.323070
v 2.110335 5.374296 1.323070
v 3.297376 5.821843 1.323070
v 4.540885 5.996201 1.323070
v 8.580625 4.647606 1.336497
v 8.580629 4.647602 -1.336497
v 9.094739 4.179548 0.890998
v 9.551215 3.657891 0.445499
v 8.017231 5.053799 -1.781996
v 7.411685 5.392784 -2.227495
v 7.411680 5.392787 2.227496
v 8.017231 5.053799 1.781997
v 9.551215 3.657891 -0.445499
v 9.094739 4.179548 -0.890998
vn 0.2041 0.9789 -0.0000
vn 0.0778 0.9970 -0.0000
vn 0.7781 0.6282 -0.0000
vn 0.8271 0.5621 -0.0000
vn -0.7764 0.6302 -0.0000
vn -0.8069 0.5908 -0.0000
vn -0.6186 0.7857 -0.0000
vn -0.7037 0.7105 -0.0000
vn -0.4445 0.8958 -0.0000
vn -0.5324 0.8465 -0.0000
vn -0.2530 0.9675 -0.0000
vn -0.3525 0.9358 -0.0000
vn -0.0300 0.9996 -0.0000
vn -0.1394 0.9902 -0.0000
vn 0.3462 0.9382 -0.0000
vn 0.5193 0.8546 -0.0000
vn 0.6133 0.7898 -0.0000
vn 0.3836 0.9235 -0.0000
vn 0.4190 0.9080 -0.0000
vn 0.6991 0.7150 -0.0000
vn -0.2030 -0.9792 -0.0000
vn -0.0769 -0.9970 -0.0000
vn -0.7790 -0.6271 -0.0000
vn -0.8305 -0.5571 -0.0000
vn 0.7774 -0.6290 -0.0000
vn 0.8082 -0.5889 -0.0000
vn 0.6183 -0.7860 -0.0000
vn 0.7038 -0.7104 -0.0000
vn 0.4445 -0.8958 -0.0000
vn 0.5322 -0.8466 -0.0000
vn 0.2536 -0.9673 -0.0000
vn 0.3527 -0.9357 -0.0000
vn 0.0298 -0.9996 -0.0000
vn 0.1390 -0.9903 -0.0000
vn -0.3457 -0.9384 -0.0000
vn -0.5199 -0.8542 -0.0000
vn -0.6138 -0.7894 -0.0000
vn -0.3835 -0.9236 -0.0000
vn -0.4178 -0.9085 -0.0000
vn -0.6994 -0.7147 -0.0000
vn 0.2978 -0.4031 0.8653
vn 0.3177 -0.3869 0.8657
vn 0.3172 -0.3872 0.8657
vn 0.4596 -0.2012 -0.8650
vn 0.4514 -0.2183 -0.8652
vn 0.4512 -0.2186 -0.8652
vn -0.9310 0.3649 -0.0000
vn -0.0000 -0.0000 -1.0000
vn -0.0000 -0.0000 1.0000
vn -0.5899 -0.8075 -0.0000
vn 0.3956 -0.3069 0.8656
vn 0.4282 -0.2600 0.8655
vn 0.4279 -0.2605 0.8655
vn 0.3953 -0.3074 0.8656
vn 0.3956 -0.3069 -0.8656
vn 0.3576 -0.3501 -0.8658
vn 0.3572 -0.3505 -0.8658
vn 0.3953 -0.3074 -0.8656
vn 0.3576 -0.3501 0.8658
vn 0.3572 -0.3505 0.8658
vn 0.4282 -0.2600 -0.8655
vn 0.4279 -0.2605 -0.8655
vn 0.4514 -0.2183 0.8652
vn 0.4596 -0.2012 0.8650
vn 0.4512 -0.2186 0.8652
vn 0.3177 -0.3869 -0.8657
vn 0.2978 -0.4031 -0.8653
vn 0.3172 -0.3872 -0.8657
vt 0.000000 0.000000
s 1
f 18/1/1 11/1/2 17/1/2 24/1/1
f 33/1/3 1/1/4 38/1/3
f 19/1/5 6/1/6 12/1/6 25/1/5
f 20/1/7 7/1/8 13/1/8 26/1/7
f 21/1/9 8/1/10 14/1/10 27/1/9
f 22/1/11 9/1/12 15/1/12 28/1/11
f 23/1/13 10/1/14 16/1/14 29/1/13
f 11/1/2 23/1/13 29/1/13 17/1/2
f 10/1/14 22/1/11 28/1/11 16/1/14
f 9/1/12 21/1/9 27/1/9 15/1/12
f 8/1/10 20/1/7 26/1/7 14/1/10
f 7/1/8 19/1/5 25/1/5 13/1/8
f 5/1/15 18/1/1 24/1/1 4/1/15
f 37/1/16 30/1/17 31/1/17 34/1/16
f 2/1/18 36/1/19 35/1/19 3/1/18 5/1/15 4/1/15
f 36/1/19 37/1/16 34/1/16 35/1/19
f 30/1/17 32/1/20 39/1/20 31/1/17
f 32/1/20 33/1/3 38/1/3 39/1/20
f 57/1/21 63/1/21 56/1/22 50/1/22
f 72/1/23 77/1/23 40/1/24
f 58/1/25 64/1/25 51/1/26 45/1/26
f 59/1/27 65/1/27 52/1/28 46/1/28
f 60/1/29 66/1/29 53/1/30 47/1/30
f 61/1/31 67/1/31 54/1/32 48/1/32
f 62/1/33 68/1/33 55/1/34 49/1/34
f 50/1/22 56/1/22 68/1/33 62/1/33
f 49/1/34 55/1/34 67/1/31 61/1/31
f 48/1/32 54/1/32 66/1/29 60/1/29
f 47/1/30 53/1/30 65/1/27 59/1/27
f 46/1/28 52/1/28 64/1/25 58/1/25
f 44/1/35 43/1/35 63/1/21 57/1/21
f 76/1/36 73/1/36 70/1/37 69/1/37
f 41/1/38 43/1/35 44/1/35 42/1/38 74/1/39 75/1/39
f 75/1/39 74/1/39 73/1/36 76/1/36
f 69/1/37 70/1/37 78/1/40 71/1/40
f 71/1/40 78/1/40 77/1/23 72/1/23
f 1/1/41 33/1/42 72/1/43 40/1/41
f 3/1/44 35/1/45 74/1/46 42/1/44
f 2/1/47 4/1/47 43/1/47 41/1/47
f 5/1/47 3/1/47 42/1/47 44/1/47
f 11/1/48 18/1/48 57/1/48 50/1/48
f 6/1/48 19/1/48 58/1/48 45/1/48
f 7/1/48 20/1/48 59/1/48 46/1/48
f 8/1/48 21/1/48 60/1/48 47/1/48
f 9/1/48 22/1/48 61/1/48 48/1/48
f 10/1/48 23/1/48 62/1/48 49/1/48
f 4/1/49 24/1/49 63/1/49 43/1/49
f 13/1/49 25/1/49 64/1/49 52/1/49
f 14/1/49 26/1/49 65/1/49 53/1/49
f 15/1/49 27/1/49 66/1/49 54/1/49
f 16/1/49 28/1/49 67/1/49 55/1/49
f 17/1/49 29/1/49 68/1/49 56/1/49
f 12/1/50 6/1/50 45/1/50 51/1/50
f 18/1/48 5/1/48 44/1/48 57/1/48
f 19/1/48 7/1/48 46/1/48 58/1/48
f 20/1/48 8/1/48 47/1/48 59/1/48
f 21/1/48 9/1/48 48/1/48 60/1/48
f 22/1/48 10/1/48 49/1/48 61/1/48
f 23/1/48 11/1/48 50/1/48 62/1/48
f 24/1/49 17/1/49 56/1/49 63/1/49
f 25/1/49 12/1/49 51/1/49 64/1/49
f 26/1/49 13/1/49 52/1/49 65/1/49
f 27/1/49 14/1/49 53/1/49 66/1/49
f 28/1/49 15/1/49 54/1/49 67/1/49
f 29/1/49 16/1/49 55/1/49 68/1/49
f 30/1/51 37/1/52 76/1/53 69/1/54
f 31/1/55 39/1/56 78/1/57 70/1/58
f 32/1/59 30/1/51 69/1/54 71/1/60
f 33/1/42 32/1/59 71/1/60 72/1/43
f 34/1/61 31/1/55 70/1/58 73/1/62
f 35/1/45 34/1/61 73/1/62 74/1/46
f 36/1/63 2/1/64 41/1/64 75/1/65
f 37/1/52 36/1/63 75/1/65 76/1/53
f 38/1/66 1/1/67 40/1/67 77/1/68
f 39/1/56 38/1/66 77/1/68 78/1/57
