# Blender 5.0.1
# www.blender.org
o unload
v 0.676285 6.757624 -0.075216
v 5.028414 11.088010 -0.261621
v 0.572670 10.475482 2.628148
v 3.928013 10.942430 0.456055
v 1.721593 10.638918 1.886853
v 3.110289 16.738701 8.075997
v 3.174057 16.055101 6.753629
v 3.109503 15.256205 5.485807
v 2.928383 14.335677 4.339282
v 2.638174 13.300822 3.357453
v 2.257676 12.172201 2.575924
v 5.033694 15.312362 9.202107
v 5.358492 14.940830 7.753047
v 5.522120 14.472072 6.246428
v 5.506948 13.878051 4.736271
v 5.280923 13.139605 3.267911
v 4.821774 12.254706 1.909806
v 1.984362 11.365595 2.163486
v 3.163222 16.407524 7.417812
v 3.157564 15.672162 6.107135
v 3.031993 14.810594 4.896465
v 2.793850 13.830058 3.826679
v 2.458599 12.746315 2.941060
v 4.395384 11.578682 1.082798
v 5.220209 15.133735 8.493812
v 5.461461 14.721929 7.002803
v 5.537774 14.191652 5.490425
v 5.420004 13.525743 3.993230
v 5.081763 12.714220 2.570523
v 2.442568 9.067926 -0.824645
v 1.077102 8.580619 1.423219
v 1.720161 8.320519 -0.670345
v 1.124058 7.547842 -0.400652
v 1.002146 9.205414 1.867412
v 0.843946 9.841051 2.264461
v 4.153977 10.468084 -0.650754
v 3.264236 9.785944 -0.826041
v 0.921503 7.354564 0.447966
v 1.053505 7.963968 0.946351
v 1.826377 6.165637 0.064213
v 5.724163 10.295077 0.499820
v 1.268419 9.682549 3.389589
v 4.574310 10.131317 1.241546
v 2.369749 9.828451 2.671479
v 2.306736 15.741680 8.305893
v 2.480386 15.017505 7.120802
v 2.594878 14.196398 6.037685
v 2.636747 13.287555 5.052716
v 2.609758 12.299840 4.188012
v 2.534142 11.248276 3.449153
v 4.230140 14.315341 9.432004
v 4.662021 13.903986 8.117031
v 5.003603 13.412389 6.794896
v 5.210255 12.829129 5.446437
v 5.246254 12.137075 4.096363
v 5.089334 11.328218 2.783094
v 2.442483 10.494511 3.014331
v 2.394891 15.394780 7.694605
v 2.548073 14.618926 6.567369
v 2.623528 13.750987 5.531280
v 2.629219 12.801595 4.606268
v 2.573237 11.780046 3.804649
v 4.844576 10.704931 1.935669
v 4.449492 14.121963 8.767518
v 4.848691 13.669063 7.459518
v 5.124910 13.131908 6.122157
v 5.249714 12.496423 4.770469
v 5.189666 11.746347 3.433182
v 3.424593 8.376194 -0.324912
v 2.061223 7.889720 1.919974
v 2.788229 7.668815 -0.313817
v 2.249831 6.933134 -0.183008
v 1.876084 8.471792 2.492418
v 1.587737 9.062275 2.994448
v 4.897586 9.689251 0.079357
v 4.136868 9.051872 -0.199737
v 2.048918 6.741183 0.660805
v 2.123890 7.313446 1.298058
v -0.403281 6.757624 -0.548073
v -2.740777 11.088009 -4.223926
v 1.989708 10.475481 -1.810023
v -1.569052 10.942430 -3.629788
v 0.773266 10.638917 -2.434372
v 5.438874 16.738699 -6.731591
v 4.261786 16.055099 -6.125631
v 3.196097 15.256204 -5.435815
v 2.293737 14.335676 -4.705697
v 1.588552 13.300821 -3.963454
v 1.101978 12.172200 -3.243169
v 5.452412 15.312361 -8.960363
v 4.035090 14.940829 -8.517118
v 2.648506 14.472071 -7.905512
v 1.348257 13.878050 -7.137295
v 0.189632 13.139604 -6.207372
v -0.756947 12.254705 -5.130684
v 0.881454 11.365594 -2.800253
v 4.842402 16.407522 -6.448339
v 3.710152 15.672161 -5.788101
v 2.724466 14.810593 -5.074018
v 1.917076 13.830057 -4.332887
v 1.317734 12.746314 -3.599741
v -1.259961 11.578681 -4.347915
v 4.745752 15.133734 -8.767742
v 3.333875 14.721928 -8.231168
v 1.985960 14.191651 -7.541067
v 0.748236 13.525742 -6.690478
v -0.314744 12.714219 -5.686199
v -1.935447 9.067925 -1.703004
v 0.693993 8.580618 -1.644409
v -1.440616 8.320518 -1.154532
v -0.909003 7.547842 -0.773138
v 1.116153 9.205413 -1.801592
v 1.539108 9.841050 -1.863111
v -2.640558 10.468083 -3.272074
v -2.347490 9.785943 -2.413893
v -0.072801 7.354563 -1.022030
v 0.292812 7.963968 -1.385540
v -0.857578 6.165637 -1.613797
v -2.429225 10.295076 -5.207182
v 2.301260 9.682549 -2.793280
v -1.211944 10.131316 -4.582243
v 1.128694 9.828450 -3.388004
v 6.039747 15.741679 -6.150641
v 4.926603 15.017504 -5.708481
v 3.931350 14.196397 -5.266075
v 3.057407 13.287554 -4.809850
v 2.322045 12.299839 -4.354125
v 1.719983 11.248275 -3.919210
v 6.053285 14.315340 -8.379414
v 4.698545 13.903985 -8.095946
v 3.382750 13.412388 -7.730698
v 2.111625 12.829128 -7.235434
v 0.924427 12.137074 -6.591573
v -0.134437 11.328217 -5.799041
v 1.389245 10.494510 -3.622420
v 5.466279 15.394779 -5.921342
v 4.413472 14.618925 -5.490384
v 3.478466 13.750986 -5.037684
v 2.674536 12.801594 -4.580107
v 2.008305 11.780046 -4.130816
v -0.745950 10.704930 -5.163363
v 5.368147 14.121962 -8.237135
v 4.035786 13.669062 -7.928852
v 2.739488 13.131907 -7.499383
v 1.506490 12.496422 -6.931623
v 0.378389 11.746346 -6.210975
v -1.993679 8.376193 -2.803331
v 0.632135 7.889719 -2.745061
v -1.665888 7.668815 -2.257770
v -1.283405 6.933134 -1.856908
v 1.220455 8.471791 -2.870948
v 1.799400 9.062274 -2.872247
v -2.380068 9.689250 -4.281114
v -2.241411 9.051871 -3.482765
v -0.452185 6.741183 -2.104819
v 0.062206 7.313446 -2.488373
v -0.273004 6.757623 0.623287
v -2.287638 11.088009 4.485544
v -2.562379 10.475481 -0.818128
v -2.358963 10.942430 3.173731
v -2.494860 10.638917 0.547516
v -8.549165 16.738699 -1.344410
v -7.435843 16.055099 -0.628001
v -6.305601 15.256203 -0.049996
v -5.222121 14.335675 0.366412
v -4.226728 13.300820 0.605999
v -3.359655 12.172199 0.667242
v -10.486108 15.312360 -0.241748
v -9.393583 14.940828 0.764066
v -8.170627 14.472070 1.659081
v -6.855206 13.878049 2.401021
v -5.470557 13.139603 2.939457
v -4.064829 12.254704 3.220875
v -2.865816 11.365594 0.636763
v -8.005626 16.407522 -0.969476
v -6.867718 15.672160 -0.319037
v -5.756461 14.810592 0.177550
v -4.710927 13.830056 0.506205
v -3.776334 12.746313 0.658678
v -3.135424 11.578681 3.265114
v -9.965962 15.133733 0.273927
v -8.795338 14.721927 1.228362
v -7.523735 14.191650 2.050639
v -6.168242 13.525741 2.697246
v -4.767021 12.714218 3.115674
v -0.507121 9.067925 2.527647
v -1.771096 8.580618 0.221187
v -0.279545 8.320518 1.824874
v -0.215055 7.547841 1.173787
v -2.118300 9.205413 -0.065823
v -2.383055 9.841050 -0.401353
v -1.513420 10.468083 3.922826
v -0.916747 9.785943 3.239931
v -0.848703 7.354563 0.574061
v -1.346318 7.963967 0.439185
v -0.968799 6.165637 1.549582
v -3.294940 10.295076 4.707360
v -3.569681 9.682549 -0.596312
v -3.362366 10.131316 3.340694
v -3.498444 9.828450 0.716522
v -8.346484 15.741678 -2.155256
v -7.406990 15.017503 -1.412325
v -6.526229 14.196396 -0.771613
v -5.694155 13.287553 -0.242869
v -4.931805 12.299838 0.166111
v -4.254126 11.248275 0.470054
v -10.283425 14.315339 -1.052594
v -9.360567 13.903984 -0.021087
v -8.386355 13.412387 0.935799
v -7.321881 12.829127 1.788994
v -6.170682 12.137074 2.495207
v -4.954898 11.328217 3.015945
v -3.831730 10.494510 0.608087
v -7.861170 15.394778 -1.773267
v -6.961547 14.618924 -1.076989
v -6.101994 13.750985 -0.493600
v -5.303756 12.801593 -0.026164
v -4.581542 11.780046 0.326163
v -4.098627 10.704930 3.227691
v -9.817640 14.121961 -0.530387
v -8.884479 13.669061 0.469331
v -7.864400 13.131907 1.377223
v -6.756206 12.496421 2.161150
v -5.568056 11.746346 2.777791
v -1.430916 8.376193 3.128240
v -2.693359 7.889719 0.825084
v -1.122342 7.668814 2.571584
v -0.966427 6.933133 2.039914
v -3.096540 8.471791 0.378527
v -3.387138 9.062274 -0.122204
v -2.517519 9.689250 4.201755
v -1.895457 9.051871 3.682500
v -1.596734 6.741182 1.444012
v -2.186097 7.313445 1.190313
vn -0.3570 0.6677 -0.6533
vn -0.2169 0.7086 -0.6715
vn -0.2021 0.7128 -0.6716
vn -0.3411 0.6725 -0.6568
vn -0.8639 0.4749 -0.1678
vn -0.8833 0.4565 -0.1069
vn -0.8662 0.4730 -0.1613
vn 0.5898 0.7786 -0.2143
vn 0.6178 0.7660 -0.1775
vn 0.5934 0.7771 -0.2097
vn 0.4669 0.8097 -0.3555
vn 0.5318 0.7979 -0.2839
vn 0.5367 0.7966 -0.2784
vn 0.4725 0.8091 -0.3495
vn 0.3118 0.8143 -0.4896
vn 0.3937 0.8146 -0.4259
vn 0.4003 0.8144 -0.4201
vn 0.3194 0.8146 -0.4843
vn 0.1237 0.7900 -0.6004
vn 0.2217 0.8052 -0.5500
vn 0.2303 0.8065 -0.5445
vn 0.1334 0.7915 -0.5964
vn -0.0917 0.7416 -0.6645
vn 0.0187 0.7686 -0.6395
vn 0.0294 0.7712 -0.6359
vn -0.0799 0.7445 -0.6629
vn -0.5004 0.6211 -0.6032
vn -0.4953 0.6229 -0.6056
vn -0.6680 0.5668 -0.4822
vn -0.7523 0.5343 -0.3854
vn -0.7579 0.5321 -0.3774
vn -0.6740 0.5647 -0.4763
vn -0.5350 0.6081 -0.5866
vn -0.5698 0.5988 -0.5628
vn -0.5742 0.5975 -0.5597
vn -0.8188 0.5037 -0.2755
vn -0.8233 0.5014 -0.2660
vn 0.3468 -0.6715 0.6548
vn 0.3497 -0.6707 0.6542
vn 0.2095 -0.7114 0.6708
vn 0.2077 -0.7119 0.6709
vn 0.8668 -0.4700 0.1667
vn 0.8671 -0.4698 0.1658
vn 0.8847 -0.4535 0.1075
vn -0.5914 -0.7782 0.2111
vn -0.5914 -0.7783 0.2111
vn -0.6174 -0.7667 0.1759
vn -0.4702 -0.8094 0.3518
vn -0.4693 -0.8095 0.3527
vn -0.5339 -0.7974 0.2813
vn -0.5347 -0.7972 0.2804
vn -0.3164 -0.8146 0.4862
vn -0.3151 -0.8146 0.4870
vn -0.3966 -0.8146 0.4232
vn -0.3976 -0.8146 0.4223
vn -0.1297 -0.7910 0.5979
vn -0.1281 -0.7908 0.5985
vn -0.2256 -0.8059 0.5474
vn -0.2269 -0.8061 0.5465
vn 0.0841 -0.7439 0.6630
vn 0.0862 -0.7434 0.6633
vn -0.0236 -0.7699 0.6377
vn -0.0253 -0.7703 0.6372
vn 0.4958 -0.6249 0.6030
vn 0.4984 -0.6240 0.6019
vn 0.6737 -0.5616 0.4805
vn 0.6697 -0.5629 0.4843
vn 0.7551 -0.5299 0.3860
vn 0.7575 -0.5289 0.3826
vn 0.5346 -0.6109 0.5839
vn 0.5692 -0.5998 0.5623
vn 0.5735 -0.5983 0.5596
vn 0.8223 -0.4986 0.2744
vn 0.8233 -0.4981 0.2723
vn -0.0277 -0.3313 -0.9431
vn 0.0210 -0.3193 -0.9474
vn 0.0231 -0.3188 -0.9475
vn -0.8174 -0.5264 0.2342
vn -0.8035 -0.5287 0.2738
vn -0.7941 -0.5296 0.2982
vn 0.2654 0.7751 0.5735
vn 0.2653 0.7752 0.5733
vn -0.9476 0.0233 0.3185
vn -0.8902 -0.0140 0.4554
vn -0.8790 -0.0194 0.4765
vn -0.9412 0.0179 0.3374
vn -0.7764 0.5160 -0.3619
vn -0.7932 0.4963 -0.3528
vn -0.7966 0.4923 -0.3509
vn -0.8337 0.4460 -0.3257
vn -0.8770 0.3874 -0.2844
vn -0.8812 0.3814 -0.2794
vn -0.8381 0.4403 -0.3222
vn -0.9157 0.3287 -0.2314
vn -0.9481 0.2696 -0.1684
vn -0.9513 0.2630 -0.1607
vn -0.9195 0.3223 -0.2251
vn -0.9726 0.2134 -0.0924
vn -0.9871 0.1602 -0.0052
vn -0.9881 0.1535 0.0058
vn -0.9748 0.2072 -0.0823
vn -0.9897 0.1109 0.0910
vn -0.9779 0.0661 0.1985
vn -0.9751 0.0598 0.2134
vn -0.9889 0.1053 0.1047
vn 0.8526 0.0483 -0.5204
vn 0.8882 0.0303 -0.4584
vn 0.8969 0.0255 -0.4416
vn 0.8360 -0.4417 0.3257
vn 0.7945 -0.4924 0.3554
vn 0.7912 -0.4961 0.3576
vn 0.8318 -0.4472 0.3289
vn 0.9176 -0.3229 0.2316
vn 0.8791 -0.3825 0.2843
vn 0.8752 -0.3882 0.2888
vn 0.9141 -0.3288 0.2373
vn 0.9742 -0.2061 0.0924
vn 0.9499 -0.2630 0.1688
vn 0.9470 -0.2691 0.1756
vn 0.9721 -0.2117 0.1011
vn 0.9907 -0.1015 -0.0909
vn 0.9885 -0.1514 0.0060
vn 0.9874 -0.1572 0.0155
vn 0.9911 -0.1064 -0.0796
vn 0.9477 -0.0103 -0.3190
vn 0.9789 -0.0540 -0.1971
vn 0.9809 -0.0595 -0.1850
vn 0.9526 -0.0148 -0.3040
vn -0.2311 0.3916 0.8907
vn -0.8440 -0.0347 0.5352
vn 0.7743 -0.5145 0.3684
vn 0.2583 -0.2887 -0.9219
vn 0.3842 -0.2802 -0.8797
vn 0.4008 -0.2792 -0.8726
vn 0.2717 -0.2877 -0.9184
vn -0.6576 -0.5488 0.5161
vn -0.5520 -0.5559 0.6215
vn -0.5426 -0.5563 0.6294
vn -0.6439 -0.5501 0.5318
vn 0.1315 -0.3003 -0.9447
vn 0.1399 -0.2994 -0.9438
vn -0.7477 -0.5371 0.3905
vn -0.7326 -0.5396 0.4150
vn 0.4970 -0.2634 -0.8268
vn 0.5552 -0.2456 -0.7946
vn 0.5134 -0.2586 -0.8183
vn -0.4489 -0.5513 0.7032
vn -0.4017 -0.5436 0.7370
vn -0.4462 -0.5509 0.7053
vn -0.3873 0.6677 0.6358
vn -0.4731 0.7086 0.5236
vn -0.4806 0.7128 0.5108
vn -0.3983 0.6725 0.6238
vn 0.2866 0.4749 0.8320
vn 0.3491 0.4565 0.8184
vn 0.2934 0.4730 0.8308
vn -0.4805 0.7786 -0.4036
vn -0.4627 0.7660 -0.4463
vn -0.4783 0.7771 -0.4090
vn -0.5414 0.8097 -0.2266
vn -0.5118 0.7979 -0.3186
vn -0.5094 0.7966 -0.3256
vn -0.5389 0.8091 -0.2345
vn -0.5799 0.8143 -0.0252
vn -0.5657 0.8146 -0.1280
vn -0.5639 0.8144 -0.1367
vn -0.5791 0.8146 -0.0345
vn -0.5819 0.7900 0.1931
vn -0.5872 0.8052 0.0830
vn -0.5867 0.8065 0.0728
vn -0.5832 0.7915 0.1827
vn -0.5297 0.7416 0.4117
vn -0.5632 0.7686 0.3035
vn -0.5654 0.7712 0.2925
vn -0.5341 0.7445 0.4006
vn -0.2722 0.6211 0.7350
vn -0.2768 0.6229 0.7317
vn -0.0836 0.5668 0.8196
vn 0.0424 0.5343 0.8442
vn 0.0522 0.5321 0.8451
vn -0.0755 0.5647 0.8218
vn -0.2405 0.6081 0.7566
vn -0.2025 0.5988 0.7749
vn -0.1976 0.5975 0.7771
vn 0.1708 0.5037 0.8468
vn 0.1813 0.5014 0.8460
vn 0.3937 -0.6715 -0.6277
vn 0.3917 -0.6707 -0.6299
vn 0.4762 -0.7114 -0.5169
vn 0.4771 -0.7119 -0.5153
vn -0.2891 -0.4700 -0.8340
vn -0.2899 -0.4698 -0.8338
vn -0.3493 -0.4535 -0.8200
vn 0.4785 -0.7782 0.4067
vn 0.4785 -0.7783 0.4066
vn 0.4610 -0.7667 0.4468
vn 0.5398 -0.8094 0.2313
vn 0.5401 -0.8095 0.2301
vn 0.5106 -0.7974 0.3217
vn 0.5102 -0.7972 0.3228
vn 0.5792 -0.8146 0.0309
vn 0.5793 -0.8146 0.0294
vn 0.5648 -0.8146 0.1319
vn 0.5646 -0.8146 0.1332
vn 0.5826 -0.7910 -0.1867
vn 0.5824 -0.7908 -0.1883
vn 0.5868 -0.8059 -0.0784
vn 0.5868 -0.8061 -0.0768
vn 0.5321 -0.7439 -0.4043
vn 0.5313 -0.7434 -0.4063
vn 0.5641 -0.7699 -0.2984
vn 0.5645 -0.7703 -0.2967
vn 0.2743 -0.6249 -0.7309
vn 0.2720 -0.6240 -0.7325
vn 0.0793 -0.5616 -0.8236
vn 0.0846 -0.5629 -0.8222
vn -0.0432 -0.5299 -0.8470
vn -0.0474 -0.5289 -0.8473
vn 0.2384 -0.6109 -0.7549
vn 0.2024 -0.5998 -0.7741
vn 0.1978 -0.5983 -0.7764
vn -0.1735 -0.4986 -0.8493
vn -0.1758 -0.4981 -0.8491
vn -0.8030 -0.3313 0.4955
vn -0.8310 -0.3193 0.4555
vn -0.8321 -0.3188 0.4538
vn 0.6115 -0.5264 0.5907
vn 0.6389 -0.5287 0.5589
vn 0.6553 -0.5296 0.5386
vn 0.3639 0.7751 -0.5165
vn 0.3639 0.7752 -0.5164
vn 0.7496 0.0233 0.6615
vn 0.8395 -0.0140 0.5432
vn 0.8522 -0.0194 0.5229
vn 0.7628 0.0179 0.6464
vn 0.0748 0.5160 0.8533
vn 0.0910 0.4963 0.8633
vn 0.0944 0.4923 0.8653
vn 0.1348 0.4460 0.8848
vn 0.1922 0.3874 0.9016
vn 0.1986 0.3814 0.9028
vn 0.1400 0.4403 0.8869
vn 0.2574 0.3287 0.9087
vn 0.3282 0.2696 0.9053
vn 0.3365 0.2630 0.9042
vn 0.2648 0.3223 0.9089
vn 0.4063 0.2134 0.8885
vn 0.4890 0.1602 0.8574
vn 0.4991 0.1535 0.8528
vn 0.4162 0.2072 0.8854
vn 0.5736 0.1109 0.8116
vn 0.6608 0.0661 0.7476
vn 0.6724 0.0598 0.7378
vn 0.5852 0.1053 0.8041
vn -0.8769 0.0483 -0.4782
vn -0.8411 0.0303 -0.5400
vn -0.8308 0.0255 -0.5559
vn -0.1359 -0.4417 -0.8868
vn -0.0895 -0.4924 -0.8658
vn -0.0859 -0.4961 -0.8640
vn -0.1310 -0.4472 -0.8848
vn -0.2582 -0.3229 -0.9105
vn -0.1933 -0.3825 -0.9035
vn -0.1875 -0.3882 -0.9023
vn -0.2516 -0.3288 -0.9103
vn -0.4070 -0.2061 -0.8899
vn -0.3288 -0.2630 -0.9070
vn -0.3214 -0.2691 -0.9079
vn -0.3985 -0.2117 -0.8924
vn -0.5741 -0.1015 -0.8125
vn -0.4890 -0.1514 -0.8590
vn -0.4803 -0.1572 -0.8629
vn -0.5645 -0.1064 -0.8185
vn -0.7501 -0.0103 -0.6612
vn -0.6601 -0.0540 -0.7492
vn -0.6507 -0.0595 -0.7570
vn -0.7395 -0.0148 -0.6729
vn 0.8869 0.3916 -0.2452
vn 0.8855 -0.0347 0.4633
vn -0.0682 -0.5145 -0.8548
vn -0.9276 -0.2887 0.2372
vn -0.9540 -0.2802 0.1071
vn -0.9561 -0.2792 0.0892
vn -0.9312 -0.2877 0.2239
vn 0.7758 -0.5488 0.3114
vn 0.8142 -0.5559 0.1673
vn 0.8164 -0.5563 0.1552
vn 0.7825 -0.5501 0.2918
vn -0.8839 -0.3003 0.3584
vn -0.8873 -0.2994 0.3507
vn 0.7120 -0.5371 0.4522
vn 0.7257 -0.5396 0.4269
vn -0.9645 -0.2634 -0.0170
vn -0.9658 -0.2456 -0.0835
vn -0.9653 -0.2586 -0.0355
vn 0.8335 -0.5513 0.0372
vn 0.8391 -0.5436 -0.0206
vn 0.8339 -0.5509 0.0338
vn 0.7442 0.6677 0.0175
vn 0.6900 0.7086 0.1479
vn 0.6827 0.7128 0.1608
vn 0.7394 0.6725 0.0331
vn 0.5773 0.4749 -0.6642
vn 0.5342 0.4565 -0.7115
vn 0.5727 0.4730 -0.6695
vn -0.1093 0.7786 0.6179
vn -0.1552 0.7660 0.6238
vn -0.1151 0.7771 0.6187
vn 0.0745 0.8097 0.5821
vn -0.0201 0.7979 0.6025
vn -0.0273 0.7966 0.6039
vn 0.0664 0.8091 0.5840
vn 0.2681 0.8143 0.5148
vn 0.1720 0.8146 0.5539
vn 0.1636 0.8144 0.5567
vn 0.2597 0.8146 0.5187
vn 0.4581 0.7900 0.4074
vn 0.3655 0.8052 0.4670
vn 0.3564 0.8065 0.4717
vn 0.4498 0.7915 0.4137
vn 0.6214 0.7416 0.2529
vn 0.5445 0.7686 0.3360
vn 0.5360 0.7712 0.3434
vn 0.6140 0.7445 0.2622
vn 0.7726 0.6211 -0.1318
vn 0.7721 0.6229 -0.1262
vn 0.7516 0.5668 -0.3374
vn 0.7099 0.5343 -0.4588
vn 0.7058 0.5321 -0.4677
vn 0.7494 0.5647 -0.3456
vn 0.7755 0.6081 -0.1700
vn 0.7723 0.5988 -0.2120
vn 0.7718 0.5975 -0.2175
vn 0.6480 0.5037 -0.5713
vn 0.6420 0.5014 -0.5800
vn -0.7405 -0.6715 -0.0271
vn -0.7413 -0.6707 -0.0243
vn -0.6857 -0.7114 -0.1540
vn -0.6848 -0.7119 -0.1555
vn -0.5777 -0.4700 0.6673
vn -0.5771 -0.4698 0.6680
vn -0.5355 -0.4535 0.7125
vn 0.1129 -0.7782 -0.6177
vn 0.1129 -0.7783 -0.6177
vn 0.1564 -0.7667 -0.6227
vn -0.0696 -0.8094 -0.5831
vn -0.0708 -0.8095 -0.5828
vn 0.0233 -0.7974 -0.6030
vn 0.0245 -0.7972 -0.6032
vn -0.2628 -0.8146 -0.5171
vn -0.2642 -0.8146 -0.5164
vn -0.1682 -0.8146 -0.5551
vn -0.1669 -0.8146 -0.5555
vn -0.4530 -0.7910 -0.4112
vn -0.4542 -0.7908 -0.4102
vn -0.3613 -0.8059 -0.4690
vn -0.3599 -0.8061 -0.4698
vn -0.6162 -0.7439 -0.2586
vn -0.6175 -0.7434 -0.2570
vn -0.5405 -0.7699 -0.3393
vn -0.5392 -0.7703 -0.3405
vn -0.7702 -0.6249 0.1279
vn -0.7704 -0.6240 0.1307
vn -0.7529 -0.5616 0.3432
vn -0.7543 -0.5629 0.3378
vn -0.7119 -0.5299 0.4609
vn -0.7101 -0.5289 0.4648
vn -0.7730 -0.6109 0.1710
vn -0.7716 -0.5998 0.2118
vn -0.7713 -0.5983 0.2169
vn -0.6488 -0.4986 0.5749
vn -0.6475 -0.4981 0.5768
vn 0.8306 -0.3313 0.4476
vn 0.8100 -0.3193 0.4919
vn 0.8091 -0.3188 0.4937
vn 0.2058 -0.5264 -0.8250
vn 0.1646 -0.5287 -0.8327
vn 0.1388 -0.5296 -0.8368
vn -0.6293 0.7751 -0.0569
vn -0.6292 0.7752 -0.0569
vn 0.1980 0.0233 -0.9799
vn 0.0507 -0.0140 -0.9986
vn 0.0268 -0.0194 -0.9995
vn 0.1784 0.0179 -0.9838
vn 0.7016 0.5160 -0.4914
vn 0.7022 0.4963 -0.5105
vn 0.7022 0.4923 -0.5144
vn 0.6989 0.4460 -0.5591
vn 0.6847 0.3874 -0.6173
vn 0.6826 0.3814 -0.6234
vn 0.6981 0.4403 -0.5647
vn 0.6582 0.3287 -0.6773
vn 0.6199 0.2696 -0.7369
vn 0.6148 0.2630 -0.7435
vn 0.6547 0.3223 -0.6837
vn 0.5663 0.2134 -0.7961
vn 0.4981 0.1602 -0.8522
vn 0.4890 0.1535 -0.8587
vn 0.5587 0.2072 -0.8031
vn 0.4160 0.1109 -0.9026
vn 0.3171 0.0661 -0.9461
vn 0.3027 0.0598 -0.9512
vn 0.4038 0.1053 -0.9088
vn 0.0244 0.0483 0.9985
vn -0.0471 0.0303 0.9984
vn -0.0660 0.0255 0.9975
vn -0.7000 -0.4417 0.5611
vn -0.7050 -0.4924 0.5104
vn -0.7053 -0.4961 0.5064
vn -0.7007 -0.4472 0.5559
vn -0.6594 -0.3229 0.6789
vn -0.6858 -0.3825 0.6192
vn -0.6877 -0.3882 0.6135
vn -0.6625 -0.3288 0.6730
vn -0.5671 -0.2061 0.7974
vn -0.6211 -0.2630 0.7383
vn -0.6255 -0.2691 0.7323
vn -0.5736 -0.2117 0.7913
vn -0.4166 -0.1015 0.9034
vn -0.4994 -0.1514 0.8530
vn -0.5071 -0.1572 0.8474
vn -0.4266 -0.1064 0.8982
vn -0.1975 -0.0103 0.9802
vn -0.3188 -0.0540 0.9463
vn -0.3302 -0.0595 0.9420
vn -0.2130 -0.0148 0.9769
vn -0.6558 0.3916 -0.6454
vn -0.0415 -0.0347 -0.9985
vn -0.7062 -0.5145 0.4864
vn 0.6692 -0.2887 0.6847
vn 0.5697 -0.2802 0.7726
vn 0.5553 -0.2792 0.7834
vn 0.6595 -0.2877 0.6945
vn -0.1182 -0.5488 -0.8275
vn -0.2622 -0.5559 -0.7888
vn -0.2738 -0.5563 -0.7846
vn -0.1386 -0.5501 -0.8235
vn 0.7524 -0.3003 0.5863
vn 0.7474 -0.2994 0.5931
vn 0.0356 -0.5371 -0.8428
vn 0.0069 -0.5396 -0.8419
vn 0.4675 -0.2634 0.8438
vn 0.4106 -0.2456 0.8781
vn 0.4519 -0.2586 0.8538
vn -0.3845 -0.5513 -0.7404
vn -0.4374 -0.5436 -0.7164
vn -0.3877 -0.5509 -0.7391
vt 0.000000 0.000000
s 1
f 18/1/1 11/1/2 17/1/3 24/1/4
f 33/1/5 1/1/6 38/1/7
f 19/1/8 6/1/9 12/1/9 25/1/10
f 20/1/11 7/1/12 13/1/13 26/1/14
f 21/1/15 8/1/16 14/1/17 27/1/18
f 22/1/19 9/1/20 15/1/21 28/1/22
f 23/1/23 10/1/24 16/1/25 29/1/26
f 11/1/2 23/1/23 29/1/26 17/1/3
f 10/1/24 22/1/19 28/1/22 16/1/25
f 9/1/20 21/1/15 27/1/18 15/1/21
f 8/1/16 20/1/11 26/1/14 14/1/17
f 7/1/12 19/1/8 25/1/10 13/1/13
f 5/1/27 18/1/1 24/1/4 4/1/28
f 37/1/29 30/1/30 31/1/31 34/1/32
f 2/1/33 36/1/34 35/1/35 3/1/33 5/1/27 4/1/28
f 36/1/34 37/1/29 34/1/32 35/1/35
f 30/1/30 32/1/36 39/1/37 31/1/31
f 32/1/36 33/1/5 38/1/7 39/1/37
f 57/1/38 63/1/39 56/1/40 50/1/41
f 72/1/42 77/1/43 40/1/44
f 58/1/45 64/1/46 51/1/47 45/1/47
f 59/1/48 65/1/49 52/1/50 46/1/51
f 60/1/52 66/1/53 53/1/54 47/1/55
f 61/1/56 67/1/57 54/1/58 48/1/59
f 62/1/60 68/1/61 55/1/62 49/1/63
f 50/1/41 56/1/40 68/1/61 62/1/60
f 49/1/63 55/1/62 67/1/57 61/1/56
f 48/1/59 54/1/58 66/1/53 60/1/52
f 47/1/55 53/1/54 65/1/49 59/1/48
f 46/1/51 52/1/50 64/1/46 58/1/45
f 44/1/64 43/1/65 63/1/39 57/1/38
f 76/1/66 73/1/67 70/1/68 69/1/69
f 41/1/70 43/1/65 44/1/64 42/1/70 74/1/71 75/1/72
f 75/1/72 74/1/71 73/1/67 76/1/66
f 69/1/69 70/1/68 78/1/73 71/1/74
f 71/1/74 78/1/73 77/1/43 72/1/42
f 1/1/75 33/1/76 72/1/77 40/1/75
f 3/1/78 35/1/79 74/1/80 42/1/78
f 2/1/81 4/1/81 43/1/81 41/1/81
f 5/1/82 3/1/82 42/1/82 44/1/82
f 11/1/83 18/1/84 57/1/85 50/1/86
f 6/1/87 19/1/88 58/1/89 45/1/87
f 7/1/90 20/1/91 59/1/92 46/1/93
f 8/1/94 21/1/95 60/1/96 47/1/97
f 9/1/98 22/1/99 61/1/100 48/1/101
f 10/1/102 23/1/103 62/1/104 49/1/105
f 4/1/106 24/1/107 63/1/108 43/1/106
f 13/1/109 25/1/110 64/1/111 52/1/112
f 14/1/113 26/1/114 65/1/115 53/1/116
f 15/1/117 27/1/118 66/1/119 54/1/120
f 16/1/121 28/1/122 67/1/123 55/1/124
f 17/1/125 29/1/126 68/1/127 56/1/128
f 12/1/129 6/1/129 45/1/129 51/1/129
f 18/1/84 5/1/130 44/1/130 57/1/85
f 19/1/88 7/1/90 46/1/93 58/1/89
f 20/1/91 8/1/94 47/1/97 59/1/92
f 21/1/95 9/1/98 48/1/101 60/1/96
f 22/1/99 10/1/102 49/1/105 61/1/100
f 23/1/103 11/1/83 50/1/86 62/1/104
f 24/1/107 17/1/125 56/1/128 63/1/108
f 25/1/110 12/1/131 51/1/131 64/1/111
f 26/1/114 13/1/109 52/1/112 65/1/115
f 27/1/118 14/1/113 53/1/116 66/1/119
f 28/1/122 15/1/117 54/1/120 67/1/123
f 29/1/126 16/1/121 55/1/124 68/1/127
f 30/1/132 37/1/133 76/1/134 69/1/135
f 31/1/136 39/1/137 78/1/138 70/1/139
f 32/1/140 30/1/132 69/1/135 71/1/141
f 33/1/76 32/1/140 71/1/141 72/1/77
f 34/1/142 31/1/136 70/1/139 73/1/143
f 35/1/79 34/1/142 73/1/143 74/1/80
f 36/1/144 2/1/145 41/1/145 75/1/146
f 37/1/133 36/1/144 75/1/146 76/1/134
f 38/1/147 1/1/148 40/1/148 77/1/149
f 39/1/137 38/1/147 77/1/149 78/1/138
f 96/1/150 89/1/151 95/1/152 102/1/153
f 111/1/154 79/1/155 116/1/156
f 97/1/157 84/1/158 90/1/158 103/1/159
f 98/1/160 85/1/161 91/1/162 104/1/163
f 99/1/164 86/1/165 92/1/166 105/1/167
f 100/1/168 87/1/169 93/1/170 106/1/171
f 101/1/172 88/1/173 94/1/174 107/1/175
f 89/1/151 101/1/172 107/1/175 95/1/152
f 88/1/173 100/1/168 106/1/171 94/1/174
f 87/1/169 99/1/164 105/1/167 93/1/170
f 86/1/165 98/1/160 104/1/163 92/1/166
f 85/1/161 97/1/157 103/1/159 91/1/162
f 83/1/176 96/1/150 102/1/153 82/1/177
f 115/1/178 108/1/179 109/1/180 112/1/181
f 80/1/182 114/1/183 113/1/184 81/1/182 83/1/176 82/1/177
f 114/1/183 115/1/178 112/1/181 113/1/184
f 108/1/179 110/1/185 117/1/186 109/1/180
f 110/1/185 111/1/154 116/1/156 117/1/186
f 135/1/187 141/1/188 134/1/189 128/1/190
f 150/1/191 155/1/192 118/1/193
f 136/1/194 142/1/195 129/1/196 123/1/196
f 137/1/197 143/1/198 130/1/199 124/1/200
f 138/1/201 144/1/202 131/1/203 125/1/204
f 139/1/205 145/1/206 132/1/207 126/1/208
f 140/1/209 146/1/210 133/1/211 127/1/212
f 128/1/190 134/1/189 146/1/210 140/1/209
f 127/1/212 133/1/211 145/1/206 139/1/205
f 126/1/208 132/1/207 144/1/202 138/1/201
f 125/1/204 131/1/203 143/1/198 137/1/197
f 124/1/200 130/1/199 142/1/195 136/1/194
f 122/1/213 121/1/214 141/1/188 135/1/187
f 154/1/215 151/1/216 148/1/217 147/1/218
f 119/1/219 121/1/214 122/1/213 120/1/219 152/1/220 153/1/221
f 153/1/221 152/1/220 151/1/216 154/1/215
f 147/1/218 148/1/217 156/1/222 149/1/223
f 149/1/223 156/1/222 155/1/192 150/1/191
f 79/1/224 111/1/225 150/1/226 118/1/224
f 81/1/227 113/1/228 152/1/229 120/1/227
f 80/1/230 82/1/230 121/1/230 119/1/230
f 83/1/231 81/1/231 120/1/231 122/1/231
f 89/1/232 96/1/233 135/1/234 128/1/235
f 84/1/236 97/1/237 136/1/238 123/1/236
f 85/1/239 98/1/240 137/1/241 124/1/242
f 86/1/243 99/1/244 138/1/245 125/1/246
f 87/1/247 100/1/248 139/1/249 126/1/250
f 88/1/251 101/1/252 140/1/253 127/1/254
f 82/1/255 102/1/256 141/1/257 121/1/255
f 91/1/258 103/1/259 142/1/260 130/1/261
f 92/1/262 104/1/263 143/1/264 131/1/265
f 93/1/266 105/1/267 144/1/268 132/1/269
f 94/1/270 106/1/271 145/1/272 133/1/273
f 95/1/274 107/1/275 146/1/276 134/1/277
f 90/1/278 84/1/278 123/1/278 129/1/278
f 96/1/233 83/1/279 122/1/279 135/1/234
f 97/1/237 85/1/239 124/1/242 136/1/238
f 98/1/240 86/1/243 125/1/246 137/1/241
f 99/1/244 87/1/247 126/1/250 138/1/245
f 100/1/248 88/1/251 127/1/254 139/1/249
f 101/1/252 89/1/232 128/1/235 140/1/253
f 102/1/256 95/1/274 134/1/277 141/1/257
f 103/1/259 90/1/280 129/1/280 142/1/260
f 104/1/263 91/1/258 130/1/261 143/1/264
f 105/1/267 92/1/262 131/1/265 144/1/268
f 106/1/271 93/1/266 132/1/269 145/1/272
f 107/1/275 94/1/270 133/1/273 146/1/276
f 108/1/281 115/1/282 154/1/283 147/1/284
f 109/1/285 117/1/286 156/1/287 148/1/288
f 110/1/289 108/1/281 147/1/284 149/1/290
f 111/1/225 110/1/289 149/1/290 150/1/226
f 112/1/291 109/1/285 148/1/288 151/1/292
f 113/1/228 112/1/291 151/1/292 152/1/229
f 114/1/293 80/1/294 119/1/294 153/1/295
f 115/1/282 114/1/293 153/1/295 154/1/283
f 116/1/296 79/1/297 118/1/297 155/1/298
f 117/1/286 116/1/296 155/1/298 156/1/287
f 174/1/299 167/1/300 173/1/301 180/1/302
f 189/1/303 157/1/304 194/1/305
f 175/1/306 162/1/307 168/1/307 181/1/308
f 176/1/309 163/1/310 169/1/311 182/1/312
f 177/1/313 164/1/314 170/1/315 183/1/316
f 178/1/317 165/1/318 171/1/319 184/1/320
f 179/1/321 166/1/322 172/1/323 185/1/324
f 167/1/300 179/1/321 185/1/324 173/1/301
f 166/1/322 178/1/317 184/1/320 172/1/323
f 165/1/318 177/1/313 183/1/316 171/1/319
f 164/1/314 176/1/309 182/1/312 170/1/315
f 163/1/310 175/1/306 181/1/308 169/1/311
f 161/1/325 174/1/299 180/1/302 160/1/326
f 193/1/327 186/1/328 187/1/329 190/1/330
f 158/1/331 192/1/332 191/1/333 159/1/331 161/1/325 160/1/326
f 192/1/332 193/1/327 190/1/330 191/1/333
f 186/1/328 188/1/334 195/1/335 187/1/329
f 188/1/334 189/1/303 194/1/305 195/1/335
f 213/1/336 219/1/337 212/1/338 206/1/339
f 228/1/340 233/1/341 196/1/342
f 214/1/343 220/1/344 207/1/345 201/1/345
f 215/1/346 221/1/347 208/1/348 202/1/349
f 216/1/350 222/1/351 209/1/352 203/1/353
f 217/1/354 223/1/355 210/1/356 204/1/357
f 218/1/358 224/1/359 211/1/360 205/1/361
f 206/1/339 212/1/338 224/1/359 218/1/358
f 205/1/361 211/1/360 223/1/355 217/1/354
f 204/1/357 210/1/356 222/1/351 216/1/350
f 203/1/353 209/1/352 221/1/347 215/1/346
f 202/1/349 208/1/348 220/1/344 214/1/343
f 200/1/362 199/1/363 219/1/337 213/1/336
f 232/1/364 229/1/365 226/1/366 225/1/367
f 197/1/368 199/1/363 200/1/362 198/1/368 230/1/369 231/1/370
f 231/1/370 230/1/369 229/1/365 232/1/364
f 225/1/367 226/1/366 234/1/371 227/1/372
f 227/1/372 234/1/371 233/1/341 228/1/340
f 157/1/373 189/1/374 228/1/375 196/1/373
f 159/1/376 191/1/377 230/1/378 198/1/376
f 158/1/379 160/1/379 199/1/379 197/1/379
f 161/1/380 159/1/380 198/1/380 200/1/380
f 167/1/381 174/1/382 213/1/383 206/1/384
f 162/1/385 175/1/386 214/1/387 201/1/385
f 163/1/388 176/1/389 215/1/390 202/1/391
f 164/1/392 177/1/393 216/1/394 203/1/395
f 165/1/396 178/1/397 217/1/398 204/1/399
f 166/1/400 179/1/401 218/1/402 205/1/403
f 160/1/404 180/1/405 219/1/406 199/1/404
f 169/1/407 181/1/408 220/1/409 208/1/410
f 170/1/411 182/1/412 221/1/413 209/1/414
f 171/1/415 183/1/416 222/1/417 210/1/418
f 172/1/419 184/1/420 223/1/421 211/1/422
f 173/1/423 185/1/424 224/1/425 212/1/426
f 168/1/427 162/1/427 201/1/427 207/1/427
f 174/1/382 161/1/428 200/1/428 213/1/383
f 175/1/386 163/1/388 202/1/391 214/1/387
f 176/1/389 164/1/392 203/1/395 215/1/390
f 177/1/393 165/1/396 204/1/399 216/1/394
f 178/1/397 166/1/400 205/1/403 217/1/398
f 179/1/401 167/1/381 206/1/384 218/1/402
f 180/1/405 173/1/423 212/1/426 219/1/406
f 181/1/408 168/1/429 207/1/429 220/1/409
f 182/1/412 169/1/407 208/1/410 221/1/413
f 183/1/416 170/1/411 209/1/414 222/1/417
f 184/1/420 171/1/415 210/1/418 223/1/421
f 185/1/424 172/1/419 211/1/422 224/1/425
f 186/1/430 193/1/431 232/1/432 225/1/433
f 187/1/434 195/1/435 234/1/436 226/1/437
f 188/1/438 186/1/430 225/1/433 227/1/439
f 189/1/374 188/1/438 227/1/439 228/1/375
f 190/1/440 187/1/434 226/1/437 229/1/441
f 191/1/377 190/1/440 229/1/441 230/1/378
f 192/1/442 158/1/443 197/1/443 231/1/444
f 193/1/431 192/1/442 231/1/444 232/1/432
f 194/1/445 157/1/446 196/1/446 233/1/447
f 195/1/435 194/1/445 233/1/447 234/1/436
