# Blender 5.0.1
# www.blender.org
o wait
v 11.513027 2.849959 0.000000
v 8.207424 6.445926 2.672995
v 8.207432 6.445921 -2.672993
v 8.182953 6.460267 1.323070
v 8.182961 6.460263 -1.323069
v 4.792881 7.313372 -0.382418
v 4.792881 7.313372 -1.323069
v 6.329840 7.134462 -1.323069
v 4.792881 7.313372 1.323070
v 6.329841 7.134462 1.323070
v 7.329896 6.843247 -1.323069
v 5.568732 7.261781 -1.323069
v 7.329895 6.843247 1.323070
v 5.568732 7.261781 1.323070
v 10.149526 4.946186 1.336497
v 10.149529 4.946180 -1.336498
v 10.699385 4.277684 0.890998
v 11.096045 3.685794 0.507909
v 9.555133 5.521298 -1.781996
v 9.555133 5.521298 1.781997
v 11.096045 3.685794 -0.507908
v 10.699385 4.277684 -0.890998
v 10.477841 4.573437 0.000000
v 9.033672 5.936278 -1.041880
v 9.006956 5.953644 0.382419
v 9.033667 5.936283 1.041883
v 9.006963 5.953640 -0.382418
v 7.329896 6.843247 -0.382418
v 6.329840 7.134462 -0.382418
v 5.568732 7.261781 -0.382418
v 7.329895 6.843247 0.382419
v 4.792881 7.313372 0.382419
v 5.568732 7.261781 0.382419
v 6.329841 7.134462 0.382419
v 10.469091 4.584154 -1.086789
v 9.570807 5.507488 0.695207
v 10.469091 4.584154 1.086788
v 10.161341 4.933783 -0.249710
v 10.161342 4.933783 0.249708
v 9.029219 5.939304 -2.128674
v 9.570807 5.507487 -0.695209
v 9.029217 5.939306 2.128673
v 8.170465 6.467047 0.382419
v 8.170465 6.467047 -0.382418
v -1.944886 2.877658 0.000001
v 1.375985 6.458870 2.672995
v 1.375978 6.458867 -2.672993
v 1.400604 6.473176 1.323070
v 1.400598 6.473174 -1.323068
v 3.256562 7.140314 -1.323069
v 3.256562 7.140314 1.323070
v 2.255211 6.852687 -1.323069
v 4.017828 7.263813 -1.323069
v 2.255211 6.852687 1.323070
v 4.017828 7.263813 1.323070
v -0.572880 4.967146 1.336498
v -0.572884 4.967141 -1.336496
v -1.123739 4.303401 0.890999
v -1.523938 3.710789 0.507909
v 0.025107 5.540741 -1.781996
v 0.025107 5.540740 1.781998
v -1.523938 3.710789 -0.507907
v -1.123739 4.303401 -0.890997
v -0.900093 4.596065 0.000001
v 0.548403 5.952517 -1.041880
v 0.574754 5.969497 0.382420
v 0.548409 5.952522 1.041884
v 0.574747 5.969492 -0.382418
v 2.255211 6.852687 -0.382418
v 3.256562 7.140314 -0.382418
v 4.017828 7.263813 -0.382418
v 2.255211 6.852687 0.382420
v 4.017828 7.263813 0.382419
v 3.256562 7.140314 0.382420
v -0.892387 4.605414 -1.086788
v 0.009159 5.526828 0.695208
v -0.892387 4.605414 1.086789
v -0.585372 4.954089 -0.249709
v -0.585372 4.954089 0.249709
v 0.552798 5.955476 -2.128673
v 0.009159 5.526828 -0.695208
v 0.552799 5.955477 2.128674
v 1.413167 6.479935 0.382420
v 1.413167 6.479935 -0.382418
v 10.347324 2.272257 0.000000
v 7.525311 5.338080 2.672995
v 7.525317 5.338077 -2.672994
v 7.549782 5.323739 1.323070
v 7.549788 5.323736 -1.323069
v 4.791260 6.012373 -0.382418
v 4.791260 6.012373 -1.323069
v 6.040684 5.866003 -1.323069
v 4.791260 6.012373 1.323070
v 6.040684 5.866003 1.323070
v 6.881376 5.622006 -1.323069
v 5.417823 5.969563 -1.323069
v 6.881377 5.622005 1.323070
v 5.417823 5.969563 1.323070
v 9.219453 4.036479 1.336497
v 9.219456 4.036475 -1.336496
v 9.644417 3.516340 0.890998
v 9.985059 3.008808 0.507909
v 8.710828 4.531476 -1.781996
v 8.710828 4.531475 1.781997
v 9.985059 3.008808 -0.507908
v 9.644417 3.516340 -0.890998
v 9.461381 3.761397 0.000000
v 8.298138 4.863157 -1.041881
v 8.324842 4.845799 0.382419
v 8.298132 4.863161 1.041883
v 8.324847 4.845795 -0.382419
v 6.881376 5.622006 -0.382418
v 6.040684 5.866003 -0.382418
v 5.417823 5.969563 -0.382418
v 6.881377 5.622005 0.382419
v 4.791260 6.012373 0.382419
v 5.417823 5.969563 0.382419
v 6.040684 5.866003 0.382419
v 9.470131 3.750680 -1.086789
v 8.695154 4.545286 0.695207
v 9.470131 3.750680 1.086788
v 9.207638 4.048882 -0.249709
v 9.207637 4.048882 0.249708
v 8.302580 4.860139 -2.128674
v 8.695153 4.545286 -0.695208
v 8.302578 4.860140 2.128673
v 7.562271 5.316959 0.382419
v 7.562270 5.316959 -0.382419
v -0.782184 2.293942 0.000001
v 2.054120 5.348585 2.672995
v 2.054115 5.348583 -2.672993
v 2.029501 5.334279 1.323070
v 2.029495 5.334276 -1.323069
v 3.540248 5.870619 -1.323069
v 3.540248 5.870619 1.323070
v 2.699016 5.629725 -1.323069
v 4.163894 5.971039 -1.323069
v 2.699017 5.629725 1.323070
v 4.163894 5.971039 1.323070
v 0.354565 4.054761 1.336498
v 0.354562 4.054757 -1.336496
v -0.074675 3.533944 0.890999
v -0.415648 3.029398 0.507909
v 0.864294 4.546575 -1.781996
v 0.864294 4.546575 1.781998
v -0.415648 3.029398 -0.507907
v -0.074675 3.533944 -0.890997
v 0.111536 3.778013 0.000001
v 1.279228 4.876183 -1.041880
v 1.252889 4.859212 0.382420
v 1.279234 4.876188 1.041884
v 1.252884 4.859208 -0.382418
v 2.699016 5.629725 -0.382418
v 3.540248 5.870619 -0.382418
v 4.163894 5.971039 -0.382418
v 2.699017 5.629725 0.382420
v 4.163894 5.971039 0.382419
v 3.540248 5.870619 0.382420
v 0.103830 3.768663 -1.086788
v 0.880242 4.560487 0.695208
v 0.103830 3.768664 1.086789
v 0.367058 4.067818 -0.249709
v 0.367058 4.067818 0.249709
v 1.274845 4.873234 -2.128673
v 0.880242 4.560487 -0.695208
v 1.274846 4.873234 2.128674
v 2.016938 5.327520 0.382420
v 2.016938 5.327520 -0.382418
vn 0.8542 0.5199 -0.0000
vn 0.8108 0.5853 -0.0000
vn 0.2227 0.9749 -0.0000
vn 0.3451 0.9386 -0.0003
vn 0.0013 1.0000 -0.0000
vn 0.1158 0.9933 -0.0000
vn 0.4671 0.8842 -0.0002
vn 0.4869 0.8734 -0.0001
vn 0.3451 0.9386 0.0003
vn 0.6484 0.7613 -0.0001
vn 0.6718 0.7407 -0.0000
vn 0.5645 0.8254 -0.0002
vn 0.5590 0.8292 -0.0002
vn 0.7681 0.6403 -0.0000
vn 0.7803 0.6254 -0.0000
vn 0.7326 0.6806 -0.0001
vn 0.7152 0.6989 -0.0001
vn 0.6484 0.7613 0.0001
vn 0.7152 0.6989 0.0001
vn 0.7326 0.6806 0.0001
vn 0.5590 0.8292 0.0002
vn 0.5645 0.8254 0.0002
vn 0.5242 0.8516 0.0002
vn 0.5242 0.8516 -0.0002
vn 0.4671 0.8842 0.0002
vn 0.4869 0.8734 0.0001
vn 0.8948 0.4464 -0.0000
vn -0.8521 0.5234 -0.0000
vn -0.8065 0.5913 -0.0000
vn -0.2185 0.9758 -0.0000
vn -0.3415 0.9399 -0.0003
vn -0.1121 0.9937 -0.0000
vn -0.4836 0.8753 -0.0000
vn -0.4637 0.8860 -0.0002
vn -0.3415 0.9399 0.0003
vn -0.6446 0.7646 -0.0002
vn -0.5554 0.8316 -0.0002
vn -0.5609 0.8279 -0.0003
vn -0.6683 0.7439 -0.0000
vn -0.7659 0.6430 0.0001
vn -0.7768 0.6298 -0.0000
vn -0.7659 0.6430 -0.0001
vn -0.6446 0.7646 0.0002
vn -0.7131 0.7010 -0.0001
vn -0.7315 0.6818 -0.0001
vn -0.7131 0.7010 0.0001
vn -0.7315 0.6818 0.0001
vn -0.5554 0.8316 0.0002
vn -0.5609 0.8279 0.0003
vn -0.5211 0.8535 0.0002
vn -0.5211 0.8535 -0.0002
vn -0.4836 0.8753 0.0001
vn -0.4637 0.8860 0.0002
vn -0.8925 0.4510 -0.0000
vn -0.8536 -0.5209 -0.0000
vn -0.8111 -0.5850 -0.0000
vn -0.2218 -0.9751 -0.0000
vn -0.3443 -0.9389 -0.0003
vn -0.0012 -1.0000 -0.0000
vn -0.1162 -0.9932 -0.0000
vn -0.4863 -0.8738 -0.0000
vn -0.4679 -0.8838 -0.0002
vn -0.3443 -0.9389 0.0003
vn -0.6497 -0.7602 -0.0001
vn -0.5580 -0.8299 -0.0002
vn -0.5674 -0.8234 -0.0002
vn -0.6747 -0.7381 -0.0000
vn -0.7674 -0.6411 0.0001
vn -0.7823 -0.6229 -0.0000
vn -0.7674 -0.6411 -0.0001
vn -0.6497 -0.7602 0.0001
vn -0.7145 -0.6997 -0.0001
vn -0.7336 -0.6796 -0.0001
vn -0.7145 -0.6997 0.0001
vn -0.7336 -0.6796 0.0001
vn -0.5580 -0.8299 0.0002
vn -0.5674 -0.8234 0.0002
vn -0.5244 -0.8515 0.0002
vn -0.5244 -0.8515 -0.0002
vn -0.4679 -0.8838 0.0002
vn -0.8973 -0.4413 -0.0000
vn 0.8516 -0.5241 -0.0000
vn 0.8063 -0.5915 -0.0000
vn 0.2175 -0.9761 -0.0000
vn 0.3407 -0.9402 -0.0003
vn 0.1125 -0.9937 -0.0000
vn 0.4645 -0.8856 -0.0002
vn 0.4830 -0.8756 -0.0000
vn 0.3407 -0.9402 0.0003
vn 0.6457 -0.7636 -0.0001
vn 0.6711 -0.7413 -0.0000
vn 0.5637 -0.8260 -0.0002
vn 0.5544 -0.8322 -0.0002
vn 0.7655 -0.6434 -0.0001
vn 0.7784 -0.6277 -0.0000
vn 0.7655 -0.6434 0.0001
vn 0.7328 -0.6805 -0.0002
vn 0.7125 -0.7017 -0.0001
vn 0.6457 -0.7636 0.0001
vn 0.7125 -0.7017 0.0001
vn 0.7328 -0.6805 0.0002
vn 0.5544 -0.8322 0.0002
vn 0.5637 -0.8260 0.0002
vn 0.5214 -0.8533 0.0002
vn 0.5214 -0.8533 -0.0002
vn 0.4645 -0.8856 0.0002
vn 0.8950 -0.4461 -0.0000
vn 0.8384 -0.5450 -0.0000
vn -0.0000 -0.0000 1.0000
vn -0.0000 -0.0000 -1.0000
vn -0.3748 0.3325 -0.8654
vn -0.3416 0.3664 -0.8655
vn -0.3418 0.3662 -0.8655
vn -0.3751 0.3321 -0.8654
vn -0.3416 0.3664 0.8655
vn -0.3748 0.3325 0.8654
vn -0.3751 0.3321 0.8654
vn -0.3418 0.3662 0.8655
vn -0.3269 0.3795 -0.8655
vn -0.3933 0.3113 0.8651
vn 0.2420 -0.4391 0.8653
vn 0.2598 -0.4281 0.8656
vn 0.2594 -0.4284 0.8656
vn -0.8628 0.5056 -0.0000
vn 0.3514 -0.3570 0.8655
vn 0.3833 -0.3229 0.8653
vn 0.3830 -0.3232 0.8653
vn 0.3512 -0.3572 0.8655
vn 0.3514 -0.3570 -0.8655
vn 0.3219 -0.3839 -0.8654
vn 0.3217 -0.3841 -0.8654
vn 0.3512 -0.3572 -0.8655
vn 0.2925 -0.4068 0.8654
vn 0.3219 -0.3839 0.8654
vn 0.3217 -0.3841 0.8654
vn 0.2924 -0.4069 0.8654
vn 0.3833 -0.3229 -0.8653
vn 0.3830 -0.3232 -0.8653
vn 0.4217 -0.2716 -0.8651
vn 0.4108 -0.2874 -0.8652
vn 0.4106 -0.2877 -0.8652
vn 0.4108 -0.2874 0.8652
vn 0.4106 -0.2877 0.8652
vn 0.2598 -0.4281 -0.8656
vn 0.2420 -0.4391 -0.8653
vn 0.2594 -0.4284 -0.8656
vn 0.2925 -0.4068 -0.8654
vn 0.2924 -0.4069 -0.8654
vn -0.3933 0.3113 -0.8651
vn -0.3269 0.3795 0.8655
vn 0.4217 -0.2716 0.8651
vn -0.8406 -0.5416 -0.0000
vn 0.3428 0.3652 -0.8655
vn 0.3761 0.3310 -0.8655
vn 0.3764 0.3306 -0.8655
vn 0.3430 0.3650 -0.8655
vn 0.3761 0.3310 0.8655
vn 0.3428 0.3652 0.8655
vn 0.3430 0.3650 0.8655
vn 0.3764 0.3306 0.8655
vn 0.3283 0.3783 -0.8655
vn 0.3947 0.3095 0.8651
vn -0.2620 -0.4267 0.8656
vn -0.2439 -0.4379 0.8653
vn -0.2616 -0.4270 0.8656
vn 0.8646 0.5024 -0.0000
vn -0.3847 -0.3212 0.8654
vn -0.3527 -0.3557 0.8655
vn -0.3524 -0.3560 0.8655
vn -0.3844 -0.3215 0.8654
vn -0.3235 -0.3826 -0.8654
vn -0.3527 -0.3557 -0.8655
vn -0.3524 -0.3560 -0.8655
vn -0.3234 -0.3827 -0.8654
vn -0.3235 -0.3826 0.8654
vn -0.2948 -0.4051 0.8654
vn -0.2946 -0.4052 0.8655
vn -0.3234 -0.3827 0.8654
vn -0.3847 -0.3212 -0.8654
vn -0.3844 -0.3215 -0.8654
vn -0.4121 -0.2856 -0.8652
vn -0.4228 -0.2700 -0.8651
vn -0.4119 -0.2860 -0.8652
vn -0.4121 -0.2856 0.8652
vn -0.4119 -0.2860 0.8652
vn -0.2439 -0.4379 -0.8653
vn -0.2620 -0.4267 -0.8656
vn -0.2616 -0.4270 -0.8656
vn -0.2948 -0.4051 -0.8654
vn -0.2946 -0.4052 -0.8655
vn 0.3947 0.3095 -0.8651
vn 0.3283 0.3783 0.8655
vn -0.4228 -0.2700 0.8651
vt 0.000000 0.000000
s 1
f 21/1/1 22/1/2 17/1/2 18/1/1
f 29/1/3 28/1/4 11/1/4 8/1/3
f 6/1/5 30/1/6 12/1/6 7/1/5
f 34/1/3 33/1/6 14/1/6 10/1/3
f 28/1/4 44/1/7 5/1/8 11/1/4
f 30/1/6 29/1/3 8/1/3 12/1/6
f 31/1/9 34/1/3 10/1/3 13/1/9
f 33/1/6 32/1/5 9/1/5 14/1/6
f 20/1/10 36/1/11 26/1/12 42/1/13
f 17/1/2 22/1/2 35/1/14 23/1/15 37/1/14
f 41/1/11 38/1/16 16/1/17 19/1/18
f 16/1/17 38/1/16 23/1/15 35/1/14
f 15/1/19 39/1/20 36/1/11 20/1/10
f 40/1/21 24/1/22 41/1/11 19/1/18
f 5/1/8 44/1/7 27/1/23 24/1/22 40/1/21 3/1/23
f 39/1/20 15/1/19 37/1/14 23/1/15
f 25/1/24 43/1/25 4/1/26 2/1/24 42/1/13 26/1/12
f 1/1/27 21/1/1 18/1/1
f 4/1/26 43/1/25 31/1/9 13/1/9
f 62/1/28 59/1/28 58/1/29 63/1/29
f 70/1/30 50/1/30 52/1/31 69/1/31
f 6/1/5 7/1/5 53/1/32 71/1/32
f 74/1/30 51/1/30 55/1/32 73/1/32
f 69/1/31 52/1/31 49/1/33 84/1/34
f 71/1/32 53/1/32 50/1/30 70/1/30
f 72/1/35 54/1/35 51/1/30 74/1/30
f 73/1/32 55/1/32 9/1/5 32/1/5
f 61/1/36 82/1/37 67/1/38 76/1/39
f 58/1/29 77/1/40 64/1/41 75/1/42 63/1/29
f 81/1/39 60/1/43 57/1/44 78/1/45
f 57/1/44 75/1/42 64/1/41 78/1/45
f 56/1/46 61/1/36 76/1/39 79/1/47
f 80/1/48 60/1/43 81/1/39 65/1/49
f 49/1/33 47/1/50 80/1/48 65/1/49 68/1/50 84/1/34
f 79/1/47 64/1/41 77/1/40 56/1/46
f 66/1/51 67/1/38 82/1/37 46/1/51 48/1/52 83/1/53
f 45/1/54 59/1/28 62/1/28
f 48/1/52 54/1/35 72/1/35 83/1/53
f 105/1/55 102/1/55 101/1/56 106/1/56
f 113/1/57 92/1/57 95/1/58 112/1/58
f 90/1/59 91/1/59 96/1/60 114/1/60
f 118/1/57 94/1/57 98/1/60 117/1/60
f 112/1/58 95/1/58 89/1/61 128/1/62
f 114/1/60 96/1/60 92/1/57 113/1/57
f 115/1/63 97/1/63 94/1/57 118/1/57
f 117/1/60 98/1/60 93/1/59 116/1/59
f 104/1/64 126/1/65 110/1/66 120/1/67
f 101/1/56 121/1/68 107/1/69 119/1/70 106/1/56
f 125/1/67 103/1/71 100/1/72 122/1/73
f 100/1/72 119/1/70 107/1/69 122/1/73
f 99/1/74 104/1/64 120/1/67 123/1/75
f 124/1/76 103/1/71 125/1/67 108/1/77
f 89/1/61 87/1/78 124/1/76 108/1/77 111/1/78 128/1/62
f 123/1/75 107/1/69 121/1/68 99/1/74
f 109/1/79 110/1/66 126/1/65 86/1/79 88/1/61 127/1/80
f 85/1/81 102/1/55 105/1/55
f 88/1/61 97/1/63 115/1/63 127/1/80
f 146/1/82 147/1/83 142/1/83 143/1/82
f 154/1/84 153/1/85 136/1/85 134/1/84
f 90/1/59 155/1/86 137/1/86 91/1/59
f 158/1/84 157/1/86 139/1/86 135/1/84
f 153/1/85 168/1/87 133/1/88 136/1/85
f 155/1/86 154/1/84 134/1/84 137/1/86
f 156/1/89 158/1/84 135/1/84 138/1/89
f 157/1/86 116/1/59 93/1/59 139/1/86
f 145/1/90 160/1/91 151/1/92 166/1/93
f 142/1/83 147/1/83 159/1/94 148/1/95 161/1/96
f 165/1/91 162/1/97 141/1/98 144/1/99
f 141/1/98 162/1/97 148/1/95 159/1/94
f 140/1/100 163/1/101 160/1/91 145/1/90
f 164/1/102 149/1/103 165/1/91 144/1/99
f 133/1/88 168/1/87 152/1/104 149/1/103 164/1/102 131/1/104
f 163/1/101 140/1/100 161/1/96 148/1/95
f 150/1/105 167/1/106 132/1/88 130/1/105 166/1/93 151/1/92
f 129/1/107 146/1/82 143/1/82
f 132/1/88 167/1/106 156/1/89 138/1/89
f 25/1/108 26/1/108 110/1/108 109/1/108
f 28/1/109 29/1/109 113/1/109 112/1/109
f 33/1/110 34/1/110 118/1/110 117/1/110
f 44/1/109 28/1/109 112/1/109 128/1/109
f 29/1/109 30/1/109 114/1/109 113/1/109
f 34/1/110 31/1/110 115/1/110 118/1/110
f 32/1/110 33/1/110 117/1/110 116/1/110
f 36/1/111 39/1/112 123/1/113 120/1/114
f 38/1/115 41/1/116 125/1/117 122/1/118
f 39/1/112 23/1/119 107/1/119 123/1/113
f 41/1/116 24/1/120 108/1/120 125/1/117
f 1/1/121 18/1/122 102/1/123 85/1/121
f 2/1/124 4/1/124 88/1/124 86/1/124
f 5/1/124 3/1/124 87/1/124 89/1/124
f 8/1/110 11/1/110 95/1/110 92/1/110
f 7/1/110 12/1/110 96/1/110 91/1/110
f 4/1/109 13/1/109 97/1/109 88/1/109
f 10/1/109 14/1/109 98/1/109 94/1/109
f 11/1/110 5/1/110 89/1/110 95/1/110
f 12/1/110 8/1/110 92/1/110 96/1/110
f 13/1/109 10/1/109 94/1/109 97/1/109
f 14/1/109 9/1/109 93/1/109 98/1/109
f 15/1/125 20/1/126 104/1/127 99/1/128
f 16/1/129 35/1/130 119/1/131 100/1/132
f 17/1/133 37/1/134 121/1/135 101/1/136
f 18/1/122 17/1/133 101/1/136 102/1/123
f 19/1/137 16/1/129 100/1/132 103/1/138
f 3/1/139 40/1/140 124/1/141 87/1/139
f 20/1/126 42/1/142 126/1/143 104/1/127
f 21/1/144 1/1/145 85/1/145 105/1/146
f 22/1/147 21/1/144 105/1/146 106/1/148
f 24/1/108 27/1/108 111/1/108 108/1/108
f 35/1/130 22/1/147 106/1/148 119/1/131
f 26/1/149 36/1/111 120/1/114 110/1/149
f 37/1/134 15/1/125 99/1/128 121/1/135
f 23/1/150 38/1/115 122/1/118 107/1/150
f 40/1/140 19/1/137 103/1/138 124/1/141
f 42/1/142 2/1/151 86/1/151 126/1/143
f 27/1/109 44/1/109 128/1/109 111/1/109
f 31/1/110 43/1/110 127/1/110 115/1/110
f 43/1/110 25/1/110 109/1/110 127/1/110
f 30/1/109 6/1/109 90/1/109 114/1/109
f 67/1/152 66/1/152 150/1/152 151/1/152
f 70/1/109 69/1/109 153/1/109 154/1/109
f 74/1/110 73/1/110 157/1/110 158/1/110
f 69/1/109 84/1/109 168/1/109 153/1/109
f 71/1/109 70/1/109 154/1/109 155/1/109
f 72/1/110 74/1/110 158/1/110 156/1/110
f 73/1/110 32/1/110 116/1/110 157/1/110
f 79/1/153 76/1/154 160/1/155 163/1/156
f 81/1/157 78/1/158 162/1/159 165/1/160
f 64/1/161 79/1/153 163/1/156 148/1/161
f 65/1/162 81/1/157 165/1/160 149/1/162
f 59/1/163 45/1/164 129/1/164 143/1/165
f 48/1/166 46/1/166 130/1/166 132/1/166
f 47/1/166 49/1/166 133/1/166 131/1/166
f 52/1/110 50/1/110 134/1/110 136/1/110
f 53/1/110 7/1/110 91/1/110 137/1/110
f 54/1/109 48/1/109 132/1/109 138/1/109
f 55/1/109 51/1/109 135/1/109 139/1/109
f 49/1/110 52/1/110 136/1/110 133/1/110
f 50/1/110 53/1/110 137/1/110 134/1/110
f 51/1/109 54/1/109 138/1/109 135/1/109
f 9/1/109 55/1/109 139/1/109 93/1/109
f 61/1/167 56/1/168 140/1/169 145/1/170
f 75/1/171 57/1/172 141/1/173 159/1/174
f 77/1/175 58/1/176 142/1/177 161/1/178
f 58/1/176 59/1/163 143/1/165 142/1/177
f 57/1/172 60/1/179 144/1/180 141/1/173
f 80/1/181 47/1/182 131/1/182 164/1/183
f 82/1/184 61/1/167 145/1/170 166/1/185
f 45/1/186 62/1/187 146/1/188 129/1/186
f 62/1/187 63/1/189 147/1/190 146/1/188
f 68/1/152 65/1/152 149/1/152 152/1/152
f 63/1/189 75/1/171 159/1/174 147/1/190
f 76/1/154 67/1/191 151/1/191 160/1/155
f 56/1/168 77/1/175 161/1/178 140/1/169
f 78/1/158 64/1/192 148/1/192 162/1/159
f 60/1/179 80/1/181 164/1/183 144/1/180
f 46/1/193 82/1/184 166/1/185 130/1/193
f 84/1/109 68/1/109 152/1/109 168/1/109
f 83/1/110 72/1/110 156/1/110 167/1/110
f 66/1/110 83/1/110 167/1/110 150/1/110
f 6/1/109 71/1/109 155/1/109 90/1/109
