# Blender 5.0.1
# www.blender.org
o Sphere
v -0.000000 -0.024561 -1.007905
v -0.000000 -0.839444 0.000000
v 0.196633 -0.024561 -0.988539
v 0.038897 -0.820229 -0.195547
v 0.385709 -0.024561 -0.931183
v 0.076298 -0.820229 -0.184201
v 0.559962 -0.024561 -0.838043
v 0.110768 -0.820229 -0.165776
v 0.712697 -0.024561 -0.712697
v 0.140981 -0.820229 -0.140981
v 0.000002 0.378346 -0.190401
v 0.037145 0.378346 -0.186743
v 0.072864 0.378346 -0.175908
v 0.105781 0.378346 -0.158313
v 0.134634 0.378346 -0.134634
v 0.158313 0.378346 -0.105781
v 0.838043 -0.024561 -0.559962
v 0.165776 -0.820229 -0.110768
v 0.175908 0.378346 -0.072863
v 0.186743 0.378346 -0.037146
v 0.190401 0.378346 -0.000000
v 0.186743 0.378346 0.037145
v 0.175908 0.378346 0.072863
v 0.158313 0.378346 0.105781
v 0.134634 0.378346 0.134634
v 0.931183 -0.024561 -0.385709
v 0.184201 -0.820229 -0.076298
v 0.105781 0.378346 0.158313
v 0.072863 0.378346 0.175908
v 0.037146 0.378346 0.186742
v 0.000000 0.378346 0.190401
v -0.037145 0.378346 0.186742
v -0.072863 0.378346 0.175907
v -0.105781 0.378346 0.158312
v 0.988539 -0.024561 -0.196632
v 0.195547 -0.820229 -0.038897
v -0.134633 0.378346 0.134634
v -0.158312 0.378346 0.105781
v -0.175907 0.378346 0.072863
v -0.186742 0.378346 0.037145
v -0.190400 0.378346 -0.000000
v -0.186742 0.378346 -0.037145
v -0.175907 0.378346 -0.072863
v 1.007905 -0.024561 0.000000
v 0.199378 -0.820229 0.000000
v -0.158312 0.378346 -0.105781
v -0.134633 0.378346 -0.134633
v -0.105781 0.378346 -0.158312
v -0.072863 0.378346 -0.175907
v -0.037143 0.378346 -0.186743
v -0.242657 0.367258 -1.219922
v -0.475990 0.367258 -1.149142
v 0.988539 -0.024561 0.196633
v 0.195547 -0.820229 0.038897
v -0.691030 0.367258 -1.034201
v -0.879515 0.367258 -0.879516
v -1.034200 0.367258 -0.691031
v -1.149142 0.367258 -0.475991
v -1.219923 0.367258 -0.242658
v -1.243822 0.367258 -0.000001
v -1.219923 0.367258 0.242657
v 0.931183 -0.024561 0.385709
v 0.184201 -0.820229 0.076298
v -1.149142 0.367258 0.475990
v -1.034201 0.367258 0.691030
v -0.879516 0.367258 0.879515
v -0.691031 0.367258 1.034200
v -0.475991 0.367258 1.149142
v -0.242658 0.367258 1.219923
v -0.000000 0.367258 1.243823
v 0.838042 -0.024561 0.559962
v 0.165776 -0.820229 0.110768
v 0.242657 0.367258 1.219923
v 0.475990 0.367258 1.149143
v 0.691031 0.367258 1.034201
v 0.879515 0.367258 0.879516
v 1.034201 0.367258 0.691031
v 1.149143 0.367258 0.475991
v 1.219923 0.367258 0.242658
v 0.712696 -0.024561 0.712697
v 0.140981 -0.820229 0.140981
v 1.243823 0.367258 0.000000
v 1.219923 0.367258 -0.242658
v 1.149143 0.367258 -0.475990
v 1.034202 0.367258 -0.691031
v 0.879516 0.367258 -0.879516
v 0.691031 0.367258 -1.034202
v 0.475991 0.367258 -1.149143
v 0.559962 -0.024561 0.838043
v 0.110768 -0.820229 0.165776
v 0.242658 0.367258 -1.219924
v -0.000000 0.367258 -1.243824
v -0.000000 0.335257 -1.272068
v 0.248168 0.335257 -1.247626
v 0.486799 0.335257 -1.175238
v 0.706723 0.335257 -1.057686
v 0.899488 0.335257 -0.899488
v 0.385708 -0.024561 0.931183
v 0.076298 -0.820229 0.184201
v 1.057686 0.335257 -0.706723
v 1.175238 0.335257 -0.486799
v 1.247625 0.335257 -0.248168
v 1.272068 0.335257 0.000000
v 1.247625 0.335257 0.248168
v 1.175237 0.335257 0.486800
v 1.057686 0.335257 0.706723
v 0.196632 -0.024561 0.988539
v 0.038897 -0.820229 0.195546
v 0.899487 0.335257 0.899488
v 0.706723 0.335257 1.057686
v 0.486799 0.335257 1.175237
v 0.248168 0.335257 1.247625
v -0.000000 0.335257 1.272068
v -0.248168 0.335257 1.247625
v -0.486800 0.335257 1.175237
v -0.000000 -0.024561 1.007905
v -0.000000 -0.820229 0.199377
v -0.706723 0.335257 1.057685
v -0.899488 0.335257 0.899487
v -1.057685 0.335257 0.706722
v -1.175237 0.335257 0.486799
v -1.247625 0.335257 0.248167
v -1.272067 0.335257 -0.000001
v -1.247625 0.335257 -0.248168
v -0.196633 -0.024561 0.988538
v -0.038897 -0.820229 0.195546
v -1.175236 0.335257 -0.486799
v -1.057685 0.335257 -0.706723
v -0.899487 0.335257 -0.899488
v -0.706722 0.335257 -1.057685
v -0.486798 0.335257 -1.175236
v -0.248167 0.335257 -1.247624
v -0.248167 0.294837 -1.247624
v -0.385709 -0.024561 0.931183
v -0.076298 -0.820229 0.184201
v -0.486798 0.294837 -1.175236
v -0.706722 0.294837 -1.057685
v -0.899487 0.294837 -0.899488
v -1.057685 0.294837 -0.706723
v -1.175236 0.294837 -0.486799
v -1.247625 0.294837 -0.248168
v -1.272067 0.294837 -0.000001
v -0.559962 -0.024561 0.838042
v -0.110768 -0.820229 0.165776
v -1.247625 0.294837 0.248167
v -1.175237 0.294837 0.486799
v -1.057685 0.294837 0.706722
v -0.899488 0.294837 0.899487
v -0.706723 0.294837 1.057685
v -0.486800 0.294837 1.175237
v -0.248168 0.294837 1.247625
v -0.712697 -0.024561 0.712696
v -0.140981 -0.820229 0.140981
v -0.000000 0.294837 1.272068
v 0.248168 0.294837 1.247625
v 0.486799 0.294837 1.175237
v 0.706723 0.294837 1.057686
v 0.899487 0.294837 0.899488
v 1.057686 0.294837 0.706723
v 1.175237 0.294837 0.486800
v -0.838042 -0.024561 0.559962
v -0.165776 -0.820229 0.110768
v 1.247625 0.294837 0.248168
v 1.272068 0.294837 0.000000
v 1.247625 0.294837 -0.248168
v 1.175238 0.294837 -0.486799
v 1.057686 0.294837 -0.706723
v 0.899488 0.294837 -0.899488
v 0.706723 0.294837 -1.057686
v -0.931183 -0.024561 0.385708
v -0.184201 -0.820229 0.076298
v 0.486799 0.294837 -1.175238
v 0.248168 0.294837 -1.247626
v -0.000000 0.294837 -1.272068
v -0.000000 0.262209 -1.244177
v 0.242727 0.262209 -1.220270
v 0.476126 0.262209 -1.149469
v 0.691228 0.262209 -1.034495
v -0.988538 -0.024561 0.196632
v -0.195546 -0.820229 0.038897
v 0.879766 0.262209 -0.879766
v 1.034495 0.262209 -0.691227
v 1.149469 0.262209 -0.476126
v 1.220270 0.262209 -0.242727
v 1.244177 0.262209 0.000000
v 1.220270 0.262209 0.242727
v 1.149469 0.262209 0.476126
v -1.007905 -0.024561 -0.000000
v -0.199377 -0.820229 -0.000000
v 1.034495 0.262209 0.691228
v 0.879765 0.262209 0.879766
v 0.691227 0.262209 1.034495
v 0.476125 0.262209 1.149469
v 0.242726 0.262209 1.220270
v -0.000000 0.262209 1.244177
v -0.242727 0.262209 1.220270
v -0.988538 -0.024561 -0.196633
v -0.195546 -0.820229 -0.038897
v -0.476126 0.262209 1.149469
v -0.691228 0.262209 1.034494
v -0.879766 0.262209 0.879765
v -1.034495 0.262209 0.691227
v -1.149469 0.262209 0.476125
v -1.220270 0.262209 0.242726
v -1.244176 0.262209 -0.000001
v -0.931182 -0.024561 -0.385709
v -0.184201 -0.820229 -0.076298
v -1.220269 0.262209 -0.242727
v -1.149468 0.262209 -0.476126
v -1.034494 0.262209 -0.691227
v -0.879765 0.262209 -0.879766
v -0.691226 0.262209 -1.034495
v -0.476125 0.262209 -1.149468
v -0.242726 0.262209 -1.220269
v -0.838042 -0.024561 -0.559962
v -0.165776 -0.820229 -0.110768
v -0.228763 0.247645 -1.150074
v -0.448736 0.247645 -1.083346
v -0.651464 0.247645 -0.974986
v -0.829157 0.247645 -0.829157
v -0.974985 0.247645 -0.651465
v -1.083346 0.247645 -0.448737
v -1.150074 0.247645 -0.228764
v -0.712696 -0.024561 -0.712696
v -0.140981 -0.820229 -0.140981
v -1.172605 0.247645 -0.000001
v -1.150074 0.247645 0.228763
v -1.083346 0.247645 0.448736
v -0.974986 0.247645 0.651464
v -0.829158 0.247645 0.829157
v -0.651465 0.247645 0.974985
v -0.448737 0.247645 1.083346
v -0.559961 -0.024561 -0.838042
v -0.110768 -0.820229 -0.165776
v -0.228764 0.247645 1.150074
v -0.000000 0.247645 1.172606
v 0.228764 0.247645 1.150074
v 0.448736 0.247645 1.083346
v 0.651464 0.247645 0.974986
v 0.829157 0.247645 0.829158
v 0.974986 0.247645 0.651465
v -0.385708 -0.024561 -0.931183
v -0.076298 -0.820229 -0.184201
v 1.083346 0.247645 0.448737
v 1.150074 0.247645 0.228764
v 1.172606 0.247645 0.000000
v 1.150075 0.247645 -0.228764
v 1.083347 0.247645 -0.448737
v 0.974986 0.247645 -0.651465
v 0.829158 0.247645 -0.829158
v -0.196632 -0.024561 -0.988538
v -0.038897 -0.820229 -0.195546
v 0.651465 0.247645 -0.974986
v 0.448737 0.247645 -1.083347
v 0.228764 0.247645 -1.150075
v -0.000000 0.247645 -1.172606
v 0.000000 -0.820229 -0.199377
v 1.158736 0.378346 0.230487
v 1.181437 0.378346 0.000000
v -0.656370 0.378346 -0.982328
v -0.835401 0.378346 -0.835402
v -1.091504 0.378346 -0.452117
v -1.158735 0.378346 -0.230487
v 1.158736 0.378346 -0.230487
v 0.230487 0.378346 -1.158736
v -0.000000 0.378346 -1.181437
v -1.181436 0.378346 -0.000001
v -1.158735 0.378346 0.230486
v 0.656371 0.378346 0.982329
v 0.835402 0.378346 0.835402
v -0.982329 0.378346 0.656370
v -0.835402 0.378346 0.835401
v -0.230487 0.378346 1.158736
v -0.000000 0.378346 1.181437
v 0.656371 0.378346 -0.982329
v 0.452116 0.378346 -1.091506
v -0.656371 0.378346 0.982328
v 0.982329 0.378346 0.656371
v 1.091506 0.378346 -0.452116
v 0.982329 0.378346 -0.656371
v -0.452117 0.378346 1.091505
v 0.452116 0.378346 1.091505
v 0.230486 0.378346 1.158736
v -1.091505 0.378346 0.452116
v 0.835402 0.378346 -0.835402
v -0.452115 0.378346 -1.091504
v 1.091505 0.378346 0.452117
v -0.230486 0.378346 -1.158735
v -0.982328 0.378346 -0.656371
v 0.000002 0.421561 -0.190401
v 0.037145 0.421561 -0.186743
v 0.072864 0.421561 -0.175908
v 0.105781 0.421561 -0.158313
v 0.134634 0.421561 -0.134634
v 0.158313 0.421561 -0.105781
v 0.175908 0.421561 -0.072863
v 0.186743 0.421561 -0.037146
v 0.190401 0.421561 -0.000000
v 0.186743 0.421561 0.037145
v 0.175908 0.421561 0.072863
v 0.158313 0.421561 0.105781
v 0.134634 0.421561 0.134634
v 0.105781 0.421561 0.158313
v 0.072863 0.421561 0.175908
v 0.037146 0.421561 0.186742
v 0.000000 0.421561 0.190401
v -0.037145 0.421561 0.186742
v -0.072863 0.421561 0.175907
v -0.105781 0.421561 0.158312
v -0.134633 0.421561 0.134634
v -0.158312 0.421561 0.105781
v -0.175907 0.421561 0.072863
v -0.186742 0.421561 0.037145
v -0.190400 0.421561 -0.000000
v -0.186742 0.421561 -0.037145
v -0.175907 0.421561 -0.072863
v -0.158312 0.421561 -0.105781
v -0.134633 0.421561 -0.134633
v -0.105781 0.421561 -0.158312
v -0.072863 0.421561 -0.175907
v -0.037143 0.421561 -0.186743
v 0.000002 0.441094 -0.214455
v 0.041838 0.441094 -0.210334
v 0.082068 0.441094 -0.198131
v 0.119145 0.441094 -0.178313
v 0.151643 0.441094 -0.151643
v 0.178313 0.441094 -0.119145
v 0.198131 0.441094 -0.082068
v 0.210334 0.441094 -0.041838
v 0.214455 0.441094 -0.000000
v 0.210334 0.441094 0.041838
v 0.198130 0.441094 0.082068
v 0.178313 0.441094 0.119145
v 0.151642 0.441094 0.151642
v 0.119145 0.441094 0.178313
v 0.082068 0.441094 0.198130
v 0.041838 0.441094 0.210334
v 0.000000 0.441094 0.214455
v -0.041838 0.441094 0.210334
v -0.082068 0.441094 0.198130
v -0.119144 0.441094 0.178312
v -0.151642 0.441094 0.151642
v -0.178312 0.441094 0.119145
v -0.198130 0.441094 0.082068
v -0.210334 0.441094 0.041838
v -0.214454 0.441094 -0.000000
v -0.210334 0.441094 -0.041838
v -0.198130 0.441094 -0.082068
v -0.178312 0.441094 -0.119144
v -0.151642 0.441094 -0.151642
v -0.119145 0.441094 -0.178312
v -0.082068 0.441094 -0.198130
v -0.041835 0.441094 -0.210334
v 0.000002 0.473079 -0.214455
v 0.041838 0.473079 -0.210334
v 0.082068 0.473079 -0.198131
v 0.119145 0.473079 -0.178313
v 0.151643 0.473079 -0.151643
v 0.178313 0.473079 -0.119145
v 0.198131 0.473079 -0.082068
v 0.210334 0.473079 -0.041838
v 0.214455 0.473079 -0.000000
v 0.210334 0.473079 0.041838
v 0.198130 0.473079 0.082068
v 0.178313 0.473079 0.119145
v 0.151642 0.473079 0.151642
v 0.119145 0.473079 0.178313
v 0.082068 0.473079 0.198130
v 0.041838 0.473079 0.210334
v 0.000000 0.473079 0.214455
v -0.041838 0.473079 0.210334
v -0.082068 0.473079 0.198130
v -0.119144 0.473079 0.178312
v -0.151642 0.473079 0.151642
v -0.178312 0.473079 0.119145
v -0.198130 0.473079 0.082068
v -0.210334 0.473079 0.041838
v -0.214454 0.473079 -0.000000
v -0.210334 0.473079 -0.041838
v -0.198130 0.473079 -0.082068
v -0.178312 0.473079 -0.119144
v -0.151642 0.473079 -0.151642
v -0.119145 0.473079 -0.178312
v -0.082068 0.473079 -0.198130
v -0.041835 0.473079 -0.210334
v 0.000002 0.491179 -0.195318
v 0.038105 0.491179 -0.191565
v 0.074745 0.491179 -0.180451
v 0.108513 0.491179 -0.162401
v 0.138111 0.491179 -0.138111
v 0.162401 0.491179 -0.108513
v 0.180450 0.491179 -0.074745
v 0.191565 0.491179 -0.038105
v 0.195318 0.491179 -0.000000
v 0.191565 0.491179 0.038104
v 0.180450 0.491179 0.074745
v 0.162401 0.491179 0.108513
v 0.138111 0.491179 0.138110
v 0.108513 0.491179 0.162401
v 0.074745 0.491179 0.180450
v 0.038105 0.491179 0.191565
v 0.000000 0.491179 0.195318
v -0.038105 0.491179 0.191565
v -0.074745 0.491179 0.180450
v -0.108512 0.491179 0.162401
v -0.138110 0.491179 0.138111
v -0.162400 0.491179 0.108513
v -0.180450 0.491179 0.074745
v -0.191564 0.491179 0.038105
v -0.195317 0.491179 -0.000000
v -0.191564 0.491179 -0.038105
v -0.180450 0.491179 -0.074745
v -0.162400 0.491179 -0.108513
v -0.138110 0.491179 -0.138110
v -0.108513 0.491179 -0.162400
v -0.074745 0.491179 -0.180449
v -0.038102 0.491179 -0.191565
v 0.139840 0.418963 0.703013
v 0.114169 0.418963 0.574000
v 0.325138 0.418963 -0.486611
v 0.398227 0.418963 -0.595987
v 0.506847 0.418963 -0.506845
v 0.413823 0.418963 -0.413828
v -0.223970 0.418963 0.540696
v -0.274300 0.418963 0.662223
v -0.398223 0.418963 0.595985
v -0.325150 0.418963 0.486614
v 0.538750 0.418963 -0.226259
v 0.662528 0.418963 -0.277929
v 0.705281 0.418963 -0.136992
v 0.573657 0.418963 -0.111186
v 0.595988 0.418963 0.398225
v 0.486606 0.418963 0.325146
v -0.223969 0.418963 -0.540692
v -0.274300 0.418963 -0.662224
v -0.114181 0.418963 -0.573996
v -0.139835 0.418963 -0.703014
v 0.000003 0.418963 -0.716787
v -0.000006 0.418963 -0.585242
v -0.506842 0.418963 -0.506845
v -0.413836 0.418963 -0.413828
v 0.573992 0.418963 0.114177
v 0.703016 0.418963 0.139838
v 0.662226 0.418963 0.274302
v 0.540688 0.418963 0.223965
v -0.540700 0.418963 -0.223961
v -0.662222 0.418963 -0.274303
v -0.595983 0.418963 -0.398226
v -0.486618 0.418963 -0.325142
v 0.585237 0.378346 0.000002
v 0.716789 0.378346 -0.000001
v 0.703016 0.378346 0.139838
v 0.573992 0.378346 0.114177
v -0.413836 0.378346 -0.413828
v -0.506842 0.378346 -0.506845
v -0.398223 0.378346 -0.595986
v -0.325150 0.378346 -0.486610
v -0.574004 0.378346 -0.114174
v -0.703011 0.378346 -0.139839
v -0.662222 0.378346 -0.274303
v -0.540700 0.378346 -0.223961
v 0.573992 0.378346 -0.114173
v 0.703016 0.378346 -0.139839
v -0.000006 0.378346 -0.585242
v 0.000003 0.378346 -0.716787
v 0.139840 0.378346 -0.703015
v 0.114169 0.378346 -0.573997
v -0.574004 0.378346 0.114177
v -0.703011 0.378346 0.139837
v -0.716784 0.378346 -0.000001
v -0.585249 0.378346 0.000002
v 0.413823 0.378346 0.413832
v 0.506846 0.378346 0.506844
v 0.398227 0.378346 0.595986
v 0.325137 0.378346 0.486614
v -0.413836 0.378346 0.413831
v -0.506842 0.378346 0.506844
v -0.595984 0.378346 0.398224
v -0.486619 0.378346 0.325146
v -0.000007 0.378346 0.585245
v 0.000002 0.378346 0.716786
v -0.139836 0.378346 0.703013
v -0.114182 0.378346 0.574000
v 0.223957 0.378346 -0.540693
v 0.274304 0.378346 -0.662225
v 0.398227 0.378346 -0.595987
v 0.325138 0.378346 -0.486611
v -0.325150 0.378346 0.486614
v -0.398223 0.378346 0.595985
v 0.486606 0.378346 0.325146
v 0.595988 0.378346 0.398225
v 0.486606 0.378346 -0.325142
v 0.595988 0.378346 -0.398226
v 0.662227 0.378346 -0.274303
v 0.540688 0.378346 -0.223961
v -0.274300 0.378346 0.662223
v -0.223970 0.378346 0.540696
v 0.274304 0.378346 0.662224
v 0.223956 0.378346 0.540697
v 0.114169 0.378346 0.574000
v 0.139840 0.378346 0.703013
v -0.540701 0.378346 0.223965
v -0.662222 0.378346 0.274301
v 0.413823 0.378346 -0.413828
v 0.506847 0.378346 -0.506845
v -0.274300 0.378346 -0.662224
v -0.223969 0.378346 -0.540692
v 0.540688 0.378346 0.223965
v 0.662226 0.378346 0.274302
v -0.139835 0.378346 -0.703014
v -0.114181 0.378346 -0.573996
v -0.486618 0.378346 -0.325142
v -0.595983 0.378346 -0.398226
v 0.274304 0.418963 0.662224
v 0.223956 0.418963 0.540697
v -0.540701 0.418963 0.223965
v -0.662222 0.418963 0.274301
v -0.595984 0.418963 0.398224
v -0.486619 0.418963 0.325146
v -0.398223 0.418963 -0.595986
v -0.325150 0.418963 -0.486610
v 0.486606 0.418963 -0.325142
v 0.595988 0.418963 -0.398226
v -0.574004 0.418963 0.114177
v -0.703011 0.418963 0.139837
v -0.000007 0.418963 0.585245
v 0.000002 0.418963 0.716786
v 0.398227 0.418963 0.595986
v 0.325137 0.418963 0.486614
v -0.139836 0.418963 0.703013
v -0.114182 0.418963 0.574000
v -0.574004 0.418963 -0.114174
v -0.703011 0.418963 -0.139839
v -0.716784 0.418963 -0.000001
v -0.585249 0.418963 0.000002
v 0.413823 0.418963 0.413832
v 0.506846 0.418963 0.506844
v -0.413836 0.418963 0.413831
v -0.506842 0.418963 0.506844
v 0.223957 0.418963 -0.540693
v 0.274304 0.418963 -0.662225
v 0.139840 0.418963 -0.703015
v 0.114169 0.418963 -0.573997
v 0.585237 0.418963 0.000002
v 0.716789 0.418963 -0.000001
v 1.036626 0.378346 -0.206198
v 1.056935 0.378346 0.000000
v 1.036626 0.378346 0.206198
v 0.976480 0.378346 0.404472
v -0.878808 0.378346 -0.587201
v -0.747365 0.378346 -0.747365
v -0.587201 0.378346 -0.878809
v -0.404471 0.378346 -0.976479
v -1.056934 0.378346 -0.000000
v -1.036625 0.378346 -0.206198
v -0.976479 0.378346 -0.404472
v 0.976480 0.378346 -0.404471
v -0.206197 0.378346 -1.036625
v 0.000000 0.378346 -1.056935
v 0.206198 0.378346 -1.036626
v 0.404472 0.378346 -0.976480
v -0.976480 0.378346 0.404471
v -1.036625 0.378346 0.206197
v 0.878809 0.378346 0.587202
v 0.747365 0.378346 0.747366
v 0.587201 0.378346 0.878809
v 0.404471 0.378346 0.976480
v -0.587202 0.378346 0.878808
v -0.747366 0.378346 0.747365
v -0.878809 0.378346 0.587201
v 0.206197 0.378346 1.036626
v -0.000000 0.378346 1.056934
v -0.206198 0.378346 1.036626
v -0.404472 0.378346 0.976480
v 0.587202 0.378346 -0.878809
v 0.747366 0.378346 -0.747366
v 0.878809 0.378346 -0.587201
v 1.158736 0.418742 0.230487
v 1.181437 0.418742 0.000000
v -0.656370 0.418742 -0.982328
v -0.835401 0.418742 -0.835402
v -1.091504 0.418742 -0.452117
v -1.158735 0.418742 -0.230487
v 1.158736 0.418742 -0.230487
v 0.230487 0.418742 -1.158736
v -0.000000 0.418742 -1.181437
v -1.181436 0.418742 -0.000001
v -1.158735 0.418742 0.230486
v 0.656371 0.418742 0.982329
v 0.835402 0.418742 0.835402
v -0.982329 0.418742 0.656370
v -0.835402 0.418742 0.835401
v -0.230487 0.418742 1.158736
v -0.000000 0.418742 1.181437
v 0.656371 0.418742 -0.982329
v 0.452116 0.418742 -1.091506
v -0.656371 0.418742 0.982328
v 0.982329 0.418742 0.656371
v 1.091506 0.418742 -0.452116
v 0.982329 0.418742 -0.656371
v -0.452117 0.418742 1.091505
v 0.452116 0.418742 1.091505
v 0.230486 0.418742 1.158736
v -1.091505 0.418742 0.452116
v 0.835402 0.418742 -0.835402
v -0.452115 0.418742 -1.091504
v 1.091505 0.418742 0.452117
v -0.230486 0.418742 -1.158735
v -0.982328 0.418742 -0.656371
v 1.056935 0.418742 0.000000
v 1.036626 0.418742 0.206198
v 0.976480 0.418742 0.404472
v -0.747365 0.418742 -0.747365
v -0.587201 0.418742 -0.878809
v -0.404471 0.418742 -0.976479
v -1.036625 0.418742 -0.206198
v -0.976479 0.418742 -0.404472
v 0.000000 0.418742 -1.056935
v 0.206198 0.418742 -1.036626
v 0.404472 0.418742 -0.976480
v -1.036625 0.418742 0.206197
v 0.747365 0.418742 0.747366
v 0.587201 0.418742 0.878809
v 0.404471 0.418742 0.976480
v -0.747366 0.418742 0.747365
v -0.878809 0.418742 0.587201
v -0.000000 0.418742 1.056934
v -0.206198 0.418742 1.036626
v -0.404472 0.418742 0.976480
v 0.587202 0.418742 -0.878809
v 0.747366 0.418742 -0.747366
v 0.878809 0.418742 -0.587201
v 1.036626 0.418742 -0.206198
v -0.878808 0.418742 -0.587201
v -1.056934 0.418742 -0.000000
v 0.976480 0.418742 -0.404471
v -0.206197 0.418742 -1.036625
v -0.976480 0.418742 0.404471
v 0.878809 0.418742 0.587202
v -0.587202 0.418742 0.878808
v 0.206197 0.418742 1.036626
vn 0.0689 -0.7111 -0.6997
vn 0.0094 -0.9953 -0.0959
vn 0.2041 -0.7111 -0.6729
vn 0.0280 -0.9953 -0.0922
vn 0.3315 -0.7111 -0.6201
vn 0.0454 -0.9953 -0.0850
vn 0.4461 -0.7111 -0.5435
vn -0.1550 0.9844 -0.0829
vn 0.0829 0.9844 0.1550
vn 0.0611 -0.9953 -0.0745
vn 0.1115 0.9844 -0.1359
vn -0.0510 0.9844 -0.1682
vn 0.1359 0.9844 -0.1115
vn 0.1551 0.9844 0.0829
vn 0.5435 -0.7111 -0.4461
vn 0.0172 0.9844 0.1750
vn -0.0829 0.9844 0.1550
vn 0.0745 -0.9953 -0.0611
vn -0.1359 0.9844 0.1115
vn -0.1750 0.9844 -0.0172
vn 0.6201 -0.7111 -0.3315
vn -0.1682 0.9844 0.0510
vn 0.0850 -0.9953 -0.0454
vn -0.0510 0.9844 0.1682
vn -0.0172 0.9844 -0.1750
vn 0.1750 0.9844 -0.0172
vn -0.0172 0.9844 0.1750
vn -0.0829 0.9844 -0.1550
vn 0.0829 0.9844 -0.1550
vn -0.1115 0.9844 0.1359
vn 0.0510 0.9844 -0.1682
vn 0.1359 0.9844 0.1115
vn 0.6729 -0.7111 -0.2041
vn -0.1551 0.9844 0.0829
vn -0.1359 0.9844 -0.1115
vn 0.0922 -0.9953 -0.0280
vn -0.1115 0.9844 -0.1359
vn 0.0172 0.9844 -0.1750
vn 0.1682 0.9844 -0.0510
vn 0.0959 -0.9953 -0.0094
vn 0.1750 0.9844 0.0172
vn 0.0510 0.9844 0.1682
vn 0.1682 0.9844 0.0510
vn -0.1750 0.9844 0.0172
vn 0.1115 0.9844 0.1359
vn 0.6997 -0.7111 -0.0689
vn 0.1550 0.9844 -0.0829
vn -0.0736 0.6599 0.7477
vn 0.6626 0.6599 -0.3542
vn 0.6997 -0.7111 0.0689
vn -0.5808 0.6599 0.4766
vn -0.5808 0.6599 -0.4766
vn 0.0959 -0.9953 0.0094
vn -0.9569 -0.0000 0.2903
vn 0.7477 0.6599 -0.0736
vn -0.7190 0.6599 -0.2181
vn 0.0922 -0.9953 0.0280
vn -0.6626 0.6599 0.3542
vn 0.7477 0.6599 0.0736
vn 0.7190 0.6599 -0.2181
vn 0.7190 0.6599 0.2181
vn 0.4766 0.6599 -0.5808
vn 0.6729 -0.7111 0.2041
vn 0.3542 0.6599 -0.6626
vn -0.7477 0.6599 -0.0736
vn 0.5808 0.6599 -0.4766
vn -0.3542 0.6599 0.6626
vn 0.6201 -0.7111 0.3315
vn 0.5808 0.6599 0.4766
vn 0.4766 0.6599 0.5808
vn 0.0850 -0.9953 0.0454
vn 0.0736 0.6599 0.7477
vn -0.7477 0.6599 0.0736
vn -0.4766 0.6599 -0.5808
vn 0.2181 0.6599 -0.7190
vn -0.4766 0.6599 0.5808
vn -0.2181 0.6599 0.7190
vn 0.2181 0.6599 0.7190
vn -0.2181 0.6599 -0.7190
vn 0.5435 -0.7111 0.4461
vn -0.3542 0.6599 -0.6626
vn -0.0736 0.6599 -0.7477
vn 0.0745 -0.9953 0.0611
vn -0.1682 0.9844 -0.0510
vn 0.4461 -0.7111 0.5435
vn -0.6344 -0.0000 -0.7730
vn -0.7730 -0.0000 -0.6344
vn 0.0611 -0.9953 0.0745
vn 0.0736 0.6599 -0.7477
vn -0.7190 0.6599 0.2181
vn 0.6626 0.6599 0.3542
vn -0.6626 0.6599 -0.3542
vn 0.2903 -0.0000 -0.9569
vn -0.2903 -0.0000 0.9569
vn 0.9952 -0.0000 0.0980
vn 0.4714 -0.0000 0.8819
vn 0.3315 -0.7111 0.6201
vn 0.6344 -0.0000 -0.7730
vn -0.9952 -0.0000 -0.0980
vn 0.0454 -0.9953 0.0850
vn 0.9952 -0.0000 -0.0980
vn 0.2041 -0.7111 0.6729
vn 0.8819 -0.0000 0.4714
vn 0.7730 -0.0000 -0.6344
vn 0.0280 -0.9953 0.0922
vn -0.8819 -0.0000 0.4714
vn -0.4714 -0.0000 0.8819
vn -0.7730 -0.0000 0.6344
vn -0.0980 -0.0000 0.9952
vn -0.8819 -0.0000 -0.4714
vn -0.6344 -0.0000 0.7730
vn 0.7730 -0.0000 0.6344
vn 0.9569 -0.0000 -0.2903
vn 0.0689 -0.7111 0.6997
vn 0.9569 -0.0000 0.2903
vn 0.4714 -0.0000 -0.8819
vn 0.0094 -0.9953 0.0959
vn 0.8819 -0.0000 -0.4714
vn 0.0980 -0.0000 -0.9952
vn -0.0689 -0.7111 0.6997
vn -0.4714 -0.0000 -0.8819
vn -0.0094 -0.9953 0.0959
vn 0.6344 -0.0000 0.7730
vn -0.9569 -0.0000 -0.2903
vn -0.0980 -0.0000 -0.9952
vn 0.0980 -0.0000 0.9952
vn -0.2903 -0.0000 -0.9569
vn 0.7580 -0.6480 0.0747
vn -0.4832 -0.6480 0.5888
vn -0.7289 -0.6480 0.2211
vn -0.2041 -0.7111 0.6729
vn 0.3591 -0.6480 -0.6717
vn -0.5888 -0.6480 -0.4832
vn -0.0280 -0.9953 0.0922
vn -0.9952 -0.0000 0.0980
vn 0.3542 0.6599 0.6626
vn -0.3315 -0.7111 0.6201
vn -0.2211 -0.6480 0.7289
vn -0.0454 -0.9953 0.0850
vn 0.0747 -0.6480 0.7580
vn 0.6717 -0.6480 0.3591
vn -0.6717 -0.6480 -0.3591
vn 0.6717 -0.6480 -0.3591
vn -0.6717 -0.6480 0.3591
vn 0.7289 -0.6480 0.2211
vn 0.3591 -0.6480 0.6717
vn 0.2211 -0.6480 -0.7289
vn 0.7289 -0.6480 -0.2211
vn -0.4461 -0.7111 0.5435
vn -0.3591 -0.6480 -0.6717
vn -0.4832 -0.6480 -0.5888
vn -0.0611 -0.9953 0.0745
vn -0.2211 -0.6480 -0.7289
vn 0.4832 -0.6480 -0.5888
vn -0.7580 -0.6480 -0.0747
vn -0.0745 -0.9953 0.0611
vn -0.5888 -0.6480 0.4832
vn -0.7289 -0.6480 -0.2211
vn 0.5888 -0.6480 0.4832
vn 0.2211 -0.6480 0.7289
vn -0.0747 -0.6480 0.7580
vn -0.5435 -0.7111 0.4461
vn 0.7580 -0.6480 -0.0747
vn 0.5888 -0.6480 -0.4832
vn 0.0747 -0.6480 -0.7580
vn -0.6201 -0.7111 0.3315
vn 0.2903 -0.0000 0.9569
vn -0.1549 -0.9797 -0.1271
vn -0.0850 -0.9953 0.0454
vn -0.3591 -0.6480 0.6717
vn -0.7580 -0.6480 0.0747
vn 0.4832 -0.6480 0.5888
vn -0.0922 -0.9953 0.0280
vn -0.1917 -0.9797 0.0582
vn 0.1917 -0.9797 0.0582
vn -0.1271 -0.9797 0.1549
vn 0.0944 -0.9797 -0.1767
vn -0.0944 -0.9797 -0.1767
vn -0.6729 -0.7111 0.2041
vn 0.1549 -0.9797 0.1271
vn -0.1767 -0.9797 0.0944
vn -0.1767 -0.9797 -0.0944
vn -0.6997 -0.7111 0.0689
vn -0.0582 -0.9797 -0.1917
vn -0.1917 -0.9797 -0.0582
vn -0.0959 -0.9953 0.0094
vn -0.0196 -0.9797 -0.1994
vn -0.1271 -0.9797 -0.1549
vn -0.1994 -0.9797 -0.0196
vn -0.1994 -0.9797 0.0196
vn 0.1767 -0.9797 -0.0944
vn 0.1271 -0.9797 0.1549
vn 0.1994 -0.9797 0.0196
vn 0.1767 -0.9797 0.0944
vn 0.0582 -0.9797 0.1917
vn -0.6997 -0.7111 -0.0689
vn 0.0582 -0.9797 -0.1917
vn -0.0196 -0.9797 0.1994
vn -0.0959 -0.9953 -0.0094
vn 0.1917 -0.9797 -0.0582
vn -0.6729 -0.7111 -0.2041
vn 0.0196 -0.9797 0.1994
vn -0.0944 -0.9797 0.1767
vn -0.0922 -0.9953 -0.0280
vn 0.1271 -0.9797 -0.1549
vn 0.1549 -0.9797 -0.1271
vn 0.0944 -0.9797 0.1767
vn -0.1549 -0.9797 0.1271
vn 0.1994 -0.9797 -0.0196
vn -0.0747 -0.6480 -0.7580
vn 0.8526 -0.5158 0.0840
vn -0.8526 -0.5158 -0.0840
vn -0.6201 -0.7111 -0.3315
vn 0.7555 -0.5158 -0.4038
vn -0.0840 -0.5158 0.8526
vn -0.0850 -0.9953 -0.0454
vn 0.0196 -0.9797 -0.1994
vn -0.5435 -0.7111 -0.4461
vn -0.2487 -0.5158 -0.8198
vn 0.8198 -0.5158 -0.2487
vn -0.0745 -0.9953 -0.0611
vn 0.6622 -0.5158 0.5435
vn 0.5435 -0.5158 -0.6622
vn -0.5435 -0.5158 0.6622
vn -0.6622 -0.5158 -0.5435
vn -0.8198 -0.5158 0.2487
vn 0.2487 -0.5158 0.8198
vn 0.0840 -0.5158 -0.8526
vn 0.2487 -0.5158 -0.8198
vn -0.2487 -0.5158 0.8198
vn -0.4461 -0.7111 -0.5435
vn -0.8198 -0.5158 -0.2487
vn 0.5435 -0.5158 0.6622
vn -0.0611 -0.9953 -0.0745
vn 0.8198 -0.5158 0.2487
vn -0.6622 -0.5158 0.5435
vn -0.3315 -0.7111 -0.6201
vn -0.7555 -0.5158 -0.4038
vn -0.0454 -0.9953 -0.0850
vn -0.5435 -0.5158 -0.6622
vn 0.6622 -0.5158 -0.5435
vn 0.0840 -0.5158 0.8526
vn 0.4038 -0.5158 -0.7555
vn -0.8526 -0.5158 0.0840
vn -0.7555 -0.5158 0.4038
vn 0.4038 -0.5158 0.7555
vn -0.4038 -0.5158 0.7555
vn -0.2041 -0.7111 -0.6729
vn -0.4038 -0.5158 -0.7555
vn -0.0582 -0.9797 0.1917
vn -0.0280 -0.9953 -0.0922
vn 0.7555 -0.5158 0.4038
vn 0.8526 -0.5158 -0.0840
vn -0.0689 -0.7111 -0.6997
vn -0.0094 -0.9953 -0.0959
vn -0.0840 -0.5158 -0.8526
vn -0.0000 1.0000 -0.0000
vn -0.9565 -0.0292 0.2902
vn 0.9564 -0.0330 -0.2901
vn -0.5576 -0.7748 0.2980
vn -0.0620 -0.7748 0.6292
vn 0.1835 -0.7748 0.6050
vn 0.2980 -0.7748 -0.5576
vn 0.4011 -0.7748 -0.4887
vn 0.1835 -0.7748 -0.6050
vn -0.2980 -0.7748 0.5576
vn -0.4011 -0.7748 0.4887
vn 0.6050 -0.7748 -0.1835
vn 0.4887 -0.7748 0.4011
vn 0.5576 -0.7748 0.2980
vn 0.5576 -0.7748 -0.2980
vn 0.6292 -0.7748 0.0620
vn -0.1835 -0.7748 -0.6050
vn -0.6292 -0.7748 -0.0620
vn -0.4011 -0.7748 -0.4887
vn -0.0620 -0.7748 -0.6292
vn -0.1835 -0.7748 0.6050
vn -0.6050 -0.7748 -0.1835
vn -0.4887 -0.7748 -0.4011
vn 0.2980 -0.7748 0.5576
vn 0.6292 -0.7748 -0.0620
vn 0.6050 -0.7748 0.1835
vn 0.0620 -0.7748 0.6292
vn 0.0620 -0.7748 -0.6292
vn -0.5576 -0.7748 -0.2980
vn -0.6050 -0.7748 0.1835
vn -0.6292 -0.7748 0.0620
vn 0.4887 -0.7748 -0.4011
vn 0.4011 -0.7748 0.4887
vn -0.2980 -0.7748 -0.5576
vn -0.4887 -0.7748 0.4011
vn -0.2000 0.7249 -0.6592
vn -0.6856 0.7249 -0.0675
vn -0.4370 0.7249 -0.5325
vn -0.0675 0.7249 -0.6856
vn -0.2000 0.7249 0.6592
vn -0.6592 0.7249 -0.2000
vn -0.5325 0.7249 -0.4370
vn 0.3247 0.7249 0.6076
vn 0.6856 0.7249 -0.0675
vn 0.6592 0.7249 0.2000
vn 0.0675 0.7249 0.6856
vn 0.0675 0.7249 -0.6856
vn -0.6076 0.7249 -0.3247
vn -0.6592 0.7249 0.2000
vn -0.6856 0.7249 0.0675
vn 0.5325 0.7249 -0.4370
vn 0.4370 0.7249 0.5325
vn -0.3247 0.7249 -0.6076
vn -0.5325 0.7249 0.4370
vn -0.6076 0.7249 0.3247
vn -0.0675 0.7249 0.6856
vn 0.2000 0.7249 0.6592
vn 0.3247 0.7249 -0.6076
vn 0.4370 0.7249 -0.5325
vn 0.2000 0.7249 -0.6592
vn -0.3247 0.7249 0.6076
vn -0.4370 0.7249 0.5325
vn 0.6592 0.7249 -0.2000
vn 0.5325 0.7249 0.4370
vn 0.6076 0.7249 0.3247
vn 0.6076 0.7249 -0.3247
vn 0.6856 0.7249 0.0675
vn -0.8832 -0.0078 0.4689
vn 0.8783 -0.0246 -0.4775
vn -0.9949 -0.0078 0.1008
vn 0.9956 -0.0246 -0.0909
vt 0.562978 0.937221
vt 1.204118 1.181159
s 0
f 257/1/1 1/1/1 3/1/1 4/1/1
f 2/1/2 257/1/2 4/1/2
f 4/1/3 3/1/3 5/1/3 6/1/3
f 2/1/4 4/1/4 6/1/4
f 5/1/5 7/1/5 8/1/5 6/1/5
f 2/1/6 6/1/6 8/1/6
f 8/1/7 7/1/7 9/1/7 10/1/7
f 57/1/8 58/1/8 262/1/8 289/1/8
f 74/1/9 75/1/9 269/1/9 282/1/9
f 2/1/10 8/1/10 10/1/10
f 86/1/11 87/1/11 275/1/11 285/1/11
f 51/1/12 52/1/12 286/1/12 288/1/12
f 85/1/13 86/1/13 285/1/13 280/1/13
f 77/1/14 78/1/14 287/1/14 278/1/14
f 9/1/15 17/1/15 18/1/15 10/1/15
f 70/1/16 73/1/16 283/1/16 274/1/16
f 67/1/17 68/1/17 281/1/17 277/1/17
f 2/1/18 10/1/18 18/1/18
f 65/1/19 66/1/19 272/1/19 271/1/19
f 59/1/20 60/1/20 267/1/20 263/1/20
f 17/1/21 26/1/21 27/1/21 18/1/21
f 61/1/22 64/1/22 284/1/22 268/1/22
f 2/1/23 18/1/23 27/1/23
f 68/1/24 69/1/24 273/1/24 281/1/24
f 92/1/25 51/1/25 288/1/25 266/1/25
f 82/1/26 83/1/26 264/1/26 259/1/26
f 69/1/27 70/1/27 274/1/27 273/1/27
f 52/1/28 55/1/28 260/1/28 286/1/28
f 87/1/29 88/1/29 276/1/29 275/1/29
f 66/1/30 67/1/30 277/1/30 272/1/30
f 88/1/31 91/1/31 265/1/31 276/1/31
f 76/1/32 77/1/32 278/1/32 270/1/32
f 26/1/33 35/1/33 36/1/33 27/1/33
f 64/1/34 65/1/34 271/1/34 284/1/34
f 56/1/35 57/1/35 289/1/35 261/1/35
f 2/1/36 27/1/36 36/1/36
f 55/1/37 56/1/37 261/1/37 260/1/37
f 91/1/38 92/1/38 266/1/38 265/1/38
f 83/1/39 84/1/39 279/1/39 264/1/39
f 2/1/40 36/1/40 45/1/40
f 79/1/41 82/1/41 259/1/41 258/1/41
f 73/1/42 74/1/42 282/1/42 283/1/42
f 78/1/43 79/1/43 258/1/43 287/1/43
f 60/1/44 61/1/44 268/1/44 267/1/44
f 75/1/45 76/1/45 270/1/45 269/1/45
f 35/1/46 44/1/46 45/1/46 36/1/46
f 84/1/47 85/1/47 280/1/47 279/1/47
f 114/1/48 113/1/48 70/1/48 69/1/48
f 101/1/49 100/1/49 85/1/49 84/1/49
f 44/1/50 53/1/50 54/1/50 45/1/50
f 120/1/51 119/1/51 66/1/51 65/1/51
f 129/1/52 128/1/52 57/1/52 56/1/52
f 2/1/53 45/1/53 54/1/53
f 40/1/54 39/1/54 312/1/54 313/1/54
f 103/1/55 102/1/55 83/1/55 82/1/55
f 127/1/56 124/1/56 59/1/56 58/1/56
f 2/1/57 54/1/57 63/1/57
f 121/1/58 120/1/58 65/1/58 64/1/58
f 104/1/59 103/1/59 82/1/59 79/1/59
f 102/1/60 101/1/60 84/1/60 83/1/60
f 105/1/61 104/1/61 79/1/61 78/1/61
f 97/1/62 96/1/62 87/1/62 86/1/62
f 53/1/63 62/1/63 63/1/63 54/1/63
f 96/1/64 95/1/64 88/1/64 87/1/64
f 124/1/65 123/1/65 60/1/65 59/1/65
f 100/1/66 97/1/66 86/1/66 85/1/66
f 118/1/67 115/1/67 68/1/67 67/1/67
f 62/1/68 71/1/68 72/1/68 63/1/68
f 109/1/69 106/1/69 77/1/69 76/1/69
f 110/1/70 109/1/70 76/1/70 75/1/70
f 2/1/71 63/1/71 72/1/71
f 113/1/72 112/1/72 73/1/72 70/1/72
f 123/1/73 122/1/73 61/1/73 60/1/73
f 130/1/74 129/1/74 56/1/74 55/1/74
f 95/1/75 94/1/75 91/1/75 88/1/75
f 119/1/76 118/1/76 67/1/76 66/1/76
f 115/1/77 114/1/77 69/1/77 68/1/77
f 112/1/78 111/1/78 74/1/78 73/1/78
f 132/1/79 131/1/79 52/1/79 51/1/79
f 71/1/80 80/1/80 81/1/80 72/1/80
f 131/1/81 130/1/81 55/1/81 52/1/81
f 93/1/82 132/1/82 51/1/82 92/1/82
f 2/1/83 72/1/83 81/1/83
f 58/1/84 59/1/84 263/1/84 262/1/84
f 80/1/85 89/1/85 90/1/85 81/1/85
f 137/1/86 138/1/86 129/1/86 130/1/86
f 138/1/87 139/1/87 128/1/87 129/1/87
f 2/1/88 81/1/88 90/1/88
f 94/1/89 93/1/89 92/1/89 91/1/89
f 122/1/90 121/1/90 64/1/90 61/1/90
f 106/1/91 105/1/91 78/1/91 77/1/91
f 128/1/92 127/1/92 58/1/92 57/1/92
f 172/1/93 173/1/93 94/1/93 95/1/93
f 150/1/94 151/1/94 114/1/94 115/1/94
f 163/1/95 164/1/95 103/1/95 104/1/95
f 156/1/96 157/1/96 110/1/96 111/1/96
f 89/1/97 98/1/97 99/1/97 90/1/97
f 168/1/98 169/1/98 96/1/98 97/1/98
f 141/1/99 142/1/99 123/1/99 124/1/99
f 2/1/100 90/1/100 99/1/100
f 164/1/101 165/1/101 102/1/101 103/1/101
f 99/1/102 98/1/102 107/1/102 108/1/102
f 159/1/103 160/1/103 105/1/103 106/1/103
f 167/1/104 168/1/104 97/1/104 100/1/104
f 2/1/105 99/1/105 108/1/105
f 146/1/106 147/1/106 120/1/106 121/1/106
f 149/1/107 150/1/107 115/1/107 118/1/107
f 147/1/108 148/1/108 119/1/108 120/1/108
f 151/1/109 154/1/109 113/1/109 114/1/109
f 139/1/110 140/1/110 127/1/110 128/1/110
f 148/1/111 149/1/111 118/1/111 119/1/111
f 158/1/112 159/1/112 106/1/112 109/1/112
f 145/1/54 146/1/54 121/1/54 122/1/54
f 165/1/113 166/1/113 101/1/113 102/1/113
f 107/1/114 116/1/114 117/1/114 108/1/114
f 160/1/115 163/1/115 104/1/115 105/1/115
f 169/1/116 172/1/116 95/1/116 96/1/116
f 2/1/117 108/1/117 117/1/117
f 166/1/118 167/1/118 100/1/118 101/1/118
f 173/1/119 174/1/119 93/1/119 94/1/119
f 116/1/120 125/1/120 126/1/120 117/1/120
f 136/1/121 137/1/121 130/1/121 131/1/121
f 2/1/122 117/1/122 126/1/122
f 157/1/123 158/1/123 109/1/123 110/1/123
f 140/1/124 141/1/124 124/1/124 127/1/124
f 174/1/125 133/1/125 132/1/125 93/1/125
f 154/1/126 155/1/126 112/1/126 113/1/126
f 133/1/127 136/1/127 131/1/127 132/1/127
f 186/1/128 185/1/128 164/1/128 163/1/128
f 201/1/129 200/1/129 149/1/129 148/1/129
f 204/1/130 203/1/130 146/1/130 145/1/130
f 125/1/131 134/1/131 135/1/131 126/1/131
f 178/1/132 177/1/132 172/1/132 169/1/132
f 211/1/133 210/1/133 139/1/133 138/1/133
f 2/1/134 126/1/134 135/1/134
f 142/1/135 145/1/135 122/1/135 123/1/135
f 111/1/136 110/1/136 75/1/136 74/1/136
f 134/1/137 143/1/137 144/1/137 135/1/137
f 199/1/138 196/1/138 151/1/138 150/1/138
f 2/1/139 135/1/139 144/1/139
f 195/1/140 194/1/140 155/1/140 154/1/140
f 190/1/141 187/1/141 160/1/141 159/1/141
f 210/1/142 209/1/142 140/1/142 139/1/142
f 183/1/143 182/1/143 167/1/143 166/1/143
f 203/1/144 202/1/144 147/1/144 146/1/144
f 187/1/145 186/1/145 163/1/145 160/1/145
f 193/1/146 192/1/146 157/1/146 156/1/146
f 177/1/147 176/1/147 173/1/147 172/1/147
f 184/1/148 183/1/148 166/1/148 165/1/148
f 143/1/149 152/1/149 153/1/149 144/1/149
f 213/1/150 212/1/150 137/1/150 136/1/150
f 212/1/151 211/1/151 138/1/151 137/1/151
f 2/1/152 144/1/152 153/1/152
f 214/1/153 213/1/153 136/1/153 133/1/153
f 181/1/154 178/1/154 169/1/154 168/1/154
f 208/1/155 205/1/155 142/1/155 141/1/155
f 2/1/156 153/1/156 162/1/156
f 202/1/157 201/1/157 148/1/157 147/1/157
f 209/1/158 208/1/158 141/1/158 140/1/158
f 191/1/159 190/1/159 159/1/159 158/1/159
f 194/1/160 193/1/160 156/1/160 155/1/160
f 196/1/161 195/1/161 154/1/161 151/1/161
f 152/1/162 161/1/162 162/1/162 153/1/162
f 185/1/163 184/1/163 165/1/163 164/1/163
f 182/1/164 181/1/164 168/1/164 167/1/164
f 176/1/165 175/1/165 174/1/165 173/1/165
f 161/1/166 170/1/166 171/1/166 162/1/166
f 155/1/167 156/1/167 111/1/167 112/1/167
f 220/1/168 221/1/168 210/1/168 211/1/168
f 2/1/169 162/1/169 171/1/169
f 200/1/170 199/1/170 150/1/170 149/1/170
f 205/1/171 204/1/171 145/1/171 142/1/171
f 192/1/172 191/1/172 158/1/172 157/1/172
f 2/1/173 171/1/173 180/1/173
f 227/1/174 228/1/174 203/1/174 204/1/174
f 244/1/175 245/1/175 186/1/175 187/1/175
f 230/1/176 231/1/176 200/1/176 201/1/176
f 253/1/177 254/1/177 177/1/177 178/1/177
f 218/1/178 219/1/178 212/1/178 213/1/178
f 170/1/179 179/1/179 180/1/179 171/1/179
f 240/1/180 241/1/180 190/1/180 191/1/180
f 228/1/181 229/1/181 202/1/181 203/1/181
f 221/1/182 222/1/182 209/1/182 210/1/182
f 179/1/183 188/1/183 189/1/183 180/1/183
f 217/1/184 218/1/184 213/1/184 214/1/184
f 222/1/185 223/1/185 208/1/185 209/1/185
f 2/1/186 180/1/186 189/1/186
f 256/1/187 217/1/187 214/1/187 175/1/187
f 219/1/188 220/1/188 211/1/188 212/1/188
f 223/1/189 226/1/189 205/1/189 208/1/189
f 226/1/190 227/1/190 204/1/190 205/1/190
f 248/1/191 249/1/191 182/1/191 183/1/191
f 239/1/192 240/1/192 191/1/192 192/1/192
f 245/1/193 246/1/193 185/1/193 186/1/193
f 241/1/194 244/1/194 187/1/194 190/1/194
f 237/1/195 238/1/195 193/1/195 194/1/195
f 188/1/196 197/1/196 198/1/196 189/1/196
f 254/1/197 255/1/197 176/1/197 177/1/197
f 235/1/198 236/1/198 195/1/198 196/1/198
f 2/1/199 189/1/199 198/1/199
f 247/1/200 248/1/200 183/1/200 184/1/200
f 198/1/201 197/1/201 206/1/201 207/1/201
f 236/1/202 237/1/202 194/1/202 195/1/202
f 231/1/203 232/1/203 199/1/203 200/1/203
f 2/1/204 198/1/204 207/1/204
f 250/1/205 253/1/205 178/1/205 181/1/205
f 249/1/206 250/1/206 181/1/206 182/1/206
f 238/1/207 239/1/207 192/1/207 193/1/207
f 229/1/208 230/1/208 201/1/208 202/1/208
f 246/1/209 247/1/209 184/1/209 185/1/209
f 175/1/210 214/1/210 133/1/210 174/1/210
f 53/1/211 44/1/211 246/1/211 245/1/211
f 197/1/212 188/1/212 226/1/212 223/1/212
f 206/1/213 215/1/213 216/1/213 207/1/213
f 26/1/214 17/1/214 249/1/214 248/1/214
f 125/1/215 116/1/215 236/1/215 235/1/215
f 2/1/216 207/1/216 216/1/216
f 255/1/217 256/1/217 175/1/217 176/1/217
f 216/1/218 215/1/218 224/1/218 225/1/218
f 251/1/219 242/1/219 218/1/219 217/1/219
f 35/1/220 26/1/220 248/1/220 247/1/220
f 2/1/221 216/1/221 225/1/221
f 80/1/222 71/1/222 241/1/222 240/1/222
f 9/1/223 7/1/223 253/1/223 250/1/223
f 152/1/224 143/1/224 231/1/224 230/1/224
f 224/1/225 215/1/225 221/1/225 220/1/225
f 179/1/226 170/1/226 228/1/226 227/1/226
f 107/1/227 98/1/227 238/1/227 237/1/227
f 3/1/228 1/1/228 256/1/228 255/1/228
f 5/1/229 3/1/229 255/1/229 254/1/229
f 134/1/230 125/1/230 235/1/230 232/1/230
f 224/1/231 233/1/231 234/1/231 225/1/231
f 206/1/232 197/1/232 223/1/232 222/1/232
f 89/1/233 80/1/233 240/1/233 239/1/233
f 2/1/234 225/1/234 234/1/234
f 62/1/235 53/1/235 245/1/235 244/1/235
f 161/1/236 152/1/236 230/1/236 229/1/236
f 233/1/237 242/1/237 243/1/237 234/1/237
f 215/1/238 206/1/238 222/1/238 221/1/238
f 2/1/239 234/1/239 243/1/239
f 233/1/240 224/1/240 220/1/240 219/1/240
f 17/1/241 9/1/241 250/1/241 249/1/241
f 116/1/242 107/1/242 237/1/242 236/1/242
f 7/1/243 5/1/243 254/1/243 253/1/243
f 188/1/244 179/1/244 227/1/244 226/1/244
f 170/1/245 161/1/245 229/1/245 228/1/245
f 98/1/246 89/1/246 239/1/246 238/1/246
f 143/1/247 134/1/247 232/1/247 231/1/247
f 242/1/248 251/1/248 252/1/248 243/1/248
f 242/1/249 233/1/249 219/1/249 218/1/249
f 232/1/250 235/1/250 196/1/250 199/1/250
f 2/1/251 243/1/251 252/1/251
f 71/1/252 62/1/252 244/1/252 241/1/252
f 44/1/253 35/1/253 247/1/253 246/1/253
f 251/1/254 1/1/254 257/1/254 252/1/254
f 2/1/255 252/1/255 257/1/255
f 1/1/256 251/1/256 217/1/256 256/1/256
f 507/2/167 511/2/167 436/2/167 434/2/167
f 477/2/111 489/2/111 426/2/111 539/2/111
f 450/2/99 453/2/99 442/2/99 544/2/99
f 488/2/98 476/2/98 538/2/98 427/2/98
f 443/2/257 545/2/257 544/2/257 442/2/257
f 421/2/257 541/2/257 540/2/257 420/2/257
f 545/2/257 430/2/257 431/2/257 544/2/257
f 432/2/257 444/2/257 445/2/257 433/2/257
f 528/2/257 537/2/257 536/2/257 529/2/257
f 530/2/257 527/2/257 526/2/257 531/2/257
f 541/2/257 542/2/257 543/2/257 540/2/257
f 539/2/257 426/2/257 427/2/257 538/2/257
f 537/2/257 432/2/257 433/2/257 536/2/257
f 429/2/257 523/2/257 522/2/257 428/2/257
f 425/2/257 530/2/257 531/2/257 424/2/257
f 527/2/257 418/2/257 419/2/257 526/2/257
f 523/2/257 422/2/257 423/2/257 522/2/257
f 517/2/257 518/2/257 519/2/257 516/2/257
f 422/2/257 421/2/257 420/2/257 423/2/257
f 430/2/257 429/2/257 428/2/257 431/2/257
f 438/2/257 437/2/257 436/2/257 439/2/257
f 444/2/257 443/2/257 442/2/257 445/2/257
f 475/2/121 499/2/121 515/2/121 529/2/121
f 497/2/116 488/2/116 427/2/116 424/2/116
f 513/2/110 460/2/110 447/2/110 448/2/110
f 478/2/108 477/2/108 539/2/108 518/2/108
f 500/2/125 480/2/125 526/2/125 419/2/125
f 481/2/126 501/2/126 418/2/126 527/2/126
f 495/2/258 462/2/258 431/2/258 428/2/258
f 502/2/113 468/2/113 524/2/113 516/2/113
f 463/2/259 494/2/259 429/2/259 430/2/259
f 467/2/94 484/2/94 540/2/94 543/2/94
f 312/1/260 311/1/260 343/1/260 344/1/260
f 41/1/135 40/1/135 313/1/135 314/1/135
f 16/1/104 15/1/104 294/1/104 295/1/104
f 28/1/123 25/1/123 302/1/123 303/1/123
f 49/1/121 48/1/121 319/1/121 320/1/121
f 38/1/108 37/1/108 310/1/108 311/1/108
f 39/1/106 38/1/106 311/1/106 312/1/106
f 32/1/109 31/1/109 306/1/109 307/1/109
f 30/1/167 29/1/167 304/1/167 305/1/167
f 14/1/116 13/1/116 292/1/116 293/1/116
f 15/1/98 14/1/98 293/1/98 294/1/98
f 13/1/93 12/1/93 291/1/93 292/1/93
f 34/1/107 33/1/107 308/1/107 309/1/107
f 37/1/111 34/1/111 309/1/111 310/1/111
f 20/1/113 19/1/113 296/1/113 297/1/113
f 25/1/112 24/1/112 301/1/112 302/1/112
f 24/1/103 23/1/103 300/1/103 301/1/103
f 19/1/118 16/1/118 295/1/118 296/1/118
f 22/1/95 21/1/95 298/1/95 299/1/95
f 50/1/127 49/1/127 320/1/127 321/1/127
f 42/1/99 41/1/99 314/1/99 315/1/99
f 48/1/86 47/1/86 318/1/86 319/1/86
f 11/1/125 50/1/125 321/1/125 290/1/125
f 33/1/94 32/1/94 307/1/94 308/1/94
f 43/1/124 42/1/124 315/1/124 316/1/124
f 47/1/87 46/1/87 317/1/87 318/1/87
f 29/1/96 28/1/96 303/1/96 304/1/96
f 21/1/101 20/1/101 297/1/101 298/1/101
f 23/1/115 22/1/115 299/1/115 300/1/115
f 31/1/126 30/1/126 305/1/126 306/1/126
f 12/1/119 11/1/119 290/1/119 291/1/119
f 46/1/110 43/1/110 316/1/110 317/1/110
f 341/1/107 340/1/107 372/1/107 373/1/107
f 307/1/261 306/1/261 338/1/261 339/1/261
f 305/1/262 304/1/262 336/1/262 337/1/262
f 293/1/263 292/1/263 324/1/263 325/1/263
f 294/1/264 293/1/264 325/1/264 326/1/264
f 292/1/265 291/1/265 323/1/265 324/1/265
f 309/1/266 308/1/266 340/1/266 341/1/266
f 310/1/267 309/1/267 341/1/267 342/1/267
f 297/1/268 296/1/268 328/1/268 329/1/268
f 302/1/269 301/1/269 333/1/269 334/1/269
f 301/1/270 300/1/270 332/1/270 333/1/270
f 296/1/271 295/1/271 327/1/271 328/1/271
f 299/1/272 298/1/272 330/1/272 331/1/272
f 321/1/273 320/1/273 352/1/273 353/1/273
f 315/1/274 314/1/274 346/1/274 347/1/274
f 319/1/275 318/1/275 350/1/275 351/1/275
f 290/1/276 321/1/276 353/1/276 322/1/276
f 308/1/277 307/1/277 339/1/277 340/1/277
f 316/1/278 315/1/278 347/1/278 348/1/278
f 318/1/279 317/1/279 349/1/279 350/1/279
f 304/1/280 303/1/280 335/1/280 336/1/280
f 298/1/281 297/1/281 329/1/281 330/1/281
f 300/1/282 299/1/282 331/1/282 332/1/282
f 306/1/283 305/1/283 337/1/283 338/1/283
f 291/1/284 290/1/284 322/1/284 323/1/284
f 317/1/285 316/1/285 348/1/285 349/1/285
f 313/1/286 312/1/286 344/1/286 345/1/286
f 314/1/287 313/1/287 345/1/287 346/1/287
f 295/1/288 294/1/288 326/1/288 327/1/288
f 303/1/289 302/1/289 334/1/289 335/1/289
f 320/1/290 319/1/290 351/1/290 352/1/290
f 311/1/291 310/1/291 342/1/291 343/1/291
f 385/1/292 384/1/292 416/1/292 417/1/292
f 342/1/111 341/1/111 373/1/111 374/1/111
f 329/1/113 328/1/113 360/1/113 361/1/113
f 334/1/112 333/1/112 365/1/112 366/1/112
f 333/1/103 332/1/103 364/1/103 365/1/103
f 328/1/118 327/1/118 359/1/118 360/1/118
f 331/1/95 330/1/95 362/1/95 363/1/95
f 353/1/127 352/1/127 384/1/127 385/1/127
f 347/1/99 346/1/99 378/1/99 379/1/99
f 351/1/86 350/1/86 382/1/86 383/1/86
f 322/1/125 353/1/125 385/1/125 354/1/125
f 340/1/94 339/1/94 371/1/94 372/1/94
f 348/1/124 347/1/124 379/1/124 380/1/124
f 350/1/87 349/1/87 381/1/87 382/1/87
f 336/1/96 335/1/96 367/1/96 368/1/96
f 330/1/101 329/1/101 361/1/101 362/1/101
f 332/1/115 331/1/115 363/1/115 364/1/115
f 338/1/126 337/1/126 369/1/126 370/1/126
f 323/1/119 322/1/119 354/1/119 355/1/119
f 349/1/110 348/1/110 380/1/110 381/1/110
f 345/1/54 344/1/54 376/1/54 377/1/54
f 346/1/135 345/1/135 377/1/135 378/1/135
f 327/1/104 326/1/104 358/1/104 359/1/104
f 335/1/123 334/1/123 366/1/123 367/1/123
f 352/1/121 351/1/121 383/1/121 384/1/121
f 343/1/108 342/1/108 374/1/108 375/1/108
f 344/1/106 343/1/106 375/1/106 376/1/106
f 339/1/109 338/1/109 370/1/109 371/1/109
f 337/1/167 336/1/167 368/1/167 369/1/167
f 325/1/116 324/1/116 356/1/116 357/1/116
f 326/1/98 325/1/98 357/1/98 358/1/98
f 324/1/93 323/1/93 355/1/93 356/1/93
f 387/1/257 386/1/257 417/1/257 416/1/257 415/1/257 414/1/257 413/1/257 412/1/257 411/1/257 410/1/257 409/1/257 408/1/257 407/1/257 406/1/257 405/1/257 404/1/257 403/1/257 402/1/257 401/1/257 400/1/257 399/1/257 398/1/257 397/1/257 396/1/257 395/1/257 394/1/257 393/1/257 392/1/257 391/1/257 390/1/257 389/1/257 388/1/257
f 379/1/293 378/1/293 410/1/293 411/1/293
f 383/1/294 382/1/294 414/1/294 415/1/294
f 354/1/295 385/1/295 417/1/295 386/1/295
f 372/1/296 371/1/296 403/1/296 404/1/296
f 380/1/297 379/1/297 411/1/297 412/1/297
f 382/1/298 381/1/298 413/1/298 414/1/298
f 368/1/299 367/1/299 399/1/299 400/1/299
f 362/1/300 361/1/300 393/1/300 394/1/300
f 364/1/301 363/1/301 395/1/301 396/1/301
f 370/1/302 369/1/302 401/1/302 402/1/302
f 355/1/303 354/1/303 386/1/303 387/1/303
f 381/1/304 380/1/304 412/1/304 413/1/304
f 377/1/305 376/1/305 408/1/305 409/1/305
f 378/1/306 377/1/306 409/1/306 410/1/306
f 359/1/307 358/1/307 390/1/307 391/1/307
f 367/1/308 366/1/308 398/1/308 399/1/308
f 384/1/309 383/1/309 415/1/309 416/1/309
f 375/1/310 374/1/310 406/1/310 407/1/310
f 376/1/311 375/1/311 407/1/311 408/1/311
f 371/1/312 370/1/312 402/1/312 403/1/312
f 369/1/313 368/1/313 400/1/313 401/1/313
f 357/1/314 356/1/314 388/1/314 389/1/314
f 358/1/315 357/1/315 389/1/315 390/1/315
f 356/1/316 355/1/316 387/1/316 388/1/316
f 373/1/317 372/1/317 404/1/317 405/1/317
f 374/1/318 373/1/318 405/1/318 406/1/318
f 361/1/319 360/1/319 392/1/319 393/1/319
f 366/1/320 365/1/320 397/1/320 398/1/320
f 365/1/321 364/1/321 396/1/321 397/1/321
f 360/1/322 359/1/322 391/1/322 392/1/322
f 363/1/323 362/1/323 394/1/323 395/1/323
f 533/2/257 534/2/257 535/2/257 532/2/257
f 514/2/257 528/2/257 529/2/257 515/2/257
f 525/2/257 517/2/257 516/2/257 524/2/257
f 435/2/257 520/2/257 521/2/257 434/2/257
f 418/2/257 514/2/257 515/2/257 419/2/257
f 426/2/257 425/2/257 424/2/257 427/2/257
f 437/2/257 435/2/257 434/2/257 436/2/257
f 440/2/257 448/2/257 449/2/257 441/2/257
f 461/2/103 512/2/103 449/2/103 446/2/103
f 474/2/123 473/2/123 537/2/123 528/2/123
f 476/2/104 479/2/104 519/2/104 538/2/104
f 498/2/96 474/2/96 528/2/96 514/2/96
f 489/2/107 496/2/107 425/2/107 426/2/107
f 480/2/119 483/2/119 531/2/119 526/2/119
f 482/2/109 481/2/109 527/2/109 530/2/109
f 484/2/107 487/2/107 420/2/107 540/2/107
f 486/2/116 485/2/116 541/2/116 421/2/116
f 469/2/54 503/2/54 517/2/54 525/2/54
f 504/2/108 492/2/108 522/2/108 423/2/108
f 485/2/93 466/2/93 542/2/93 541/2/93
f 491/2/103 509/2/103 444/2/103 432/2/103
f 493/2/104 505/2/104 422/2/104 523/2/104
f 448/2/257 447/2/257 446/2/257 449/2/257
f 457/2/96 507/2/96 434/2/96 521/2/96
f 508/2/110 490/2/110 433/2/110 445/2/110
f 452/2/95 451/2/95 545/2/95 443/2/95
f 510/2/127 506/2/127 435/2/127 437/2/127
f 520/2/257 440/2/257 441/2/257 521/2/257
f 447/2/257 533/2/257 532/2/257 446/2/257
f 542/2/257 438/2/257 439/2/257 543/2/257
f 534/2/257 525/2/257 524/2/257 535/2/257
f 518/2/257 539/2/257 538/2/257 519/2/257
f 506/2/121 456/2/121 520/2/121 435/2/121
f 490/2/87 472/2/87 536/2/87 433/2/87
f 454/2/123 457/2/123 521/2/123 441/2/123
f 511/2/126 464/2/126 439/2/126 436/2/126
f 479/2/118 502/2/118 516/2/118 519/2/118
f 473/2/112 491/2/112 432/2/112 537/2/112
f 456/2/86 455/2/86 440/2/86 520/2/86
f 458/2/115 461/2/115 446/2/115 532/2/115
f 465/2/125 510/2/125 437/2/125 438/2/125
f 503/2/106 478/2/106 518/2/106 517/2/106
f 492/2/324 495/2/324 428/2/324 522/2/324
f 460/2/124 459/2/124 533/2/124 447/2/124
f 494/2/325 493/2/325 523/2/325 429/2/325
f 462/2/326 450/2/326 544/2/326 431/2/326
f 512/2/112 454/2/112 441/2/112 449/2/112
f 499/2/127 500/2/127 419/2/127 515/2/127
f 471/2/95 458/2/95 532/2/95 535/2/95
f 451/2/327 463/2/327 430/2/327 545/2/327
f 455/2/87 513/2/87 448/2/87 440/2/87
f 501/2/167 498/2/167 514/2/167 418/2/167
f 459/2/99 470/2/99 534/2/99 533/2/99
f 464/2/109 467/2/109 543/2/109 439/2/109
f 453/2/124 508/2/124 445/2/124 442/2/124
f 466/2/119 465/2/119 438/2/119 542/2/119
f 487/2/111 504/2/111 423/2/111 420/2/111
f 483/2/93 497/2/93 424/2/93 531/2/93
f 468/2/101 471/2/101 535/2/101 524/2/101
f 509/2/115 452/2/115 443/2/115 444/2/115
f 470/2/135 469/2/135 525/2/135 534/2/135
f 505/2/98 486/2/98 421/2/98 422/2/98
f 496/2/94 482/2/94 530/2/94 425/2/94
f 472/2/86 475/2/86 529/2/86 536/2/86
f 21/1/257 22/1/257 453/1/257 450/1/257
f 271/2/108 272/2/108 592/2/108 591/2/108
f 20/1/257 21/1/257 450/1/257 462/1/257
f 283/2/167 282/2/167 602/2/167 603/2/167
f 574/2/116 568/2/116 640/2/116 629/2/116
f 22/1/257 23/1/257 508/1/257 453/1/257
f 47/1/257 48/1/257 457/1/257 454/1/257
f 546/2/135 547/2/135 610/2/135 633/2/135
f 46/1/257 47/1/257 454/1/257 512/1/257
f 269/2/123 270/2/123 590/2/123 589/2/123
f 284/2/106 271/2/106 591/2/106 604/2/106
f 48/1/257 49/1/257 507/1/257 457/1/257
f 42/1/257 43/1/257 461/1/257 458/1/257
f 549/2/110 564/2/110 639/2/110 612/2/110
f 41/1/257 42/1/257 458/1/257 471/1/257
f 547/2/99 548/2/99 611/2/99 610/2/99
f 267/2/135 268/2/135 588/2/135 587/2/135
f 43/1/257 46/1/257 512/1/257 461/1/257
f 576/2/108 577/2/108 632/2/108 631/2/108
f 19/1/257 20/1/257 462/1/257 495/1/257
f 11/1/257 12/1/257 467/1/257 464/1/257
f 286/2/121 260/2/121 580/2/121 606/2/121
f 50/1/257 11/1/257 464/1/257 511/1/257
f 548/2/124 549/2/124 612/2/124 611/2/124
f 265/2/119 266/2/119 586/2/119 585/2/119
f 12/1/257 13/1/257 484/1/257 467/1/257
f 40/1/257 41/1/257 471/1/257 468/1/257
f 577/2/106 557/2/106 636/2/106 632/2/106
f 39/1/257 40/1/257 468/1/257 502/1/257
f 550/2/112 551/2/112 613/2/112 634/2/112
f 25/1/257 28/1/257 475/1/257 472/1/257
f 259/2/101 264/2/101 584/2/101 579/2/101
f 24/1/257 25/1/257 472/1/257 490/1/257
f 567/2/127 571/2/127 641/2/127 624/2/127
f 280/2/104 285/2/104 605/2/104 600/2/104
f 28/1/257 29/1/257 499/1/257 475/1/257
f 37/1/257 38/1/257 479/1/257 476/1/257
f 551/2/123 552/2/123 614/2/123 613/2/123
f 34/1/257 37/1/257 476/1/257 488/1/257
f 262/2/124 263/2/124 583/2/124 582/2/124
f 268/2/54 284/2/54 604/2/54 588/2/54
f 38/1/257 39/1/257 502/1/257 479/1/257
f 31/1/257 32/1/257 483/1/257 480/1/257
f 553/2/167 558/2/167 637/2/167 615/2/167
f 30/1/257 31/1/257 480/1/257 500/1/257
f 552/2/96 553/2/96 615/2/96 614/2/96
f 554/2/95 555/2/95 616/2/95 635/2/95
f 32/1/257 33/1/257 497/1/257 483/1/257
f 13/1/257 14/1/257 487/1/257 484/1/257
f 289/2/110 262/2/110 582/2/110 609/2/110
f 555/2/115 556/2/115 617/2/115 616/2/115
f 14/1/257 15/1/257 504/1/257 487/1/257
f 274/2/126 283/2/126 603/2/126 594/2/126
f 33/1/257 34/1/257 488/1/257 497/1/257
f 287/2/115 258/2/115 578/2/115 607/2/115
f 23/1/257 24/1/257 490/1/257 508/1/257
f 16/1/257 19/1/257 495/1/257 492/1/257
f 556/2/103 550/2/103 634/2/103 617/2/103
f 15/1/257 16/1/257 492/1/257 504/1/257
f 282/2/96 269/2/96 589/2/96 602/2/96
f 261/2/87 289/2/87 609/2/87 581/2/87
f 29/1/257 30/1/257 500/1/257 499/1/257
f 557/2/54 546/2/54 633/2/54 636/2/54
f 49/1/257 50/1/257 511/1/257 507/1/257
f 506/1/257 510/1/257 558/1/257 553/1/257
f 498/1/257 501/1/257 571/1/257 567/1/257
f 493/1/257 494/1/257 557/1/257 577/1/257
f 505/1/257 493/1/257 577/1/257 576/1/257
f 509/1/257 491/1/257 564/1/257 549/1/257
f 496/1/257 489/1/257 568/1/257 574/1/257
f 486/1/257 505/1/257 576/1/257 575/1/257
f 485/1/257 486/1/257 575/1/257 561/1/257
f 482/1/257 496/1/257 574/1/257 573/1/257
f 481/1/257 482/1/257 573/1/257 572/1/257
f 501/1/257 481/1/257 572/1/257 571/1/257
f 478/1/257 503/1/257 562/1/257 570/1/257
f 477/1/257 478/1/257 570/1/257 569/1/257
f 489/1/257 477/1/257 569/1/257 568/1/257
f 474/1/257 498/1/257 567/1/257 566/1/257
f 473/1/257 474/1/257 566/1/257 565/1/257
f 491/1/257 473/1/257 565/1/257 564/1/257
f 469/1/257 470/1/257 554/1/257 563/1/257
f 503/1/257 469/1/257 563/1/257 562/1/257
f 466/1/257 485/1/257 561/1/257 560/1/257
f 465/1/257 466/1/257 560/1/257 559/1/257
f 510/1/257 465/1/257 559/1/257 558/1/257
f 494/1/257 463/1/257 546/1/257 557/1/257
f 460/1/257 513/1/257 550/1/257 556/1/257
f 459/1/257 460/1/257 556/1/257 555/1/257
f 470/1/257 459/1/257 555/1/257 554/1/257
f 456/1/257 506/1/257 553/1/257 552/1/257
f 455/1/257 456/1/257 552/1/257 551/1/257
f 513/1/257 455/1/257 551/1/257 550/1/257
f 452/1/257 509/1/257 549/1/257 548/1/257
f 451/1/257 452/1/257 548/1/257 547/1/257
f 463/1/257 451/1/257 547/1/257 546/1/257
f 633/2/257 610/2/257 579/2/257 584/2/257
f 610/2/257 611/2/257 578/2/257 579/2/257
f 611/2/257 612/2/257 607/2/257 578/2/257
f 634/2/257 613/2/257 581/2/257 609/2/257
f 613/2/257 614/2/257 580/2/257 581/2/257
f 614/2/257 615/2/257 606/2/257 580/2/257
f 635/2/257 616/2/257 583/2/257 587/2/257
f 616/2/257 617/2/257 582/2/257 583/2/257
f 617/2/257 634/2/257 609/2/257 582/2/257
f 636/2/257 633/2/257 584/2/257 599/2/257
f 637/2/257 618/2/257 586/2/257 608/2/257
f 618/2/257 619/2/257 585/2/257 586/2/257
f 619/2/257 620/2/257 596/2/257 585/2/257
f 638/2/257 621/2/257 588/2/257 604/2/257
f 621/2/257 635/2/257 587/2/257 588/2/257
f 639/2/257 622/2/257 590/2/257 598/2/257
f 622/2/257 623/2/257 589/2/257 590/2/257
f 623/2/257 624/2/257 602/2/257 589/2/257
f 640/2/257 625/2/257 592/2/257 597/2/257
f 625/2/257 626/2/257 591/2/257 592/2/257
f 626/2/257 638/2/257 604/2/257 591/2/257
f 641/2/257 627/2/257 594/2/257 603/2/257
f 627/2/257 628/2/257 593/2/257 594/2/257
f 628/2/257 629/2/257 601/2/257 593/2/257
f 620/2/257 630/2/257 595/2/257 596/2/257
f 630/2/257 631/2/257 605/2/257 595/2/257
f 629/2/257 640/2/257 597/2/257 601/2/257
f 612/2/257 639/2/257 598/2/257 607/2/257
f 631/2/257 632/2/257 600/2/257 605/2/257
f 632/2/257 636/2/257 599/2/257 600/2/257
f 624/2/257 641/2/257 603/2/257 602/2/257
f 615/2/257 637/2/257 608/2/257 606/2/257
f 575/2/111 576/2/111 631/2/111 630/2/111
f 285/2/98 275/2/98 595/2/98 605/2/98
f 273/2/109 274/2/109 594/2/109 593/2/109
f 561/2/107 575/2/107 630/2/107 620/2/107
f 277/2/107 281/2/107 601/2/107 597/2/107
f 573/2/93 574/2/93 629/2/93 628/2/93
f 572/2/119 573/2/119 628/2/119 627/2/119
f 571/2/125 572/2/125 627/2/125 641/2/125
f 570/2/118 562/2/118 638/2/118 626/2/118
f 275/2/116 276/2/116 596/2/116 595/2/116
f 569/2/104 570/2/104 626/2/104 625/2/104
f 276/2/93 265/2/93 585/2/93 596/2/93
f 568/2/98 569/2/98 625/2/98 640/2/98
f 566/2/121 567/2/121 624/2/121 623/2/121
f 258/2/95 259/2/95 579/2/95 578/2/95
f 565/2/86 566/2/86 623/2/86 622/2/86
f 260/2/86 261/2/86 581/2/86 580/2/86
f 264/2/113 279/2/113 599/2/113 584/2/113
f 564/2/87 565/2/87 622/2/87 639/2/87
f 563/2/101 554/2/101 635/2/101 621/2/101
f 278/2/103 287/2/103 607/2/103 598/2/103
f 272/2/111 277/2/111 597/2/111 592/2/111
f 562/2/113 563/2/113 621/2/113 638/2/113
f 288/2/127 286/2/127 606/2/127 608/2/127
f 270/2/112 278/2/112 598/2/112 590/2/112
f 560/2/94 561/2/94 620/2/94 619/2/94
f 266/2/125 288/2/125 608/2/125 586/2/125
f 279/2/118 280/2/118 600/2/118 599/2/118
f 559/2/109 560/2/109 619/2/109 618/2/109
f 263/2/99 267/2/99 587/2/99 583/2/99
f 558/2/126 559/2/126 618/2/126 637/2/126
f 281/2/94 273/2/94 593/2/94 601/2/94
o Cube
v -0.131441 0.496288 1.017340
v -0.131441 0.496288 0.754457
v 0.131441 0.496288 1.017340
v 0.131441 0.496288 0.754457
v 0.131441 0.297385 1.017340
v 0.131441 0.297385 0.754457
v -0.131441 0.297385 1.017340
v -0.131441 0.297385 0.754457
v -0.000000 0.361209 0.858494
v 0.044474 0.384195 0.879165
v 0.051131 0.390657 0.893879
v 0.039601 0.399650 0.946031
v -0.000000 0.406245 0.961049
v -0.039601 0.399650 0.946031
v -0.051131 0.390657 0.893879
v -0.044474 0.384195 0.879165
v -0.147210 1.926300 0.386505
v -0.147210 1.926300 0.186759
v 0.147210 1.926300 0.386505
v 0.147210 1.926300 0.186759
v 0.147210 1.775168 0.386505
v 0.147210 1.775168 0.186759
v -0.147210 1.775168 0.386505
v -0.147210 1.775168 0.186759
v 0.039601 0.367804 0.873513
v 0.056004 0.383727 0.909772
v -0.056004 0.383727 0.909772
v -0.039601 0.367804 0.873513
v 0.094475 0.375868 0.860202
v 0.101132 0.382329 0.874916
v -0.101132 0.382329 0.874916
v -0.094475 0.375868 0.860202
v 0.079995 2.122384 0.278203
v 0.079995 2.122384 0.234454
v -0.079995 2.122384 0.278203
v -0.079995 2.122384 0.234454
v -0.009897 2.204843 0.265745
v -0.079995 2.158941 0.278203
v -0.079995 2.158941 0.234454
v -0.009897 2.204843 0.246912
v 0.079995 2.158941 0.278203
v 0.009897 2.204843 0.265745
v 0.009897 2.204843 0.246912
v 0.079995 2.158941 0.234454
v -0.039572 2.204843 0.278203
v -0.039572 2.204843 0.234454
v 0.039572 2.204843 0.234454
v 0.039572 2.204843 0.278203
v -0.009897 2.749498 0.265745
v -0.009897 2.749498 0.246912
v 0.009897 2.749498 0.246912
v 0.009897 2.749498 0.265745
v -0.000000 1.822197 0.216909
v 0.039601 1.828793 0.231928
v 0.056004 1.844716 0.268187
v 0.039601 1.860638 0.304446
v -0.000000 1.867234 0.319464
v -0.039601 1.860638 0.304446
v -0.056004 1.844716 0.268187
v -0.039601 1.828793 0.231928
v 0.044474 1.829251 0.244577
v 0.051131 1.835712 0.259290
v -0.051131 1.835712 0.259290
v -0.044474 1.829251 0.244577
v 0.094475 1.820923 0.225614
v 0.101132 1.827385 0.240327
v -0.101132 1.827385 0.240327
v -0.094475 1.820923 0.225614
v 0.946763 0.496288 -0.394839
v 0.719100 0.496288 -0.263397
v 0.815322 0.496288 -0.622502
v 0.587659 0.496288 -0.491060
v 0.815322 0.297385 -0.622502
v 0.587659 0.297385 -0.491060
v 0.946763 0.297385 -0.394839
v 0.719100 0.297385 -0.263397
v 0.743478 0.361209 -0.429247
v 0.739142 0.384195 -0.478099
v 0.748556 0.390657 -0.491220
v 0.799486 0.399650 -0.507311
v 0.832293 0.406245 -0.480525
v 0.839087 0.399650 -0.438720
v 0.799687 0.390657 -0.402659
v 0.783616 0.384195 -0.401067
v 0.408328 1.926300 -0.065765
v 0.235343 1.926300 0.034108
v 0.261118 1.926300 -0.320740
v 0.088134 1.926300 -0.220867
v 0.261118 1.775168 -0.320740
v 0.088134 1.775168 -0.220867
v 0.408328 1.775168 -0.065765
v 0.235343 1.775168 0.034108
v 0.736684 0.367804 -0.471052
v 0.759883 0.383727 -0.503387
v 0.815888 0.383727 -0.406385
v 0.776285 0.367804 -0.402461
v 0.697719 0.375868 -0.511919
v 0.707133 0.382329 -0.525041
v 0.808265 0.382329 -0.349875
v 0.792194 0.375868 -0.348283
v 0.200934 2.122384 -0.208380
v 0.163045 2.122384 -0.186505
v 0.280929 2.122384 -0.069824
v 0.243041 2.122384 -0.047949
v 0.235090 2.204843 -0.124302
v 0.280929 2.158941 -0.069824
v 0.243041 2.158941 -0.047949
v 0.218781 2.204843 -0.114885
v 0.200934 2.158941 -0.208380
v 0.225194 2.204843 -0.141443
v 0.208884 2.204843 -0.132027
v 0.163045 2.158941 -0.186505
v 0.260717 2.204843 -0.104832
v 0.222829 2.204843 -0.082957
v 0.183257 2.204843 -0.151497
v 0.221145 2.204843 -0.173372
v 0.235090 2.749498 -0.124302
v 0.218781 2.749498 -0.114885
v 0.208884 2.749498 -0.132027
v 0.225194 2.749498 -0.141443
v 0.187849 1.822197 -0.108455
v 0.181055 1.828793 -0.150259
v 0.204254 1.844716 -0.182594
v 0.243857 1.860638 -0.186518
v 0.276664 1.867234 -0.159732
v 0.283458 1.860638 -0.117927
v 0.260259 1.844716 -0.085592
v 0.220656 1.828793 -0.081669
v 0.189572 1.829251 -0.160804
v 0.198987 1.835712 -0.173926
v 0.250118 1.835712 -0.085365
v 0.234047 1.829251 -0.083772
v 0.148149 1.820923 -0.194625
v 0.157564 1.827385 -0.207746
v 0.258695 1.827385 -0.032581
v 0.242625 1.820923 -0.030989
v -0.815322 0.496288 -0.622502
v -0.587659 0.496288 -0.491060
v -0.946763 0.496288 -0.394839
v -0.719100 0.496288 -0.263397
v -0.946763 0.297385 -0.394839
v -0.719100 0.297385 -0.263397
v -0.815322 0.297385 -0.622502
v -0.587659 0.297385 -0.491060
v -0.743478 0.361209 -0.429247
v -0.783617 0.384195 -0.401067
v -0.799687 0.390657 -0.402659
v -0.839087 0.399650 -0.438720
v -0.832293 0.406245 -0.480525
v -0.799486 0.399650 -0.507311
v -0.748557 0.390657 -0.491220
v -0.739142 0.384195 -0.478098
v -0.261118 1.926300 -0.320740
v -0.088134 1.926300 -0.220867
v -0.408328 1.926300 -0.065765
v -0.235343 1.926300 0.034108
v -0.408328 1.775168 -0.065765
v -0.235343 1.775168 0.034108
v -0.261118 1.775168 -0.320740
v -0.088134 1.775168 -0.220867
v -0.776285 0.367804 -0.402461
v -0.815888 0.383727 -0.406385
v -0.759883 0.383727 -0.503387
v -0.736684 0.367804 -0.471052
v -0.792194 0.375868 -0.348283
v -0.808265 0.382329 -0.349875
v -0.707133 0.382329 -0.525040
v -0.697719 0.375868 -0.511919
v -0.280929 2.122384 -0.069824
v -0.243041 2.122384 -0.047949
v -0.200934 2.122384 -0.208380
v -0.163045 2.122384 -0.186505
v -0.225194 2.204843 -0.141443
v -0.200934 2.158941 -0.208380
v -0.163045 2.158941 -0.186505
v -0.208884 2.204843 -0.132027
v -0.280929 2.158941 -0.069824
v -0.235090 2.204843 -0.124302
v -0.218781 2.204843 -0.114885
v -0.243041 2.158941 -0.047949
v -0.221145 2.204843 -0.173372
v -0.183257 2.204843 -0.151497
v -0.222829 2.204843 -0.082957
v -0.260717 2.204843 -0.104832
v -0.225194 2.749498 -0.141443
v -0.208884 2.749498 -0.132027
v -0.218781 2.749498 -0.114885
v -0.235090 2.749498 -0.124302
v -0.187849 1.822197 -0.108455
v -0.220656 1.828793 -0.081669
v -0.260259 1.844716 -0.085592
v -0.283458 1.860638 -0.117927
v -0.276664 1.867234 -0.159732
v -0.243857 1.860638 -0.186518
v -0.204254 1.844716 -0.182594
v -0.181055 1.828793 -0.150259
v -0.234047 1.829251 -0.083772
v -0.250118 1.835712 -0.085365
v -0.198987 1.835712 -0.173926
v -0.189573 1.829251 -0.160804
v -0.242625 1.820923 -0.030989
v -0.258695 1.827385 -0.032581
v -0.157564 1.827385 -0.207746
v -0.148149 1.820923 -0.194625
vn -0.0000 -0.0000 1.0000
vn -0.0000 -0.0000 -1.0000
vn -0.0000 -1.0000 -0.0000
vn 1.0000 -0.0000 -0.0000
vn -0.0000 1.0000 -0.0000
vn -1.0000 -0.0000 -0.0000
vn -0.0000 -0.9156 0.4021
vn 0.3827 0.3715 0.8459
vn 0.9239 -0.1539 -0.3504
vn -0.9239 -0.1539 -0.3504
vn -0.0000 0.9115 -0.4112
vn 0.3827 -0.3715 -0.8459
vn -0.7505 0.6609 -0.0000
vn 0.7505 0.6609 -0.0000
vn -0.3827 -0.3715 -0.8459
vn -0.3827 0.3715 0.8459
vn -0.9239 0.1539 0.3504
vn 0.9239 0.1539 0.3504
vn 0.8660 -0.0000 -0.5000
vn -0.8660 -0.0000 0.5000
vn -0.5000 -0.0000 -0.8660
vn 0.5000 -0.0000 0.8660
vn 0.3482 -0.9156 -0.2010
vn 0.5412 0.3715 -0.7544
vn -0.7654 -0.1539 -0.6249
vn 0.1585 -0.1539 0.9753
vn -0.3561 0.9115 0.2056
vn -0.9239 -0.3715 0.0915
vn 0.3752 0.6609 0.6499
vn -0.3752 0.6609 -0.6499
vn -0.5412 -0.3715 0.7544
vn 0.9239 0.3715 -0.0915
vn 0.7654 0.1539 0.6249
vn -0.1585 0.1539 -0.9753
vn -0.8660 -0.0000 -0.5000
vn 0.8660 -0.0000 0.5000
vn -0.5000 -0.0000 0.8660
vn 0.5000 -0.0000 -0.8660
vn -0.3482 -0.9156 -0.2010
vn -0.9239 0.3715 -0.0915
vn -0.1585 -0.1539 0.9753
vn 0.7654 -0.1539 -0.6249
vn 0.3561 0.9115 0.2056
vn 0.5412 -0.3715 0.7544
vn 0.3752 0.6609 -0.6499
vn -0.3752 0.6609 0.6499
vn 0.9239 -0.3715 0.0915
vn -0.5412 0.3715 -0.7544
vn 0.1585 0.1539 -0.9753
vn -0.7654 0.1539 0.6249
vt 1.171875 1.188594
vt 1.171875 1.188594
vt 1.171875 1.188594
vt 1.171875 1.188594
s 0
f 644/3/328 642/3/328 648/3/328 646/3/328
f 643/3/329 645/3/329 647/3/329 649/3/329
f 649/3/330 647/3/330 646/3/330 648/3/330
f 645/3/331 644/3/331 646/3/331 647/3/331
f 643/3/332 642/3/332 644/3/332 645/3/332
f 642/3/333 643/3/333 649/3/333 648/3/333
f 652/3/334 651/3/334 670/3/334 671/3/334
f 703/3/335 652/3/335 671/3/335 707/3/335
f 650/3/334 666/3/334 667/3/334 653/3/334 654/3/334 655/3/334 668/3/334 669/3/334
f 660/3/328 658/3/328 664/3/328 662/3/328
f 659/3/329 661/3/329 663/3/329 665/3/329
f 665/3/330 663/3/330 662/3/330 664/3/330
f 661/3/331 660/3/331 662/3/331 663/3/331
f 659/3/332 658/3/332 660/3/332 661/3/332
f 658/3/333 659/3/333 665/3/333 664/3/333
f 702/3/336 651/3/336 666/3/336 695/3/336
f 651/3/336 652/3/336 667/3/336 666/3/336
f 704/3/337 656/3/337 668/3/337 700/3/337
f 656/3/337 657/3/337 669/3/337 668/3/337
f 709/3/338 708/3/338 704/3/338 700/3/338 699/3/338 698/3/338 697/3/338 696/4/338 703/3/338 707/3/338 706/5/338 702/3/338 695/3/338 694/6/338 701/3/338 705/3/338
f 705/3/339 657/3/339 673/3/339 709/3/339
f 657/3/334 656/3/334 672/3/334 673/3/334
f 677/3/330 675/3/330 674/3/330 676/3/330
f 680/3/340 679/3/340 686/3/340 687/3/340
f 682/3/341 685/3/341 688/3/341 689/3/341
f 679/3/333 680/3/333 677/3/333 676/3/333
f 678/3/328 683/3/328 693/3/328 690/3/328
f 682/3/328 689/3/328 686/3/328 679/3/328 676/3/328 674/3/328
f 680/3/329 687/3/329 688/3/329 685/3/329 675/3/329 677/3/329
f 685/3/331 682/3/331 674/3/331 675/3/331
f 678/3/332 681/3/332 687/3/332 686/3/332
f 684/3/332 683/3/332 689/3/332 688/3/332
f 681/3/332 684/3/332 688/3/332 687/3/332
f 683/3/332 678/3/332 686/3/332 689/3/332
f 691/3/332 690/3/332 693/3/332 692/3/332
f 683/3/331 684/3/331 692/3/331 693/3/331
f 684/3/329 681/3/329 691/3/329 692/3/329
f 681/3/333 678/3/333 690/3/333 691/3/333
f 651/3/342 702/3/342 706/5/342 670/3/342
f 656/3/343 704/3/343 708/3/343 672/3/343
f 672/3/337 708/3/337 709/3/337 673/3/337
f 670/3/336 706/5/336 707/3/336 671/3/336
f 657/3/337 705/3/337 701/3/337 669/3/337
f 652/3/336 703/3/336 696/4/336 667/3/336
f 669/3/342 701/3/342 694/6/342 650/3/342
f 655/3/344 699/3/344 700/3/344 668/3/344
f 654/3/343 698/3/343 699/3/343 655/3/343
f 653/3/335 697/3/335 698/3/335 654/3/335
f 667/3/345 696/4/345 697/3/345 653/3/345
f 650/3/339 694/6/339 695/3/339 666/3/339
f 712/3/346 710/3/346 716/3/346 714/3/346
f 711/3/347 713/3/347 715/3/347 717/3/347
f 717/3/330 715/3/330 714/3/330 716/3/330
f 713/3/348 712/3/348 714/3/348 715/3/348
f 711/3/332 710/3/332 712/3/332 713/3/332
f 710/3/349 711/3/349 717/3/349 716/3/349
f 720/3/350 719/3/350 738/3/350 739/3/350
f 771/3/351 720/3/351 739/3/351 775/3/351
f 718/3/350 734/3/350 735/3/350 721/3/350 722/3/350 723/3/350 736/3/350 737/3/350
f 728/3/346 726/3/346 732/3/346 730/3/346
f 727/3/347 729/3/347 731/3/347 733/3/347
f 733/3/330 731/3/330 730/3/330 732/3/330
f 729/3/348 728/3/348 730/3/348 731/3/348
f 727/3/332 726/3/332 728/3/332 729/3/332
f 726/3/349 727/3/349 733/3/349 732/3/349
f 770/3/352 719/3/352 734/3/352 763/3/352
f 719/3/352 720/3/352 735/3/352 734/3/352
f 772/3/353 724/3/353 736/3/353 768/3/353
f 724/3/353 725/3/353 737/3/353 736/3/353
f 777/3/354 776/3/354 772/3/354 768/3/354 767/3/354 766/3/354 765/3/354 764/4/354 771/3/354 775/3/354 774/5/354 770/3/354 763/3/354 762/6/354 769/3/354 773/3/354
f 773/3/355 725/3/355 741/3/355 777/3/355
f 725/3/350 724/3/350 740/3/350 741/3/350
f 745/3/330 743/3/330 742/3/330 744/3/330
f 748/3/356 747/3/356 754/3/356 755/3/356
f 750/3/357 753/3/357 756/3/357 757/3/357
f 747/3/349 748/3/349 745/3/349 744/3/349
f 746/3/346 751/3/346 761/3/346 758/3/346
f 750/3/346 757/3/346 754/3/346 747/3/346 744/3/346 742/3/346
f 748/3/347 755/3/347 756/3/347 753/3/347 743/3/347 745/3/347
f 753/3/348 750/3/348 742/3/348 743/3/348
f 746/3/332 749/3/332 755/3/332 754/3/332
f 752/3/332 751/3/332 757/3/332 756/3/332
f 749/3/332 752/3/332 756/3/332 755/3/332
f 751/3/332 746/3/332 754/3/332 757/3/332
f 759/3/332 758/3/332 761/3/332 760/3/332
f 751/3/348 752/3/348 760/3/348 761/3/348
f 752/3/347 749/3/347 759/3/347 760/3/347
f 749/3/349 746/3/349 758/3/349 759/3/349
f 719/3/358 770/3/358 774/5/358 738/3/358
f 724/3/359 772/3/359 776/3/359 740/3/359
f 740/3/353 776/3/353 777/3/353 741/3/353
f 738/3/352 774/5/352 775/3/352 739/3/352
f 725/3/353 773/3/353 769/3/353 737/3/353
f 720/3/352 771/3/352 764/4/352 735/3/352
f 737/3/358 769/3/358 762/6/358 718/3/358
f 723/3/360 767/3/360 768/3/360 736/3/360
f 722/3/359 766/3/359 767/3/359 723/3/359
f 721/3/351 765/3/351 766/3/351 722/3/351
f 735/3/361 764/4/361 765/3/361 721/3/361
f 718/3/355 762/6/355 763/3/355 734/3/355
f 780/3/362 778/3/362 784/3/362 782/3/362
f 779/3/363 781/3/363 783/3/363 785/3/363
f 785/3/330 783/3/330 782/3/330 784/3/330
f 781/3/364 780/3/364 782/3/364 783/3/364
f 779/3/332 778/3/332 780/3/332 781/3/332
f 778/3/365 779/3/365 785/3/365 784/3/365
f 788/3/366 787/3/366 806/3/366 807/3/366
f 839/3/367 788/3/367 807/3/367 843/3/367
f 786/3/366 802/3/366 803/3/366 789/3/366 790/3/366 791/3/366 804/3/366 805/3/366
f 796/3/362 794/3/362 800/3/362 798/3/362
f 795/3/363 797/3/363 799/3/363 801/3/363
f 801/3/330 799/3/330 798/3/330 800/3/330
f 797/3/364 796/3/364 798/3/364 799/3/364
f 795/3/332 794/3/332 796/3/332 797/3/332
f 794/3/365 795/3/365 801/3/365 800/3/365
f 838/3/368 787/3/368 802/3/368 831/3/368
f 787/3/368 788/3/368 803/3/368 802/3/368
f 840/3/369 792/3/369 804/3/369 836/3/369
f 792/3/369 793/3/369 805/3/369 804/3/369
f 845/3/370 844/3/370 840/3/370 836/3/370 835/3/370 834/3/370 833/3/370 832/4/370 839/3/370 843/3/370 842/5/370 838/3/370 831/3/370 830/6/370 837/3/370 841/3/370
f 841/3/371 793/3/371 809/3/371 845/3/371
f 793/3/366 792/3/366 808/3/366 809/3/366
f 813/3/330 811/3/330 810/3/330 812/3/330
f 816/3/372 815/3/372 822/3/372 823/3/372
f 818/3/373 821/3/373 824/3/373 825/3/373
f 815/3/365 816/3/365 813/3/365 812/3/365
f 814/3/362 819/3/362 829/3/362 826/3/362
f 818/3/362 825/3/362 822/3/362 815/3/362 812/3/362 810/3/362
f 816/3/363 823/3/363 824/3/363 821/3/363 811/3/363 813/3/363
f 821/3/364 818/3/364 810/3/364 811/3/364
f 814/3/332 817/3/332 823/3/332 822/3/332
f 820/3/332 819/3/332 825/3/332 824/3/332
f 817/3/332 820/3/332 824/3/332 823/3/332
f 819/3/332 814/3/332 822/3/332 825/3/332
f 827/3/332 826/3/332 829/3/332 828/3/332
f 819/3/364 820/3/364 828/3/364 829/3/364
f 820/3/363 817/3/363 827/3/363 828/3/363
f 817/3/365 814/3/365 826/3/365 827/3/365
f 787/3/374 838/3/374 842/5/374 806/3/374
f 792/3/375 840/3/375 844/3/375 808/3/375
f 808/3/369 844/3/369 845/3/369 809/3/369
f 806/3/368 842/5/368 843/3/368 807/3/368
f 793/3/369 841/3/369 837/3/369 805/3/369
f 788/3/368 839/3/368 832/4/368 803/3/368
f 805/3/374 837/3/374 830/6/374 786/3/374
f 791/3/376 835/3/376 836/3/376 804/3/376
f 790/3/375 834/3/375 835/3/375 791/3/375
f 789/3/367 833/3/367 834/3/367 790/3/367
f 803/3/377 832/4/377 833/3/377 789/3/377
f 786/3/371 830/6/371 831/3/371 802/3/371
o Cylinder
v -0.186544 1.761455 -0.323103
v 0.186544 1.761455 -0.323103
v 0.135112 1.950610 -0.191433
v -0.135112 1.950610 -0.191433
v 0.373088 1.761455 0.000000
v 0.186544 1.761455 0.323103
v 0.098230 1.950610 0.212727
v 0.233342 1.950610 -0.021294
v -0.186544 1.761455 0.323103
v -0.373088 1.761455 0.000000
v -0.233342 1.950610 -0.021294
v -0.098230 1.950610 0.212727
v -0.186544 1.950610 -0.280515
v 0.186544 1.950610 -0.280515
v 0.336205 1.950610 -0.021294
v 0.149661 1.950610 0.301809
v -0.149661 1.950610 0.301809
v -0.336205 1.950610 -0.021294
v 0.186544 1.950610 -0.323103
v 0.373088 1.950610 0.000000
v -0.373088 1.950610 0.000000
v -0.186544 1.950610 -0.323103
v -0.186544 1.950610 0.323103
v 0.186544 1.950610 0.323103
v 0.029836 1.950610 -0.051678
v 0.059672 1.950610 0.000000
v -0.059672 1.950610 0.000000
v -0.029836 1.950610 -0.051678
v -0.029836 1.950610 0.051677
v 0.029836 1.950610 0.051677
v 0.186544 2.135728 -0.280515
v 0.336205 2.135728 -0.021294
v -0.336205 2.135728 -0.021294
v -0.186544 2.135728 -0.280515
v -0.149661 2.135728 0.301809
v 0.149661 2.135728 0.301809
v 0.135112 2.135728 -0.191433
v 0.233342 2.135728 -0.021294
v -0.233342 2.135728 -0.021294
v -0.135112 2.135728 -0.191433
v -0.098230 2.135728 0.212727
v 0.098230 2.135728 0.212727
v -0.110523 1.950610 -0.191433
v 0.110523 1.950610 -0.191433
v 0.221047 1.950610 0.000000
v 0.110524 1.950610 0.191432
v -0.110524 1.950610 0.191432
v -0.221047 1.950610 0.000000
v -0.029836 1.992877 -0.051678
v 0.029836 1.992877 -0.051678
v 0.059672 1.992877 0.000000
v 0.029836 1.992877 0.051677
v -0.029836 1.992877 0.051677
v -0.059672 1.992877 0.000000
vn -0.0000 -0.0000 -1.0000
vn 0.8660 -0.0000 0.5000
vn -0.8660 -0.0000 0.5000
vn -0.0000 -1.0000 -0.0000
vn 0.8660 -0.0000 -0.5000
vn -0.8660 -0.0000 -0.5000
vn -0.0000 -0.0000 1.0000
vn -0.0000 1.0000 -0.0000
vt 1.212427 1.197155
vt 1.212427 1.197155
s 0
f 846/7/378 867/7/378 864/7/378 847/7/378
f 869/7/379 851/7/379 850/7/379 865/7/379
f 866/7/380 855/7/380 854/7/380 868/7/380
f 846/7/381 847/7/381 850/7/381 851/7/381 854/7/381 855/7/381
f 847/7/382 864/7/382 865/7/382 850/7/382
f 855/7/383 866/7/383 867/7/383 846/7/383
f 874/7/384 875/7/384 897/7/384 898/7/384
f 851/7/384 869/7/384 868/7/384 854/7/384
f 888/7/385 889/7/385 864/7/385 867/7/385
f 890/7/385 891/7/385 869/7/385 865/7/385
f 892/7/385 893/8/385 866/8/385 868/7/385
f 849/7/382 858/7/382 879/7/382 885/7/382
f 861/7/382 852/7/382 887/7/382 881/7/382
f 862/8/384 861/7/384 881/7/384 880/8/384
f 859/7/385 860/7/385 865/7/385 864/7/385
f 863/7/385 858/7/385 867/7/385 866/8/385
f 861/7/385 862/8/385 868/7/385 869/7/385
f 853/7/385 848/7/385 889/7/385 890/7/385
f 849/7/385 856/8/385 893/8/385 888/7/385
f 857/7/385 852/7/385 891/7/385 892/7/385
f 858/7/385 849/7/385 888/7/385 867/7/385
f 848/7/385 859/7/385 864/7/385 889/7/385
f 860/7/385 853/7/385 890/7/385 865/7/385
f 852/7/385 861/7/385 869/7/385 891/7/385
f 862/8/385 857/7/385 892/7/385 868/7/385
f 856/8/385 863/7/385 866/8/385 893/8/385
f 882/7/385 883/7/385 877/7/385 876/7/385
f 884/8/385 885/7/385 879/7/385 878/7/385
f 887/7/385 886/7/385 880/8/385 881/7/385
f 848/7/380 853/7/380 883/7/380 882/7/380
f 857/7/383 862/8/383 880/8/383 886/7/383
f 860/7/382 859/7/382 876/7/382 877/7/382
f 859/7/383 848/7/383 882/7/383 876/7/383
f 856/8/379 849/7/379 885/7/379 884/8/379
f 863/7/384 856/8/384 884/8/384 878/7/384
f 858/7/383 863/7/383 878/7/383 879/7/383
f 853/7/384 860/7/384 877/7/384 883/7/384
f 852/7/378 857/7/378 886/7/378 887/7/378
f 873/7/385 870/7/385 889/7/385 888/7/385
f 871/7/385 875/7/385 891/7/385 890/7/385
f 874/7/385 872/7/385 893/8/385 892/7/385
f 870/7/385 871/7/385 890/7/385 889/7/385
f 872/7/385 873/7/385 888/7/385 893/8/385
f 875/7/385 874/7/385 892/7/385 891/7/385
f 897/7/385 896/7/385 895/7/385 894/7/385 899/7/385 898/7/385
f 871/7/382 870/7/382 895/7/382 896/7/382
f 875/7/379 871/7/379 896/7/379 897/7/379
f 873/7/383 872/7/383 899/7/383 894/7/383
f 872/7/380 874/7/380 898/7/380 899/7/380
f 870/7/378 873/7/378 894/7/378 895/7/378
o Cylinder.001
v 0.212444 2.751061 -0.128095
v 0.217156 2.751061 -0.119934
v 0.217156 2.768590 -0.119934
v 0.212444 2.768590 -0.128095
v 0.004712 2.751061 0.248029
v -0.004712 2.751061 0.248029
v -0.004712 2.768590 0.248029
v 0.004712 2.768590 0.248029
v -0.217155 2.751061 -0.119934
v -0.212444 2.751061 -0.128095
v -0.212444 2.768590 -0.128095
v -0.217155 2.768590 -0.119934
v 0.236737 2.751061 -0.119934
v 0.222234 2.751061 -0.145053
v 0.222234 2.768590 -0.145053
v 0.236737 2.768590 -0.119934
v 0.014503 2.768590 0.264987
v -0.014503 2.768590 0.264987
v -0.014503 2.751061 0.264987
v 0.014503 2.751061 0.264987
v -0.236737 2.768590 -0.119934
v -0.222234 2.768590 -0.145053
v -0.222234 2.751061 -0.145053
v -0.236737 2.751061 -0.119934
vn 0.8660 -0.0000 -0.5000
vn -0.0000 -0.0000 1.0000
vn -0.8660 -0.0000 -0.5000
vn 0.8660 -0.0000 0.5000
vn -0.0000 -0.0000 -1.0000
vn -0.8660 -0.0000 0.5000
vn -0.0000 -1.0000 -0.0000
vn -0.0000 1.0000 -0.0000
vt 1.213035 1.221250
s 0
f 913/9/386 914/9/386 915/9/386 912/9/386
f 917/9/387 918/9/387 919/9/387 916/9/387
f 921/9/388 922/9/388 923/9/388 920/9/388
f 910/9/389 911/9/389 908/9/389 909/9/389
f 912/9/389 915/9/389 916/9/389 919/9/389
f 922/9/390 921/9/390 914/9/390 913/9/390
f 903/9/387 910/9/387 909/9/387 900/9/387
f 918/9/391 917/9/391 920/9/391 923/9/391
f 901/9/392 900/9/392 913/9/392 912/9/392
f 903/9/393 902/9/393 915/9/393 914/9/393
f 907/9/393 906/9/393 917/9/393 916/9/393
f 905/9/392 904/9/392 919/9/392 918/9/392
f 911/9/393 910/9/393 921/9/393 920/9/393
f 909/9/392 908/9/392 923/9/392 922/9/392
f 900/9/392 909/9/392 922/9/392 913/9/392
f 904/9/392 901/9/392 912/9/392 919/9/392
f 908/9/392 905/9/392 918/9/392 923/9/392
f 902/9/393 907/9/393 916/9/393 915/9/393
f 910/9/393 903/9/393 914/9/393 921/9/393
f 906/9/393 911/9/393 920/9/393 917/9/393
f 911/9/386 906/9/386 905/9/386 908/9/386
f 906/9/390 907/9/390 904/9/390 905/9/390
f 907/9/388 902/9/388 901/9/388 904/9/388
f 902/9/391 903/9/391 900/9/391 901/9/391
