# Blender 5.0.1
# www.blender.org
o Cube.035
v -2.520272 0.000000 1.844919
v -2.520272 2.171796 1.844919
v -2.520272 0.000000 -1.844919
v -2.520272 2.171796 -1.844919
v 2.520272 0.000000 1.844919
v 2.520272 2.171796 1.844919
v 2.520272 0.000000 -1.844919
v 2.520272 2.171796 -1.844919
v -2.520272 0.000000 0.000000
v -2.520272 3.981178 0.000000
v 2.520272 0.000000 0.000000
v 2.520272 3.981178 0.000000
v -3.013860 0.000000 0.794509
v -3.013860 1.463484 0.663176
v -3.013860 0.000000 -0.401623
v -3.013860 1.463484 -0.401623
v -2.359777 0.000000 0.794509
v -2.359777 1.463484 0.663176
v -2.359777 0.000000 -0.401623
v -2.448713 1.463484 -0.401623
v -3.013860 0.000000 0.324240
v -3.013860 2.151104 0.195105
v -2.359777 0.000000 0.324240
v -2.448713 2.151104 0.195105
v -3.013860 4.715597 0.195105
v -3.013860 4.715597 -0.401623
v -2.448713 4.715597 -0.401623
v -2.448713 4.715597 0.195105
v -2.960263 4.952529 0.117282
v -2.960263 4.952529 -0.323800
v -2.502311 4.952529 -0.323800
v -2.502311 4.952529 0.117282
v -3.173916 4.715597 0.355208
v -3.173916 4.715597 -0.561726
v -2.288658 4.715597 -0.561726
v -2.288658 4.715597 0.355208
v -3.173916 4.952529 0.355208
v -3.173916 4.952529 -0.561726
v -2.288658 4.952529 -0.561726
v -2.288658 4.952529 0.355208
v -2.960263 4.354228 0.117282
v -2.960263 4.354228 -0.323800
v -2.502311 4.354228 -0.323800
v -2.502311 4.354228 0.117282
v 2.520272 0.611686 0.000000
v -2.520272 1.990589 0.000000
v -2.520272 0.611686 1.844919
v -2.520272 1.560110 1.844919
v -2.520272 1.294685 1.419144
v -2.520272 1.560110 -1.844919
v -2.520272 0.611686 -1.844919
v -2.520272 1.294685 -1.419144
v 2.520272 0.611686 -1.844919
v 2.520272 1.560110 -1.844919
v 2.520272 1.560110 1.844919
v 2.520272 0.611686 1.844919
v 0.852817 1.560110 1.844919
v -0.840091 1.560110 1.844919
v -0.840091 0.611686 1.844919
v 1.449209 1.560110 1.908549
v -0.840091 1.560110 -1.844919
v 0.840091 1.560110 -1.844919
v 0.840091 0.611686 -1.844919
v -0.840091 0.611686 -1.844919
v -1.158251 1.439626 1.844919
v -2.202113 1.439626 1.844919
v -2.202113 0.732170 1.844919
v -1.158250 0.732170 1.844919
v 1.158251 1.439626 -1.844919
v 2.202113 1.439626 -1.844919
v 2.202113 0.732170 -1.844919
v 1.158250 0.732170 -1.844919
v -2.202113 1.439626 -1.844919
v -1.158250 1.439626 -1.844919
v -1.158251 0.732170 -1.844919
v -2.202113 0.732170 -1.844919
v -0.521931 1.439626 -1.844919
v 0.521931 1.439626 -1.844919
v 0.521931 0.732170 -1.844919
v -0.521931 0.732170 -1.844919
v -1.158251 1.439626 1.911414
v -2.202113 1.439626 1.911414
v -1.158250 0.732170 1.911414
v -2.202113 0.732170 1.911414
v 1.158251 1.439626 -1.911414
v 2.202113 1.439626 -1.911414
v 1.158250 0.732170 -1.911414
v 2.202113 0.732170 -1.911414
v -2.202113 1.439626 -1.911414
v -1.158250 1.439626 -1.911414
v -2.202113 0.732170 -1.911414
v -1.158251 0.732170 -1.911414
v -0.521931 1.439626 -1.911414
v 0.521931 1.439626 -1.911414
v -0.521931 0.732170 -1.911414
v 0.521931 0.732170 -1.911414
v -1.218712 1.379165 1.911414
v -2.141652 1.379165 1.911414
v -2.141652 0.792631 1.911414
v -1.218711 0.792631 1.911414
v 1.218712 1.379165 -1.911414
v 2.141652 1.379165 -1.911414
v 2.141652 0.792631 -1.911414
v 1.218711 0.792631 -1.911414
v -2.141652 1.379165 -1.911414
v -1.218711 1.379165 -1.911414
v -1.218712 0.792631 -1.911414
v -2.141652 0.792631 -1.911414
v -0.461470 1.379165 -1.911414
v 0.461470 1.379165 -1.911414
v 0.461470 0.792631 -1.911414
v -0.461470 0.792631 -1.911414
v -1.218712 1.379165 1.867545
v -2.141652 1.379165 1.867545
v -1.218711 0.792631 1.867545
v -2.141652 0.792631 1.867545
v 1.218712 1.379165 -1.867545
v 2.141652 1.379165 -1.867545
v 1.218711 0.792631 -1.867545
v 2.141652 0.792631 -1.867545
v -2.141652 1.379165 -1.867545
v -1.218711 1.379165 -1.867545
v -2.141652 0.792631 -1.867545
v -1.218712 0.792631 -1.867545
v -0.461470 1.379165 -1.867545
v 0.461470 1.379165 -1.867545
v -0.461470 0.792631 -1.867545
v 0.461470 0.792631 -1.867545
v 1.569025 1.560110 -1.844919
v 1.569025 0.732170 -1.844919
v 1.569025 0.792631 -1.867545
v 1.449209 1.560110 1.844919
v 0.274466 0.732170 -1.844919
v 0.390040 1.560110 1.844919
v 1.569025 1.439626 -1.844919
v 0.390040 0.000000 1.844919
v 1.449209 0.000000 1.844919
v 0.274466 0.792631 -1.911414
v 0.274466 1.379165 -1.911414
v 1.569025 1.439626 -1.911414
v 0.274466 1.439626 -1.911414
v 1.569025 1.379165 -1.911414
v 0.274466 1.560110 -1.844919
v 1.569025 0.732170 -1.911414
v 0.274466 0.732170 -1.911414
v 1.569025 0.611686 -1.844919
v 0.274466 1.379165 -1.867545
v 0.390040 0.611686 1.844919
v 0.274466 0.611686 -1.844919
v 1.569025 0.000000 0.000000
v 0.274466 0.000000 0.000000
v 1.569025 1.379165 -1.867545
v 1.569025 0.792631 -1.911414
v 0.274466 1.439626 -1.844919
v 1.449209 0.611686 1.844919
v 0.274466 0.792631 -1.867545
v 1.569025 0.000000 -1.844919
v 0.274466 0.000000 -1.844919
v 0.852817 1.560110 1.908549
v 0.390040 1.560110 1.908549
v 0.390040 0.000000 1.908549
v 1.449209 0.000000 1.908549
v 1.449209 0.611686 1.908549
v 0.390040 0.611686 1.908549
v 0.852817 1.500722 1.908549
v 0.449427 1.500722 1.908549
v 0.449428 0.611686 1.908549
v 0.449428 0.059388 1.908549
v 1.389821 0.059388 1.908549
v 1.389821 0.611686 1.908549
v 1.389821 1.500722 1.908549
v 0.852817 1.500722 1.837176
v 0.449427 1.500722 1.837176
v 1.389821 1.500722 1.837176
v 0.449428 0.611686 1.837176
v 0.449428 0.059388 1.837176
v 1.389821 0.059388 1.837176
v 1.389821 0.611686 1.837176
v 2.520272 1.560110 0.000000
v 2.520272 0.730243 -1.325377
v 2.520272 1.441553 -1.325377
v 2.520272 1.441553 -0.256877
v 2.520272 0.730243 -0.256877
v 2.520272 1.441553 1.325377
v 2.520272 0.730243 1.325377
v 2.520272 0.730243 0.256877
v 2.520272 1.441553 0.256877
v 2.575891 0.730243 -1.325377
v 2.575891 1.441553 -1.325377
v 2.575891 0.730243 -0.256877
v 2.575891 1.441553 -0.256877
v 2.575891 1.441553 1.325377
v 2.575891 0.730243 1.325377
v 2.575891 1.441553 0.256877
v 2.575891 0.730243 0.256877
v 2.575891 0.779313 -1.276307
v 2.575891 1.392483 -1.276307
v 2.575891 1.392483 -0.305947
v 2.575891 0.779313 -0.305947
v 2.575891 1.392483 1.276307
v 2.575891 0.779313 1.276307
v 2.575891 0.779313 0.305947
v 2.575891 1.392483 0.305947
v 2.522176 0.779313 -1.276307
v 2.522176 1.392483 -1.276307
v 2.522176 0.779313 -0.305947
v 2.522176 1.392483 -0.305947
v 2.522176 1.392483 1.276307
v 2.522176 0.779313 1.276307
v 2.522176 1.392483 0.305947
v 2.522176 0.779313 0.305947
vn -0.0000 -1.0000 -0.0000
vn -0.0000 0.7139 0.7002
vn -0.0000 0.7139 -0.7002
vn -1.0000 -0.0000 -0.0000
vn -0.0000 -0.0000 -1.0000
vn 0.9966 0.0187 -0.0807
vn -0.0000 0.0894 0.9960
vn -0.0000 0.5627 0.8267
vn 0.9985 0.0482 -0.0251
vn -0.0000 -0.0000 1.0000
vn 1.0000 -0.0000 -0.0000
vn -0.0000 1.0000 -0.0000
vt 0.562500 0.812503
vt 0.562500 0.812503
vt 0.437500 0.812500
vt 0.187500 0.937500
vt 0.312500 0.937502
vt 0.312500 0.937500
vt 0.437500 0.562500
vt 0.062500 0.812500
s 0
f 9/1/1 151/1/1 136/1/1 1/2/1
f 12/1/2 10/1/2 2/1/2 6/2/2
f 8/1/3 4/1/3 10/1/3 12/1/3
f 3/1/1 158/1/1 151/1/1 9/1/1
f 21/3/4 22/3/4 16/3/4 15/3/4
f 15/3/5 16/3/5 20/3/5 19/3/5
f 23/3/6 24/3/6 18/3/6 17/3/6
f 17/3/7 18/3/7 14/3/7 13/3/7
f 21/3/1 23/3/1 17/3/1 13/3/1
f 24/3/8 22/3/8 14/3/8 18/3/8
f 20/3/5 16/3/5 26/3/5 27/3/5
f 15/3/1 19/3/1 23/3/1 21/3/1
f 19/3/9 20/3/9 24/3/9 23/3/9
f 13/3/4 14/3/4 22/3/4 21/3/4
f 25/3/1 28/3/1 36/3/1 33/3/1
f 22/3/10 24/3/10 28/3/10 25/3/10
f 24/3/11 20/3/11 27/3/11 28/3/11
f 16/3/4 22/3/4 25/3/4 26/3/4
f 29/3/5 32/3/5 44/3/5 41/3/5
f 30/3/12 31/3/12 39/3/12 38/3/12
f 26/3/1 25/3/1 33/3/1 34/3/1
f 32/3/12 29/3/12 37/3/12 40/3/12
f 34/3/4 33/3/4 37/3/4 38/3/4
f 33/3/10 36/3/10 40/3/10 37/3/10
f 35/3/5 34/3/5 38/3/5 39/3/5
f 36/3/11 35/3/11 39/3/11 40/3/11
f 27/3/1 26/3/1 34/3/1 35/3/1
f 31/3/12 32/3/12 40/3/12 39/3/12
f 29/3/12 30/3/12 38/3/12 37/3/12
f 28/3/1 27/3/1 35/3/1 36/3/1
f 43/4/12 42/4/12 41/4/12 44/4/12
f 31/3/10 30/3/10 42/3/10 43/3/10
f 32/3/4 31/3/4 43/3/4 44/3/4
f 30/3/11 29/3/11 41/3/11 42/3/11
f 47/1/4 48/1/4 49/1/4
f 50/1/4 51/1/4 52/1/4
f 79/5/1 133/5/1 145/5/1 96/5/1
f 75/5/1 76/5/1 91/5/1 92/5/1
f 49/1/4 48/1/4 2/1/4 10/1/4 46/1/4
f 5/1/10 56/1/10 155/1/10 137/1/10
f 1/1/4 47/1/4 49/1/4 46/1/4 9/1/4
f 55/1/10 6/2/10 2/1/10 48/1/10 58/1/10 134/1/10 57/1/10 132/1/10
f 9/1/4 46/1/4 52/1/4 51/1/4 3/1/4
f 50/1/5 4/1/5 8/1/5 54/1/5 129/1/5 62/1/5 143/1/5 61/1/5
f 3/1/5 51/1/5 64/1/5 149/1/5 158/1/5
f 46/1/4 10/1/4 4/1/4 50/1/4 52/1/4
f 54/1/11 8/1/11 12/1/11 179/1/11
f 7/1/11 53/1/11 45/1/11 11/1/11
f 11/1/11 45/1/11 56/1/11 5/1/11
f 179/1/11 12/1/11 6/1/11 55/1/11
f 55/1/10 132/1/10 155/1/10 56/1/10
f 132/6/12 57/6/12 159/6/12 60/6/12
f 78/5/11 79/5/11 96/5/11 94/5/11
f 71/5/1 130/5/1 144/5/1 88/5/1
f 58/1/10 48/1/10 66/1/10 65/1/10
f 48/1/10 47/1/10 67/1/10 66/1/10
f 47/1/10 59/1/10 68/1/10 67/1/10
f 59/1/10 58/1/10 65/1/10 68/1/10
f 62/1/5 129/1/5 135/1/5 69/1/5
f 54/1/5 53/1/5 71/1/5 70/1/5
f 53/1/5 146/1/5 130/1/5 71/1/5
f 63/1/5 62/1/5 69/1/5 72/1/5
f 50/1/5 61/1/5 74/1/5 73/1/5
f 61/1/5 64/1/5 75/1/5 74/1/5
f 64/1/5 51/1/5 76/1/5 75/1/5
f 51/1/5 50/1/5 73/1/5 76/1/5
f 61/1/5 143/1/5 154/1/5 77/1/5
f 62/1/5 63/1/5 79/1/5 78/1/5
f 63/1/5 149/1/5 133/1/5 79/1/5
f 64/1/5 61/1/5 77/1/5 80/1/5
f 104/5/11 101/5/11 117/5/11 119/5/11
f 105/5/1 106/5/1 122/5/1 121/5/1
f 100/5/4 97/5/4 113/5/4 115/5/4
f 101/5/1 142/5/1 152/5/1 117/5/1
f 65/5/12 66/5/12 82/5/12 81/5/12
f 69/5/12 135/5/12 140/5/12 85/5/12
f 68/5/11 65/5/11 81/5/11 83/5/11
f 73/5/12 74/5/12 90/5/12 89/5/12
f 72/5/4 69/5/4 85/5/4 87/5/4
f 77/5/12 154/5/12 141/5/12 93/5/12
f 66/5/4 67/5/4 84/5/4 82/5/4
f 76/5/4 73/5/4 89/5/4 91/5/4
f 70/5/11 71/5/11 88/5/11 86/5/11
f 80/5/4 77/5/4 93/5/4 95/5/4
f 67/5/1 68/5/1 83/5/1 84/5/1
f 74/5/11 75/5/11 92/5/11 90/5/11
f 81/5/10 82/5/10 98/5/10 97/5/10
f 82/5/10 84/5/10 99/5/10 98/5/10
f 84/5/10 83/5/10 100/5/10 99/5/10
f 83/5/10 81/5/10 97/5/10 100/5/10
f 85/5/5 140/5/5 142/5/5 101/5/5
f 86/5/5 88/5/5 103/5/5 102/5/5
f 88/5/5 144/5/5 153/5/5 103/5/5
f 87/5/5 85/5/5 101/5/5 104/5/5
f 89/5/5 90/5/5 106/5/5 105/5/5
f 90/5/5 92/5/5 107/5/5 106/5/5
f 92/5/5 91/5/5 108/5/5 107/5/5
f 91/5/5 89/5/5 105/5/5 108/5/5
f 93/5/5 141/5/5 139/5/5 109/5/5
f 94/5/5 96/5/5 111/5/5 110/5/5
f 96/5/5 145/5/5 138/5/5 111/5/5
f 95/5/5 93/5/5 109/5/5 112/5/5
f 113/7/10 114/7/10 116/7/10 115/7/10
f 117/7/5 152/7/5 131/7/5 119/7/5
f 121/7/5 122/7/5 124/7/5 123/7/5
f 125/7/5 147/7/5 156/7/5 127/7/5
f 109/5/1 139/5/1 147/5/1 125/5/1
f 98/5/11 99/5/11 116/5/11 114/5/11
f 108/5/11 105/5/11 121/5/11 123/5/11
f 102/5/4 103/5/4 120/5/4 118/5/4
f 112/5/11 109/5/11 125/5/11 127/5/11
f 99/5/12 100/5/12 115/5/12 116/5/12
f 106/5/4 107/5/4 124/5/4 122/5/4
f 103/5/12 153/5/12 131/5/12 120/5/12
f 110/5/4 111/5/4 128/5/4 126/5/4
f 107/5/12 108/5/12 123/5/12 124/5/12
f 111/5/12 138/5/12 156/5/12 128/5/12
f 97/5/1 98/5/1 114/5/1 113/5/1
f 137/6/11 155/6/11 163/6/11 162/6/11
f 145/5/1 133/5/1 80/5/1 95/5/1
f 152/5/1 142/5/1 102/5/1 118/5/1
f 153/5/5 144/5/5 87/5/5 104/5/5
f 151/1/1 158/1/1 157/1/1 150/2/1
f 150/2/1 157/1/1 7/1/1 11/2/1
f 140/5/12 135/5/12 70/5/12 86/5/12
f 131/5/12 153/5/12 104/5/12 119/5/12
f 135/1/5 129/1/5 54/1/5 70/1/5
f 154/1/5 143/1/5 62/1/5 78/1/5
f 147/5/1 139/5/1 110/5/1 126/5/1
f 130/1/5 146/1/5 63/1/5 72/1/5
f 141/5/12 154/5/12 78/5/12 94/5/12
f 156/5/12 138/5/12 112/5/12 127/5/12
f 139/5/5 141/5/5 94/5/5 110/5/5
f 158/1/5 149/1/5 63/1/5 146/1/5 157/1/5
f 157/1/5 146/1/5 53/1/5 7/1/5
f 138/5/5 145/5/5 95/5/5 112/5/5
f 144/5/1 130/5/1 72/5/1 87/5/1
f 131/7/5 152/7/5 118/7/5 120/7/5
f 133/1/5 149/1/5 64/1/5 80/1/5
f 57/6/12 134/6/12 160/6/12 159/6/12
f 170/6/4 171/6/4 174/6/4 178/6/4
f 136/1/10 148/1/10 59/1/10 47/1/10 1/1/10
f 148/1/10 134/1/10 58/1/10 59/1/10
f 156/7/5 147/7/5 126/7/5 128/7/5
f 136/1/1 151/1/1 150/2/1 137/1/1
f 137/1/1 150/2/1 11/2/1 5/1/1
f 142/5/5 140/5/5 86/5/5 102/5/5
f 148/6/4 136/6/4 161/6/4 164/6/4
f 136/6/1 137/6/1 162/6/1 161/6/1
f 155/6/11 132/6/11 60/6/11 163/6/11
f 134/6/4 148/6/4 164/6/4 160/6/4
f 159/6/10 160/6/10 166/6/10 165/6/10
f 160/6/10 164/6/10 167/6/10 166/6/10
f 164/6/10 161/6/10 168/6/10 167/6/10
f 161/6/10 162/6/10 169/6/10 168/6/10
f 162/6/10 163/6/10 170/6/10 169/6/10
f 163/6/10 60/6/10 171/6/10 170/6/10
f 60/6/10 159/6/10 165/6/10 171/6/10
f 172/8/10 173/8/10 175/8/10 176/8/10 177/8/10 178/8/10 174/8/10
f 168/6/12 169/6/12 177/6/12 176/6/12
f 166/6/11 167/6/11 175/6/11 173/6/11
f 165/6/1 166/6/1 173/6/1 172/6/1
f 169/6/4 170/6/4 178/6/4 177/6/4
f 167/6/11 168/6/11 176/6/11 175/6/11
f 171/6/1 165/6/1 172/6/1 174/6/1
f 186/5/5 187/5/5 194/5/5 195/5/5
f 181/5/12 182/5/12 191/5/12 189/5/12
f 53/1/11 54/1/11 181/1/11 180/1/11
f 54/1/11 179/1/11 182/1/11 181/1/11
f 179/1/11 45/1/11 183/1/11 182/1/11
f 45/1/11 53/1/11 180/1/11 183/1/11
f 55/1/11 56/1/11 185/1/11 184/1/11
f 56/1/11 45/1/11 186/1/11 185/1/11
f 45/1/11 179/1/11 187/1/11 186/1/11
f 179/1/11 55/1/11 184/1/11 187/1/11
f 198/5/5 199/5/5 206/5/5 207/5/5
f 203/5/1 200/5/1 208/5/1 210/5/1
f 180/5/5 181/5/5 189/5/5 188/5/5
f 187/5/12 184/5/12 192/5/12 194/5/12
f 182/5/10 183/5/10 190/5/10 191/5/10
f 183/5/1 180/5/1 188/5/1 190/5/1
f 185/5/1 186/5/1 195/5/1 193/5/1
f 184/5/10 185/5/10 193/5/10 192/5/10
f 188/5/11 189/5/11 197/5/11 196/5/11
f 189/5/11 191/5/11 198/5/11 197/5/11
f 191/5/11 190/5/11 199/5/11 198/5/11
f 190/5/11 188/5/11 196/5/11 199/5/11
f 192/5/11 193/5/11 201/5/11 200/5/11
f 193/5/11 195/5/11 202/5/11 201/5/11
f 195/5/11 194/5/11 203/5/11 202/5/11
f 194/5/11 192/5/11 200/5/11 203/5/11
f 204/7/11 205/7/11 207/7/11 206/7/11
f 208/7/11 209/7/11 211/7/11 210/7/11
f 199/5/12 196/5/12 204/5/12 206/5/12
f 201/5/12 202/5/12 211/5/12 209/5/12
f 200/5/5 201/5/5 209/5/5 208/5/5
f 197/5/1 198/5/1 207/5/1 205/5/1
f 202/5/10 203/5/10 210/5/10 211/5/10
f 196/5/10 197/5/10 205/5/10 204/5/10
o Cube.037
v -3.004660 2.126288 2.253665
v -2.930933 4.300755 0.052450
v -3.004660 1.885207 2.008478
v -3.004660 3.919129 -0.000000
v 3.004660 2.126288 2.253665
v 2.930933 4.300755 0.052450
v 3.004660 1.885207 2.008478
v 3.004660 3.919129 -0.000000
v 1.502330 1.885207 2.008478
v -0.000000 1.885207 2.008478
v -1.502330 1.885207 2.008478
v -1.502330 3.919129 -0.000000
v 0.000000 3.919129 -0.000000
v 1.502330 3.919129 -0.000000
v -1.502330 2.126288 2.253665
v 0.073727 2.178101 2.201215
v 1.428603 2.178101 2.201215
v 1.576057 4.300755 0.052450
v -0.000000 4.352568 -0.000000
v -1.576057 4.300755 0.052450
v -3.004660 2.868381 1.502443
v -2.930933 3.662288 0.698771
v -3.004660 3.241155 0.669493
v -3.004660 2.563181 1.338985
v 3.004660 3.241155 0.669493
v 3.004660 2.563181 1.338985
v 2.930933 3.662288 0.698771
v 3.004660 2.868381 1.502443
v 1.576057 3.662288 0.698771
v 1.428603 2.816568 1.554894
v -0.000000 3.610475 0.751222
v 0.073727 2.816568 1.554894
v -1.576057 3.662288 0.698771
v -1.502330 2.868381 1.502443
v -1.502330 3.241155 0.669493
v -1.502330 2.563181 1.338985
v 0.000000 3.241155 0.669493
v -0.000000 2.563181 1.338985
v 1.502330 3.241155 0.669493
v 1.502330 2.563181 1.338985
v -2.930933 2.178102 -2.201215
v -3.004660 1.885207 -2.008479
v 3.004660 2.126288 -2.253666
v 3.004660 1.885207 -2.008479
v 1.502330 1.885207 -2.008479
v -0.000000 1.885207 -2.008479
v -1.502330 1.885207 -2.008479
v -1.576057 2.178102 -2.201215
v 0.000000 2.126288 -2.253666
v 1.502330 2.126288 -2.253666
v -2.930933 2.816568 -1.554895
v -3.004660 3.610475 -0.751222
v -3.004660 3.241155 -0.669493
v -3.004660 2.563181 -1.338986
v 3.004660 3.241155 -0.669493
v 3.004660 2.563181 -1.338986
v 3.004660 3.610475 -0.751222
v 3.004660 2.868382 -1.502444
v 1.428603 3.558661 -0.803673
v 1.428603 2.920195 -1.449993
v 0.073727 3.558661 -0.803673
v 0.073727 2.920195 -1.449993
v -1.502330 3.610475 -0.751222
v -1.576057 2.816568 -1.554895
v -1.502330 3.241155 -0.669493
v -1.502330 2.563181 -1.338986
v 0.000000 3.241155 -0.669493
v -0.000000 2.563181 -1.338986
v 1.502330 3.241155 -0.669493
v 1.502330 2.563181 -1.338986
v -3.004660 3.610475 0.751222
v -3.004660 4.352568 -0.000000
v -1.502330 4.352568 -0.000000
v 0.000000 2.126288 2.253665
v 1.502330 2.126288 2.253665
v 3.004660 4.352568 -0.000000
v 1.502330 4.352568 -0.000000
v 1.502330 2.868381 1.502443
v 0.000000 2.868381 1.502443
v 3.004660 3.610475 0.751222
v 1.502330 3.610475 0.751222
v -1.502330 3.610475 0.751222
v -3.004660 2.126288 -2.253666
v -1.502330 2.126288 -2.253666
v -1.502330 2.868382 -1.502444
v -3.004660 2.868382 -1.502444
v 1.502330 3.610475 -0.751222
v 1.502330 2.868382 -1.502444
v -0.000000 3.610475 -0.751222
v 0.000000 2.868382 -1.502444
v -2.930933 3.675557 0.711879
v -2.913210 3.700621 0.711725
v -2.913210 4.314177 0.090622
v -2.930933 4.314024 0.065558
v -1.593780 4.314177 0.090622
v -1.576057 4.314024 0.065558
v 0.091450 2.216434 2.214169
v 0.073727 2.191370 2.214323
v 1.428603 2.191370 2.214323
v 1.410880 2.216434 2.214169
v 2.913210 4.314177 0.090622
v 2.930933 4.314024 0.065558
v 1.576057 4.314024 0.065558
v 1.593780 4.314177 0.090622
v 1.428603 2.829837 1.568002
v 1.410880 2.829990 1.593066
v 0.091450 2.829990 1.593066
v 0.073727 2.829837 1.568002
v 2.913210 3.700621 0.711725
v 2.930933 3.675557 0.711879
v 1.576057 3.675557 0.711879
v 1.593780 3.700621 0.711725
v -1.593780 3.700621 0.711725
v -1.576057 3.675557 0.711879
v -2.930933 2.191370 -2.214324
v -2.913210 2.216434 -2.214170
v -1.593780 2.216434 -2.214170
v -1.576057 2.191370 -2.214324
v -1.593780 2.829990 -1.593067
v -1.576057 2.829837 -1.568003
v -2.930933 2.829837 -1.568003
v -2.913210 2.829990 -1.593067
v 1.410880 3.572084 -0.841845
v 1.428603 3.571931 -0.816781
v 1.428603 2.933464 -1.463102
v 1.410880 2.958527 -1.462948
v 0.073727 3.571931 -0.816781
v 0.091450 3.572084 -0.841845
v 0.091450 2.958527 -1.462948
v 0.073727 2.933464 -1.463102
vn -1.0000 -0.0000 -0.0000
vn -0.0000 -0.7026 -0.7115
vn 1.0000 -0.0000 -0.0000
vn -0.0000 -0.7131 0.7011
vn -0.0000 -0.0000 -1.0000
vn -0.0000 0.7114 0.7028
vn -0.0000 -0.7026 0.7115
vn -0.0000 0.7114 -0.7028
vn -0.0000 -0.7131 -0.7011
vn -0.7071 0.5031 0.4969
vn -0.0000 1.0000 -0.0061
vn -0.0000 0.0061 1.0000
vn 0.7071 0.5030 0.4969
vn -0.7071 0.5030 0.4969
vn 0.7071 0.5031 0.4969
vn -0.0000 0.0061 -1.0000
vn 0.7071 0.5031 -0.4969
vn -0.7071 0.5030 -0.4969
vn 0.7071 0.5030 -0.4969
vn -0.0000 1.0000 0.0061
vn -0.0000 -0.7028 0.7114
vn -0.0000 0.7028 -0.7114
vn -0.0000 -0.7028 -0.7114
vn -0.0000 0.7028 0.7114
vt 0.187501 0.812500
vt 0.312500 0.812500
s 0
f 282/9/13 283/9/13 215/9/13 234/9/13
f 250/9/14 225/9/14 219/9/14 236/9/14
f 236/9/15 219/9/15 287/9/15 291/9/15
f 220/9/16 218/9/16 216/9/16 286/9/16
f 223/9/17 215/9/17 283/9/17 284/9/17
f 219/9/17 225/9/17 288/9/17 287/9/17
f 225/9/17 224/9/17 230/9/17 288/9/17
f 224/9/17 223/9/17 284/9/17 230/9/17
f 214/9/16 222/9/16 226/9/16 212/9/16
f 222/9/16 221/9/16 285/9/16 226/9/16
f 221/9/16 220/9/16 286/9/16 285/9/16
f 292/9/18 288/9/18 230/9/18 242/9/18
f 242/9/18 230/9/18 284/9/18 293/9/18
f 234/9/14 215/9/14 223/9/14 246/9/14
f 246/9/14 223/9/14 224/9/14 248/9/14
f 248/9/14 224/9/14 225/9/14 250/9/14
f 221/9/14 249/9/14 251/9/14 220/9/14
f 249/9/14 248/9/14 250/9/14 251/9/14
f 222/9/14 247/9/14 249/9/14 221/9/14
f 247/9/14 246/9/14 248/9/14 249/9/14
f 214/9/14 235/9/14 247/9/14 222/9/14
f 235/9/14 234/9/14 246/9/14 247/9/14
f 285/9/18 290/9/18 245/9/18 226/9/18
f 290/9/18 242/9/18 293/9/18 245/9/18
f 289/9/18 292/9/18 242/9/18 290/9/18
f 216/9/18 239/9/18 289/9/18 286/9/18
f 239/9/18 291/9/18 292/9/18 289/9/18
f 226/9/18 245/9/18 232/9/18 212/9/18
f 245/9/18 293/9/18 282/9/18 232/9/18
f 218/9/15 237/9/15 239/9/15 216/9/15
f 237/9/15 236/9/15 291/9/15 239/9/15
f 220/9/14 251/9/14 237/9/14 218/9/14
f 251/9/14 250/9/14 236/9/14 237/9/14
f 212/9/13 232/9/13 235/9/13 214/9/13
f 232/9/13 282/9/13 234/9/13 235/9/13
f 263/9/13 264/9/13 215/9/13 283/9/13
f 280/9/19 266/9/19 219/9/19 225/9/19
f 266/9/15 268/9/15 287/9/15 219/9/15
f 274/9/20 263/9/20 283/9/20 284/9/20
f 256/9/21 261/9/21 254/9/21 255/9/21
f 253/9/21 294/9/21 295/9/21 258/9/21
f 258/9/21 295/9/21 260/9/21 257/9/21
f 257/9/21 260/9/21 261/9/21 256/9/21
f 268/9/20 298/9/20 288/9/20 287/9/20
f 298/9/20 300/9/20 230/9/20 288/9/20
f 300/9/20 274/9/20 284/9/20 230/9/20
f 264/9/19 276/9/19 223/9/19 215/9/19
f 276/9/19 278/9/19 224/9/19 223/9/19
f 278/9/19 280/9/19 225/9/19 224/9/19
f 257/9/19 256/9/19 281/9/19 279/9/19
f 279/9/19 281/9/19 280/9/19 278/9/19
f 258/9/19 257/9/19 279/9/19 277/9/19
f 277/9/19 279/9/19 278/9/19 276/9/19
f 253/9/19 258/9/19 277/9/19 265/9/19
f 265/9/19 277/9/19 276/9/19 264/9/19
f 260/9/20 295/9/20 296/9/20 301/9/20
f 301/9/20 296/9/20 274/9/20 300/9/20
f 261/9/20 260/9/20 301/9/20 299/9/20
f 254/9/20 261/9/20 299/9/20 269/9/20
f 269/9/20 299/9/20 298/9/20 268/9/20
f 296/9/20 297/9/20 263/9/20 274/9/20
f 255/9/15 254/9/15 269/9/15 267/9/15
f 267/9/15 269/9/15 268/9/15 266/9/15
f 256/9/19 255/9/19 267/9/19 281/9/19
f 281/9/19 267/9/19 266/9/19 280/9/19
f 294/9/13 253/9/13 265/9/13 297/9/13
f 297/9/13 265/9/13 264/9/13 263/9/13
f 233/9/18 213/9/18 283/9/18 282/9/18
f 213/9/18 231/9/18 284/9/18 283/9/18
f 228/9/18 227/9/18 285/9/18 286/9/18
f 229/9/18 217/9/18 287/9/18 288/9/18
f 241/9/18 228/9/18 286/9/18 289/9/18
f 227/9/18 243/9/18 290/9/18 285/9/18
f 217/9/18 238/9/18 291/9/18 287/9/18
f 240/9/18 229/9/18 288/9/18 292/9/18
f 231/9/18 244/9/18 293/9/18 284/9/18
f 243/9/18 241/9/18 289/9/18 290/9/18
f 238/9/18 240/9/18 292/9/18 291/9/18
f 244/9/18 233/9/18 282/9/18 293/9/18
f 252/9/20 259/9/20 295/9/20 294/9/20
f 259/9/20 275/9/20 296/9/20 295/9/20
f 262/9/20 252/9/20 294/9/20 297/9/20
f 271/9/20 270/9/20 298/9/20 299/9/20
f 272/9/20 273/9/20 301/9/20 300/9/20
f 273/9/20 271/9/20 299/9/20 301/9/20
f 270/9/20 272/9/20 300/9/20 298/9/20
f 275/9/20 262/9/20 297/9/20 296/9/20
f 303/10/22 304/10/22 305/10/22 302/10/22
f 307/10/23 305/10/23 304/10/23 306/10/23
f 309/10/24 310/10/24 311/10/24 308/10/24
f 313/10/23 314/10/23 315/10/23 312/10/23
f 317/10/25 311/10/25 310/10/25 316/10/25
f 319/10/26 309/10/26 308/10/26 318/10/26
f 312/10/25 320/10/25 321/10/25 313/10/25
f 314/10/22 322/10/22 323/10/22 315/10/22
f 306/10/27 324/10/27 325/10/27 307/10/27
f 316/10/23 319/10/23 318/10/23 317/10/23
f 320/10/24 323/10/24 322/10/24 321/10/24
f 324/10/24 303/10/24 302/10/24 325/10/24
f 327/10/28 328/10/28 329/10/28 326/10/28
f 331/10/29 329/10/29 328/10/29 330/10/29
f 326/10/30 332/10/30 333/10/30 327/10/30
f 335/10/31 336/10/31 337/10/31 334/10/31
f 339/10/30 340/10/30 341/10/30 338/10/30
f 336/10/28 341/10/28 340/10/28 337/10/28
f 334/10/32 339/10/32 338/10/32 335/10/32
f 330/10/32 333/10/32 332/10/32 331/10/32
f 213/9/13 233/9/13 302/9/13 305/9/13
f 324/10/18 306/10/18 304/10/18 303/10/18
f 233/9/33 244/9/33 325/9/33 302/9/33
f 231/9/34 213/9/34 305/9/34 307/9/34
f 244/9/15 231/9/15 307/9/15 325/9/15
f 227/9/33 228/9/33 310/9/33 309/9/33
f 311/10/18 317/10/18 318/10/18 308/10/18
f 243/9/13 227/9/13 309/9/13 319/9/13
f 228/9/15 241/9/15 316/9/15 310/9/15
f 217/9/34 229/9/34 314/9/34 313/9/34
f 320/10/18 312/10/18 315/10/18 323/10/18
f 238/9/15 217/9/15 313/9/15 321/9/15
f 229/9/13 240/9/13 322/9/13 314/9/13
f 241/9/34 243/9/34 319/9/34 316/9/34
f 240/9/33 238/9/33 321/9/33 322/9/33
f 328/10/20 327/10/20 333/10/20 330/10/20
f 252/9/13 262/9/13 332/9/13 326/9/13
f 259/9/35 252/9/35 326/9/35 329/9/35
f 275/9/15 259/9/15 329/9/15 331/9/15
f 262/9/36 275/9/36 331/9/36 332/9/36
f 270/9/15 271/9/15 336/9/15 335/9/15
f 337/10/20 340/10/20 339/10/20 334/10/20
f 272/9/36 270/9/36 335/9/36 338/9/36
f 271/9/35 273/9/35 341/9/35 336/9/35
f 273/9/13 272/9/13 338/9/13 341/9/13
o Cube.039
v -2.804073 1.092157 -0.098810
v -2.804073 1.324073 -0.098810
v -2.804073 1.092157 -0.413451
v -2.804073 1.324073 -0.413451
v -2.572157 1.092157 -0.098810
v -2.572157 1.324073 -0.098810
v -2.572157 1.092157 -0.413451
v -2.572157 1.324073 -0.413451
vn -1.0000 -0.0000 -0.0000
vn -0.0000 -0.0000 -1.0000
vn 1.0000 -0.0000 -0.0000
vn -0.0000 -0.0000 1.0000
vn -0.0000 -1.0000 -0.0000
vn -0.0000 1.0000 -0.0000
vt 0.312500 0.812500
s 0
f 342/11/37 343/11/37 345/11/37 344/11/37
f 344/11/38 345/11/38 349/11/38 348/11/38
f 348/11/39 349/11/39 347/11/39 346/11/39
f 346/11/40 347/11/40 343/11/40 342/11/40
f 344/11/41 348/11/41 346/11/41 342/11/41
f 349/11/42 345/11/42 343/11/42 347/11/42
o Cube.040
v -2.974310 0.905372 -0.098810
v -2.974310 1.052258 -0.098810
v -2.974310 0.905372 -0.413451
v -2.974310 1.052258 -0.413451
v -2.742394 0.905372 -0.098810
v -2.742394 1.052258 -0.098810
v -2.742394 0.905372 -0.413451
v -2.742394 1.052258 -0.413451
vn -1.0000 -0.0000 -0.0000
vn -0.0000 -0.0000 -1.0000
vn 1.0000 -0.0000 -0.0000
vn -0.0000 -0.0000 1.0000
vn -0.0000 -1.0000 -0.0000
vn -0.0000 1.0000 -0.0000
vt 0.312500 0.812500
s 0
f 350/12/43 351/12/43 353/12/43 352/12/43
f 352/12/44 353/12/44 357/12/44 356/12/44
f 356/12/45 357/12/45 355/12/45 354/12/45
f 354/12/46 355/12/46 351/12/46 350/12/46
f 352/12/47 356/12/47 354/12/47 350/12/47
f 357/12/48 353/12/48 351/12/48 355/12/48
o Cube.041
v -3.044833 0.756518 0.163390
v -3.044833 1.052468 0.163390
v -3.044833 0.756518 -0.238125
v -3.044833 1.052468 -0.238125
v -2.748883 0.756518 0.163390
v -2.748883 1.052468 0.163390
v -2.748883 0.756518 -0.238125
v -2.748883 1.052468 -0.238125
vn -1.0000 -0.0000 -0.0000
vn -0.0000 -0.0000 -1.0000
vn 1.0000 -0.0000 -0.0000
vn -0.0000 -0.0000 1.0000
vn -0.0000 -1.0000 -0.0000
vn -0.0000 1.0000 -0.0000
vt 0.312500 0.812500
s 0
f 358/13/49 359/13/49 361/13/49 360/13/49
f 360/13/50 361/13/50 365/13/50 364/13/50
f 364/13/51 365/13/51 363/13/51 362/13/51
f 362/13/52 363/13/52 359/13/52 358/13/52
f 360/13/53 364/13/53 362/13/53 358/13/53
f 365/13/54 361/13/54 359/13/54 363/13/54
o Cube.042
v -3.027651 0.482015 0.347292
v -3.027651 0.723333 0.347292
v -3.027651 0.482015 0.019896
v -3.027651 0.723333 0.019896
v -2.786333 0.482015 0.347292
v -2.786333 0.723333 0.347292
v -2.786333 0.482015 0.019896
v -2.786333 0.723333 0.019896
vn -1.0000 -0.0000 -0.0000
vn -0.0000 -0.0000 -1.0000
vn 1.0000 -0.0000 -0.0000
vn -0.0000 -0.0000 1.0000
vn -0.0000 -1.0000 -0.0000
vn -0.0000 1.0000 -0.0000
vt 0.312500 0.812500
s 0
f 366/14/55 367/14/55 369/14/55 368/14/55
f 368/14/56 369/14/56 373/14/56 372/14/56
f 372/14/57 373/14/57 371/14/57 370/14/57
f 370/14/58 371/14/58 367/14/58 366/14/58
f 368/14/59 372/14/59 370/14/59 366/14/59
f 373/14/60 369/14/60 367/14/60 371/14/60
o Cube.043
v -3.044833 0.786208 0.669171
v -3.044833 1.082158 0.669171
v -3.044833 0.786208 0.208774
v -3.044833 1.082158 0.208774
v -2.748883 0.786208 0.669171
v -2.748883 1.082158 0.669171
v -2.748883 0.786208 0.208774
v -2.748883 1.082158 0.208774
vn -1.0000 -0.0000 -0.0000
vn -0.0000 -0.0000 -1.0000
vn 1.0000 -0.0000 -0.0000
vn -0.0000 -0.0000 1.0000
vn -0.0000 -1.0000 -0.0000
vn -0.0000 1.0000 -0.0000
vt 0.312500 0.812500
s 0
f 374/15/61 375/15/61 377/15/61 376/15/61
f 376/15/62 377/15/62 381/15/62 380/15/62
f 380/15/63 381/15/63 379/15/63 378/15/63
f 378/15/64 379/15/64 375/15/64 374/15/64
f 376/15/65 380/15/65 378/15/65 374/15/65
f 381/15/66 377/15/66 375/15/66 379/15/66
o Cube.044
v -3.022950 1.090419 0.136860
v -3.022950 1.322336 0.136860
v -3.022950 1.090419 -0.177782
v -3.022950 1.322336 -0.177782
v -2.791034 1.090419 0.136860
v -2.791034 1.322336 0.136860
v -2.791034 1.090419 -0.177782
v -2.791034 1.322336 -0.177782
vn -1.0000 -0.0000 -0.0000
vn -0.0000 -0.0000 -1.0000
vn 1.0000 -0.0000 -0.0000
vn -0.0000 -0.0000 1.0000
vn -0.0000 -1.0000 -0.0000
vn -0.0000 1.0000 -0.0000
vt 0.312500 0.812500
s 0
f 382/16/67 383/16/67 385/16/67 384/16/67
f 384/16/68 385/16/68 389/16/68 388/16/68
f 388/16/69 389/16/69 387/16/69 386/16/69
f 386/16/70 387/16/70 383/16/70 382/16/70
f 384/16/71 388/16/71 386/16/71 382/16/71
f 389/16/72 385/16/72 383/16/72 387/16/72
o Cube.045
v -3.022950 1.117178 0.390374
v -3.022950 1.265560 0.390374
v -3.022950 1.117178 0.189065
v -3.022950 1.265560 0.189065
v -2.791034 1.117178 0.390374
v -2.791034 1.265560 0.390374
v -2.791034 1.117178 0.189065
v -2.791034 1.265560 0.189065
vn -1.0000 -0.0000 -0.0000
vn -0.0000 -0.0000 -1.0000
vn 1.0000 -0.0000 -0.0000
vn -0.0000 -0.0000 1.0000
vn -0.0000 -1.0000 -0.0000
vn -0.0000 1.0000 -0.0000
vt 0.312500 0.812500
s 0
f 390/17/73 391/17/73 393/17/73 392/17/73
f 392/17/74 393/17/74 397/17/74 396/17/74
f 396/17/75 397/17/75 395/17/75 394/17/75
f 394/17/76 395/17/76 391/17/76 390/17/76
f 392/17/77 396/17/77 394/17/77 390/17/77
f 397/17/78 393/17/78 391/17/78 395/17/78
o Cube.046
v -2.804073 0.495911 0.773114
v -2.804073 0.726943 0.752875
v -2.804073 0.468453 0.459673
v -2.804073 0.699485 0.439434
v -2.572157 0.495911 0.773114
v -2.572157 0.726943 0.752875
v -2.572157 0.468453 0.459673
v -2.572157 0.699485 0.439434
vn -1.0000 -0.0000 -0.0000
vn -0.0000 -0.0873 -0.9962
vn 1.0000 -0.0000 -0.0000
vn -0.0000 0.0873 0.9962
vn -0.0000 -0.9962 0.0873
vn -0.0000 0.9962 -0.0873
vt 0.312500 0.812500
s 0
f 398/18/79 399/18/79 401/18/79 400/18/79
f 400/18/80 401/18/80 405/18/80 404/18/80
f 404/18/81 405/18/81 403/18/81 402/18/81
f 402/18/82 403/18/82 399/18/82 398/18/82
f 400/18/83 404/18/83 402/18/83 398/18/83
f 405/18/84 401/18/84 399/18/84 403/18/84
o Cube.047
v -2.974310 0.309839 0.789414
v -2.974310 0.456165 0.776596
v -2.974310 0.282381 0.475974
v -2.974310 0.428707 0.463155
v -2.742394 0.309839 0.789414
v -2.742394 0.456165 0.776596
v -2.742394 0.282381 0.475974
v -2.742394 0.428707 0.463155
vn -1.0000 -0.0000 -0.0000
vn -0.0000 -0.0873 -0.9962
vn 1.0000 -0.0000 -0.0000
vn -0.0000 0.0873 0.9962
vn -0.0000 -0.9962 0.0873
vn -0.0000 0.9962 -0.0873
vt 0.312500 0.812500
s 0
f 406/19/85 407/19/85 409/19/85 408/19/85
f 408/19/86 409/19/86 413/19/86 412/19/86
f 412/19/87 413/19/87 411/19/87 410/19/87
f 410/19/88 411/19/88 407/19/88 406/19/88
f 408/19/89 412/19/89 410/19/89 406/19/89
f 413/19/90 409/19/90 407/19/90 411/19/90
o Cube.048
v -2.970609 0.745251 0.744364
v -2.970609 0.904303 0.730430
v -2.970609 0.717793 0.430923
v -2.970609 0.876844 0.416990
v -2.810948 0.745251 0.744364
v -2.810948 0.904303 0.730430
v -2.810948 0.717793 0.430923
v -2.810948 0.876844 0.416990
vn -1.0000 -0.0000 -0.0000
vn -0.0000 -0.0873 -0.9962
vn 1.0000 -0.0000 -0.0000
vn -0.0000 0.0873 0.9962
vn -0.0000 -0.9962 0.0873
vn -0.0000 0.9962 -0.0873
vt 0.312500 0.812500
s 0
f 414/20/91 415/20/91 417/20/91 416/20/91
f 416/20/92 417/20/92 421/20/92 420/20/92
f 420/20/93 421/20/93 419/20/93 418/20/93
f 418/20/94 419/20/94 415/20/94 414/20/94
f 416/20/95 420/20/95 418/20/95 414/20/95
f 421/20/96 417/20/96 415/20/96 419/20/96
o Cube.049
v -3.044833 0.064211 0.033381
v -3.044833 0.282437 0.033381
v -3.044833 0.064211 -0.306105
v -3.044833 0.282437 -0.306105
v -2.748883 0.064211 0.033381
v -2.748883 0.282437 0.033381
v -2.748883 0.064211 -0.306105
v -2.748883 0.282437 -0.306105
vn -1.0000 -0.0000 -0.0000
vn -0.0000 -0.0000 -1.0000
vn 1.0000 -0.0000 -0.0000
vn -0.0000 -0.0000 1.0000
vn -0.0000 -1.0000 -0.0000
vn -0.0000 1.0000 -0.0000
vt 0.312500 0.812500
s 0
f 422/21/97 423/21/97 425/21/97 424/21/97
f 424/21/98 425/21/98 429/21/98 428/21/98
f 428/21/99 429/21/99 427/21/99 426/21/99
f 426/21/100 427/21/100 423/21/100 422/21/100
f 424/21/101 428/21/101 426/21/101 422/21/101
f 429/21/102 425/21/102 423/21/102 427/21/102
o Cube.050
v -3.044833 0.235047 0.400261
v -3.044833 0.357577 0.400261
v -3.044833 0.235047 0.060775
v -3.044833 0.357577 0.060775
v -2.748883 0.235047 0.400261
v -2.748883 0.357577 0.400261
v -2.748883 0.235047 0.060775
v -2.748883 0.357577 0.060775
vn -1.0000 -0.0000 -0.0000
vn -0.0000 -0.0000 -1.0000
vn 1.0000 -0.0000 -0.0000
vn -0.0000 -0.0000 1.0000
vn -0.0000 -1.0000 -0.0000
vn -0.0000 1.0000 -0.0000
vt 0.312500 0.812500
s 0
f 430/22/103 431/22/103 433/22/103 432/22/103
f 432/22/104 433/22/104 437/22/104 436/22/104
f 436/22/105 437/22/105 435/22/105 434/22/105
f 434/22/106 435/22/106 431/22/106 430/22/106
f 432/22/107 436/22/107 434/22/107 430/22/107
f 437/22/108 433/22/108 431/22/108 435/22/108
