# Blender 5.0.1
# www.blender.org
o Cone.001
v 2.213786 0.029285 1.495076
v 1.885189 1.537967 2.511888
v 2.599483 0.027456 3.303180
v 0.840771 0.028585 2.733152
vn -0.6313 0.3342 -0.6999
vn -0.2906 0.3326 0.8972
vn -0.0003 -1.0000 -0.0009
vn 0.9222 0.3332 -0.1964
vt 0.062500 0.062500
s 0
f 1/1/1 4/1/1 2/1/1
f 2/1/2 4/1/2 3/1/2
f 3/1/3 4/1/3 1/1/3
f 3/1/4 1/1/4 2/1/4
o Cone.002
v 1.737664 0.030458 -1.186387
v 2.554551 2.258639 0.163957
v 4.128615 0.027755 0.132276
v 1.791144 0.029422 1.543569
vn -0.9423 0.3342 0.0186
vn 0.4876 0.3326 0.8072
vn -0.0009 -1.0000 -0.0004
vn 0.4556 0.3332 -0.8255
vt 0.062500 0.062500
s 0
f 5/2/5 8/2/5 6/2/5
f 6/2/6 8/2/6 7/2/6
f 7/2/7 8/2/7 5/2/7
f 7/2/8 5/2/8 6/2/8
o Cone.003
v 3.441150 0.031009 0.571548
v 3.432414 1.671918 1.733760
v 4.431931 0.029019 2.321332
v 2.421183 0.030247 2.304482
vn -0.8123 0.3342 -0.4780
vn -0.0077 0.3326 0.9430
vn -0.0006 -1.0000 -0.0008
vn 0.8206 0.3332 -0.4643
vt 0.062500 0.062500
s 0
f 9/3/9 12/3/9 10/3/9
f 10/3/10 12/3/10 11/3/10
f 11/3/11 12/3/11 9/3/11
f 11/3/12 9/3/12 10/3/12
o Cube.010
v -3.610076 0.029645 1.736984
v -3.610076 2.153009 1.736984
v -3.610076 0.029645 -1.439844
v -3.610076 2.153009 -1.439844
v 1.160181 0.029645 1.736984
v 1.160181 2.153009 1.736984
v 1.160181 0.029645 -1.439844
v 1.160181 2.153009 -1.439844
v -0.429905 0.029645 -1.439844
v -2.019991 0.029645 -1.439844
v -2.019991 2.153009 -1.439844
v -0.429905 2.153009 -1.439844
v -2.019991 0.029645 1.736984
v -0.429905 0.029645 1.736984
v -0.429905 2.153009 1.736984
v -2.019991 2.153009 1.736984
v -2.019991 3.338604 -1.439844
v -2.019991 3.338604 1.736984
v 1.160181 3.338604 -1.439844
v 1.160181 3.338604 1.736984
v -0.429905 3.338604 -1.439844
v -0.429905 3.338604 1.736984
v -3.610076 0.354762 1.736984
v -3.610076 0.354762 -1.439844
v 1.160181 0.354762 -1.439844
v 1.160181 0.354762 1.736984
v -0.429905 0.354762 1.736984
v -2.019991 0.354762 1.736984
v -2.019991 0.354762 -1.439844
v -0.429905 0.354762 -1.439844
v -3.691126 0.029645 -1.611550
v -3.691126 0.029645 1.908690
v -3.691126 0.354762 -1.611550
v -2.019991 0.029645 -1.682673
v 1.241230 0.354762 -1.611550
v 1.241230 0.029645 -1.611550
v 1.241230 0.029645 1.908690
v 1.241230 0.354762 1.908690
v -0.429905 0.029645 2.166419
v -0.429905 0.029645 -1.682673
v -2.019991 0.029645 2.166419
v -0.429905 0.354762 2.166419
v -2.019991 0.354762 2.166419
v -2.019991 0.354762 -1.682673
v -0.429905 0.354762 -1.682673
v -3.691126 0.354762 1.908690
v -0.112089 0.672579 -1.439844
v -0.112089 1.835193 -1.439844
v 0.842364 1.835193 -1.439844
v 0.842364 0.672579 -1.439844
v -2.337807 0.672579 1.736984
v -2.337807 1.835193 1.736984
v -3.292260 1.835193 1.736984
v -3.292260 0.672579 1.736984
v 0.842364 0.672579 1.736984
v 0.842364 1.835193 1.736984
v -0.112089 1.835193 1.736984
v -0.112089 0.672579 1.736984
v -3.292260 0.672579 -1.439844
v -3.292260 1.835193 -1.439844
v -2.337807 1.835193 -1.439844
v -2.337807 0.672579 -1.439844
v -1.702175 0.672579 -1.439844
v -1.702175 1.835193 -1.439844
v -0.747721 1.835193 -1.439844
v -0.747721 0.672579 -1.439844
v -0.112089 1.835193 -1.488997
v -0.112089 0.672579 -1.488997
v 0.842364 0.672579 -1.488997
v 0.842364 1.835193 -1.488997
v -2.337807 1.835193 1.786137
v -2.337807 0.672579 1.786137
v -3.292260 0.672579 1.786137
v -3.292260 1.835193 1.786137
v 0.842364 1.835193 1.786137
v 0.842364 0.672579 1.786137
v -0.112089 0.672579 1.786137
v -0.112089 1.835193 1.786137
v -3.292260 1.835193 -1.488997
v -3.292260 0.672579 -1.488997
v -2.337807 0.672579 -1.488997
v -2.337807 1.835193 -1.488997
v -1.702175 1.835193 -1.488997
v -1.702175 0.672579 -1.488997
v -0.747721 0.672579 -1.488997
v -0.747721 1.835193 -1.488997
v -0.018317 0.766350 -1.488997
v -0.018317 1.741422 -1.488997
v 0.748593 1.741422 -1.488997
v 0.748593 0.766350 -1.488997
v -2.431579 0.766350 1.786137
v -2.431579 1.741422 1.786137
v -3.198489 1.741422 1.786137
v -3.198489 0.766350 1.786137
v 0.748593 0.766350 1.786137
v 0.748593 1.741422 1.786137
v -0.018317 1.741422 1.786137
v -0.018317 0.766350 1.786137
v -3.198489 0.766350 -1.488997
v -3.198489 1.741422 -1.488997
v -2.431579 1.741422 -1.488997
v -2.431579 0.766350 -1.488997
v -1.608403 0.766350 -1.488997
v -1.608403 1.741422 -1.488997
v -0.841493 1.741422 -1.488997
v -0.841493 0.766350 -1.488997
v -0.018317 1.741422 -1.416795
v -0.018317 0.766350 -1.416795
v 0.748593 0.766350 -1.416795
v 0.748593 1.741422 -1.416795
v -2.431579 1.741422 1.713935
v -2.431579 0.766350 1.713935
v -3.198489 0.766350 1.713935
v -3.198489 1.741422 1.713935
v 0.748593 1.741422 1.713935
v 0.748593 0.766350 1.713935
v -0.018317 0.766350 1.713935
v -0.018317 1.741422 1.713935
v -3.198489 1.741422 -1.416795
v -3.198489 0.766350 -1.416795
v -2.431579 0.766350 -1.416795
v -2.431579 1.741422 -1.416795
v -1.608403 1.741422 -1.416795
v -1.608403 0.766350 -1.416795
v -0.841493 0.766350 -1.416795
v -0.841493 1.741422 -1.416795
v -2.019991 0.192204 2.737808
v -2.019991 0.192204 2.166419
v -0.429905 0.192204 2.166419
v -0.429905 0.029645 2.737808
v -0.429905 0.192204 2.737808
v -2.019991 0.029645 2.737808
v -0.754889 0.674021 1.736984
v -0.754890 1.833751 1.736984
v -1.695006 1.833751 1.736984
v -1.695006 0.674021 1.736984
v -0.754889 0.354762 2.166419
v -1.695006 0.354762 2.166419
v -0.754889 0.354762 1.736984
v -1.695006 0.354762 1.736984
v -0.830702 1.757938 1.786426
v -0.830702 0.674021 1.786426
v -1.695006 0.674021 1.786426
v -1.619194 1.757938 1.786426
v -0.754890 1.833751 1.786426
v -0.754889 0.674021 1.786426
v -1.695006 1.833751 1.786426
v -1.619194 0.674021 1.786426
v -0.754889 0.354762 1.786426
v -1.695006 0.354762 1.786426
v -0.830702 0.354762 1.786426
v -1.619194 0.354762 1.786426
v -0.830702 0.674021 1.727817
v -1.619194 0.674021 1.727817
v -0.830702 1.757938 1.727817
v -1.619194 1.757938 1.727817
v -0.830702 0.354762 1.727817
v -1.619194 0.354762 1.727817
v -3.610076 2.153009 0.148570
v 1.160181 2.153009 0.148570
v 1.160181 0.354762 0.148570
v -3.610076 0.354762 0.148570
v -3.610076 0.674568 -0.004581
v -3.610076 1.833204 -0.004581
v -3.610076 1.833204 -1.058113
v -3.610076 0.674568 -1.058113
v 1.160181 0.674568 0.313967
v 1.160181 1.833204 0.313967
v 1.160181 1.833204 1.367498
v 1.160181 0.674568 1.367498
v 1.160181 0.674568 -1.058113
v 1.160181 1.833204 -1.058113
v 1.160181 1.833204 -0.004581
v 1.160181 0.674568 -0.004581
v -3.610076 0.674568 1.367498
v -3.610076 1.833204 1.367498
v -3.610076 1.833204 0.313967
v -3.610076 0.674568 0.313967
v -3.664136 1.833204 -0.004581
v -3.664136 0.674568 -0.004581
v -3.664136 0.674568 -1.058113
v -3.664136 1.833204 -1.058113
v 1.214240 1.833204 0.313967
v 1.214240 0.674568 0.313967
v 1.214240 0.674568 1.367498
v 1.214240 1.833204 1.367498
v 1.214240 1.833204 -1.058113
v 1.214240 0.674568 -1.058113
v 1.214240 0.674568 -0.004581
v 1.214240 1.833204 -0.004581
v -3.664136 0.674568 1.367498
v -3.664136 1.833204 1.367498
v -3.664136 0.674568 0.313967
v -3.664136 1.833204 0.313967
v -3.664136 0.760696 -0.107610
v -3.664136 1.747076 -0.107610
v -3.664136 1.747076 -0.955084
v -3.664136 0.760696 -0.955084
v 1.214240 0.760696 0.416996
v 1.214240 1.747076 0.416996
v 1.214240 1.747076 1.264469
v 1.214240 0.760696 1.264469
v 1.214240 0.760696 -0.955084
v 1.214240 1.747076 -0.955084
v 1.214240 1.747076 -0.107610
v 1.214240 0.760696 -0.107610
v -3.664136 0.760696 1.264469
v -3.664136 1.747076 1.264469
v -3.664136 1.747076 0.416996
v -3.664136 0.760696 0.416996
v -3.620642 1.747076 -0.107610
v -3.620642 0.760696 -0.107610
v -3.620642 0.760696 -0.955084
v -3.620642 1.747076 -0.955084
v 1.170746 1.747076 0.416996
v 1.170746 0.760696 0.416996
v 1.170746 0.760696 1.264469
v 1.170746 1.747076 1.264469
v 1.170746 1.747076 -0.955084
v 1.170746 0.760696 -0.955084
v 1.170746 0.760696 -0.107610
v 1.170746 1.747076 -0.107610
v -3.620642 0.760696 1.264469
v -3.620642 1.747076 1.264469
v -3.620642 0.760696 0.416996
v -3.620642 1.747076 0.416996
v -3.691126 0.354762 -2.805859
v -3.691126 0.029645 -2.805859
v -2.019991 0.029645 -2.876982
v 1.241230 0.354762 -2.805859
v 1.241230 0.029645 -2.805859
v -0.429905 0.029645 -2.876982
v -2.019991 0.354762 -2.876982
v -0.429905 0.354762 -2.876982
v -3.588561 0.354762 -1.788329
v -2.122556 0.354762 -1.788329
v -2.122556 0.354762 -2.693302
v -3.588561 0.354762 -2.693302
v -0.327340 0.354762 -1.788329
v 1.138665 0.354762 -1.788329
v 1.138665 0.354762 -2.693302
v -0.327340 0.354762 -2.693302
v -1.917426 0.354762 -1.788329
v -0.532470 0.354762 -1.788329
v -0.532470 0.354762 -2.693302
v -1.917426 0.354762 -2.693302
v -3.588561 1.250053 -1.788329
v -2.122556 1.250053 -1.788329
v -3.588561 1.250053 -2.693302
v -2.122556 1.250053 -2.693302
v -0.327340 1.250053 -1.788329
v 1.138665 1.250053 -1.788329
v -0.327340 1.250053 -2.693302
v 1.138665 1.250053 -2.693302
v -1.917426 1.250053 -1.788329
v -0.532470 1.250053 -1.788329
v -1.917426 1.250053 -2.693302
v -0.532470 1.250053 -2.693302
vn -0.0000 -1.0000 -0.0000
vn 1.0000 -0.0000 -0.0000
vn -0.0000 1.0000 -0.0000
vn -0.5977 0.8017 -0.0000
vn -1.0000 -0.0000 -0.0000
vn -0.0000 -0.0000 -1.0000
vn -0.0000 -0.0000 1.0000
vn 0.1524 -0.0000 0.9883
vn -0.1524 -0.0000 0.9883
vn -0.0425 -0.0000 -0.9991
vn 0.0425 -0.0000 -0.9991
vt 0.562500 0.937500
vt 0.062500 0.812500
vt 0.562499 0.812502
vt 0.312500 0.562500
vt 0.562500 0.937500
vt 0.437500 0.562500
vt 0.062500 0.812500
vt 0.062500 0.312500
vt 0.062500 0.187500
vt 0.062500 0.562500
s 0
f 186/4/13 183/4/13 200/4/13 201/4/13
f 67/4/14 68/4/14 87/4/14 88/4/14
f 176/4/15 177/4/15 194/4/15 191/4/15
f 62/4/13 59/4/13 80/4/13 81/4/13
f 21/5/13 19/5/13 17/5/13 26/5/13
f 29/6/16 16/6/16 171/6/16 14/6/16 30/6/16
f 31/6/16 24/6/16 27/6/16 32/6/16
f 33/6/16 23/6/16 28/6/16 34/6/16
f 15/5/13 22/5/13 25/5/13 13/5/13
f 22/5/13 21/5/13 26/5/13 25/5/13
f 63/4/14 64/4/14 83/4/14 84/4/14
f 59/4/17 60/4/17 79/4/17 80/4/17
f 77/4/14 78/4/14 97/4/14 98/4/14
f 73/4/14 74/4/14 93/4/14 94/4/14
f 23/6/18 16/6/18 29/6/18
f 14/6/19 28/6/19 30/6/19
f 28/6/14 23/6/14 29/6/14 30/6/14
f 20/6/18 24/6/18 31/6/18
f 27/6/19 18/6/19 32/6/19
f 18/6/14 172/6/14 20/6/14 31/6/14 32/6/14
f 24/6/18 23/6/18 33/6/18
f 28/6/19 27/6/19 34/6/19
f 27/6/14 24/6/14 33/6/14 34/6/14
f 37/5/15 173/5/15 38/5/15 50/5/15 47/5/15
f 22/5/13 15/5/13 43/5/13 46/5/13
f 40/5/15 35/5/15 58/5/15 55/5/15
f 26/5/13 17/5/13 49/5/13 51/5/13
f 38/5/15 39/5/15 54/5/15 50/5/15
f 25/5/13 26/5/13 51/5/13 53/5/13
f 39/5/15 151/5/15 149/5/15 54/5/15
f 13/5/13 25/5/13 53/5/13 44/5/13
f 46/5/13 43/5/13 240/5/13 241/5/13
f 254/7/17 251/7/17 263/7/17 265/7/17
f 141/5/19 54/5/19 149/5/19 150/5/19 55/5/19 140/5/19
f 49/5/20 50/5/20 54/5/20 141/5/20 51/5/20
f 53/5/21 140/5/21 55/5/21 58/5/21 44/5/21
f 48/5/14 47/5/14 50/5/14 49/5/14
f 52/5/13 46/5/13 241/5/13 244/5/13
f 44/5/17 58/5/17 45/5/17 43/5/17
f 19/5/13 21/5/13 52/5/13 48/5/13
f 42/5/15 37/5/15 47/5/15 57/5/15
f 21/5/13 22/5/13 46/5/13 52/5/13
f 35/5/15 174/5/15 36/5/15 45/5/15 58/5/15
f 41/5/15 42/5/15 57/5/15 56/5/15
f 17/5/13 19/5/13 48/5/13 49/5/13
f 15/5/13 13/5/13 44/5/13 43/5/13
f 36/5/15 41/5/15 56/5/15 45/5/15
f 42/6/18 24/6/18 60/6/18 59/6/18
f 24/6/18 20/6/18 61/6/18 60/6/18
f 20/6/18 37/6/18 62/6/18 61/6/18
f 37/6/18 42/6/18 59/6/18 62/6/18
f 40/6/19 28/6/19 64/6/19 63/6/19
f 28/6/19 14/6/19 65/6/19 64/6/19
f 14/6/19 35/6/19 66/6/19 65/6/19
f 35/6/19 40/6/19 63/6/19 66/6/19
f 38/6/19 18/6/19 68/6/19 67/6/19
f 18/6/19 27/6/19 69/6/19 68/6/19
f 27/6/19 39/6/19 70/6/19 69/6/19
f 39/6/19 38/6/19 67/6/19 70/6/19
f 36/6/18 16/6/18 72/6/18 71/6/18
f 16/6/18 23/6/18 73/6/18 72/6/18
f 23/6/18 41/6/18 74/6/18 73/6/18
f 41/6/18 36/6/18 71/6/18 74/6/18
f 41/6/18 23/6/18 76/6/18 75/6/18
f 23/6/18 24/6/18 77/6/18 76/6/18
f 24/6/18 42/6/18 78/6/18 77/6/18
f 42/6/18 41/6/18 75/6/18 78/6/18
f 109/4/14 110/4/14 129/4/14 130/4/14
f 118/4/15 115/4/15 136/4/15 137/4/15
f 105/8/14 106/8/14 125/4/14 126/4/14
f 114/4/15 111/4/15 132/4/15 133/4/15
f 108/4/13 109/4/13 130/4/13 127/4/13
f 66/4/13 63/4/13 84/4/13 85/4/13
f 60/4/15 61/4/15 82/4/15 79/4/15
f 70/4/13 67/4/13 88/4/13 89/4/13
f 71/4/17 72/4/17 91/4/17 92/4/17
f 64/4/15 65/4/15 86/4/15 83/4/15
f 75/4/17 76/4/17 95/4/17 96/4/17
f 61/4/14 62/4/14 81/4/14 82/4/14
f 68/4/15 69/4/15 90/4/15 87/4/15
f 74/4/13 71/4/13 92/4/13 93/4/13
f 65/4/17 66/4/17 85/4/17 86/4/17
f 78/4/13 75/4/13 96/4/13 97/4/13
f 69/4/17 70/4/17 89/4/17 90/4/17
f 72/4/15 73/4/15 94/4/15 91/4/15
f 76/4/15 77/4/15 98/4/15 95/4/15
f 80/4/18 79/4/18 100/4/18 99/4/18
f 79/4/18 82/4/18 101/4/18 100/4/18
f 82/4/18 81/4/18 102/4/18 101/4/18
f 81/4/18 80/4/18 99/4/18 102/4/18
f 84/4/19 83/4/19 104/4/19 103/4/19
f 83/4/19 86/4/19 105/4/19 104/4/19
f 86/4/19 85/4/19 106/4/19 105/4/19
f 85/4/19 84/4/19 103/4/19 106/4/19
f 88/4/19 87/4/19 108/4/19 107/4/19
f 87/4/19 90/4/19 109/4/19 108/4/19
f 90/4/19 89/4/19 110/4/19 109/4/19
f 89/4/19 88/4/19 107/4/19 110/4/19
f 92/4/18 91/4/18 112/4/18 111/4/18
f 91/4/18 94/4/18 113/4/18 112/4/18
f 94/4/18 93/4/18 114/4/18 113/4/18
f 93/4/18 92/4/18 111/4/18 114/4/18
f 96/4/18 95/4/18 116/4/18 115/4/18
f 95/4/18 98/4/18 117/4/18 116/4/18
f 98/4/18 97/4/18 118/4/18 117/4/18
f 97/4/18 96/4/18 115/4/18 118/4/18
f 120/9/18 119/9/18 122/9/18 121/9/18
f 124/9/19 123/9/19 126/9/19 125/9/19
f 128/9/19 127/9/19 130/9/19 129/9/19
f 132/9/18 131/9/18 134/9/18 133/9/18
f 136/9/18 135/9/18 138/9/18 137/9/18
f 112/4/13 113/4/13 134/4/13 131/4/13
f 116/4/13 117/4/13 138/4/13 135/4/13
f 113/4/17 114/4/17 133/4/17 134/4/17
f 117/4/17 118/4/17 137/4/17 138/4/17
f 99/4/14 100/4/14 119/4/14 120/4/14
f 103/4/17 104/4/17 123/4/17 124/4/17
f 102/4/15 99/4/15 120/4/15 121/4/15
f 107/4/17 108/4/17 127/4/17 128/4/17
f 106/4/15 103/4/15 124/4/15 125/4/15
f 100/4/13 101/4/13 122/4/13 119/4/13
f 110/4/15 107/4/15 128/4/15 129/4/15
f 111/4/14 112/4/14 131/4/14 132/4/14
f 104/4/13 105/4/13 126/4/13 123/4/13
f 115/4/14 116/4/14 135/4/14 136/4/14
f 101/4/17 102/4/17 121/4/17 122/4/17
f 146/4/15 147/4/15 159/4/15 157/4/15
f 140/5/17 53/5/17 144/5/17 139/5/17
f 51/5/14 141/5/14 143/5/14 142/5/14
f 53/5/13 51/5/13 142/10/13 144/5/13
f 142/5/19 143/5/19 139/5/19 144/5/19
f 141/5/15 140/5/15 139/5/15 143/5/15
f 39/6/19 27/6/19 146/6/19 145/6/19
f 27/6/19 28/6/19 147/6/19 146/6/19
f 28/6/19 40/6/19 148/6/19 147/6/19
f 40/6/19 152/6/19 148/6/19
f 154/4/19 163/4/19 161/4/19 158/4/19
f 150/5/15 152/5/15 40/5/15 55/5/15
f 148/4/17 152/4/17 162/4/17 155/4/17
f 145/6/19 151/6/19 39/6/19
f 162/5/15 152/5/15 150/5/15 164/5/15
f 160/4/14 164/4/14 170/4/14 166/4/14
f 145/4/14 146/4/14 157/4/14 158/4/14
f 151/4/14 145/4/14 158/4/14 161/4/14
f 147/4/17 148/4/17 155/4/17 159/4/17
f 153/4/19 154/4/19 158/4/19 157/4/19
f 156/4/19 153/4/19 157/4/19 159/4/19
f 160/4/19 156/4/19 159/4/19 155/4/19
f 166/11/19 170/11/19 169/11/19 165/11/19
f 153/4/13 156/4/13 168/4/13 167/4/13
f 160/4/19 155/4/19 162/4/19 164/4/19
f 165/11/19 167/11/19 168/11/19 166/11/19
f 154/4/17 165/4/17 169/4/17 163/4/17
f 164/5/15 150/5/15 149/5/15 163/5/15
f 156/4/14 160/4/14 166/4/14 168/4/14
f 154/4/17 153/4/17 167/4/17 165/4/17
f 164/5/15 163/5/15 169/5/15 170/5/15
f 163/5/15 149/5/15 151/5/15 161/5/15
f 187/4/19 188/4/19 204/4/19 203/4/19
f 182/4/13 179/4/13 196/4/13 197/4/13
f 174/6/17 171/6/17 176/6/17 175/6/17
f 171/6/17 16/6/17 177/6/17 176/6/17
f 16/6/17 36/6/17 178/6/17 177/6/17
f 36/6/17 174/6/17 175/6/17 178/6/17
f 173/6/14 172/6/14 180/6/14 179/6/14
f 172/6/14 18/6/14 181/6/14 180/6/14
f 18/6/14 38/6/14 182/6/14 181/6/14
f 38/6/14 173/6/14 179/6/14 182/6/14
f 37/6/14 20/6/14 184/6/14 183/6/14
f 20/6/14 172/6/14 185/6/14 184/6/14
f 172/6/14 173/6/14 186/6/14 185/6/14
f 173/6/14 37/6/14 183/6/14 186/6/14
f 35/6/17 14/6/17 188/6/17 187/6/17
f 14/6/17 171/6/17 189/6/17 188/6/17
f 171/6/17 174/6/17 190/6/17 189/6/17
f 174/6/17 35/6/17 187/6/17 190/6/17
f 211/4/19 212/4/19 227/4/19 228/4/19
f 207/4/18 208/4/18 223/4/18 224/4/18
f 221/8/19 222/8/19 237/8/19 238/8/19
f 217/8/18 218/8/18 233/8/18 234/8/18
f 180/4/15 181/4/15 198/4/15 195/4/15
f 190/4/13 187/4/13 203/4/13 205/4/13
f 177/8/18 178/8/18 193/8/18 194/8/18
f 184/8/15 185/8/15 202/4/15 199/4/15
f 181/4/19 182/4/19 197/4/19 198/4/19
f 188/4/15 189/4/15 206/4/15 204/4/15
f 185/8/19 186/8/19 201/8/19 202/8/19
f 189/4/18 190/4/18 205/4/18 206/4/18
f 175/4/19 176/4/19 191/4/19 192/4/19
f 179/4/18 180/4/18 195/4/18 196/4/18
f 178/4/13 175/4/13 192/4/13 193/4/13
f 183/4/18 184/4/18 199/4/18 200/4/18
f 192/4/17 191/4/17 208/4/17 207/4/17
f 191/4/17 194/4/17 209/4/17 208/4/17
f 194/4/17 193/4/17 210/4/17 209/4/17
f 193/4/17 192/4/17 207/4/17 210/4/17
f 196/4/14 195/4/14 212/4/14 211/4/14
f 195/4/14 198/4/14 213/4/14 212/4/14
f 198/4/14 197/4/14 214/4/14 213/4/14
f 197/4/14 196/4/14 211/4/14 214/4/14
f 200/4/14 199/4/14 216/4/14 215/4/14
f 199/4/14 202/4/14 217/4/14 216/4/14
f 202/4/14 201/4/14 218/4/14 217/4/14
f 201/4/14 200/4/14 215/4/14 218/4/14
f 203/4/17 204/4/17 220/4/17 219/4/17
f 204/4/17 206/4/17 221/4/17 220/4/17
f 206/4/17 205/4/17 222/4/17 221/4/17
f 205/4/17 203/4/17 219/4/17 222/4/17
f 224/9/17 223/9/17 226/9/17 225/9/17
f 228/9/14 227/9/14 230/9/14 229/9/14
f 232/9/14 231/9/14 234/9/14 233/9/14
f 235/9/17 236/9/17 238/9/17 237/9/17
f 210/4/15 207/4/15 224/4/15 225/4/15
f 215/4/19 216/4/19 231/4/19 232/4/19
f 214/4/15 211/4/15 228/4/15 229/4/15
f 219/4/18 220/4/18 236/4/18 235/4/18
f 208/4/13 209/4/13 226/4/13 223/4/13
f 218/4/15 215/4/15 232/4/15 233/4/15
f 212/4/13 213/4/13 230/4/13 227/4/13
f 222/4/15 219/4/15 235/4/15 237/4/15
f 209/4/19 210/4/19 225/4/19 226/4/19
f 216/4/13 217/4/13 234/4/13 231/4/13
f 213/4/18 214/4/18 229/4/18 230/4/18
f 220/4/13 221/4/13 238/4/13 236/4/13
f 241/5/18 245/5/18 246/5/18 244/5/18
f 240/5/22 239/5/22 245/5/22 241/5/22
f 244/5/23 246/5/23 242/5/23 243/5/23
f 248/12/14 249/12/14 262/12/14 260/12/14
f 48/5/13 52/5/13 244/5/13 243/5/13
f 257/13/18 258/13/18 269/13/18 270/13/18
f 47/5/14 48/5/14 243/5/14 242/5/14
f 43/5/17 45/5/17 239/5/17 240/5/17
f 45/5/15 56/5/15 248/5/15 247/5/15
f 56/5/15 245/5/15 249/5/15 248/5/15
f 245/5/15 239/5/15 250/5/15 249/5/15
f 239/5/15 45/5/15 247/5/15 250/5/15
f 57/5/15 47/5/15 252/5/15 251/5/15
f 47/5/15 242/5/15 253/5/15 252/5/15
f 242/5/15 246/5/15 254/5/15 253/5/15
f 246/5/15 57/5/15 251/5/15 254/5/15
f 56/5/15 57/5/15 256/5/15 255/5/15
f 57/5/15 246/5/15 257/5/15 256/5/15
f 246/5/15 245/5/15 258/5/15 257/5/15
f 245/5/15 56/5/15 255/5/15 258/5/15
f 259/12/15 260/12/15 262/12/15 261/12/15
f 263/7/15 264/7/15 266/7/15 265/7/15
f 267/13/15 268/13/15 270/13/15 269/13/15
f 255/13/19 256/13/19 268/13/19 267/13/19
f 249/12/18 250/12/18 261/12/18 262/12/18
f 252/7/14 253/7/14 266/7/14 264/7/14
f 258/13/17 255/13/17 267/13/17 269/13/17
f 247/12/19 248/12/19 260/12/19 259/12/19
f 253/7/18 254/7/18 265/7/18 266/7/18
f 256/13/14 257/13/14 270/13/14 268/13/14
f 250/12/17 247/12/17 259/12/17 261/12/17
f 251/7/19 252/7/19 264/7/19 263/7/19
o Cube.016
v -3.806263 1.769630 1.998013
v -1.840251 3.320112 1.998012
v -3.806263 1.769631 -1.700872
v -1.840252 3.320112 -1.700872
v -4.027251 2.049843 -1.700872
v -4.027251 2.049843 1.998013
v -2.061239 3.600324 1.998012
v -2.061239 3.600324 -1.700872
v -3.758228 2.184488 -1.363077
v -3.758228 2.184488 1.660217
v -2.254879 3.370093 1.660217
v -2.254879 3.370093 -1.363077
v -3.902264 2.148413 1.838834
v -2.186225 3.501755 1.838834
v -3.902265 2.148413 -1.541694
v -2.186226 3.501755 -1.541694
v -2.158535 1.771108 1.998013
v -0.179388 3.304788 1.998012
v -2.158535 1.771108 -1.700872
v -0.179388 3.304788 -1.700872
v -2.377128 2.053193 -1.700872
v -2.377128 2.053192 1.998013
v -0.397981 3.586872 1.998012
v -0.397981 3.586872 -1.700872
v -2.106967 2.185541 -1.363077
v -2.106967 2.185541 1.660217
v -0.593575 3.358299 1.660217
v -0.593575 3.358299 -1.363077
v -2.251306 2.150694 1.838834
v -0.523803 3.489371 1.838834
v -2.251306 2.150694 -1.541694
v -0.523803 3.489371 -1.541694
v -0.510793 1.772616 1.998013
v 1.481345 3.289382 1.998012
v -0.510794 1.772616 -1.700872
v 1.481345 3.289382 -1.700872
v -0.726976 2.056552 -1.700872
v -0.726976 2.056552 1.998013
v 1.265162 3.573318 1.998012
v 1.265162 3.573318 -1.700872
v -0.455698 2.186595 -1.363077
v -0.455698 2.186595 1.660217
v 1.067629 3.346419 1.660217
v 1.067629 3.346419 -1.363077
v -0.600328 2.152978 1.838834
v 1.138515 3.476892 1.838834
v -0.600328 2.152978 -1.541694
v 1.138515 3.476892 -1.541694
vn -0.0000 -0.0000 -1.0000
vn 0.6192 -0.7852 -0.0000
vn -0.0000 -0.0000 1.0000
vn -0.7852 -0.6192 -0.0000
vn 0.7852 0.6192 -0.0000
vn -0.6192 0.7852 -0.0000
vn -0.2430 0.9700 -0.0000
vn -0.5861 0.7432 -0.3226
vn -0.8867 0.4624 -0.0000
vn -0.5861 0.7432 0.3226
vn 0.6125 -0.7904 -0.0000
vn -0.7904 -0.6125 -0.0000
vn 0.7904 0.6125 -0.0000
vn -0.6125 0.7904 -0.0000
vn -0.2347 0.9721 -0.0000
vn -0.5798 0.7482 -0.3226
vn -0.8827 0.4699 -0.0000
vn -0.5798 0.7482 0.3226
vn 0.6058 -0.7956 -0.0000
vn -0.7956 -0.6058 -0.0000
vn 0.7956 0.6058 -0.0000
vn -0.6058 0.7956 -0.0000
vn -0.2264 0.9740 -0.0000
vn -0.5734 0.7531 -0.3226
vn -0.8787 0.4774 -0.0000
vn -0.5734 0.7531 0.3226
vt 0.062500 0.187500
s 0
f 275/14/24 278/14/24 274/14/24 273/14/24
f 273/14/25 274/14/25 272/14/25 271/14/25
f 271/14/26 272/14/26 277/14/26 276/14/26
f 275/14/27 273/14/27 271/14/27 276/14/27
f 274/14/28 278/14/28 277/14/28 272/14/28
f 282/14/29 279/14/29 280/14/29 281/14/29
f 285/14/30 283/14/30 280/14/30 279/14/30
f 283/14/31 284/14/31 281/14/31 280/14/31
f 284/14/32 286/14/32 282/14/32 281/14/32
f 286/14/33 285/14/33 279/14/33 282/14/33
f 283/14/29 285/14/29 275/14/29 276/14/29
f 284/14/29 283/14/29 276/14/29 277/14/29
f 286/14/29 284/14/29 277/14/29 278/14/29
f 285/14/29 286/14/29 278/14/29 275/14/29
f 291/14/24 294/14/24 290/14/24 289/14/24
f 289/14/34 290/14/34 288/14/34 287/14/34
f 287/14/26 288/14/26 293/14/26 292/14/26
f 291/14/35 289/14/35 287/14/35 292/14/35
f 290/14/36 294/14/36 293/14/36 288/14/36
f 298/14/37 295/14/37 296/14/37 297/14/37
f 301/14/38 299/14/38 296/14/38 295/14/38
f 299/14/39 300/14/39 297/14/39 296/14/39
f 300/14/40 302/14/40 298/14/40 297/14/40
f 302/14/41 301/14/41 295/14/41 298/14/41
f 299/14/37 301/14/37 291/14/37 292/14/37
f 300/14/37 299/14/37 292/14/37 293/14/37
f 302/14/37 300/14/37 293/14/37 294/14/37
f 301/14/37 302/14/37 294/14/37 291/14/37
f 307/14/24 310/14/24 306/14/24 305/14/24
f 305/14/42 306/14/42 304/14/42 303/14/42
f 303/14/26 304/14/26 309/14/26 308/14/26
f 307/14/43 305/14/43 303/14/43 308/14/43
f 306/14/44 310/14/44 309/14/44 304/14/44
f 314/14/45 311/14/45 312/14/45 313/14/45
f 317/14/46 315/14/46 312/14/46 311/14/46
f 315/14/47 316/14/47 313/14/47 312/14/47
f 316/14/48 318/14/48 314/14/48 313/14/48
f 318/14/49 317/14/49 311/14/49 314/14/49
f 315/14/45 317/14/45 307/14/45 308/14/45
f 316/14/45 315/14/45 308/14/45 309/14/45
f 318/14/45 316/14/45 309/14/45 310/14/45
f 317/14/45 318/14/45 310/14/45 307/14/45
