# Blender 5.0.1
# www.blender.org
o Cube.030
v -2.590085 4.050232 0.318179
v -1.240687 5.399630 0.318179
v -1.240687 4.050232 -1.031219
v -1.240687 4.050232 1.667576
v 0.108710 4.050232 0.318179
v -1.240687 2.700834 0.318179
vn -0.5774 0.5774 -0.5774
vn 0.5774 0.5774 -0.5774
vn 0.5774 0.5774 0.5774
vn -0.5774 0.5774 0.5774
vn -0.5774 -0.5774 0.5774
vn 0.5774 -0.5774 -0.5774
vn -0.5774 -0.5774 -0.5774
vn 0.5774 -0.5774 0.5774
vt 0.312500 0.062500
s 0
f 1/1/1 2/1/1 3/1/1
f 3/1/2 2/1/2 5/1/2
f 5/1/3 2/1/3 4/1/3
f 4/1/4 2/1/4 1/1/4
f 4/1/5 1/1/5 6/1/5
f 3/1/6 5/1/6 6/1/6
f 1/1/7 3/1/7 6/1/7
f 5/1/8 4/1/8 6/1/8
o Cube.031
v -3.390691 2.249524 2.543060
v -3.390691 2.249524 -1.906702
v 3.355557 2.249524 2.543060
v 3.355557 2.249524 -1.906702
v -0.201354 1.411187 -1.906702
v 0.898386 2.249524 -1.906702
v 0.898386 2.249524 2.543060
v -2.280021 1.411187 -1.906702
v -1.240687 1.210191 -1.906702
v -0.201354 1.411187 2.543060
v -2.280021 1.411187 2.543060
v -1.240687 1.210191 2.543060
v -2.280021 2.249524 -0.794262
v -2.280021 2.249524 0.318179
v -2.280021 2.249524 1.430619
v -0.201354 2.249524 1.430619
v -0.201354 2.249524 0.318179
v -0.201354 2.249524 -0.794262
v 0.991871 2.249524 -1.906702
v 0.898386 2.249524 -0.794262
v 0.898386 2.249524 1.430619
v -3.390691 1.411187 1.430619
v -3.390691 1.411187 -0.794262
v -2.031275 2.249524 1.679365
v -2.031275 2.249524 2.294314
v -0.450100 2.249524 2.294314
v -0.450100 2.249524 1.679365
v -2.031275 2.249524 -1.657956
v -2.031275 2.249524 -1.043007
v -0.450100 2.249524 -1.043007
v -0.450100 2.249524 -1.657956
v 0.649641 2.249524 -0.545516
v 0.047392 2.249524 -0.545516
v 0.047392 2.249524 0.318179
v 0.047392 2.249524 1.181874
v 0.649641 2.249524 1.181874
v -2.528767 2.249524 -0.545516
v -3.141945 2.249524 -0.545516
v -3.141945 2.249524 1.181874
v -2.528767 2.249524 1.181874
v -2.528767 2.249524 0.318179
v -1.596237 3.247960 0.929190
v -1.596237 3.247960 1.205229
v -0.886477 3.247960 0.929190
v -0.886477 3.247960 1.205229
v -1.596237 3.247960 -0.568872
v -1.596237 3.247960 -0.292832
v -0.886477 3.247960 -0.568872
v -0.886477 3.247960 -0.292832
v -0.663162 3.247960 -0.069518
v -0.392824 3.247960 -0.069518
v -0.392824 3.247960 0.705875
v -0.663162 3.247960 0.318179
v -0.663162 3.247960 0.705875
v -1.819552 3.247960 -0.069518
v -2.094796 3.247960 -0.069518
v -1.819552 3.247960 0.318179
v -2.094796 3.247960 0.705875
v -1.819552 3.247960 0.705875
v 0.991871 2.249524 2.543060
v 3.355557 2.249524 -0.423448
v 3.355557 2.249524 1.059806
v 0.991871 2.249524 1.059806
v 0.991871 2.249524 -0.423448
v 0.991871 3.168252 1.059806
v 3.355557 3.168252 1.059806
v 0.991871 3.168252 -1.906702
v 3.355557 3.168252 -1.906702
v 0.991871 3.168252 -0.423448
v 3.355557 3.168252 -0.423448
v -1.240687 0.062701 -1.906702
v 3.355557 0.062701 -1.906702
v 0.829871 0.133595 2.543060
v 0.925963 0.133596 2.543060
v -3.284424 0.133595 2.543060
v 0.829871 0.133595 -1.906702
v -1.240687 0.062701 2.543060
v 3.355557 0.062701 2.543060
v 0.925963 0.133596 -1.906702
v -3.282674 0.062701 -1.906702
v -3.517041 -0.141456 -2.158787
v -3.517041 -0.141456 2.795145
v -3.534572 0.050258 -2.150990
v -1.240687 -0.141456 -2.257821
v 3.603835 0.062701 -2.154980
v 3.603835 -0.141456 -2.154980
v 3.603835 -0.141456 2.791338
v 3.603835 0.062701 2.791338
v 0.920016 -0.141456 2.894178
v 0.920016 -0.141456 -2.257821
v 0.823689 -0.141456 -2.257821
v -1.240687 -0.141456 2.894178
v 0.823689 -0.141456 2.894178
v 0.829871 0.062701 2.894178
v 0.829871 0.062701 -2.257821
v -1.240687 0.062701 -2.257821
v -1.240687 0.062701 2.894178
v 0.925963 0.062701 2.894178
v 0.925963 0.062701 -2.257821
v -3.534572 0.050258 2.787348
v 0.859445 1.006625 -1.906702
v -3.327549 0.935731 2.543060
v -1.240687 1.006625 2.543060
v -1.240687 1.006625 -1.906702
v 3.355557 1.006625 2.543060
v 3.355557 1.006625 -1.906702
v 0.954412 1.006625 -1.906702
v 0.859445 1.006625 2.543060
v -3.329299 1.006625 -1.906702
v 0.954412 1.006625 2.543060
v -1.240687 0.133595 -1.906702
v 0.829871 0.062701 -1.906702
v 0.829871 0.062701 2.543060
v -1.240687 0.133595 2.543060
v -3.282674 0.062701 2.543060
v 0.925963 0.062701 -1.906702
v 0.925963 0.062701 2.543060
v -3.284424 0.133595 -1.906702
v 3.355557 0.133595 -1.906702
v 3.355557 0.133595 2.543060
v 0.859445 0.935731 2.543060
v -1.240687 0.935731 2.543060
v -3.329299 1.006625 2.543060
v 0.954412 0.935731 -1.906702
v 0.859445 0.935731 -1.906702
v 0.954412 0.935731 2.543060
v -3.327549 0.935731 -1.906702
v 3.355557 0.935731 -1.906702
v -1.240687 0.935731 -1.906702
v 3.355557 0.935731 2.543060
v -1.240687 0.935731 -1.795962
v -1.240687 0.133595 -1.795962
v 3.277252 0.935731 -1.828397
v 3.277252 0.133595 -1.828397
v 0.859445 0.935731 2.432320
v 0.829871 0.133595 2.432320
v 0.954412 0.935731 2.432320
v 0.925963 0.133596 2.432320
v 0.859445 0.935731 -1.795962
v 0.829871 0.133595 -1.795962
v -1.240687 0.935731 2.432320
v -1.240687 0.133595 2.432320
v 3.277252 0.935731 2.464755
v 3.277252 0.133595 2.464755
v 0.954412 0.935731 -1.795962
v 0.925963 0.133596 -1.795962
v -3.248010 0.940007 -1.829770
v -3.207556 0.137728 -1.827093
v -3.207556 0.137728 2.463451
v -3.248010 0.940007 2.466128
v -2.211760 1.460609 2.528396
v -0.269615 1.460609 2.528396
v -0.489032 2.200102 2.308978
v -1.992342 2.200102 2.308978
v -0.269615 1.460609 -1.892038
v -2.211760 1.460609 -1.892038
v -1.992342 2.200102 -1.672621
v -0.489032 2.200102 -1.672621
v -3.376027 1.460609 -0.726001
v -3.376027 1.460609 1.362358
v -3.156610 2.200102 1.142941
v -3.156610 2.200102 -0.506583
v -3.104635 2.285099 -0.474286
v -3.104635 2.285099 1.110644
v -2.132106 3.212386 0.668565
v -2.132106 3.212386 -0.032208
v -0.519079 2.284361 -1.619957
v -1.962356 2.284361 -1.619957
v -1.557676 3.213123 -0.606871
v -0.925004 3.213123 -0.606871
v -1.962356 2.284361 2.256315
v -0.519079 2.284361 2.256315
v -0.925004 3.213123 1.243229
v -1.557676 3.213123 1.243229
v 0.612410 2.285182 1.110592
v 0.612410 2.285182 -0.474234
v -0.355593 3.212302 -0.032235
v -0.355593 3.212302 0.668593
v -0.269615 1.466841 2.549397
v -0.299911 1.495283 2.564824
v -2.181464 1.495283 2.564824
v -2.211760 1.466841 2.549397
v -1.975063 2.190907 2.358423
v -1.992342 2.206334 2.329980
v -0.489032 2.206334 2.329980
v -0.506311 2.190907 2.358423
v -2.211760 1.466841 -1.913039
v -2.181464 1.495283 -1.928466
v -0.299911 1.495283 -1.928466
v -0.269615 1.466841 -1.913039
v -0.506311 2.190907 -1.722065
v -0.489032 2.206334 -1.693622
v -1.992342 2.206334 -1.693622
v -1.975063 2.190907 -1.722065
v -3.397029 1.466841 1.362358
v -3.412455 1.495283 1.332063
v -3.412455 1.495283 -0.695705
v -3.397029 1.466841 -0.726001
v -3.206054 2.190907 -0.489304
v -3.177611 2.206334 -0.506583
v -3.177611 2.206334 1.142941
v -3.206054 2.190907 1.125662
v -3.119753 2.300953 1.110644
v -3.118983 2.333301 1.079031
v -3.118982 2.333301 -0.442673
v -3.119753 2.300953 -0.474286
v -2.179571 3.229011 -0.015649
v -2.147223 3.228240 -0.032208
v -2.147223 3.228240 0.668565
v -2.179571 3.229011 0.652007
v -1.962356 2.300508 -1.634760
v -1.931768 2.332835 -1.633357
v -0.549693 2.332835 -1.633357
v -0.519079 2.300508 -1.634760
v -0.942103 3.230675 -0.654001
v -0.925004 3.229271 -0.621675
v -1.557676 3.229271 -0.621675
v -1.540562 3.230675 -0.654001
v -0.519079 2.300508 2.271118
v -0.549693 2.332835 2.269714
v -1.931768 2.332835 2.269714
v -1.962356 2.300508 2.271118
v -1.540562 3.230675 1.290359
v -1.557676 3.229271 1.258033
v -0.925004 3.229271 1.258033
v -0.942103 3.230675 1.290359
v 0.627563 2.301003 -0.474234
v 0.626865 2.333352 -0.442598
v 0.626865 2.333352 1.078955
v 0.627563 2.301003 1.110592
v -0.308091 3.228821 0.652046
v -0.340441 3.228123 0.668593
v -0.340441 3.228123 -0.032235
v -0.308091 3.228821 -0.015688
vn -0.0000 1.0000 -0.0000
vn -0.0000 -0.0000 -1.0000
vn -0.0493 0.9988 -0.0000
vn 0.9163 0.4005 -0.0000
vn -0.0000 -0.0000 1.0000
vn -0.3359 0.8814 -0.3321
vn -0.8147 -0.5798 -0.0000
vn -0.3359 0.8814 0.3321
vn -0.0000 -0.6007 0.7995
vn -0.8348 0.4954 0.2404
vn 0.8348 0.4954 0.2404
vn -0.8348 0.4954 -0.2404
vn 0.8348 0.4954 -0.2404
vn -0.2409 0.4953 -0.8347
vn -0.2409 0.4953 0.8347
vn -0.0000 0.4303 -0.9027
vn 0.8153 -0.5791 -0.0000
vn -0.0000 0.4303 0.9027
vn -0.9168 0.3994 -0.0000
vn -0.0000 -0.6007 -0.7995
vn 1.0000 -0.0000 -0.0000
vn -0.0000 0.8501 0.5266
vn -1.0000 -0.0000 -0.0000
vn -0.9958 -0.0911 -0.0000
vn -0.0000 -1.0000 -0.0000
vn 0.0012 0.9998 0.0222
vn -0.0012 -0.9997 0.0233
vn 0.0383 -0.0006 -0.9993
vn -0.0450 0.0177 -0.9988
vn -0.0450 0.0177 0.9988
vn 0.0383 -0.0006 0.9993
vn -0.0033 0.9998 -0.0195
vn -0.0033 0.9998 0.0195
vn -0.9950 -0.0995 -0.0000
vn -0.9997 -0.0247 -0.0000
vn 0.0163 -0.0013 0.9999
vn -0.9987 -0.0504 -0.0000
vn -0.0139 0.0002 -0.9999
vn 0.0163 -0.0013 -0.9999
vn -0.0139 0.0002 0.9999
vn -0.0012 -0.9997 -0.0233
vn -0.0537 0.9986 -0.0000
vn 0.0537 -0.9986 -0.0000
vn 0.0012 0.9998 -0.0222
vn -0.0000 0.2845 0.9587
vn -0.0000 0.2845 -0.9587
vn -0.9587 0.2845 -0.0000
vn -0.6901 0.7237 -0.0000
vn -0.0000 0.7371 -0.6758
vn -0.0000 0.7371 0.6758
vn 0.6917 0.7222 -0.0000
vn -0.0000 -0.4768 0.8790
vn -0.6801 0.3866 0.6229
vn 0.6801 0.3866 0.6229
vn -0.0000 0.8790 0.4768
vn -0.0000 -0.4768 -0.8790
vn 0.6801 0.3866 -0.6229
vn -0.6801 0.3866 -0.6229
vn -0.0000 0.8790 -0.4768
vn -0.8790 -0.4768 -0.0000
vn -0.6229 0.3866 -0.6801
vn -0.6229 0.3866 0.6801
vn -0.4768 0.8790 -0.0000
vn -0.9997 0.0238 -0.0000
vn -0.3280 0.6643 -0.6717
vn -0.3280 0.6643 0.6717
vn 0.0238 0.9997 -0.0000
vn -0.0000 0.0434 -0.9991
vn 0.6781 0.6566 -0.3302
vn -0.6783 0.6562 -0.3306
vn -0.0000 0.9991 0.0434
vn -0.0000 0.0434 0.9991
vn -0.6783 0.6562 0.3306
vn 0.6781 0.6566 0.3302
vn -0.0000 0.9991 -0.0434
vn 0.9998 0.0216 -0.0000
vn 0.3292 0.6638 0.6715
vn 0.3292 0.6638 -0.6715
vn -0.0216 0.9998 -0.0000
vn -0.0000 -0.9587 0.2845
vn 0.9618 0.2623 -0.0778
vn -0.9618 0.2623 -0.0778
vn -0.0000 0.9587 -0.2845
vn -0.0000 -0.9587 -0.2845
vn -0.9618 0.2623 0.0778
vn 0.9618 0.2623 0.0778
vn -0.0000 0.9587 0.2845
vn -0.2845 -0.9587 -0.0000
vn 0.0778 0.2623 0.9618
vn 0.0778 0.2623 -0.9618
vn 0.2845 0.9587 -0.0000
vn 0.2262 0.2157 0.9499
vn -0.7237 -0.6901 -0.0000
vn 0.2262 0.2157 -0.9499
vn 0.7237 0.6901 -0.0000
vn -0.0000 -0.6758 -0.7371
vn -0.9593 0.1909 0.2082
vn 0.9590 0.1914 0.2088
vn -0.0000 0.6758 0.7371
vn -0.0000 -0.6758 0.7371
vn 0.9590 0.1914 -0.2088
vn -0.9593 0.1909 -0.2082
vn -0.0000 0.6758 -0.7371
vn 0.7222 -0.6917 -0.0000
vn -0.2262 0.2166 -0.9497
vn -0.2262 0.2166 0.9497
vn -0.7222 0.6917 -0.0000
vt 0.562501 0.937500
vt 0.562500 0.812500
vt 0.562501 0.937500
vt 0.562501 0.937500
vt 0.562501 0.937500
vt 0.562501 0.937500
vt 0.562501 0.937500
vt 0.562501 0.937500
vt 0.437500 0.937501
vt 0.437500 0.937501
s 0
f 122/2/9 78/2/9 91/2/9 105/2/9
f 68/2/10 69/2/10 71/2/10 72/2/10
f 121/2/11 86/2/11 89/2/11 106/2/11
f 36/2/12 37/2/12 54/2/12 55/2/12
f 14/2/10 11/2/10 15/2/10
f 16/2/13 17/2/13 18/2/13
f 14/2/9 8/2/9 29/2/9 19/2/9
f 123/2/9 119/2/9 100/2/9 104/2/9
f 12/2/14 11/2/14 24/2/14 26/2/14
f 39/2/15 40/2/15 59/2/15 56/2/15
f 19/2/9 20/2/9 23/2/9 24/2/9
f 20/2/9 21/2/9 22/2/9 23/2/9
f 118/2/9 122/2/9 105/2/9 101/2/9
f 32/2/12 33/2/12 50/2/12 51/2/12
f 27/2/16 22/2/16 16/2/16 13/2/16
f 35/2/17 36/2/17 55/2/17 53/2/17
f 21/2/9 28/2/9 7/2/9 17/2/9
f 21/2/18 17/2/18 31/2/18 30/2/18
f 16/2/19 22/2/19 33/2/19 32/2/19
f 22/2/9 21/2/9 30/2/9 33/2/9
f 14/2/20 19/2/20 35/2/20 34/2/20
f 19/2/9 24/2/9 36/2/9 35/2/9
f 24/2/21 11/2/21 37/2/21 36/2/21
f 26/2/9 24/2/9 39/2/9 38/2/9
f 24/2/9 23/2/9 40/2/9 39/2/9
f 23/2/9 22/2/9 41/2/9 40/2/9
f 22/2/9 27/2/9 42/2/9 41/2/9
f 27/2/9 26/2/9 38/2/9 42/2/9
f 19/2/22 29/2/22 44/2/22 43/2/22
f 28/2/23 21/2/23 46/2/23 45/2/23
f 21/2/9 20/2/9 47/2/9 46/2/9
f 20/2/9 19/2/9 43/2/9 47/2/9
f 48/2/9 49/2/9 51/2/9 50/2/9
f 52/2/9 53/2/9 55/2/9 54/2/9
f 57/2/9 56/2/9 59/2/9 60/2/9 58/2/9
f 61/2/9 62/2/9 64/2/9 65/2/9 63/2/9
f 43/2/24 44/2/24 62/2/24 61/2/24
f 40/2/15 41/2/15 60/2/15 59/2/15
f 47/2/25 43/2/25 61/2/25 63/2/25
f 41/2/26 42/2/26 58/2/26 60/2/26
f 45/2/26 46/2/26 65/2/26 64/2/26
f 30/2/27 31/2/27 49/2/27 48/2/27
f 46/2/25 47/2/25 63/2/25 65/2/25
f 34/2/27 35/2/27 53/2/27 52/2/27
f 33/2/28 30/2/28 48/2/28 50/2/28
f 38/2/24 39/2/24 56/2/24 57/2/24
f 26/2/9 27/2/9 13/2/9 66/2/9 69/2/9 70/2/9 25/2/9 12/2/9
f 67/2/29 10/2/29 74/2/29
f 71/2/30 66/2/30 9/2/30 72/2/30
f 73/2/30 70/2/30 67/2/30 74/2/30
f 75/2/30 69/2/30 68/2/30 76/2/30
f 25/2/31 70/2/31 73/2/31
f 68/2/29 67/2/29 76/2/29
f 10/2/10 25/2/10 73/2/10 74/2/10
f 70/2/31 69/2/31 75/2/31
f 9/2/29 68/2/29 72/2/29
f 67/2/10 70/2/10 75/2/10 76/2/10
f 69/2/31 66/2/31 71/2/31
f 88/2/32 106/2/32 89/2/32 87/2/32
f 85/2/9 82/2/9 146/2/9 152/2/9
f 127/2/33 128/2/33 147/2/33 141/2/33
f 134/2/33 136/2/33 149/2/33 139/2/33
f 81/2/34 120/2/34 148/2/34 155/2/34
f 80/2/9 126/2/9 150/2/9 144/2/9
f 133/2/35 135/2/35 137/2/35 153/2/35
f 120/2/9 79/2/9 142/2/9 148/2/9
f 126/2/9 125/2/9 140/2/9 150/2/9
f 130/2/33 134/2/33 139/2/33 151/2/33
f 82/2/9 117/2/9 138/2/9 146/2/9
f 96/2/36 105/2/36 91/2/36 92/2/36
f 92/2/29 91/2/29 94/2/29 93/2/29
f 95/2/13 104/2/13 100/2/13 99/2/13
f 87/2/37 89/2/37 102/2/37 90/2/37
f 90/2/10 102/2/10 101/2/10 97/2/10
f 99/2/13 100/2/13 103/2/13 98/2/13
f 98/2/38 103/2/38 106/2/38 88/2/38
f 93/2/39 94/2/39 104/2/39 95/2/39
f 97/2/10 101/2/10 105/2/10 96/2/10
f 86/2/40 77/2/40 102/2/40 89/2/40
f 77/2/9 118/2/9 101/2/9 102/2/9
f 78/2/9 84/2/9 94/2/9 91/2/9
f 119/2/9 83/2/9 103/2/9 100/2/9
f 84/2/9 123/2/9 104/2/9 94/2/9
f 83/2/41 121/2/41 106/2/41 103/2/41
f 109/2/13 114/2/13 13/2/13 16/2/13 18/2/13
f 129/2/13 109/2/13 18/2/13 17/2/13 7/2/13
f 113/2/10 107/2/10 12/2/10 25/2/10
f 114/2/13 116/2/13 66/2/13 13/2/13
f 115/2/42 129/2/42 7/2/42 28/2/42 29/2/42 8/2/42
f 112/2/10 113/2/10 25/2/10 10/2/10
f 110/2/10 115/2/10 8/2/10 14/2/10 15/2/10
f 111/2/29 112/2/29 10/2/29 67/2/29 68/2/29 9/2/29
f 116/2/13 111/2/13 9/2/13 66/2/13
f 107/2/10 110/2/10 15/2/10 11/2/10 12/2/10
f 117/2/10 82/2/10 118/2/10 77/2/10
f 79/2/13 120/2/13 83/2/13 119/2/13
f 120/2/13 81/2/13 121/2/13 83/2/13
f 82/2/10 85/2/10 122/2/10 118/2/10
f 80/2/13 79/2/13 119/2/13 123/2/13
f 81/2/43 124/2/43 86/2/43 121/2/43
f 85/2/10 125/2/10 78/2/10 122/2/10
f 124/2/10 117/2/10 77/2/10 86/2/10
f 125/2/29 126/2/29 84/2/29 78/2/29
f 126/2/13 80/2/13 123/2/13 84/2/13
f 128/2/13 127/2/13 114/2/13 109/2/13
f 108/2/13 128/2/13 109/2/13 129/2/13
f 130/2/10 131/2/10 107/2/10 113/2/10
f 127/2/13 132/2/13 116/2/13 114/2/13
f 133/2/43 108/2/43 129/2/43 115/2/43
f 134/2/10 130/2/10 113/2/10 112/2/10
f 135/2/10 133/2/10 115/2/10 110/2/10
f 136/2/29 134/2/29 112/2/29 111/2/29
f 132/2/13 136/2/13 111/2/13 116/2/13
f 131/2/10 135/2/10 110/2/10 107/2/10
f 146/3/10 138/3/10 137/3/10 145/3/10
f 148/3/13 142/3/13 141/3/13 147/3/13
f 155/3/44 148/3/44 147/3/44 156/3/44
f 152/3/10 146/3/10 145/3/10 151/3/10
f 142/3/13 144/3/13 143/3/13 141/3/13
f 154/3/45 155/3/45 156/3/45 153/3/45
f 140/3/46 152/3/46 151/3/46 139/3/46
f 138/3/47 154/3/47 153/3/47 137/3/47
f 150/3/29 140/3/29 139/3/29 149/3/29
f 144/3/48 150/3/48 149/3/48 143/3/48
f 136/2/33 132/2/33 143/2/33 149/2/33
f 128/2/49 108/2/49 156/2/49 147/2/49
f 79/2/9 80/2/9 144/2/9 142/2/9
f 135/2/33 131/2/33 145/2/33 137/2/33
f 131/2/33 130/2/33 151/2/33 145/2/33
f 124/2/50 81/2/50 155/2/50 154/2/50
f 132/2/33 127/2/33 141/2/33 143/2/33
f 125/2/9 85/2/9 152/2/9 140/2/9
f 108/2/51 133/2/51 153/2/51 156/2/51
f 117/2/52 124/2/52 154/2/52 138/2/52
f 99/2/33 98/2/33 88/2/33 87/2/33 90/2/33 97/2/33 96/2/33 92/2/33 93/2/33 95/2/33
f 17/2/53 16/2/53 158/4/53 157/2/53
f 16/2/53 32/2/53 159/2/53 158/4/53
f 32/2/53 31/2/53 160/5/53 159/2/53
f 31/2/53 17/2/53 157/2/53 160/5/53
f 11/2/54 14/2/54 162/6/54 161/7/54
f 14/2/54 34/2/54 163/6/54 162/6/54
f 34/2/54 37/2/54 164/2/54 163/6/54
f 37/2/54 11/2/54 161/7/54 164/2/54
f 29/2/55 28/2/55 166/6/55 165/4/55
f 28/2/55 45/2/55 167/8/55 166/6/55
f 45/2/55 44/2/55 168/8/55 167/8/55
f 44/2/55 29/2/55 165/4/55 168/8/55
f 44/2/56 45/2/56 170/4/56 169/4/56
f 45/2/56 64/2/56 171/2/56 170/4/56
f 64/2/56 62/2/56 172/2/56 171/2/56
f 62/2/56 44/2/56 169/4/56 172/2/56
f 37/2/57 34/2/57 174/7/57 173/4/57
f 34/2/57 52/2/57 175/4/57 174/7/57
f 52/2/57 54/2/57 176/8/57 175/4/57
f 54/2/57 37/2/57 173/4/57 176/8/57
f 31/2/58 32/2/58 178/2/58 177/8/58
f 32/2/58 51/2/58 179/8/58 178/2/58
f 51/2/58 49/2/58 180/4/58 179/8/58
f 49/2/58 31/2/58 177/8/58 180/4/58
f 42/2/59 38/2/59 182/9/59 181/9/59
f 38/2/59 57/2/59 183/8/59 182/9/59
f 57/2/59 58/2/59 184/5/59 183/8/59
f 58/2/59 42/2/59 181/9/59 184/5/59
f 186/10/60 187/10/60 188/10/60 185/10/60
f 187/10/61 189/10/61 190/10/61 188/10/61
f 185/10/62 191/10/62 192/10/62 186/10/62
f 191/10/63 190/10/63 189/10/63 192/10/63
f 194/10/64 195/10/64 196/10/64 193/10/64
f 195/10/65 197/10/65 198/10/65 196/10/65
f 200/10/66 194/10/66 193/10/66 199/10/66
f 199/10/67 198/10/67 197/10/67 200/10/67
f 202/10/68 203/10/68 204/10/68 201/10/68
f 203/10/69 205/10/69 206/10/69 204/10/69
f 201/10/70 207/10/70 208/10/70 202/10/70
f 207/10/71 206/10/71 205/10/71 208/10/71
f 210/10/72 211/10/72 212/10/72 209/10/72
f 211/10/73 213/10/73 214/10/73 212/10/73
f 209/10/74 215/10/74 216/10/74 210/10/74
f 215/10/75 214/10/75 213/10/75 216/10/75
f 218/10/76 219/10/76 220/10/76 217/10/76
f 219/10/77 221/10/77 222/10/77 220/10/77
f 224/10/78 218/10/78 217/10/78 223/10/78
f 223/10/79 222/10/79 221/10/79 224/10/79
f 226/10/80 227/10/80 228/10/80 225/10/80
f 227/10/81 229/10/81 230/10/81 228/10/81
f 232/10/82 226/10/82 225/10/82 231/10/82
f 231/10/83 230/10/83 229/10/83 232/10/83
f 234/10/84 235/10/84 236/10/84 233/10/84
f 235/10/85 237/10/85 238/10/85 236/10/85
f 240/10/86 234/10/86 233/10/86 239/10/86
f 239/11/87 238/10/87 237/10/87 240/10/87
f 157/10/88 158/10/88 185/10/88 188/10/88
f 187/10/53 186/10/53 192/10/53 189/10/53
f 158/10/89 159/10/89 191/10/89 185/10/89
f 160/10/90 157/10/90 188/10/90 190/10/90
f 159/10/91 160/10/91 190/10/91 191/10/91
f 161/10/92 162/10/92 193/10/92 196/10/92
f 195/10/54 194/10/54 200/10/54 197/10/54
f 162/10/93 163/10/93 199/10/93 193/10/93
f 164/10/94 161/10/94 196/10/94 198/10/94
f 163/10/95 164/10/95 198/10/95 199/10/95
f 165/10/96 166/10/96 201/10/96 204/10/96
f 203/10/55 202/10/55 208/10/55 205/10/55
f 166/10/97 167/10/97 207/10/97 201/10/97
f 168/10/98 165/10/98 204/10/98 206/10/98
f 167/10/99 168/10/99 206/10/99 207/10/99
f 211/10/56 210/10/56 216/10/56 213/10/56
f 170/10/100 171/10/100 215/10/100 209/10/100
f 169/10/101 170/10/101 209/10/101 212/10/101
f 172/10/102 169/10/102 212/10/102 214/10/102
f 171/10/103 172/10/103 214/10/103 215/10/103
f 173/10/104 174/10/104 217/10/104 220/10/104
f 219/10/57 218/10/57 224/10/57 221/10/57
f 174/10/105 175/10/105 223/10/105 217/10/105
f 176/10/106 173/10/106 220/10/106 222/10/106
f 175/10/107 176/10/107 222/10/107 223/10/107
f 177/10/108 178/10/108 225/10/108 228/10/108
f 227/10/58 226/10/58 232/10/58 229/10/58
f 178/10/109 179/10/109 231/10/109 225/10/109
f 180/10/110 177/10/110 228/10/110 230/10/110
f 179/10/111 180/10/111 230/10/111 231/10/111
f 181/10/112 182/10/112 233/10/112 236/10/112
f 235/10/59 234/10/59 240/10/59 237/10/59
f 182/10/113 183/10/113 239/10/113 233/10/113
f 184/10/114 181/10/114 236/10/114 238/10/114
f 183/10/115 184/10/115 238/10/115 239/10/115
o Cube.032
v 0.788489 1.925084 2.643733
v 0.788489 2.271837 2.845363
v 0.788489 3.038250 0.729369
v 0.788489 3.385003 0.930999
v 3.566171 1.925084 2.643733
v 3.566171 2.271837 2.845363
v 3.566171 3.038250 0.729369
v 3.566171 3.385003 0.930999
v 3.369212 3.284703 1.103489
v 0.985447 3.284703 1.103489
v 0.985447 2.372137 2.672873
v 3.369212 2.372137 2.672873
v 1.020515 3.243706 1.114339
v 3.334145 3.243706 1.114339
v 3.334145 2.361287 2.631875
v 1.020515 2.361287 2.631875
v 0.788489 1.925084 1.229209
v 0.788489 2.271837 1.430839
v 0.788489 3.038250 -0.685155
v 0.788489 3.385003 -0.483525
v 3.566171 1.925084 1.229209
v 3.566171 2.271837 1.430839
v 3.566171 3.038250 -0.685155
v 3.566171 3.385003 -0.483525
v 3.369212 3.284703 -0.311035
v 0.985447 3.284703 -0.311035
v 0.985447 2.372137 1.258349
v 3.369212 2.372137 1.258349
v 1.020515 3.243706 -0.300185
v 3.334145 3.243706 -0.300185
v 3.334145 2.361287 1.217351
v 1.020515 2.361287 1.217351
v 0.788489 1.925084 -0.185315
v 0.788489 2.271837 0.016315
v 0.788489 3.038250 -2.099679
v 0.788489 3.385003 -1.898049
v 3.566171 1.925084 -0.185315
v 3.566171 2.271837 0.016315
v 3.566171 3.038250 -2.099679
v 3.566171 3.385003 -1.898049
v 3.369212 3.284703 -1.725559
v 0.985447 3.284703 -1.725559
v 0.985447 2.372137 -0.156175
v 3.369212 2.372137 -0.156175
v 1.020515 3.243706 -1.714709
v 3.334145 3.243706 -1.714709
v 3.334145 2.361287 -0.197173
v 1.020515 2.361287 -0.197173
vn -1.0000 -0.0000 -0.0000
vn -0.0000 0.5027 -0.8645
vn 1.0000 -0.0000 -0.0000
vn -0.0000 -0.5027 0.8645
vn -0.0000 -0.8645 -0.5027
vn -0.0000 0.8645 0.5027
vn -0.0000 0.2558 0.9667
vn -0.6499 0.6570 0.3820
vn 0.6499 0.6570 0.3820
vn -0.0000 0.9667 -0.2558
vt 0.312500 0.312500
vt 0.312500 0.312500
s 0
f 241/12/116 242/12/116 244/12/116 243/12/116
f 243/12/117 244/12/117 248/12/117 247/12/117
f 247/12/118 248/12/118 246/12/118 245/12/118
f 245/13/119 246/13/119 242/12/119 241/12/119
f 243/12/120 247/12/120 245/12/120 241/12/120
f 248/12/121 244/12/121 250/12/121 249/12/121
f 244/12/121 242/12/121 251/12/121 250/12/121
f 242/12/121 246/13/121 252/12/121 251/12/121
f 246/12/121 248/12/121 249/12/121 252/12/121
f 253/12/122 254/12/122 249/12/122 250/12/122
f 254/12/123 255/12/123 252/12/123 249/12/123
f 256/12/124 253/12/124 250/12/124 251/12/124
f 255/12/125 256/12/125 251/12/125 252/12/125
f 254/12/121 253/12/121 256/12/121 255/12/121
f 257/12/116 258/12/116 260/12/116 259/12/116
f 259/12/117 260/12/117 264/12/117 263/12/117
f 263/12/118 264/12/118 262/12/118 261/12/118
f 261/13/119 262/13/119 258/12/119 257/12/119
f 259/12/120 263/12/120 261/12/120 257/12/120
f 264/12/121 260/12/121 266/12/121 265/12/121
f 260/12/121 258/12/121 267/12/121 266/12/121
f 258/12/121 262/13/121 268/12/121 267/12/121
f 262/12/121 264/12/121 265/12/121 268/12/121
f 269/12/122 270/12/122 265/12/122 266/12/122
f 270/12/123 271/12/123 268/12/123 265/12/123
f 272/12/124 269/12/124 266/12/124 267/12/124
f 271/12/125 272/12/125 267/12/125 268/12/125
f 270/12/121 269/12/121 272/12/121 271/12/121
f 273/12/116 274/12/116 276/12/116 275/12/116
f 275/12/117 276/12/117 280/12/117 279/12/117
f 279/12/118 280/12/118 278/12/118 277/12/118
f 277/13/119 278/13/119 274/12/119 273/12/119
f 275/12/120 279/12/120 277/12/120 273/12/120
f 280/12/121 276/12/121 282/12/121 281/12/121
f 276/12/121 274/12/121 283/12/121 282/12/121
f 274/12/121 278/13/121 284/12/121 283/12/121
f 278/12/121 280/12/121 281/12/121 284/12/121
f 285/12/122 286/12/122 281/12/122 282/12/122
f 286/12/123 287/12/123 284/12/123 281/12/123
f 288/12/124 285/12/124 282/12/124 283/12/124
f 287/12/125 288/12/125 283/12/125 284/12/125
f 286/12/121 285/12/121 288/12/121 287/12/121
o Cylinder.006
v -2.257865 -0.142838 -3.689091
v -2.257865 8.074752 -3.439003
v -1.538376 -0.142838 -3.273694
v -1.754959 8.074752 -3.148650
v -1.538376 -0.142838 -2.442900
v -1.754959 8.074752 -2.567943
v -2.257865 -0.142838 -2.027502
v -2.257865 8.074752 -2.277590
v -2.977355 -0.142838 -2.442900
v -2.760772 8.074752 -2.567943
v -2.977355 -0.142838 -3.273694
v -2.760772 8.074752 -3.148650
v -1.919534 8.074752 -3.053633
v -2.257866 8.074752 -3.248969
v -2.596197 8.074752 -3.053633
v -2.596197 8.074752 -2.662962
v -2.257866 8.074752 -2.467626
v -1.919534 8.074752 -2.662962
v -1.919533 4.117910 -3.053633
v -2.257865 4.117910 -3.248969
v -1.919534 4.117910 -2.662962
v -2.596196 4.117910 -3.053633
v -2.596196 4.117910 -2.662962
v -2.257865 4.117910 -2.467626
vn 0.4998 0.0263 -0.8657
vn 0.9997 0.0263 -0.0000
vn 0.4998 0.0263 0.8657
vn -0.4998 0.0263 0.8657
vn -0.5000 -0.0000 -0.8660
vn -0.9997 0.0263 -0.0000
vn -0.4998 0.0263 -0.8657
vn -0.0000 -1.0000 -0.0000
vn -0.0000 1.0000 -0.0000
vn 1.0000 -0.0000 -0.0000
vn -1.0000 -0.0000 -0.0000
vn 0.5000 -0.0000 -0.8660
vn 0.5000 -0.0000 0.8660
vn -0.5000 -0.0000 0.8660
vt 0.188170 0.939119
vt 0.187500 0.937500
s 0
f 289/14/126 290/14/126 292/14/126 291/14/126
f 291/14/127 292/14/127 294/14/127 293/14/127
f 293/14/128 294/14/128 296/14/128 295/14/128
f 295/14/129 296/14/129 298/14/129 297/14/129
f 305/15/130 306/15/130 309/15/130 312/15/130
f 297/14/131 298/14/131 300/14/131 299/14/131
f 299/14/132 300/14/132 290/14/132 289/14/132
f 289/14/133 291/14/133 293/14/133 295/14/133 297/14/133 299/14/133
f 292/14/134 290/14/134 302/14/134 301/14/134
f 290/14/134 300/14/134 303/14/134 302/14/134
f 300/14/134 298/14/134 304/14/134 303/14/134
f 298/14/134 296/14/134 305/14/134 304/14/134
f 296/14/134 294/14/134 306/14/134 305/14/134
f 294/14/134 292/14/134 301/14/134 306/14/134
f 307/15/134 308/15/134 310/15/134 311/15/134 312/15/134 309/15/134
f 303/15/135 304/15/135 311/15/135 310/15/135
f 306/15/136 301/15/136 307/15/136 309/15/136
f 304/15/137 305/15/137 312/15/137 311/15/137
f 302/15/138 303/15/138 310/15/138 308/15/138
f 301/15/139 302/15/139 308/15/139 307/15/139
o Cylinder.007
v -0.468836 -0.142838 -3.689091
v -0.468836 8.074752 -3.439003
v 0.250652 -0.142838 -3.273694
v 0.034070 8.074752 -3.148650
v 0.250652 -0.142838 -2.442900
v 0.034070 8.074752 -2.567943
v -0.468836 -0.142838 -2.027502
v -0.468836 8.074752 -2.277590
v -1.188326 -0.142838 -2.442900
v -0.971743 8.074752 -2.567943
v -1.188326 -0.142838 -3.273694
v -0.971743 8.074752 -3.148650
v -0.130506 8.074752 -3.053633
v -0.468837 8.074752 -3.248969
v -0.807168 8.074752 -3.053633
v -0.807168 8.074752 -2.662962
v -0.468837 8.074752 -2.467626
v -0.130506 8.074752 -2.662962
v -0.130505 4.117910 -3.053633
v -0.468836 4.117910 -3.248969
v -0.130505 4.117910 -2.662962
v -0.807167 4.117910 -3.053633
v -0.807167 4.117910 -2.662962
v -0.468836 4.117910 -2.467626
vn 0.4998 0.0263 -0.8657
vn 0.9997 0.0263 -0.0000
vn 0.4998 0.0263 0.8657
vn -0.4998 0.0263 0.8657
vn -0.5000 -0.0000 -0.8660
vn -0.9997 0.0263 -0.0000
vn -0.4998 0.0263 -0.8657
vn -0.0000 -1.0000 -0.0000
vn -0.0000 1.0000 -0.0000
vn 1.0000 -0.0000 -0.0000
vn -1.0000 -0.0000 -0.0000
vn 0.5000 -0.0000 -0.8660
vn 0.5000 -0.0000 0.8660
vn -0.5000 -0.0000 0.8660
vt 0.188170 0.939119
vt 0.187500 0.937500
s 0
f 313/16/140 314/16/140 316/16/140 315/16/140
f 315/16/141 316/16/141 318/16/141 317/16/141
f 317/16/142 318/16/142 320/16/142 319/16/142
f 319/16/143 320/16/143 322/16/143 321/16/143
f 329/17/144 330/17/144 333/17/144 336/17/144
f 321/16/145 322/16/145 324/16/145 323/16/145
f 323/16/146 324/16/146 314/16/146 313/16/146
f 313/16/147 315/16/147 317/16/147 319/16/147 321/16/147 323/16/147
f 316/16/148 314/16/148 326/16/148 325/16/148
f 314/16/148 324/16/148 327/16/148 326/16/148
f 324/16/148 322/16/148 328/16/148 327/16/148
f 322/16/148 320/16/148 329/16/148 328/16/148
f 320/16/148 318/16/148 330/16/148 329/16/148
f 318/16/148 316/16/148 325/16/148 330/16/148
f 331/17/148 332/17/148 334/17/148 335/17/148 336/17/148 333/17/148
f 327/17/149 328/17/149 335/17/149 334/17/149
f 330/17/150 325/17/150 331/17/150 333/17/150
f 328/17/151 329/17/151 336/17/151 335/17/151
f 326/17/152 327/17/152 334/17/152 332/17/152
f 325/17/153 326/17/153 332/17/153 331/17/153
