# Blender 5.0.1
# www.blender.org
o Plane
v 3.099618 1.788903 0.751301
v 3.170142 1.734995 0.751301
v 2.531010 2.585516 0.751301
v 2.787390 2.057184 0.751301
v 2.357922 3.111166 0.751301
v 2.272652 3.485564 0.751301
v 2.208575 3.843410 0.751301
v 2.161344 4.192980 0.751301
v 2.132277 4.539563 0.751301
v 2.139807 4.909628 0.751301
v 2.168753 5.180053 0.751302
v 2.218215 5.450223 0.751302
v 2.294518 5.672180 0.751302
v 3.051865 1.238216 0.751301
v 2.873402 1.788903 -0.092947
v 2.934478 1.734995 -0.128210
v 2.380973 2.585516 0.191356
v 2.603004 2.057184 0.063167
v 2.231075 3.111166 0.277900
v 2.157229 3.485564 0.320535
v 2.101737 3.843410 0.352574
v 2.060833 4.192980 0.376190
v 2.035660 4.539563 0.390723
v 2.042182 4.909628 0.386958
v 2.067250 5.180053 0.372485
v 2.110085 5.450223 0.347755
v 2.176165 5.672180 0.309603
v 2.832047 1.238216 -0.069071
v 2.255369 1.788903 -0.710980
v 2.290632 1.734995 -0.772056
v 1.971066 2.585516 -0.218551
v 2.099255 2.057184 -0.440583
v 1.884522 3.111166 -0.068653
v 1.841887 3.485564 0.005193
v 1.809848 3.843410 0.060686
v 1.786233 4.192980 0.101589
v 1.771699 4.539563 0.126762
v 1.775464 4.909628 0.120240
v 1.789937 5.180053 0.095172
v 1.814668 5.450223 0.052338
v 1.852820 5.672180 -0.013743
v 2.231493 1.238216 -0.669625
v 1.411121 1.788903 -0.937196
v 1.411121 1.734995 -1.007720
v 1.411121 2.585516 -0.368588
v 1.411121 2.057184 -0.624968
v 1.411121 3.111166 -0.195500
v 1.411121 3.485564 -0.110231
v 1.411121 3.843410 -0.046153
v 1.411121 4.192980 0.001078
v 1.411121 4.539563 0.030145
v 1.411121 4.909628 0.022615
v 1.411121 5.180053 -0.006332
v 1.411121 5.450223 -0.055793
v 1.411121 5.672180 -0.132096
v 1.411121 1.238216 -0.889443
v 0.566872 1.788903 -0.710980
v 0.531610 1.734995 -0.772056
v 0.851176 2.585516 -0.218552
v 0.722986 2.057184 -0.440583
v 0.937720 3.111166 -0.068653
v 0.980355 3.485564 0.005193
v 1.012394 3.843410 0.060686
v 1.036009 4.192980 0.101588
v 1.050543 4.539563 0.126762
v 1.046778 4.909628 0.120240
v 1.032305 5.180053 0.095172
v 1.007574 5.450223 0.052337
v 0.969423 5.672180 -0.013743
v 0.590749 1.238216 -0.669625
v -0.051161 1.788903 -0.092948
v -0.112237 1.734995 -0.128210
v 0.441268 2.585516 0.191356
v 0.219237 2.057184 0.063167
v 0.591167 3.111166 0.277900
v 0.665013 3.485564 0.320535
v 0.720505 3.843410 0.352574
v 0.761408 4.192980 0.376189
v 0.786582 4.539563 0.390723
v 0.780060 4.909628 0.386958
v 0.754992 5.180053 0.372484
v 0.712157 5.450223 0.347754
v 0.646077 5.672180 0.309602
v -0.009805 1.238216 -0.069071
v -0.277376 1.788903 0.751301
v -0.347901 1.734995 0.751301
v 0.291231 2.585516 0.751301
v 0.034852 2.057184 0.751301
v 0.464319 3.111166 0.751301
v 0.549589 3.485564 0.751301
v 0.613667 3.843410 0.751301
v 0.660897 4.192980 0.751301
v 0.689965 4.539563 0.751301
v 0.682434 4.909628 0.751301
v 0.653488 5.180053 0.751301
v 0.604027 5.450223 0.751301
v 0.527724 5.672180 0.751301
v -0.229623 1.238216 0.751301
v -0.051161 1.788903 1.595550
v -0.112236 1.734995 1.630812
v 0.441268 2.585516 1.311246
v 0.219237 2.057184 1.439436
v 0.591167 3.111166 1.224702
v 0.665012 3.485564 1.182067
v 0.720505 3.843410 1.150028
v 0.761408 4.192980 1.126413
v 0.786581 4.539563 1.111879
v 0.780060 4.909628 1.115644
v 0.754992 5.180053 1.130117
v 0.712157 5.450223 1.154848
v 0.646076 5.672180 1.192999
v -0.009805 1.238216 1.571673
v 0.566872 1.788903 2.213583
v 0.531610 1.734995 2.274659
v 0.851176 2.585516 1.721154
v 0.722987 2.057184 1.943185
v 0.937720 3.111166 1.571255
v 0.980355 3.485564 1.497409
v 1.012394 3.843410 1.441916
v 1.036009 4.192980 1.401013
v 1.050543 4.539563 1.375840
v 1.046777 4.909628 1.382362
v 1.032304 5.180053 1.407430
v 1.007574 5.450223 1.450265
v 0.969422 5.672180 1.516345
v 0.590749 1.238216 2.172227
v 1.411121 1.788903 2.439798
v 1.411121 1.734995 2.510323
v 1.411121 2.585516 1.871191
v 1.411121 2.057184 2.127570
v 1.411121 3.111166 1.698103
v 1.411121 3.485564 1.612833
v 1.411121 3.843410 1.548755
v 1.411121 4.192980 1.501524
v 1.411120 4.539563 1.472457
v 1.411120 4.909628 1.479988
v 1.411120 5.180053 1.508934
v 1.411120 5.450223 1.558395
v 1.411120 5.672180 1.634698
v 1.411121 1.238216 2.392045
v 2.255369 1.788903 2.213583
v 2.290631 1.734995 2.274659
v 1.971065 2.585516 1.721154
v 2.099255 2.057184 1.943185
v 1.884521 3.111166 1.571255
v 1.841886 3.485564 1.497410
v 1.809848 3.843410 1.441917
v 1.786232 4.192980 1.401014
v 1.771698 4.539563 1.375841
v 1.775464 4.909628 1.382362
v 1.789937 5.180053 1.407430
v 1.814667 5.450223 1.450265
v 1.852819 5.672180 1.516346
v 2.231493 1.238216 2.172227
v 2.873403 1.788903 1.595549
v 2.934478 1.734995 1.630811
v 2.380974 2.585516 1.311246
v 2.603005 2.057184 1.439435
v 2.231075 3.111166 1.224702
v 2.157229 3.485564 1.182067
v 2.101736 3.843410 1.150028
v 2.060833 4.192980 1.126413
v 2.035660 4.539563 1.111879
v 2.042182 4.909628 1.115644
v 2.067250 5.180053 1.130118
v 2.110084 5.450223 1.154848
v 2.176165 5.672180 1.193000
v 2.832047 1.238216 1.571673
v 3.183679 1.687371 0.751301
v 3.293053 1.687371 0.751301
v 2.653036 2.635363 0.751301
v 2.895994 2.131884 0.751301
v 2.484863 3.146678 0.751301
v 2.401809 3.511900 0.751301
v 2.338783 3.863928 0.751301
v 2.292367 4.207404 0.751301
v 2.264024 4.543788 0.751301
v 2.271351 4.901188 0.751302
v 2.299201 5.161116 0.751302
v 2.345616 5.416402 0.751302
v 2.419107 5.629140 0.751302
v 3.183679 1.238216 0.751301
v 2.946201 1.687371 -0.134978
v 3.040922 1.687371 -0.189665
v 2.486651 2.635363 0.130343
v 2.697059 2.131884 0.008864
v 2.341009 3.146678 0.214430
v 2.269082 3.511900 0.255957
v 2.214500 3.863928 0.287470
v 2.174303 4.207404 0.310678
v 2.149756 4.543788 0.324850
v 2.156102 4.901188 0.321186
v 2.180221 5.161116 0.307262
v 2.220418 5.416402 0.284054
v 2.284063 5.629140 0.247308
v 2.946201 1.238216 -0.134978
v 2.297400 1.687371 -0.783780
v 2.352087 1.687371 -0.878500
v 2.032079 2.635363 -0.324229
v 2.153558 2.131884 -0.534637
v 1.947992 3.146678 -0.178587
v 1.906465 3.511900 -0.106660
v 1.874952 3.863928 -0.052078
v 1.851744 4.207404 -0.011880
v 1.837572 4.543788 0.012666
v 1.841236 4.901188 0.006320
v 1.855161 5.161116 -0.017798
v 1.878369 5.416402 -0.057995
v 1.915115 5.629140 -0.121641
v 2.297400 1.238216 -0.783780
v 1.411121 1.687371 -1.021257
v 1.411121 1.687371 -1.130631
v 1.411121 2.635363 -0.490614
v 1.411121 2.131884 -0.733572
v 1.411121 3.146678 -0.322441
v 1.411121 3.511900 -0.239387
v 1.411121 3.863928 -0.176361
v 1.411121 4.207404 -0.129945
v 1.411121 4.543788 -0.101602
v 1.411121 4.901188 -0.108929
v 1.411121 5.161116 -0.136779
v 1.411121 5.416402 -0.183194
v 1.411121 5.629140 -0.256686
v 1.411121 1.238216 -1.021257
v 0.524841 1.687371 -0.783779
v 0.470155 1.687371 -0.878500
v 0.790163 2.635363 -0.324229
v 0.668684 2.131884 -0.534637
v 0.874250 3.146678 -0.178587
v 0.915777 3.511900 -0.106660
v 0.947290 3.863928 -0.052078
v 0.970498 4.207404 -0.011881
v 0.984670 4.543788 0.012666
v 0.981006 4.901188 0.006320
v 0.967081 5.161116 -0.017799
v 0.943873 5.416402 -0.057996
v 0.907128 5.629140 -0.121641
v 0.524841 1.238216 -0.783779
v -0.123960 1.687371 -0.134978
v -0.218680 1.687371 -0.189665
v 0.335591 2.635363 0.130343
v 0.125183 2.131884 0.008864
v 0.481233 3.146678 0.214430
v 0.553159 3.511900 0.255957
v 0.607742 3.863928 0.287470
v 0.647939 4.207404 0.310678
v 0.672486 4.543788 0.324849
v 0.666140 4.901188 0.321185
v 0.642021 5.161116 0.307261
v 0.601824 5.416402 0.284053
v 0.538179 5.629140 0.247307
v -0.123960 1.238216 -0.134978
v -0.361438 1.687371 0.751301
v -0.470811 1.687371 0.751301
v 0.169205 2.635363 0.751301
v -0.073753 2.131884 0.751301
v 0.337378 3.146678 0.751301
v 0.420432 3.511900 0.751301
v 0.483459 3.863928 0.751301
v 0.529874 4.207404 0.751301
v 0.558218 4.543788 0.751301
v 0.550890 4.901188 0.751301
v 0.523041 5.161116 0.751301
v 0.476625 5.416402 0.751301
v 0.403134 5.629140 0.751301
v -0.361438 1.238216 0.751301
v -0.123960 1.687371 1.637581
v -0.218680 1.687371 1.692267
v 0.335590 2.635363 1.372259
v 0.125183 2.131884 1.493738
v 0.481233 3.146678 1.288172
v 0.553159 3.511900 1.246645
v 0.607742 3.863928 1.215132
v 0.647939 4.207404 1.191924
v 0.672485 4.543788 1.177752
v 0.666139 4.901188 1.181416
v 0.642021 5.161116 1.195341
v 0.601824 5.416402 1.218549
v 0.538178 5.629140 1.255294
v -0.123960 1.238216 1.637581
v 0.524842 1.687371 2.286382
v 0.470155 1.687371 2.381102
v 0.790163 2.635363 1.826831
v 0.668684 2.131884 2.037239
v 0.874250 3.146678 1.681189
v 0.915776 3.511900 1.609262
v 0.947290 3.863928 1.554680
v 0.970497 4.207404 1.514483
v 0.984669 4.543788 1.489936
v 0.981005 4.901188 1.496282
v 0.967081 5.161116 1.520401
v 0.943873 5.416402 1.560598
v 0.907127 5.629140 1.624243
v 0.524842 1.238216 2.286382
v 1.411121 1.687371 2.523860
v 1.411121 1.687371 2.633233
v 1.411121 2.635363 1.993217
v 1.411121 2.131884 2.236175
v 1.411121 3.146678 1.825043
v 1.411121 3.511900 1.741990
v 1.411121 3.863928 1.678963
v 1.411120 4.207404 1.632547
v 1.411120 4.543788 1.604204
v 1.411120 4.901188 1.611531
v 1.411120 5.161116 1.639381
v 1.411120 5.416402 1.685796
v 1.411120 5.629140 1.759288
v 1.411121 1.238216 2.523860
v 2.297400 1.687371 2.286382
v 2.352087 1.687371 2.381102
v 2.032078 2.635363 1.826832
v 2.153557 2.131884 2.037239
v 1.947992 3.146678 1.681189
v 1.906465 3.511900 1.609263
v 1.874951 3.863928 1.554680
v 1.851744 4.207404 1.514483
v 1.837572 4.543788 1.489937
v 1.841236 4.901188 1.496283
v 1.855160 5.161116 1.520401
v 1.878368 5.416402 1.560598
v 1.915114 5.629140 1.624244
v 2.297400 1.238216 2.286382
v 2.946202 1.687371 1.637580
v 3.040922 1.687371 1.692266
v 2.486651 2.635363 1.372259
v 2.697059 2.131884 1.493737
v 2.341009 3.146678 1.288172
v 2.269082 3.511900 1.246645
v 2.214500 3.863928 1.215132
v 2.174303 4.207404 1.191924
v 2.149756 4.543788 1.177753
v 2.156102 4.901188 1.181417
v 2.180220 5.161116 1.195341
v 2.220417 5.416402 1.218549
v 2.284063 5.629140 1.255295
v 2.946202 1.238216 1.637580
v 1.411120 1.490891 -0.911765
v 1.086671 1.490891 -0.879809
v 0.774690 1.490891 -0.785171
v 0.487167 1.490891 -0.631486
v 0.235150 1.490891 -0.424662
v 0.028326 1.490891 -0.172646
v -0.125358 1.490891 0.114877
v -0.219997 1.490891 0.426858
v -0.251952 1.490891 0.751308
v -0.219997 1.490891 1.075757
v -0.125358 1.490891 1.387738
v 0.028326 1.490891 1.675261
v 0.235150 1.490891 1.927277
v 0.487167 1.490891 2.134101
v 0.774690 1.490891 2.287786
v 1.086671 1.490891 2.382424
v 1.411120 1.490891 2.414380
v 1.735569 1.490891 2.382424
v 2.047550 1.490891 2.287786
v 2.335073 1.490891 2.134101
v 2.587090 1.490891 1.927277
v 2.793914 1.490891 1.675261
v 2.947598 1.490891 1.387738
v 3.042237 1.490891 1.075757
v 3.074192 1.490891 0.751308
v 3.042237 1.490891 0.426858
v 2.947598 1.490891 0.114877
v 2.793914 1.490891 -0.172646
v 2.587090 1.490891 -0.424662
v 2.335073 1.490891 -0.631486
v 2.047550 1.490891 -0.785171
v 1.735569 1.490891 -0.879809
vn -0.9205 -0.3031 0.2466
vn -0.6738 -0.3031 0.6738
vn -0.2466 -0.3031 0.9205
vn 0.2466 -0.3031 0.9205
vn 0.6738 -0.3031 0.6738
vn 0.9205 -0.3031 0.2466
vn 0.9205 -0.3031 -0.2466
vn 0.6738 -0.3031 -0.6738
vn 0.2466 -0.3031 -0.9205
vn -0.2466 -0.3031 -0.9205
vn -0.6738 -0.3031 -0.6738
vn -0.9205 -0.3031 -0.2466
vn 0.5994 0.7842 -0.1606
vn 0.4388 0.7842 -0.4388
vn 0.1606 0.7842 -0.5994
vn -0.1606 0.7842 -0.5994
vn -0.4388 0.7842 -0.4388
vn -0.5994 0.7842 -0.1606
vn -0.5994 0.7842 0.1606
vn -0.4388 0.7842 0.4388
vn -0.1606 0.7842 0.5994
vn 0.1606 0.7842 0.5994
vn 0.4388 0.7842 0.4388
vn 0.5994 0.7842 0.1606
vn -0.8746 -0.4244 0.2344
vn -0.6403 -0.4244 0.6403
vn -0.2344 -0.4244 0.8746
vn 0.2344 -0.4244 0.8746
vn 0.6403 -0.4244 0.6403
vn 0.8746 -0.4244 0.2344
vn 0.8746 -0.4244 -0.2344
vn 0.6403 -0.4244 -0.6403
vn 0.2344 -0.4244 -0.8746
vn -0.2344 -0.4244 -0.8746
vn -0.6403 -0.4244 -0.6403
vn -0.8746 -0.4244 -0.2344
vn -0.6346 -0.7539 0.1700
vn -0.4646 -0.7539 0.4646
vn -0.1700 -0.7539 0.6346
vn 0.1700 -0.7539 0.6346
vn 0.4646 -0.7539 0.4646
vn 0.6346 -0.7539 0.1700
vn 0.6346 -0.7539 -0.1700
vn 0.4646 -0.7539 -0.4646
vn 0.1700 -0.7539 -0.6346
vn -0.1700 -0.7539 -0.6346
vn -0.4646 -0.7539 -0.4646
vn -0.6346 -0.7539 -0.1700
vn -0.9434 -0.2149 0.2528
vn -0.6906 -0.2149 0.6906
vn -0.2528 -0.2149 0.9434
vn 0.2528 -0.2149 0.9434
vn 0.6906 -0.2149 0.6906
vn 0.9434 -0.2149 0.2528
vn 0.9434 -0.2149 -0.2528
vn 0.6906 -0.2149 -0.6906
vn 0.2528 -0.2149 -0.9434
vn -0.2528 -0.2149 -0.9434
vn -0.6906 -0.2149 -0.6906
vn -0.9434 -0.2149 -0.2528
vn -0.9518 -0.1704 0.2550
vn -0.6968 -0.1704 0.6968
vn -0.2550 -0.1704 0.9518
vn 0.2550 -0.1704 0.9518
vn 0.6968 -0.1704 0.6968
vn 0.9518 -0.1704 0.2550
vn 0.9518 -0.1704 -0.2550
vn 0.6968 -0.1704 -0.6968
vn 0.2550 -0.1704 -0.9518
vn -0.2550 -0.1704 -0.9518
vn -0.6968 -0.1704 -0.6968
vn -0.9518 -0.1704 -0.2550
vn -0.9578 -0.1294 0.2566
vn -0.7012 -0.1294 0.7012
vn -0.2566 -0.1294 0.9578
vn 0.2566 -0.1294 0.9578
vn 0.7012 -0.1294 0.7012
vn 0.9578 -0.1294 0.2566
vn 0.9578 -0.1294 -0.2566
vn 0.7012 -0.1294 -0.7012
vn 0.2566 -0.1294 -0.9578
vn -0.2566 -0.1294 -0.9578
vn -0.7012 -0.1294 -0.7012
vn -0.9578 -0.1294 -0.2566
vn -0.9628 -0.0807 0.2580
vn -0.7048 -0.0807 0.7048
vn -0.2580 -0.0807 0.9628
vn 0.2580 -0.0807 0.9628
vn 0.7048 -0.0807 0.7048
vn 0.9628 -0.0807 0.2580
vn 0.9628 -0.0807 -0.2580
vn 0.7048 -0.0807 -0.7048
vn 0.2580 -0.0807 -0.9628
vn -0.2580 -0.0807 -0.9628
vn -0.7048 -0.0807 -0.7048
vn -0.9628 -0.0807 -0.2580
vn -0.9657 0.0197 0.2588
vn -0.7070 0.0197 0.7070
vn -0.2588 0.0197 0.9657
vn 0.2588 0.0197 0.9657
vn 0.7070 0.0197 0.7070
vn 0.9657 0.0197 0.2588
vn 0.9657 0.0197 -0.2588
vn 0.7070 0.0197 -0.7070
vn 0.2588 0.0197 -0.9657
vn -0.2588 0.0197 -0.9657
vn -0.7070 0.0197 -0.7070
vn -0.9657 0.0197 -0.2588
vn -0.9608 0.1028 0.2574
vn -0.7034 0.1028 0.7034
vn -0.2574 0.1028 0.9608
vn 0.2574 0.1028 0.9608
vn 0.7034 0.1028 0.7034
vn 0.9608 0.1028 0.2574
vn 0.9608 0.1028 -0.2574
vn 0.7034 0.1028 -0.7034
vn 0.2574 0.1028 -0.9608
vn -0.2574 0.1028 -0.9608
vn -0.7034 0.1028 -0.7034
vn -0.9608 0.1028 -0.2574
vn -0.9512 0.1741 0.2549
vn -0.6963 0.1741 0.6963
vn -0.2549 0.1741 0.9512
vn 0.2549 0.1741 0.9512
vn 0.6963 0.1741 0.6963
vn 0.9512 0.1741 0.2549
vn 0.9512 0.1741 -0.2549
vn 0.6963 0.1741 -0.6963
vn 0.2549 0.1741 -0.9512
vn -0.2549 0.1741 -0.9512
vn -0.6963 0.1741 -0.6963
vn -0.9512 0.1741 -0.2549
vn -0.9167 0.3151 0.2456
vn -0.6711 0.3151 0.6711
vn -0.2456 0.3151 0.9167
vn 0.2456 0.3151 0.9167
vn 0.6711 0.3151 0.6711
vn 0.9167 0.3151 0.2456
vn 0.9167 0.3151 -0.2456
vn 0.6711 0.3151 -0.6711
vn 0.2456 0.3151 -0.9167
vn -0.2456 0.3151 -0.9167
vn -0.6711 0.3151 -0.6711
vn -0.9167 0.3151 -0.2456
vn -0.9626 0.0835 0.2579
vn -0.7046 0.0835 0.7046
vn -0.2579 0.0835 0.9626
vn 0.2579 0.0835 0.9626
vn 0.7046 0.0835 0.7046
vn 0.9626 0.0835 0.2579
vn 0.9626 0.0835 -0.2579
vn 0.7046 0.0835 -0.7046
vn 0.2579 0.0835 -0.9626
vn -0.2579 0.0835 -0.9626
vn -0.7046 0.0835 -0.7046
vn -0.9626 0.0835 -0.2579
vn 0.9206 0.3028 -0.2467
vn 0.6739 0.3028 -0.6739
vn 0.2467 0.3028 -0.9206
vn -0.2467 0.3028 -0.9206
vn -0.6739 0.3028 -0.6739
vn -0.9206 0.3028 -0.2467
vn -0.9206 0.3028 0.2467
vn -0.6739 0.3028 0.6739
vn -0.2467 0.3028 0.9206
vn 0.2467 0.3028 0.9206
vn 0.6739 0.3028 0.6739
vn 0.9206 0.3028 0.2467
vn -0.0000 -1.0000 -0.0000
vn 0.8755 0.4225 -0.2346
vn 0.6409 0.4225 -0.6409
vn 0.2346 0.4225 -0.8755
vn -0.2346 0.4225 -0.8755
vn -0.6409 0.4225 -0.6409
vn -0.8755 0.4225 -0.2346
vn -0.8755 0.4225 0.2346
vn -0.6409 0.4225 0.6409
vn -0.2346 0.4225 0.8755
vn 0.2346 0.4225 0.8755
vn 0.6409 0.4225 0.6409
vn 0.8755 0.4225 0.2346
vn 0.7313 0.6533 -0.1960
vn 0.5354 0.6533 -0.5354
vn 0.1960 0.6533 -0.7313
vn -0.1960 0.6533 -0.7313
vn -0.5354 0.6533 -0.5354
vn -0.7313 0.6533 -0.1960
vn -0.7313 0.6533 0.1960
vn -0.5354 0.6533 0.5354
vn -0.1960 0.6533 0.7313
vn 0.1960 0.6533 0.7313
vn 0.5354 0.6533 0.5354
vn 0.7313 0.6533 0.1960
vn 0.9434 0.2145 -0.2528
vn 0.6906 0.2145 -0.6906
vn 0.2528 0.2145 -0.9434
vn -0.2528 0.2145 -0.9434
vn -0.6906 0.2145 -0.6906
vn -0.9434 0.2145 -0.2528
vn -0.9434 0.2145 0.2528
vn -0.6906 0.2145 0.6906
vn -0.2528 0.2145 0.9434
vn 0.2528 0.2145 0.9434
vn 0.6906 0.2145 0.6906
vn 0.9434 0.2145 0.2528
vn 0.9518 0.1704 -0.2550
vn 0.6968 0.1704 -0.6968
vn 0.2550 0.1704 -0.9518
vn -0.2550 0.1704 -0.9518
vn -0.6968 0.1704 -0.6968
vn -0.9518 0.1704 -0.2550
vn -0.9518 0.1704 0.2550
vn -0.6968 0.1704 0.6968
vn -0.2550 0.1704 0.9518
vn 0.2550 0.1704 0.9518
vn 0.6968 0.1704 0.6968
vn 0.9518 0.1704 0.2550
vn 0.9578 0.1294 -0.2566
vn 0.7012 0.1294 -0.7012
vn 0.2566 0.1294 -0.9578
vn -0.2566 0.1294 -0.9578
vn -0.7012 0.1294 -0.7012
vn -0.9578 0.1294 -0.2566
vn -0.9578 0.1294 0.2566
vn -0.7012 0.1294 0.7012
vn -0.2566 0.1294 0.9578
vn 0.2566 0.1294 0.9578
vn 0.7012 0.1294 0.7012
vn 0.9578 0.1294 0.2566
vn 0.9627 0.0811 -0.2580
vn 0.7048 0.0811 -0.7048
vn 0.2580 0.0811 -0.9627
vn -0.2580 0.0811 -0.9627
vn -0.7048 0.0811 -0.7048
vn -0.9627 0.0811 -0.2580
vn -0.9627 0.0811 0.2580
vn -0.7048 0.0811 0.7048
vn -0.2580 0.0811 0.9627
vn 0.2580 0.0811 0.9627
vn 0.7048 0.0811 0.7048
vn 0.9627 0.0811 0.2580
vn 0.9657 -0.0198 -0.2588
vn 0.7070 -0.0198 -0.7070
vn 0.2588 -0.0198 -0.9657
vn -0.2588 -0.0198 -0.9657
vn -0.7070 -0.0198 -0.7070
vn -0.9657 -0.0198 -0.2588
vn -0.9657 -0.0198 0.2588
vn -0.7070 -0.0198 0.7070
vn -0.2588 -0.0198 0.9657
vn 0.2588 -0.0198 0.9657
vn 0.7070 -0.0198 0.7070
vn 0.9657 -0.0198 0.2588
vn 0.9608 -0.1029 -0.2574
vn 0.7034 -0.1029 -0.7033
vn 0.2574 -0.1029 -0.9608
vn -0.2574 -0.1029 -0.9608
vn -0.7033 -0.1029 -0.7034
vn -0.9608 -0.1029 -0.2574
vn -0.9608 -0.1029 0.2574
vn -0.7034 -0.1029 0.7033
vn -0.2574 -0.1029 0.9608
vn 0.2574 -0.1029 0.9608
vn 0.7034 -0.1029 0.7034
vn 0.9608 -0.1029 0.2574
vn 0.9514 -0.1730 -0.2549
vn 0.6964 -0.1730 -0.6964
vn 0.2549 -0.1730 -0.9514
vn -0.2549 -0.1730 -0.9514
vn -0.6964 -0.1730 -0.6964
vn -0.9514 -0.1730 -0.2549
vn -0.9514 -0.1730 0.2549
vn -0.6964 -0.1730 0.6964
vn -0.2549 -0.1730 0.9514
vn 0.2549 -0.1730 0.9514
vn 0.6964 -0.1730 0.6964
vn 0.9514 -0.1730 0.2549
vn 0.9163 -0.3165 -0.2455
vn 0.6707 -0.3165 -0.6707
vn 0.2455 -0.3165 -0.9163
vn -0.2455 -0.3165 -0.9163
vn -0.6707 -0.3165 -0.6708
vn -0.9163 -0.3165 -0.2455
vn -0.9163 -0.3165 0.2455
vn -0.6708 -0.3165 0.6707
vn -0.2455 -0.3165 0.9163
vn 0.2455 -0.3165 0.9163
vn 0.6707 -0.3165 0.6708
vn 0.9163 -0.3165 0.2455
vn 0.9659 -0.0000 -0.2588
vn 0.7071 -0.0000 -0.7071
vn 0.2588 -0.0000 -0.9659
vn -0.2588 -0.0000 -0.9659
vn -0.7071 -0.0000 -0.7071
vn -0.9659 -0.0000 -0.2588
vn -0.9659 -0.0000 0.2588
vn -0.7071 -0.0000 0.7071
vn -0.2588 -0.0000 0.9659
vn 0.2588 -0.0000 0.9659
vn 0.7071 -0.0000 0.7071
vn 0.9659 -0.0000 0.2588
vn 0.3253 0.9416 -0.0872
vn 0.2381 0.9416 -0.2381
vn 0.0872 0.9416 -0.3253
vn -0.0872 0.9416 -0.3253
vn -0.2381 0.9416 -0.2381
vn -0.3253 0.9416 -0.0872
vn -0.3253 0.9416 0.0872
vn -0.2381 0.9416 0.2381
vn -0.0872 0.9416 0.3253
vn 0.0872 0.9416 0.3253
vn 0.2381 0.9416 0.2381
vn 0.3253 0.9416 0.0872
vn -0.0000 1.0000 -0.0000
vt 0.437497 0.937500
vt 0.437497 0.937500
vt 0.437497 0.937500
vt 0.187500 0.937500
s 0
f 3/1/1 5/1/1 19/1/1 17/2/1
f 17/2/2 19/1/2 33/1/2 31/1/2
f 31/1/3 33/1/3 47/3/3 45/2/3
f 45/1/4 47/1/4 61/1/4 59/1/4
f 59/1/5 61/1/5 75/1/5 73/1/5
f 73/1/6 75/1/6 89/1/6 87/1/6
f 87/1/7 89/1/7 103/1/7 101/1/7
f 101/1/8 103/1/8 117/1/8 115/1/8
f 115/1/9 117/1/9 131/1/9 129/1/9
f 129/1/10 131/1/10 145/1/10 143/1/10
f 143/1/11 145/1/11 159/1/11 157/1/11
f 157/1/12 159/1/12 5/1/12 3/1/12
f 1/1/13 2/1/13 16/1/13 15/1/13
f 15/1/14 16/1/14 30/1/14 29/1/14
f 29/1/15 30/1/15 44/1/15 43/1/15
f 43/1/16 44/1/16 58/1/16 57/1/16
f 57/1/17 58/1/17 72/1/17 71/1/17
f 71/1/18 72/1/18 86/1/18 85/1/18
f 85/1/19 86/1/19 100/1/19 99/1/19
f 99/1/20 100/1/20 114/1/20 113/1/20
f 113/1/21 114/1/21 128/1/21 127/1/21
f 127/1/22 128/1/22 142/1/22 141/1/22
f 141/1/23 142/1/23 156/1/23 155/1/23
f 155/1/24 156/1/24 2/1/24 1/1/24
f 4/1/25 3/1/25 17/2/25 18/1/25
f 18/1/26 17/2/26 31/1/26 32/3/26
f 32/3/27 31/1/27 45/2/27 46/2/27
f 46/2/28 45/2/28 59/1/28 60/1/28
f 60/1/29 59/1/29 73/1/29 74/1/29
f 74/1/30 73/1/30 87/1/30 88/1/30
f 88/1/31 87/1/31 101/1/31 102/1/31
f 102/1/32 101/1/32 115/1/32 116/1/32
f 116/1/33 115/1/33 129/1/33 130/1/33
f 130/1/34 129/1/34 143/1/34 144/1/34
f 144/1/35 143/1/35 157/1/35 158/1/35
f 158/1/36 157/1/36 3/1/36 4/1/36
f 2/1/37 4/1/37 18/1/37 16/1/37
f 16/1/38 18/1/38 32/3/38 30/1/38
f 30/1/39 32/3/39 46/2/39 44/3/39
f 44/1/40 46/1/40 60/1/40 58/1/40
f 58/1/41 60/1/41 74/1/41 72/1/41
f 72/1/42 74/1/42 88/1/42 86/1/42
f 86/1/43 88/1/43 102/1/43 100/1/43
f 100/1/44 102/1/44 116/1/44 114/1/44
f 114/1/45 116/1/45 130/1/45 128/1/45
f 128/1/46 130/1/46 144/1/46 142/1/46
f 142/1/47 144/1/47 158/1/47 156/1/47
f 156/1/48 158/1/48 4/1/48 2/1/48
f 5/1/49 6/3/49 20/3/49 19/1/49
f 19/1/50 20/3/50 34/1/50 33/1/50
f 33/1/51 34/1/51 48/1/51 47/3/51
f 47/1/52 48/1/52 62/1/52 61/1/52
f 61/1/53 62/1/53 76/1/53 75/1/53
f 75/1/54 76/1/54 90/1/54 89/1/54
f 89/1/55 90/1/55 104/1/55 103/1/55
f 103/1/56 104/1/56 118/1/56 117/1/56
f 117/1/57 118/1/57 132/1/57 131/1/57
f 131/1/58 132/1/58 146/1/58 145/1/58
f 145/1/59 146/1/59 160/1/59 159/1/59
f 159/1/60 160/1/60 6/1/60 5/1/60
f 6/3/61 7/1/61 21/1/61 20/3/61
f 20/3/62 21/1/62 35/1/62 34/1/62
f 34/1/63 35/1/63 49/3/63 48/1/63
f 48/1/64 49/1/64 63/1/64 62/1/64
f 62/1/65 63/1/65 77/1/65 76/1/65
f 76/1/66 77/1/66 91/1/66 90/1/66
f 90/1/67 91/1/67 105/1/67 104/1/67
f 104/1/68 105/1/68 119/1/68 118/1/68
f 118/1/69 119/1/69 133/1/69 132/1/69
f 132/1/70 133/1/70 147/1/70 146/1/70
f 146/1/71 147/1/71 161/1/71 160/1/71
f 160/1/72 161/1/72 7/1/72 6/1/72
f 7/1/73 8/1/73 22/1/73 21/1/73
f 21/1/74 22/1/74 36/2/74 35/1/74
f 35/1/75 36/2/75 50/1/75 49/3/75
f 49/1/76 50/1/76 64/1/76 63/1/76
f 63/1/77 64/1/77 78/1/77 77/1/77
f 77/1/78 78/1/78 92/1/78 91/1/78
f 91/1/79 92/1/79 106/1/79 105/1/79
f 105/1/80 106/1/80 120/1/80 119/1/80
f 119/1/81 120/1/81 134/1/81 133/1/81
f 133/1/82 134/1/82 148/1/82 147/1/82
f 147/1/83 148/1/83 162/1/83 161/1/83
f 161/1/84 162/1/84 8/1/84 7/1/84
f 8/1/85 9/1/85 23/1/85 22/1/85
f 22/1/86 23/1/86 37/3/86 36/2/86
f 36/2/87 37/3/87 51/3/87 50/1/87
f 50/1/88 51/1/88 65/1/88 64/1/88
f 64/1/89 65/1/89 79/1/89 78/1/89
f 78/1/90 79/1/90 93/1/90 92/1/90
f 92/1/91 93/1/91 107/1/91 106/1/91
f 106/1/92 107/1/92 121/1/92 120/1/92
f 120/1/93 121/1/93 135/1/93 134/1/93
f 134/1/94 135/1/94 149/1/94 148/1/94
f 148/1/95 149/1/95 163/1/95 162/1/95
f 162/1/96 163/1/96 9/1/96 8/1/96
f 9/1/97 10/1/97 24/1/97 23/1/97
f 23/1/98 24/1/98 38/3/98 37/3/98
f 37/3/99 38/3/99 52/2/99 51/3/99
f 51/1/100 52/1/100 66/1/100 65/1/100
f 65/1/101 66/1/101 80/1/101 79/1/101
f 79/1/102 80/1/102 94/1/102 93/1/102
f 93/1/103 94/1/103 108/1/103 107/1/103
f 107/1/104 108/1/104 122/1/104 121/1/104
f 121/1/105 122/2/105 136/1/105 135/2/105
f 135/1/106 136/1/106 150/1/106 149/1/106
f 149/1/107 150/1/107 164/1/107 163/1/107
f 163/1/108 164/1/108 10/1/108 9/1/108
f 10/1/109 11/2/109 25/1/109 24/1/109
f 24/1/110 25/1/110 39/2/110 38/3/110
f 38/3/111 39/2/111 53/1/111 52/2/111
f 52/1/112 53/1/112 67/1/112 66/1/112
f 66/1/113 67/1/113 81/1/113 80/1/113
f 80/1/114 81/1/114 95/1/114 94/1/114
f 94/1/115 95/1/115 109/1/115 108/1/115
f 108/1/116 109/1/116 123/1/116 122/1/116
f 122/2/117 123/1/117 137/1/117 136/1/117
f 136/1/118 137/1/118 151/1/118 150/1/118
f 150/1/119 151/1/119 165/1/119 164/1/119
f 164/1/120 165/1/120 11/1/120 10/1/120
f 11/2/121 12/1/121 26/1/121 25/1/121
f 25/1/122 26/1/122 40/1/122 39/2/122
f 39/2/123 40/1/123 54/1/123 53/1/123
f 53/1/124 54/1/124 68/1/124 67/1/124
f 67/1/125 68/1/125 82/1/125 81/1/125
f 81/1/126 82/1/126 96/1/126 95/1/126
f 95/1/127 96/1/127 110/1/127 109/1/127
f 109/1/128 110/1/128 124/1/128 123/1/128
f 123/1/129 124/1/129 138/1/129 137/1/129
f 137/1/130 138/1/130 152/1/130 151/1/130
f 151/1/131 152/1/131 166/1/131 165/1/131
f 165/1/132 166/1/132 12/1/132 11/1/132
f 12/1/133 13/1/133 27/3/133 26/1/133
f 26/1/134 27/3/134 41/2/134 40/1/134
f 40/1/135 41/2/135 55/3/135 54/1/135
f 54/1/136 55/1/136 69/1/136 68/1/136
f 68/1/137 69/1/137 83/1/137 82/1/137
f 82/1/138 83/1/138 97/1/138 96/1/138
f 96/1/139 97/1/139 111/1/139 110/1/139
f 110/1/140 111/1/140 125/1/140 124/1/140
f 124/1/141 125/1/141 139/1/141 138/1/141
f 138/1/142 139/1/142 153/1/142 152/1/142
f 152/1/143 153/1/143 167/1/143 166/1/143
f 166/1/144 167/1/144 13/1/144 12/1/144
f 14/1/145 1/1/145 15/1/145 28/1/145
f 28/1/146 15/1/146 29/1/146 42/1/146
f 42/1/147 29/1/147 43/1/147 56/1/147
f 56/1/148 43/1/148 57/1/148 70/1/148
f 70/1/149 57/1/149 71/1/149 84/1/149
f 84/1/150 71/1/150 85/1/150 98/1/150
f 98/1/151 85/1/151 99/1/151 112/1/151
f 112/1/152 99/1/152 113/1/152 126/1/152
f 126/1/153 113/1/153 127/1/153 140/1/153
f 140/3/154 127/3/154 141/1/154 154/3/154
f 154/3/155 141/1/155 155/2/155 168/3/155
f 168/3/156 155/2/156 1/3/156 14/1/156
f 171/1/157 185/1/157 187/1/157 173/1/157
f 185/1/158 199/1/158 201/1/158 187/1/158
f 199/1/159 213/1/159 215/1/159 201/1/159
f 213/1/160 227/1/160 229/1/160 215/1/160
f 227/1/161 241/1/161 243/1/161 229/1/161
f 241/1/162 255/1/162 257/1/162 243/1/162
f 255/1/163 269/1/163 271/1/163 257/1/163
f 269/1/164 283/1/164 285/1/164 271/1/164
f 283/1/165 297/1/165 299/1/165 285/1/165
f 297/2/166 311/1/166 313/1/166 299/1/166
f 311/1/167 325/1/167 327/1/167 313/1/167
f 325/1/168 171/1/168 173/1/168 327/1/168
f 169/1/169 183/1/169 184/1/169 170/1/169
f 183/1/169 197/1/169 198/1/169 184/1/169
f 197/1/169 211/1/169 212/1/169 198/1/169
f 211/1/169 225/1/169 226/1/169 212/1/169
f 225/1/169 239/1/169 240/1/169 226/1/169
f 239/1/169 253/1/169 254/1/169 240/1/169
f 253/1/169 267/1/169 268/1/169 254/1/169
f 267/1/169 281/1/169 282/1/169 268/1/169
f 281/1/169 295/1/169 296/1/169 282/1/169
f 295/1/169 309/1/169 310/1/169 296/1/169
f 309/1/169 323/1/169 324/1/169 310/1/169
f 323/1/169 169/1/169 170/1/169 324/1/169
f 172/1/170 186/1/170 185/1/170 171/1/170
f 186/1/171 200/1/171 199/1/171 185/1/171
f 200/1/172 214/1/172 213/1/172 199/1/172
f 214/1/173 228/1/173 227/1/173 213/1/173
f 228/1/174 242/1/174 241/1/174 227/1/174
f 242/1/175 256/1/175 255/1/175 241/1/175
f 256/1/176 270/1/176 269/1/176 255/1/176
f 270/1/177 284/1/177 283/1/177 269/1/177
f 284/1/178 298/1/178 297/1/178 283/1/178
f 298/1/179 312/2/179 311/1/179 297/2/179
f 312/2/180 326/1/180 325/1/180 311/1/180
f 326/1/181 172/1/181 171/1/181 325/1/181
f 170/1/182 184/1/182 186/1/182 172/1/182
f 184/1/183 198/1/183 200/1/183 186/1/183
f 198/1/184 212/1/184 214/1/184 200/1/184
f 212/1/185 226/1/185 228/1/185 214/1/185
f 226/1/186 240/1/186 242/1/186 228/1/186
f 240/1/187 254/1/187 256/1/187 242/1/187
f 254/1/188 268/1/188 270/1/188 256/1/188
f 268/1/189 282/1/189 284/1/189 270/1/189
f 282/1/190 296/1/190 298/1/190 284/1/190
f 296/1/191 310/1/191 312/2/191 298/1/191
f 310/1/192 324/1/192 326/1/192 312/2/192
f 324/1/193 170/1/193 172/1/193 326/1/193
f 173/1/194 187/1/194 188/1/194 174/1/194
f 187/1/195 201/1/195 202/1/195 188/1/195
f 201/1/196 215/1/196 216/1/196 202/1/196
f 215/1/197 229/1/197 230/1/197 216/1/197
f 229/1/198 243/1/198 244/1/198 230/1/198
f 243/1/199 257/1/199 258/1/199 244/1/199
f 257/1/200 271/1/200 272/1/200 258/1/200
f 271/1/201 285/1/201 286/1/201 272/1/201
f 285/1/202 299/1/202 300/1/202 286/1/202
f 299/1/203 313/1/203 314/3/203 300/1/203
f 313/1/204 327/1/204 328/2/204 314/3/204
f 327/1/205 173/1/205 174/2/205 328/2/205
f 174/1/206 188/1/206 189/1/206 175/1/206
f 188/1/207 202/1/207 203/1/207 189/1/207
f 202/1/208 216/1/208 217/1/208 203/1/208
f 216/1/209 230/1/209 231/1/209 217/1/209
f 230/1/210 244/1/210 245/1/210 231/1/210
f 244/1/211 258/1/211 259/1/211 245/1/211
f 258/1/212 272/1/212 273/1/212 259/1/212
f 272/1/213 286/1/213 287/1/213 273/1/213
f 286/1/214 300/1/214 301/1/214 287/1/214
f 300/1/215 314/3/215 315/3/215 301/2/215
f 314/3/216 328/2/216 329/1/216 315/3/216
f 328/2/217 174/2/217 175/1/217 329/1/217
f 175/1/218 189/1/218 190/1/218 176/1/218
f 189/1/219 203/1/219 204/1/219 190/1/219
f 203/1/220 217/1/220 218/1/220 204/1/220
f 217/1/221 231/1/221 232/1/221 218/1/221
f 231/1/222 245/1/222 246/1/222 232/1/222
f 245/1/223 259/1/223 260/1/223 246/1/223
f 259/1/224 273/1/224 274/1/224 260/1/224
f 273/1/225 287/1/225 288/1/225 274/1/225
f 287/1/226 301/1/226 302/1/226 288/1/226
f 301/2/227 315/3/227 316/2/227 302/1/227
f 315/3/228 329/1/228 330/1/228 316/2/228
f 329/1/229 175/1/229 176/1/229 330/1/229
f 176/1/230 190/1/230 191/1/230 177/1/230
f 190/1/231 204/1/231 205/1/231 191/1/231
f 204/1/232 218/1/232 219/1/232 205/1/232
f 218/1/233 232/1/233 233/1/233 219/1/233
f 232/1/234 246/1/234 247/1/234 233/1/234
f 246/1/235 260/1/235 261/1/235 247/1/235
f 260/1/236 274/1/236 275/1/236 261/1/236
f 274/1/237 288/1/237 289/1/237 275/1/237
f 288/1/238 302/1/238 303/1/238 289/1/238
f 302/1/239 316/2/239 317/3/239 303/1/239
f 316/2/240 330/1/240 331/1/240 317/3/240
f 330/1/241 176/1/241 177/1/241 331/1/241
f 177/1/242 191/1/242 192/1/242 178/1/242
f 191/1/243 205/1/243 206/1/243 192/1/243
f 205/1/244 219/1/244 220/1/244 206/1/244
f 219/1/245 233/1/245 234/1/245 220/1/245
f 233/1/246 247/1/246 248/1/246 234/1/246
f 247/1/247 261/1/247 262/1/247 248/1/247
f 261/1/248 275/1/248 276/1/248 262/1/248
f 275/1/249 289/1/249 290/1/249 276/1/249
f 289/1/250 303/1/250 304/1/250 290/1/250
f 303/1/251 317/3/251 318/2/251 304/1/251
f 317/3/252 331/1/252 332/2/252 318/2/252
f 331/1/253 177/1/253 178/1/253 332/1/253
f 178/1/254 192/1/254 193/1/254 179/1/254
f 192/1/255 206/1/255 207/1/255 193/1/255
f 206/1/256 220/1/256 221/1/256 207/1/256
f 220/1/257 234/1/257 235/1/257 221/1/257
f 234/1/258 248/1/258 249/1/258 235/1/258
f 248/1/259 262/1/259 263/1/259 249/1/259
f 262/1/260 276/1/260 277/1/260 263/1/260
f 276/1/261 290/1/261 291/1/261 277/1/261
f 290/1/262 304/1/262 305/1/262 291/1/262
f 304/1/263 318/2/263 319/2/263 305/1/263
f 318/2/264 332/2/264 333/1/264 319/2/264
f 332/1/265 178/1/265 179/1/265 333/1/265
f 179/1/266 193/1/266 194/1/266 180/1/266
f 193/1/267 207/1/267 208/1/267 194/1/267
f 207/1/268 221/1/268 222/1/268 208/1/268
f 221/1/269 235/1/269 236/1/269 222/1/269
f 235/1/270 249/1/270 250/1/270 236/1/270
f 249/1/271 263/1/271 264/1/271 250/1/271
f 263/1/272 277/1/272 278/1/272 264/1/272
f 277/1/273 291/1/273 292/1/273 278/1/273
f 291/1/274 305/1/274 306/1/274 292/1/274
f 305/1/275 319/2/275 320/3/275 306/1/275
f 319/2/276 333/1/276 334/2/276 320/3/276
f 333/1/277 179/1/277 180/1/277 334/1/277
f 180/1/278 194/1/278 195/1/278 181/1/278
f 194/1/279 208/1/279 209/1/279 195/1/279
f 208/1/280 222/1/280 223/1/280 209/1/280
f 222/1/281 236/1/281 237/1/281 223/1/281
f 236/1/282 250/1/282 251/1/282 237/1/282
f 250/1/283 264/1/283 265/1/283 251/1/283
f 264/1/284 278/1/284 279/1/284 265/1/284
f 278/1/285 292/1/285 293/1/285 279/1/285
f 292/1/286 306/1/286 307/1/286 293/1/286
f 306/1/287 320/3/287 321/1/287 307/1/287
f 320/3/288 334/2/288 335/2/288 321/1/288
f 334/1/289 180/1/289 181/1/289 335/1/289
f 182/1/290 196/1/290 183/1/290 169/1/290
f 196/1/291 210/1/291 197/1/291 183/1/291
f 210/1/292 224/1/292 211/1/292 197/1/292
f 224/1/293 238/1/293 225/1/293 211/1/293
f 238/1/294 252/1/294 239/1/294 225/1/294
f 252/1/295 266/1/295 253/1/295 239/1/295
f 266/1/296 280/1/296 267/1/296 253/1/296
f 280/1/297 294/1/297 281/1/297 267/1/297
f 294/1/298 308/1/298 295/1/298 281/1/298
f 308/1/299 322/1/299 309/1/299 295/1/299
f 322/1/300 336/1/300 323/1/300 309/1/300
f 336/1/301 182/1/301 169/1/301 323/1/301
f 27/1/302 13/1/302 181/3/302 195/1/302
f 14/1/169 28/1/169 196/1/169 182/1/169
f 41/1/303 27/1/303 195/1/303 209/1/303
f 28/1/169 42/1/169 210/1/169 196/1/169
f 55/1/304 41/1/304 209/1/304 223/1/304
f 42/1/169 56/1/169 224/1/169 210/1/169
f 69/1/305 55/1/305 223/1/305 237/1/305
f 56/1/169 70/1/169 238/1/169 224/1/169
f 83/1/306 69/1/306 237/1/306 251/1/306
f 70/1/169 84/1/169 252/1/169 238/1/169
f 97/1/307 83/1/307 251/1/307 265/1/307
f 84/1/169 98/1/169 266/1/169 252/1/169
f 111/1/308 97/1/308 265/1/308 279/1/308
f 98/1/169 112/1/169 280/1/169 266/1/169
f 125/1/309 111/1/309 279/1/309 293/2/309
f 112/1/169 126/1/169 294/1/169 280/1/169
f 139/1/310 125/1/310 293/1/310 307/1/310
f 126/1/169 140/1/169 308/1/169 294/1/169
f 153/1/311 139/1/311 307/1/311 321/1/311
f 140/1/169 154/1/169 322/1/169 308/1/169
f 167/1/312 153/1/312 321/1/312 335/2/312
f 154/1/169 168/1/169 336/1/169 322/1/169
f 13/1/313 167/3/313 335/1/313 181/3/313
f 168/1/169 14/1/169 182/1/169 336/1/169
f 338/4/314 339/4/314 340/4/314 341/4/314 342/4/314 343/4/314 344/4/314 345/4/314 346/4/314 347/4/314 348/4/314 349/4/314 350/4/314 351/4/314 352/4/314 353/4/314 354/4/314 355/4/314 356/4/314 357/4/314 358/4/314 359/4/314 360/4/314 361/4/314 362/4/314 363/4/314 364/4/314 365/4/314 366/4/314 367/4/314 368/4/314 337/4/314
o Cube.033
v -3.675773 0.016212 2.682854
v -3.675773 1.361996 2.682854
v -3.675773 0.016212 -2.937645
v -3.675773 1.361996 -2.937645
v 3.391234 0.016212 2.682854
v 3.391234 1.361996 2.682854
v 3.391234 0.016212 -2.937645
v 3.391234 1.361996 -2.937645
v -0.803592 0.016212 -2.937645
v -0.803592 1.361996 -2.937645
v -0.803592 0.016212 2.682854
v -0.803592 1.361996 2.682854
v -3.675773 0.016212 -2.011086
v -3.675773 1.361996 -2.011086
v 3.391234 0.016212 -2.011086
v 3.391234 1.361996 -2.011086
v -0.803592 1.361996 -2.011086
v -0.803592 0.016212 -2.011086
v -3.675773 0.016212 1.363586
v 3.391234 1.361996 1.363586
v -0.865357 1.407532 1.162272
v -0.803592 0.016212 1.363586
v -3.614008 1.407532 1.162272
v 3.391234 0.016212 1.363586
v -3.614008 1.725438 0.870956
v -3.675773 1.770975 -2.011086
v -0.803592 1.770975 -2.011086
v -0.865357 1.717735 0.870956
v -3.292416 0.016212 -2.937645
v -3.292416 1.361996 2.682854
v -3.292416 1.361996 -2.937645
v -3.292416 0.016212 2.682854
v -3.292416 0.016212 -2.011086
v -3.292416 1.361996 -2.011086
v -3.292416 0.016212 1.363586
v -3.292416 1.407532 1.162272
v -3.292416 1.770975 -2.011086
v -3.292416 1.720553 0.870956
v -2.048004 2.640475 -2.011086
v -2.048004 2.640475 0.829228
v -3.292416 2.019729 -2.011086
v -2.367857 2.640475 -2.011086
v -3.269235 2.178497 -2.011086
v -3.200855 2.321432 -2.011086
v -3.090705 2.441187 -2.011086
v -2.944310 2.533091 -2.011086
v -2.769007 2.595578 -2.011086
v -2.573590 2.630092 -2.011086
v -1.728151 2.640475 -2.011086
v -0.803592 2.019729 -2.011086
v -1.522417 2.630092 -2.011086
v -1.327000 2.595578 -2.011086
v -1.151698 2.533091 -2.011086
v -1.005302 2.441187 -2.011086
v -0.895152 2.321432 -2.011086
v -0.826773 2.178497 -2.011086
v -0.803592 2.019729 0.829228
v -1.728151 2.640475 0.829228
v -0.826773 2.178497 0.829228
v -0.895152 2.321432 0.829228
v -1.005302 2.441187 0.829228
v -1.151698 2.533091 0.829228
v -1.327000 2.595578 0.829228
v -1.522417 2.630092 0.829228
v -2.367857 2.640475 0.829228
v -3.292416 2.019729 0.829228
v -2.573590 2.630092 0.829228
v -2.769007 2.595578 0.829228
v -2.944310 2.533091 0.829228
v -3.090705 2.441187 0.829228
v -3.200855 2.321432 0.829228
v -3.269235 2.178497 0.829228
v 2.552269 0.789298 -2.937645
v 0.874339 1.361996 -2.937645
v 0.874339 0.789298 -2.937645
v 2.552269 1.361996 -2.937645
v 0.874339 0.789298 2.682854
v 0.874339 0.016212 2.682854
v 2.552269 0.789298 2.682854
v 2.552269 0.016212 2.682854
v 2.552269 0.016212 -2.937645
v -3.292416 0.789298 2.682854
v 0.874339 0.016212 -2.937645
v -3.292416 0.789298 -2.937645
v 2.552269 1.361996 2.682854
v 3.391234 0.789298 1.363586
v 0.874339 1.361996 2.682854
v -3.675773 0.789298 1.363586
v -3.675773 0.789298 -2.011086
v 0.874339 1.361996 -2.011086
v 3.391234 0.789298 -2.011086
v 2.552269 1.361996 -2.011086
v 2.552269 0.016212 -2.011086
v -0.803592 0.789298 -2.937645
v 0.874339 0.016212 -2.011086
v -0.803592 0.789298 2.682854
v 3.391234 0.789298 2.682854
v 0.874339 1.361996 1.363586
v 3.391234 0.789298 -2.937645
v 2.552269 1.361996 1.363586
v 2.552269 0.016212 1.363586
v -3.675773 0.789298 -2.937645
v 0.874339 0.016212 1.363586
v -3.675773 0.789298 2.682854
v 0.874339 0.016212 3.741667
v 2.552269 0.016212 3.741667
v 2.552269 0.789298 3.741667
v 0.874339 0.789298 3.741667
v -0.803592 0.789298 3.250295
v -0.803592 0.016212 3.250295
v 0.874339 0.016212 3.250295
v 0.874339 0.789298 3.250295
v -3.675773 1.361996 -0.323750
v 3.391234 0.016212 -0.323750
v -3.675773 0.016212 -0.323750
v 3.391234 1.361996 -0.323750
v -0.803592 1.361996 -0.323750
v -0.803592 0.016212 -0.323750
v -3.675773 1.770975 -0.323750
v -0.803592 1.770975 -0.323750
v -3.292416 1.770975 -0.323750
v -3.292416 0.016212 -0.323750
v -0.803592 2.019729 -0.323750
v -3.292416 2.019729 -0.323750
v 0.874339 0.016212 -0.323750
v 2.552269 0.016212 -0.323750
v 2.552269 1.361996 -0.323750
v 0.874339 1.361996 -0.323750
v -3.675773 0.789298 -0.323750
v 3.391234 0.789298 -0.323750
v 3.849855 0.789298 -2.937645
v 3.849855 0.016212 -2.937645
v 3.849855 0.016212 -2.011086
v 3.849855 0.016212 -0.323750
v 3.849855 0.789298 -2.011086
v 3.849855 0.789298 -0.323750
v -4.093959 0.016212 1.363586
v -4.093959 0.016212 2.682854
v -4.093959 0.789298 1.363586
v -4.093959 0.789298 2.682854
v -3.980456 0.789298 -2.011086
v -3.980456 0.016212 -2.011086
v -3.980456 0.789298 -0.323750
v -3.980456 0.016212 -0.323750
v -0.803592 0.789298 -3.288486
v -0.803592 0.016212 -3.288486
v -3.292416 0.016212 -3.288486
v -3.292416 0.789298 -3.288486
v 0.874339 0.016212 -3.288486
v 0.874339 0.789298 -3.288486
v -3.746886 0.789298 -2.615493
v -3.292416 1.433108 -2.739850
v -3.292416 1.433108 -2.615493
v -3.746886 1.433108 -2.615493
v -3.746886 1.433108 -2.739850
v -0.612519 1.361996 2.682854
v -0.512856 1.361996 2.682854
v -0.512856 0.789298 2.682854
v -0.612519 0.789298 2.682854
v -0.512856 0.016212 3.250295
v -0.612519 0.016212 3.250295
v -0.612519 0.789298 3.250294
v -0.512856 0.789298 3.250294
v -0.612519 0.858711 2.682854
v -0.512856 0.858711 2.682854
v -0.612519 0.858711 3.332370
v -0.512856 0.858711 3.332370
v -0.612519 0.016212 3.332370
v -0.512856 0.016212 3.332370
v -3.292416 1.361996 1.204000
v -0.803592 1.361996 1.204000
v -3.292416 1.770975 0.829228
v -0.803592 1.770975 0.829228
v -3.675773 1.361996 1.204000
v -3.675773 1.770975 0.829228
v -3.292416 1.361996 -2.615493
v -3.292416 1.361996 -2.739850
v -0.803592 1.361996 -2.739850
v -0.803592 1.361996 -2.615493
v -3.675773 0.016212 -2.615493
v -3.675773 0.016212 -2.739850
v -3.675773 1.361996 -2.739850
v -3.675773 1.361996 -2.615493
v -3.675773 0.789298 -2.615493
v -3.675773 0.789298 -2.739850
v -3.746886 0.789298 -2.739850
v -3.746886 0.016212 -2.739850
v -3.746886 0.016212 -2.615493
v -0.803592 1.433108 -2.615493
v -0.803592 1.433108 -2.739850
v -2.048004 2.674368 -0.323750
v -2.048004 2.674368 0.829228
v -1.518608 2.663771 -2.011086
v -1.727296 2.674358 -2.011086
v -1.727296 2.674358 -0.323750
v -1.727296 2.674358 0.829228
v -1.518608 2.663771 0.829228
v -1.518608 2.663771 -0.323750
v -1.318332 2.628345 -2.011086
v -1.318332 2.628345 0.829228
v -1.318332 2.628345 -0.323750
v -1.136910 2.563589 -2.011086
v -1.136910 2.563589 0.829228
v -1.136910 2.563589 -0.323750
v -0.983626 2.467243 -2.011086
v -0.983626 2.467243 0.829228
v -0.983626 2.467243 -0.323750
v -0.867082 2.340427 -2.011086
v -0.867082 2.340427 0.829228
v -0.867082 2.340427 -0.323750
v -0.794349 2.188370 -2.011086
v -0.794349 2.188370 0.829228
v -0.794349 2.188370 -0.323750
v -0.770054 2.024626 -2.011086
v -0.770054 2.024626 0.829228
v -0.770054 2.024626 -0.323750
v -3.301658 2.188370 -2.011086
v -3.325953 2.024626 -2.011086
v -3.325953 2.024626 -0.323750
v -3.325953 2.024626 0.829228
v -3.301658 2.188370 0.829228
v -3.301658 2.188370 -0.323750
v -3.228926 2.340427 -2.011086
v -3.228926 2.340427 0.829228
v -3.228926 2.340427 -0.323750
v -3.112381 2.467243 -2.011086
v -3.112381 2.467243 0.829228
v -3.112381 2.467243 -0.323750
v -2.959098 2.563589 -2.011086
v -2.959098 2.563589 0.829228
v -2.959098 2.563589 -0.323750
v -2.777675 2.628345 -2.011086
v -2.777675 2.628345 0.829228
v -2.777675 2.628345 -0.323750
v -2.577399 2.663771 -2.011086
v -2.577399 2.663771 0.829228
v -2.577399 2.663771 -0.323750
v -2.368711 2.674358 -2.011086
v -2.368711 2.674358 0.829228
v -2.368711 2.674358 -0.323750
v -2.048004 2.674368 -2.011086
v -0.803592 1.361996 0.829229
v -3.315573 1.457781 1.182833
v -3.292416 1.425229 1.181584
v -3.269258 1.457781 1.182833
v -3.315570 1.735748 0.923163
v -3.269258 1.735244 0.923162
v -3.292416 1.736985 0.889857
v -0.888514 1.457698 1.182744
v -0.865357 1.425232 1.181587
v -0.888514 1.732146 0.923250
v -0.865357 1.733856 0.889752
v -3.614008 1.425227 1.181581
v -3.590852 1.457945 1.183010
v -3.590854 1.741228 0.922986
v -3.614008 1.743130 0.890263
vn -0.0000 -0.0000 -1.0000
vn 1.0000 -0.0000 -0.0000
vn -0.0000 -0.0000 1.0000
vn -0.0000 -1.0000 -0.0000
vn -0.0000 1.0000 -0.0000
vn -1.0000 -0.0000 -0.0000
vn -0.1445 -0.9895 -0.0000
vn 0.1445 -0.9895 -0.0000
vn -0.0000 0.6756 0.7373
vn 0.0004 0.6270 0.7790
vn -0.0423 0.6789 0.7330
vn 0.0046 0.6579 0.7531
vn 0.0507 0.9987 -0.0000
vn 0.1742 0.9847 -0.0000
vn 0.3362 0.9418 -0.0000
vn 0.5322 0.8466 -0.0000
vn 0.7363 0.6767 -0.0000
vn 0.9021 0.4315 -0.0000
vn 0.9892 0.1468 -0.0000
vn -0.9892 0.1468 -0.0000
vn -0.9021 0.4315 -0.0000
vn -0.7363 0.6767 -0.0000
vn -0.5322 0.8466 -0.0000
vn -0.3362 0.9418 -0.0000
vn -0.1742 0.9847 -0.0000
vn -0.0507 0.9987 -0.0000
vn -0.0000 -0.0383 0.9993
vn 0.0109 0.9989 0.0447
vn 0.0037 0.6830 0.7304
vn -0.0000 -0.0370 0.9993
vn 0.0013 0.9987 0.0516
vn 0.7071 0.4858 0.5138
vn -0.7047 0.4795 0.5229
vn 0.0003 -0.0410 0.9992
vn 0.0195 0.9987 0.0475
vn 0.0070 0.6794 0.7337
vn 0.0005 0.6852 0.7284
vn -0.0000 -0.7373 0.6756
vn 0.0124 0.7458 -0.6661
vn 0.0009 0.7568 -0.6536
vt 0.312500 0.937500
vt 0.562500 0.812500
vt 0.562500 0.812500
vt 0.312500 0.937500
vt 0.437500 0.937500
vt 0.437500 0.187500
vt 0.312500 0.937500
vt 0.312500 0.937500
vt 0.437500 0.937500
vt 0.437500 0.937500
vt 0.437500 0.937500
vt 0.437500 0.937500
vt 0.437500 0.937500
vt 0.437500 0.937500
s 0
f 546/5/315 545/5/315 520/5/315 558/5/315
f 441/6/315 444/6/315 376/6/315 467/6/315
f 454/6/316 388/6/316 374/6/316 465/6/316
f 450/6/317 398/6/317 370/6/317 472/6/317
f 469/6/318 392/6/318 373/6/318 448/6/318
f 538/6/319 542/6/319 370/6/319 398/6/319
f 390/6/318 471/6/318 446/6/318 379/6/318
f 403/6/318 390/6/318 379/6/318 400/6/318
f 468/6/319 466/7/319 455/7/319 453/6/319
f 452/6/315 399/6/315 378/6/315 462/6/315
f 397/6/318 377/6/318 386/6/318 401/6/318
f 447/6/317 453/6/317 455/6/317 445/6/317
f 554/5/320 555/5/320 556/5/320 519/5/320
f 449/6/318 375/6/318 383/6/318 461/6/318
f 467/6/316 376/6/316 384/6/316 459/6/316
f 497/7/320 481/7/320 382/6/320 457/6/320
f 472/6/320 370/6/320 542/6/320 456/6/320
f 490/6/318 486/6/318 390/7/318 403/6/318
f 377/6/318 451/6/318 463/6/318 386/6/318
f 485/8/316 385/8/316 395/8/316 488/8/316
f 494/6/318 482/6/318 392/6/318 469/6/318
f 498/6/316 484/6/316 388/6/316 454/6/316
f 489/9/319 487/9/319 543/9/319 540/9/319
f 481/9/320 542/9/320 543/9/320 487/9/320
f 402/9/315 382/9/315 394/9/315 405/9/315
f 385/8/315 402/8/315 405/8/315 395/8/315
f 483/6/318 490/6/318 403/6/318 387/6/318
f 558/5/319 520/5/319 521/5/319 557/5/319
f 470/6/315 372/6/315 399/6/315 452/7/315
f 387/6/318 403/6/318 400/6/318 369/6/318
f 539/6/319 538/6/319 398/6/319 380/6/319
f 464/6/317 380/6/317 398/6/317 450/6/317
f 427/10/317 425/10/317 583/10/317 580/10/317
f 438/10/317 437/10/317 598/10/317 595/10/317
f 418/10/315 424/10/315 579/10/315 582/10/315
f 414/10/315 413/10/315 594/10/315 597/10/315
f 432/10/317 431/10/317 568/10/317 565/10/317
f 420/10/315 419/10/315 561/10/315 567/10/315
f 428/10/317 427/10/317 580/10/317 577/10/317
f 439/10/317 438/10/317 595/10/317 592/10/317
f 424/10/315 423/10/315 576/10/315 579/10/315
f 413/10/315 412/10/315 591/10/315 594/10/315
f 426/10/317 432/10/317 565/10/317 564/10/317
f 435/10/317 433/10/317 607/10/317 604/10/317
f 410/10/315 416/10/315 603/10/315 606/10/315
f 429/10/317 428/10/317 577/10/317 574/10/317
f 489/8/320 540/8/320 434/8/320 492/8/320
f 395/8/315 405/8/315 409/8/315 411/8/315 412/8/315 413/8/315 414/8/315 415/8/315 416/8/315 410/8/315 407/8/315 417/8/315 419/8/315 420/8/315 421/11/315 422/8/315 423/8/315 424/8/315 418/8/315
f 440/10/317 439/10/317 592/10/317 589/10/317
f 419/10/315 417/10/315 562/10/315 561/10/315
f 488/8/316 395/8/316 418/8/316 491/8/316
f 540/6/317 541/6/317 425/6/317 427/6/317 428/6/317 429/6/317 430/6/317 431/6/317 432/6/317 426/6/317 408/6/317 433/6/317 435/6/317 436/6/317 437/6/317 438/6/317 439/6/317 440/6/317 434/6/317
f 474/9/317 475/9/317 476/9/317 473/9/317
f 493/6/318 494/7/318 469/6/318 471/6/318
f 523/5/320 554/5/320 519/5/320 522/5/320
f 495/6/319 496/6/319 466/6/319 468/6/319
f 484/7/319 495/7/319 468/6/319 388/6/319
f 449/6/315 441/6/315 467/6/315 375/6/315
f 496/6/319 485/6/319 610/6/319 539/6/319 466/6/319
f 392/6/316 454/6/316 465/6/316 373/6/316
f 400/6/317 450/6/317 472/6/317 369/6/317
f 451/6/318 449/6/318 461/6/318 463/6/318
f 377/6/318 397/6/318 515/6/318 514/6/318
f 444/6/319 442/6/319 458/6/319 460/6/319
f 376/6/319 444/6/319 460/6/319 384/6/319
f 445/9/320 446/9/320 473/9/320 476/9/320
f 522/5/319 521/5/319 520/5/319 523/5/319
f 498/6/317 482/6/317 502/6/317 504/6/317
f 465/6/317 374/6/317 453/6/317 447/6/317
f 457/6/315 381/6/315 510/6/315 509/6/315
f 456/6/315 387/6/315 505/6/315 507/6/315
f 388/6/319 468/6/319 453/6/319 374/6/319
f 482/6/316 498/6/316 454/6/316 392/6/316
f 371/6/315 470/6/315 452/6/315 397/6/315
f 379/6/317 464/6/317 450/6/317 400/6/317
f 471/6/318 469/6/318 448/6/318 446/6/318
f 373/6/317 465/6/317 447/6/317 448/6/317
f 462/6/315 378/6/315 442/6/315 443/6/315
f 446/6/316 445/6/316 480/6/316 479/6/316
f 443/6/315 442/6/315 444/6/315 441/6/315
f 443/6/316 451/6/316 517/6/316 518/6/316
f 451/6/315 443/6/315 441/6/315 449/6/315
f 486/6/318 493/6/318 471/7/318 390/7/318
f 448/9/316 447/9/316 475/9/316 474/9/316
f 447/9/319 445/9/319 476/9/319 475/9/319
f 446/6/318 448/6/318 474/6/318 473/6/318
f 464/9/320 379/9/320 478/9/320 477/9/320
f 386/6/318 463/6/318 493/6/318 486/6/318
f 467/6/319 459/6/319 503/6/319 499/7/319
f 387/6/320 456/6/320 497/6/320 483/6/320
f 458/6/319 385/6/319 485/6/319 496/6/319
f 384/6/319 460/6/319 495/6/319 484/6/319
f 460/6/319 458/6/319 496/6/319 495/6/319
f 463/6/318 461/6/318 494/6/318 493/6/318
f 541/8/316 488/8/316 491/8/316 425/8/316
f 423/10/315 422/10/315 573/10/315 576/10/315
f 409/10/321 492/10/321 587/10/321 586/10/321
f 405/8/320 489/8/320 492/8/320 409/8/320
f 412/10/315 411/10/315 585/10/315 591/10/315
f 436/10/317 435/10/317 604/10/317 601/10/317
f 425/10/322 491/10/322 584/10/322 583/10/322
f 416/10/315 415/10/315 600/10/315 603/10/315
f 430/10/317 429/10/317 574/10/317 571/10/317
f 434/10/317 440/10/317 589/10/317 588/10/317
f 422/10/315 421/10/315 570/10/315 573/10/315
f 408/10/317 426/10/317 564/10/317 560/10/317
f 492/10/321 434/10/321 588/10/321 587/10/321
f 437/10/317 436/10/317 601/10/317 598/10/317
f 433/10/317 408/10/317 560/10/317 607/10/317
f 411/10/315 409/10/315 586/10/315 585/10/315
f 415/10/315 414/10/315 597/10/315 600/10/315
f 431/10/317 430/10/317 571/10/317 568/10/317
f 381/6/318 401/6/318 490/7/318 483/7/318
f 382/9/320 481/9/320 487/9/320 394/9/320
f 405/9/319 394/9/319 487/9/319 489/9/319
f 459/6/316 384/6/316 484/6/316 498/6/316
f 461/6/318 383/6/318 482/6/318 494/6/318
f 539/9/316 610/9/316 541/9/316
f 401/6/318 386/6/318 486/6/318 490/6/318
f 456/6/320 542/6/320 481/7/320 497/6/320
f 500/6/316 499/6/316 503/6/316 501/6/316
f 501/6/316 503/6/316 504/6/316 502/6/316
f 459/6/319 498/6/319 504/6/319 503/6/319
f 375/6/315 467/6/315 499/6/315 500/6/315
f 482/6/318 383/6/318 501/6/318 502/6/318
f 383/6/318 375/6/318 500/6/318 501/6/318
f 506/6/320 508/6/320 507/6/320 505/6/320
f 387/6/318 369/6/318 506/6/318 505/6/318
f 369/6/317 472/6/317 508/6/317 506/6/317
f 472/6/319 456/6/319 507/7/319 508/6/319
f 512/6/320 511/6/320 509/6/320 510/6/320
f 381/6/318 483/6/318 512/6/318 510/6/318
f 483/6/317 497/6/317 511/6/317 512/6/317
f 497/6/319 457/6/319 509/6/319 511/6/319
f 515/6/315 516/6/315 513/6/315 514/6/315
f 514/6/315 513/6/315 518/6/315 517/6/315
f 451/6/318 377/7/318 514/7/318 517/6/318
f 397/6/320 452/6/320 516/6/320 515/6/320
f 452/6/319 462/6/319 513/6/319 516/6/319
f 462/6/319 443/6/319 518/6/319 513/6/319
f 550/5/315 553/5/315 554/5/315 523/5/315
f 548/5/317 552/5/317 519/5/317 556/5/317
f 544/5/317 547/5/317 557/5/317 521/5/317
f 545/5/315 550/5/315 523/5/315 520/5/315
f 549/5/318 548/5/318 556/5/318 555/5/318
f 532/12/320 527/12/320 530/12/320 534/12/320
f 529/12/318 528/12/318 537/12/318 536/12/318
f 466/6/319 539/7/319 380/6/319 524/6/319 525/6/319 455/6/319
f 445/6/317 455/6/317 525/6/317 533/6/317 526/6/317
f 527/6/317 532/6/317 524/6/317 380/6/317 464/6/317
f 527/9/319 464/9/319 477/9/319 530/9/319
f 445/9/319 526/9/319 531/9/319 480/9/319
f 479/9/317 480/9/317 531/9/317 528/9/317
f 379/6/318 446/6/318 479/6/318 528/6/318 529/6/318 478/6/318
f 529/9/317 530/9/317 477/9/317 478/9/317
f 524/6/317 532/6/317 533/6/317 525/6/317
f 526/12/316 533/12/316 535/12/316 531/12/316
f 534/12/317 536/12/317 537/12/317 535/12/317
f 533/12/319 532/12/319 534/12/319 535/12/319
f 528/12/316 531/12/316 535/12/316 537/12/316
f 530/12/320 529/12/320 536/12/320 534/12/320
f 389/9/323 404/9/323 538/9/323 539/9/323
f 406/9/324 396/9/324 541/9/324 540/9/324
f 396/9/325 389/9/325 539/9/325 541/9/325
f 391/9/323 393/9/323 543/9/323 542/9/323
f 404/9/323 391/9/323 542/9/323 538/9/323
f 393/9/326 406/9/326 540/9/326 543/9/326
f 552/5/317 551/5/317 522/5/317 519/5/317
f 553/5/315 549/5/315 555/5/315 554/5/315
f 547/5/316 546/5/316 558/5/316 557/5/316
f 551/5/317 544/5/317 521/5/317 522/5/317
f 385/6/319 547/6/319 544/6/319 402/6/319
f 544/6/319 551/6/319 382/6/319 402/6/319
f 546/6/319 378/6/319 399/6/319 545/6/319
f 399/6/319 372/6/319 550/6/319 545/6/319
f 442/6/319 378/6/319 546/6/319 547/6/319 385/6/319 458/6/319
f 381/6/320 457/6/320 552/6/320 548/6/320
f 549/6/320 553/6/320 470/6/320 371/6/320
f 371/6/318 397/6/318 401/6/318 381/6/318 548/6/318 549/6/318
f 457/6/320 382/6/320 551/6/320 552/6/320
f 553/6/320 550/6/320 372/6/320 470/6/320
f 563/10/327 564/10/327 565/10/327 566/10/327
f 566/10/328 565/10/328 568/10/328 569/10/328
f 569/10/329 568/10/329 571/10/329 572/10/329
f 572/10/330 571/10/330 574/10/330 575/10/330
f 575/10/331 574/10/331 577/10/331 578/10/331
f 578/10/332 577/10/332 580/10/332 581/10/332
f 581/10/333 580/10/333 583/10/333 584/10/333
f 587/10/334 588/10/334 589/10/334 590/10/334
f 590/10/335 589/10/335 592/10/335 593/10/335
f 593/10/336 592/10/336 595/10/336 596/10/336
f 596/10/337 595/10/337 598/10/337 599/10/337
f 599/10/338 598/10/338 601/10/338 602/10/338
f 602/10/339 601/10/339 604/10/339 605/10/339
f 605/10/340 604/10/340 607/10/340 608/10/340
f 559/10/319 608/10/319 607/10/319 560/10/319
f 563/10/319 559/10/319 560/10/319 564/10/319
f 562/10/319 609/10/319 559/10/319 563/10/319
f 609/10/319 606/10/319 608/10/319 559/10/319
f 603/10/340 605/10/340 608/10/340 606/10/340
f 600/10/339 602/10/339 605/10/339 603/10/339
f 597/10/338 599/10/338 602/10/338 600/10/338
f 594/10/337 596/10/337 599/10/337 597/10/337
f 591/10/336 593/10/336 596/10/336 594/10/336
f 585/10/335 590/10/335 593/10/335 591/10/335
f 586/10/334 587/10/334 590/10/334 585/10/334
f 579/10/333 581/10/333 584/10/333 582/10/333
f 576/10/332 578/10/332 581/10/332 579/10/332
f 573/10/331 575/10/331 578/10/331 576/10/331
f 570/10/330 572/10/330 575/10/330 573/10/330
f 567/10/329 569/10/329 572/10/329 570/10/329
f 561/10/328 566/10/328 569/10/328 567/10/328
f 562/10/327 563/10/327 566/10/327 561/10/327
f 407/10/315 410/10/315 606/10/315 609/10/315
f 421/10/315 420/10/315 567/10/315 570/10/315
f 491/10/322 418/10/322 582/10/322 584/10/322
f 417/10/315 407/10/315 609/10/315 562/10/315
f 541/8/316 610/8/316 485/8/316 488/8/316
f 611/13/341 612/14/341 613/14/341
f 614/9/342 615/15/342 616/16/342
f 613/14/343 615/15/343 614/9/343 611/13/343
f 612/14/344 618/14/344 617/14/344 613/14/344
f 615/15/345 619/14/345 620/9/345 616/16/345
f 619/14/346 617/14/346 618/14/346 620/9/346
f 622/17/347 623/18/347 624/9/347 621/14/347
f 621/14/348 612/14/348 611/13/348 622/17/348
f 623/18/349 614/9/349 616/16/349 624/9/349
f 622/17/350 611/13/350 614/9/350 623/18/350
f 613/14/351 617/14/351 619/14/351 615/15/351
f 391/7/352 404/7/352 612/6/352 621/6/352
f 404/6/352 389/6/352 618/6/352 612/6/352
f 406/9/353 393/9/353 624/9/353 616/16/353
f 396/9/354 406/9/354 616/16/354 620/9/354
f 389/9/316 396/9/316 620/9/316 618/14/316
f 393/9/320 391/9/320 621/14/320 624/9/320
o Sphere
v 2.602371 1.311108 -2.784563
v 2.602371 1.447385 -2.693016
v 2.602371 1.515062 -2.543146
v 2.394494 1.311108 -2.743214
v 2.398488 1.358962 -2.733571
v 2.410317 1.404977 -2.705013
v 2.429527 1.447385 -2.658636
v 2.455379 1.484556 -2.596223
v 2.486880 1.515062 -2.520173
v 2.522820 1.537729 -2.433408
v 2.561816 1.551688 -2.339263
v 2.218264 1.311108 -2.625462
v 2.225645 1.358962 -2.618081
v 2.247503 1.404977 -2.596223
v 2.282998 1.447385 -2.560728
v 2.330766 1.484556 -2.512959
v 2.388973 1.515062 -2.454753
v 2.455379 1.537729 -2.388346
v 2.527435 1.551688 -2.316291
v 2.100512 1.311108 -2.449232
v 2.110155 1.358962 -2.445238
v 2.138713 1.404977 -2.433408
v 2.185090 1.447385 -2.414199
v 2.247503 1.484556 -2.388347
v 2.323552 1.515062 -2.356846
v 2.410317 1.537729 -2.320906
v 2.504462 1.551688 -2.281910
v 2.059162 1.311108 -2.241356
v 2.069600 1.358962 -2.241356
v 2.100512 1.404977 -2.241356
v 2.150709 1.447385 -2.241356
v 2.218264 1.484556 -2.241356
v 2.300580 1.515062 -2.241355
v 2.394494 1.537729 -2.241355
v 2.496396 1.551688 -2.241355
v 2.100512 1.311108 -2.033479
v 2.110155 1.358962 -2.037473
v 2.138713 1.404977 -2.049303
v 2.185090 1.447385 -2.068512
v 2.247503 1.484556 -2.094365
v 2.323552 1.515062 -2.125865
v 2.410317 1.537729 -2.161804
v 2.504462 1.551688 -2.200801
v 2.218264 1.311108 -1.857249
v 2.225645 1.358962 -1.864630
v 2.247503 1.404977 -1.886488
v 2.282998 1.447385 -1.921983
v 2.330766 1.484556 -1.969752
v 2.388972 1.515062 -2.027957
v 2.455379 1.537729 -2.094364
v 2.527435 1.551688 -2.166420
v 2.394493 1.311108 -1.739497
v 2.398488 1.358962 -1.749140
v 2.410317 1.404977 -1.777699
v 2.429527 1.447385 -1.824075
v 2.455379 1.484556 -1.886488
v 2.486880 1.515062 -1.962538
v 2.522819 1.537729 -2.049302
v 2.561816 1.551688 -2.143448
v 2.602370 1.311108 -1.698147
v 2.602370 1.358962 -1.708585
v 2.602370 1.404977 -1.739497
v 2.602370 1.447385 -1.789695
v 2.602370 1.484556 -1.857249
v 2.602370 1.515062 -1.939565
v 2.602370 1.537729 -2.033479
v 2.602370 1.551688 -2.135381
v 2.810247 1.311108 -1.739497
v 2.806252 1.358962 -1.749140
v 2.794423 1.404977 -1.777698
v 2.775213 1.447385 -1.824075
v 2.749361 1.484556 -1.886488
v 2.717860 1.515062 -1.962538
v 2.681921 1.537729 -2.049302
v 2.642925 1.551688 -2.143448
v 2.986476 1.311108 -1.857249
v 2.979096 1.358962 -1.864630
v 2.957238 1.404977 -1.886488
v 2.921743 1.447385 -1.921983
v 2.873974 1.484556 -1.969751
v 2.815768 1.515062 -2.027957
v 2.749361 1.537729 -2.094364
v 2.677306 1.551688 -2.166420
v 3.104229 1.311108 -2.033479
v 3.094586 1.358962 -2.037473
v 3.066027 1.404977 -2.049302
v 3.019650 1.447385 -2.068512
v 2.957238 1.484556 -2.094364
v 2.881188 1.515062 -2.125865
v 2.794423 1.537729 -2.161804
v 2.700278 1.551688 -2.200801
v 3.145578 1.311108 -2.241355
v 3.135141 1.358962 -2.241355
v 3.104229 1.404977 -2.241355
v 3.054031 1.447385 -2.241355
v 2.986476 1.484556 -2.241355
v 2.904160 1.515062 -2.241355
v 2.810247 1.537729 -2.241355
v 2.708345 1.551688 -2.241355
v 3.104229 1.311108 -2.449232
v 3.094586 1.358962 -2.445238
v 3.066027 1.404977 -2.433408
v 3.019650 1.447385 -2.414199
v 2.957238 1.484556 -2.388346
v 2.881188 1.515062 -2.356846
v 2.794423 1.537729 -2.320906
v 2.700278 1.551688 -2.281910
v 2.986476 1.311108 -2.625461
v 2.979096 1.358962 -2.618081
v 2.957238 1.404977 -2.596223
v 2.921743 1.447385 -2.560728
v 2.873974 1.484556 -2.512959
v 2.815768 1.515062 -2.454753
v 2.749361 1.537729 -2.388346
v 2.677306 1.551688 -2.316291
v 2.810247 1.311108 -2.743214
v 2.806253 1.358962 -2.733571
v 2.794423 1.404977 -2.705012
v 2.775213 1.447385 -2.658636
v 2.749361 1.484556 -2.596223
v 2.717860 1.515062 -2.520173
v 2.681921 1.537729 -2.433408
v 2.642925 1.551688 -2.339263
v 2.602370 1.358962 -2.774126
v 2.602370 1.404977 -2.743214
v 2.602370 1.484556 -2.625462
v 2.602370 1.537729 -2.449232
v 2.602370 1.551688 -2.347330
v 2.602370 1.556401 -2.241355
vn -0.0466 0.9710 -0.2344
vn -0.0270 0.9904 -0.1357
vn -0.0088 0.9990 -0.0444
vn -0.1908 0.2092 -0.9591
vn -0.1629 0.5502 -0.8190
vn -0.1273 0.7577 -0.6401
vn -0.0955 0.8721 -0.4799
vn -0.0690 0.9354 -0.3467
vn -0.3626 0.7577 -0.5426
vn -0.2718 0.8721 -0.4068
vn -0.1964 0.9354 -0.2939
vn -0.1328 0.9710 -0.1987
vn -0.0768 0.9904 -0.1150
vn -0.0252 0.9990 -0.0377
vn -0.5433 0.2092 -0.8131
vn -0.4639 0.5502 -0.6943
vn -0.1150 0.9904 -0.0768
vn -0.0377 0.9990 -0.0252
vn -0.8131 0.2092 -0.5433
vn -0.6943 0.5502 -0.4639
vn -0.5426 0.7577 -0.3626
vn -0.4068 0.8721 -0.2718
vn -0.2939 0.9354 -0.1964
vn -0.1987 0.9710 -0.1328
vn -0.4799 0.8721 -0.0955
vn -0.3467 0.9354 -0.0690
vn -0.2344 0.9710 -0.0466
vn -0.1357 0.9904 -0.0270
vn -0.0444 0.9990 -0.0088
vn -0.9591 0.2092 -0.1908
vn -0.8190 0.5502 -0.1629
vn -0.6401 0.7577 -0.1273
vn -0.0444 0.9990 0.0088
vn -0.9591 0.2092 0.1908
vn -0.8190 0.5502 0.1629
vn -0.6401 0.7577 0.1273
vn -0.4799 0.8721 0.0955
vn -0.3467 0.9354 0.0690
vn -0.2344 0.9710 0.0466
vn -0.1357 0.9904 0.0270
vn -0.4068 0.8721 0.2718
vn -0.2939 0.9354 0.1964
vn -0.1987 0.9710 0.1328
vn -0.1150 0.9904 0.0768
vn -0.0377 0.9990 0.0252
vn -0.8131 0.2092 0.5433
vn -0.6943 0.5502 0.4639
vn -0.5426 0.7577 0.3626
vn -0.0252 0.9990 0.0377
vn -0.5433 0.2092 0.8131
vn -0.4639 0.5502 0.6943
vn -0.3626 0.7577 0.5426
vn -0.2718 0.8721 0.4068
vn -0.1964 0.9354 0.2939
vn -0.1328 0.9710 0.1987
vn -0.0768 0.9904 0.1150
vn -0.0690 0.9354 0.3467
vn -0.0466 0.9710 0.2344
vn -0.0270 0.9904 0.1357
vn -0.0088 0.9990 0.0444
vn -0.1908 0.2092 0.9591
vn -0.1629 0.5502 0.8190
vn -0.1273 0.7577 0.6401
vn -0.0955 0.8721 0.4799
vn 0.1908 0.2092 0.9591
vn 0.1629 0.5502 0.8190
vn 0.1273 0.7577 0.6401
vn 0.0955 0.8721 0.4799
vn 0.0690 0.9354 0.3467
vn 0.0466 0.9710 0.2344
vn 0.0270 0.9904 0.1357
vn 0.0088 0.9990 0.0444
vn 0.1964 0.9354 0.2939
vn 0.1328 0.9710 0.1987
vn 0.0768 0.9904 0.1150
vn 0.0252 0.9990 0.0377
vn 0.5433 0.2092 0.8131
vn 0.4639 0.5502 0.6943
vn 0.3626 0.7577 0.5426
vn 0.2718 0.8721 0.4068
vn 0.6943 0.5502 0.4639
vn 0.5426 0.7577 0.3626
vn 0.4068 0.8721 0.2718
vn 0.2939 0.9354 0.1964
vn 0.1987 0.9710 0.1328
vn 0.1150 0.9904 0.0768
vn 0.0377 0.9990 0.0252
vn 0.8131 0.2092 0.5433
vn 0.2344 0.9710 0.0466
vn 0.1357 0.9904 0.0270
vn 0.0444 0.9990 0.0088
vn 0.9591 0.2092 0.1908
vn 0.8190 0.5502 0.1629
vn 0.6401 0.7577 0.1273
vn 0.4799 0.8721 0.0955
vn 0.3467 0.9354 0.0690
vn 0.6401 0.7577 -0.1273
vn 0.4799 0.8721 -0.0955
vn 0.3467 0.9354 -0.0690
vn 0.2344 0.9710 -0.0466
vn 0.1357 0.9904 -0.0270
vn 0.0444 0.9990 -0.0088
vn 0.9591 0.2092 -0.1908
vn 0.8190 0.5502 -0.1629
vn 0.1150 0.9904 -0.0768
vn 0.0377 0.9990 -0.0252
vn 0.8131 0.2092 -0.5433
vn 0.6943 0.5502 -0.4639
vn 0.5426 0.7577 -0.3626
vn 0.4068 0.8721 -0.2718
vn 0.2939 0.9354 -0.1964
vn 0.1987 0.9710 -0.1328
vn 0.3626 0.7577 -0.5426
vn 0.2718 0.8721 -0.4068
vn 0.1964 0.9354 -0.2939
vn 0.1328 0.9710 -0.1987
vn 0.0768 0.9904 -0.1150
vn 0.0252 0.9990 -0.0377
vn 0.5433 0.2092 -0.8131
vn 0.4639 0.5502 -0.6943
vn 0.1629 0.5502 -0.8190
vn 0.1273 0.7577 -0.6401
vn 0.0955 0.8721 -0.4799
vn 0.0690 0.9354 -0.3467
vn 0.0466 0.9710 -0.2344
vn 0.0270 0.9904 -0.1357
vn 0.0088 0.9990 -0.0444
vn 0.1908 0.2092 -0.9591
vt 0.437500 0.312500
vt 0.437500 0.312500
s 0
f 633/19/355 634/19/355 751/19/355 627/19/355
f 634/19/356 635/19/356 752/19/356 751/19/356
f 635/19/357 753/19/357 752/19/357
f 628/19/358 629/19/358 748/19/358 625/19/358
f 629/19/359 630/19/359 749/19/359 748/19/359
f 630/19/360 631/19/360 626/19/360 749/19/360
f 631/19/361 632/19/361 750/19/361 626/19/361
f 632/19/362 633/19/362 627/19/362 750/19/362
f 638/19/363 639/19/363 631/19/363 630/19/363
f 639/19/364 640/19/364 632/19/364 631/19/364
f 640/19/365 641/19/365 633/19/365 632/19/365
f 641/19/366 642/19/366 634/19/366 633/19/366
f 642/19/367 643/19/367 635/19/367 634/19/367
f 643/19/368 753/19/368 635/19/368
f 636/19/369 637/19/369 629/19/369 628/19/369
f 637/19/370 638/19/370 630/19/370 629/19/370
f 650/19/371 651/19/371 643/19/371 642/19/371
f 651/19/372 753/19/372 643/19/372
f 644/19/373 645/19/373 637/19/373 636/19/373
f 645/19/374 646/19/374 638/19/374 637/19/374
f 646/19/375 647/19/375 639/19/375 638/19/375
f 647/19/376 648/19/376 640/19/376 639/19/376
f 648/19/377 649/19/377 641/19/377 640/19/377
f 649/19/378 650/19/378 642/19/378 641/19/378
f 655/19/379 656/19/379 648/19/379 647/19/379
f 656/19/380 657/19/380 649/19/380 648/19/380
f 657/19/381 658/19/381 650/19/381 649/19/381
f 658/19/382 659/19/382 651/19/382 650/19/382
f 659/19/383 753/19/383 651/19/383
f 652/19/384 653/19/384 645/19/384 644/19/384
f 653/19/385 654/19/385 646/19/385 645/19/385
f 654/19/386 655/19/386 647/19/386 646/19/386
f 667/19/387 753/19/387 659/19/387
f 660/19/388 661/19/388 653/19/388 652/19/388
f 661/19/389 662/19/389 654/19/389 653/19/389
f 662/19/390 663/19/390 655/19/390 654/19/390
f 663/19/391 664/19/391 656/19/391 655/19/391
f 664/19/392 665/19/392 657/19/392 656/19/392
f 665/19/393 666/19/393 658/19/393 657/19/393
f 666/19/394 667/19/394 659/19/394 658/19/394
f 671/19/395 672/19/395 664/19/395 663/19/395
f 672/19/396 673/19/396 665/19/396 664/19/396
f 673/19/397 674/19/397 666/19/397 665/19/397
f 674/19/398 675/19/398 667/19/398 666/19/398
f 675/19/399 753/19/399 667/19/399
f 668/19/400 669/19/400 661/19/400 660/19/400
f 669/19/401 670/19/401 662/19/401 661/19/401
f 670/19/402 671/19/402 663/19/402 662/19/402
f 683/19/403 753/19/403 675/19/403
f 676/20/404 677/20/404 669/20/404 668/20/404
f 677/19/405 678/19/405 670/19/405 669/19/405
f 678/19/406 679/19/406 671/19/406 670/19/406
f 679/19/407 680/19/407 672/19/407 671/19/407
f 680/19/408 681/19/408 673/19/408 672/19/408
f 681/19/409 682/19/409 674/19/409 673/19/409
f 682/19/410 683/19/410 675/19/410 674/19/410
f 688/19/411 689/19/411 681/19/411 680/19/411
f 689/19/412 690/19/412 682/19/412 681/19/412
f 690/19/413 691/19/413 683/19/413 682/19/413
f 691/19/414 753/19/414 683/19/414
f 684/19/415 685/19/415 677/19/415 676/19/415
f 685/19/416 686/19/416 678/19/416 677/19/416
f 686/19/417 687/19/417 679/19/417 678/19/417
f 687/19/418 688/19/418 680/19/418 679/19/418
f 692/19/419 693/19/419 685/19/419 684/19/419
f 693/19/420 694/19/420 686/19/420 685/19/420
f 694/19/421 695/19/421 687/19/421 686/19/421
f 695/19/422 696/19/422 688/19/422 687/19/422
f 696/19/423 697/19/423 689/19/423 688/19/423
f 697/19/424 698/19/424 690/19/424 689/19/424
f 698/19/425 699/19/425 691/19/425 690/19/425
f 699/19/426 753/19/426 691/19/426
f 704/19/427 705/19/427 697/19/427 696/19/427
f 705/19/428 706/19/428 698/19/428 697/19/428
f 706/19/429 707/19/429 699/19/429 698/19/429
f 707/19/430 753/19/430 699/19/430
f 700/19/431 701/19/431 693/19/431 692/19/431
f 701/19/432 702/19/432 694/19/432 693/19/432
f 702/19/433 703/19/433 695/19/433 694/19/433
f 703/19/434 704/19/434 696/19/434 695/19/434
f 709/19/435 710/19/435 702/19/435 701/19/435
f 710/19/436 711/19/436 703/19/436 702/19/436
f 711/19/437 712/19/437 704/19/437 703/19/437
f 712/19/438 713/19/438 705/19/438 704/19/438
f 713/19/439 714/19/439 706/19/439 705/19/439
f 714/19/440 715/19/440 707/19/440 706/19/440
f 715/19/441 753/19/441 707/19/441
f 708/19/442 709/19/442 701/20/442 700/19/442
f 721/19/443 722/19/443 714/19/443 713/19/443
f 722/19/444 723/19/444 715/19/444 714/19/444
f 723/19/445 753/19/445 715/19/445
f 716/19/446 717/19/446 709/19/446 708/19/446
f 717/19/447 718/19/447 710/19/447 709/19/447
f 718/19/448 719/19/448 711/19/448 710/19/448
f 719/19/449 720/19/449 712/19/449 711/19/449
f 720/19/450 721/19/450 713/19/450 712/19/450
f 726/19/451 727/19/451 719/19/451 718/19/451
f 727/19/452 728/19/452 720/19/452 719/19/452
f 728/19/453 729/19/453 721/19/453 720/19/453
f 729/19/454 730/19/454 722/19/454 721/19/454
f 730/19/455 731/19/455 723/19/455 722/19/455
f 731/19/456 753/19/456 723/19/456
f 724/19/457 725/19/457 717/19/457 716/19/457
f 725/19/458 726/19/458 718/19/458 717/19/458
f 738/19/459 739/19/459 731/19/459 730/19/459
f 739/19/460 753/19/460 731/19/460
f 732/19/461 733/19/461 725/19/461 724/19/461
f 733/19/462 734/19/462 726/19/462 725/19/462
f 734/19/463 735/19/463 727/19/463 726/19/463
f 735/19/464 736/19/464 728/19/464 727/19/464
f 736/19/465 737/19/465 729/19/465 728/19/465
f 737/19/466 738/19/466 730/19/466 729/19/466
f 742/19/467 743/19/467 735/19/467 734/19/467
f 743/19/468 744/19/468 736/19/468 735/19/468
f 744/19/469 745/19/469 737/19/469 736/19/469
f 745/19/470 746/19/470 738/19/470 737/19/470
f 746/19/471 747/19/471 739/19/471 738/19/471
f 747/19/472 753/19/472 739/19/472
f 740/19/473 741/19/473 733/19/473 732/19/473
f 741/19/474 742/19/474 734/19/474 733/19/474
f 748/19/475 749/19/475 742/19/475 741/19/475
f 749/19/476 626/19/476 743/19/476 742/19/476
f 626/19/477 750/19/477 744/19/477 743/19/477
f 750/19/478 627/19/478 745/19/478 744/19/478
f 627/19/479 751/19/479 746/19/479 745/19/479
f 751/19/480 752/19/480 747/19/480 746/19/480
f 752/19/481 753/19/481 747/19/481
f 625/19/482 748/19/482 741/19/482 740/19/482
o Sphere.001
v 1.372200 1.311108 -2.784563
v 1.372200 1.447385 -2.693016
v 1.372200 1.515062 -2.543146
v 1.164324 1.311108 -2.743214
v 1.168318 1.358962 -2.733571
v 1.180147 1.404977 -2.705013
v 1.199357 1.447385 -2.658636
v 1.225209 1.484556 -2.596223
v 1.256710 1.515062 -2.520173
v 1.292649 1.537729 -2.433408
v 1.331645 1.551688 -2.339263
v 0.988094 1.311108 -2.625462
v 0.995475 1.358962 -2.618081
v 1.017333 1.404977 -2.596223
v 1.052828 1.447385 -2.560728
v 1.100596 1.484556 -2.512959
v 1.158802 1.515062 -2.454753
v 1.225209 1.537729 -2.388346
v 1.297265 1.551688 -2.316291
v 0.870342 1.311108 -2.449232
v 0.879985 1.358962 -2.445238
v 0.908543 1.404977 -2.433408
v 0.954920 1.447385 -2.414199
v 1.017333 1.484556 -2.388347
v 1.093382 1.515062 -2.356846
v 1.180147 1.537729 -2.320906
v 1.274292 1.551688 -2.281910
v 0.828992 1.311108 -2.241356
v 0.839430 1.358962 -2.241356
v 0.870341 1.404977 -2.241356
v 0.920539 1.447385 -2.241356
v 0.988094 1.484556 -2.241356
v 1.070410 1.515062 -2.241355
v 1.164323 1.537729 -2.241355
v 1.266226 1.551688 -2.241355
v 0.870341 1.311108 -2.033479
v 0.879984 1.358962 -2.037473
v 0.908543 1.404977 -2.049303
v 0.954920 1.447385 -2.068512
v 1.017332 1.484556 -2.094365
v 1.093382 1.515062 -2.125865
v 1.180147 1.537729 -2.161804
v 1.274292 1.551688 -2.200801
v 0.988094 1.311108 -1.857249
v 0.995474 1.358962 -1.864630
v 1.017332 1.404977 -1.886488
v 1.052828 1.447385 -1.921983
v 1.100596 1.484556 -1.969752
v 1.158802 1.515062 -2.027957
v 1.225209 1.537729 -2.094364
v 1.297265 1.551688 -2.166420
v 1.164323 1.311108 -1.739497
v 1.168318 1.358962 -1.749140
v 1.180147 1.404977 -1.777699
v 1.199357 1.447385 -1.824075
v 1.225209 1.484556 -1.886488
v 1.256710 1.515062 -1.962538
v 1.292649 1.537729 -2.049302
v 1.331645 1.551688 -2.143448
v 1.372200 1.311108 -1.698147
v 1.372200 1.358962 -1.708585
v 1.372200 1.404977 -1.739497
v 1.372200 1.447385 -1.789695
v 1.372200 1.484556 -1.857249
v 1.372200 1.515062 -1.939565
v 1.372200 1.537729 -2.033479
v 1.372200 1.551688 -2.135381
v 1.580077 1.311108 -1.739497
v 1.576082 1.358962 -1.749140
v 1.564253 1.404977 -1.777698
v 1.545043 1.447385 -1.824075
v 1.519191 1.484556 -1.886488
v 1.487690 1.515062 -1.962538
v 1.451751 1.537729 -2.049302
v 1.412755 1.551688 -2.143448
v 1.756306 1.311108 -1.857249
v 1.748926 1.358962 -1.864630
v 1.727068 1.404977 -1.886488
v 1.691573 1.447385 -1.921983
v 1.643804 1.484556 -1.969751
v 1.585598 1.515062 -2.027957
v 1.519191 1.537729 -2.094364
v 1.447135 1.551688 -2.166420
v 1.874059 1.311108 -2.033479
v 1.864416 1.358962 -2.037473
v 1.835857 1.404977 -2.049302
v 1.789480 1.447385 -2.068512
v 1.727068 1.484556 -2.094364
v 1.651018 1.515062 -2.125865
v 1.564253 1.537729 -2.161804
v 1.470108 1.551688 -2.200801
v 1.915408 1.311108 -2.241355
v 1.904971 1.358962 -2.241355
v 1.874059 1.404977 -2.241355
v 1.823861 1.447385 -2.241355
v 1.756306 1.484556 -2.241355
v 1.673990 1.515062 -2.241355
v 1.580077 1.537729 -2.241355
v 1.478175 1.551688 -2.241355
v 1.874059 1.311108 -2.449232
v 1.864416 1.358962 -2.445238
v 1.835857 1.404977 -2.433408
v 1.789480 1.447385 -2.414199
v 1.727068 1.484556 -2.388346
v 1.651018 1.515062 -2.356846
v 1.564253 1.537729 -2.320906
v 1.470108 1.551688 -2.281910
v 1.756306 1.311108 -2.625461
v 1.748926 1.358962 -2.618081
v 1.727068 1.404977 -2.596223
v 1.691573 1.447385 -2.560728
v 1.643804 1.484556 -2.512959
v 1.585598 1.515062 -2.454753
v 1.519191 1.537729 -2.388346
v 1.447136 1.551688 -2.316291
v 1.580077 1.311108 -2.743214
v 1.576083 1.358962 -2.733571
v 1.564253 1.404977 -2.705012
v 1.545043 1.447385 -2.658636
v 1.519191 1.484556 -2.596223
v 1.487690 1.515062 -2.520173
v 1.451751 1.537729 -2.433408
v 1.412755 1.551688 -2.339263
v 1.372200 1.358962 -2.774126
v 1.372200 1.404977 -2.743214
v 1.372200 1.484556 -2.625462
v 1.372200 1.537729 -2.449232
v 1.372200 1.551688 -2.347330
v 1.372200 1.556401 -2.241355
vn -0.0466 0.9710 -0.2344
vn -0.0270 0.9904 -0.1357
vn -0.0088 0.9990 -0.0444
vn -0.1908 0.2092 -0.9591
vn -0.1629 0.5502 -0.8190
vn -0.1273 0.7577 -0.6401
vn -0.0955 0.8721 -0.4799
vn -0.0690 0.9354 -0.3467
vn -0.3626 0.7577 -0.5426
vn -0.2718 0.8721 -0.4068
vn -0.1964 0.9354 -0.2939
vn -0.1328 0.9710 -0.1987
vn -0.0768 0.9904 -0.1150
vn -0.0252 0.9990 -0.0377
vn -0.5433 0.2092 -0.8131
vn -0.4639 0.5502 -0.6943
vn -0.1150 0.9904 -0.0768
vn -0.0377 0.9990 -0.0252
vn -0.8131 0.2092 -0.5433
vn -0.6943 0.5502 -0.4639
vn -0.5426 0.7577 -0.3626
vn -0.4068 0.8721 -0.2718
vn -0.2939 0.9354 -0.1964
vn -0.1987 0.9710 -0.1328
vn -0.4799 0.8721 -0.0955
vn -0.3467 0.9354 -0.0690
vn -0.2344 0.9710 -0.0466
vn -0.1357 0.9904 -0.0270
vn -0.0444 0.9990 -0.0088
vn -0.9591 0.2092 -0.1908
vn -0.8190 0.5502 -0.1629
vn -0.6401 0.7577 -0.1273
vn -0.0444 0.9990 0.0088
vn -0.9591 0.2092 0.1908
vn -0.8190 0.5502 0.1629
vn -0.6401 0.7577 0.1273
vn -0.4799 0.8721 0.0955
vn -0.3467 0.9354 0.0690
vn -0.2344 0.9710 0.0466
vn -0.1357 0.9904 0.0270
vn -0.4068 0.8721 0.2718
vn -0.2939 0.9354 0.1964
vn -0.1987 0.9710 0.1328
vn -0.1150 0.9904 0.0768
vn -0.0377 0.9990 0.0252
vn -0.8131 0.2092 0.5433
vn -0.6943 0.5502 0.4639
vn -0.5426 0.7577 0.3626
vn -0.0252 0.9990 0.0377
vn -0.5433 0.2092 0.8131
vn -0.4639 0.5502 0.6943
vn -0.3626 0.7577 0.5426
vn -0.2718 0.8721 0.4068
vn -0.1964 0.9354 0.2939
vn -0.1328 0.9710 0.1987
vn -0.0768 0.9904 0.1150
vn -0.0690 0.9354 0.3467
vn -0.0466 0.9710 0.2344
vn -0.0270 0.9904 0.1357
vn -0.0088 0.9990 0.0444
vn -0.1908 0.2092 0.9591
vn -0.1629 0.5502 0.8190
vn -0.1273 0.7577 0.6401
vn -0.0955 0.8721 0.4799
vn 0.1908 0.2092 0.9591
vn 0.1629 0.5502 0.8190
vn 0.1273 0.7577 0.6401
vn 0.0955 0.8721 0.4799
vn 0.0690 0.9354 0.3467
vn 0.0466 0.9710 0.2344
vn 0.0270 0.9904 0.1357
vn 0.0088 0.9990 0.0444
vn 0.1964 0.9354 0.2939
vn 0.1328 0.9710 0.1987
vn 0.0768 0.9904 0.1150
vn 0.0252 0.9990 0.0377
vn 0.5433 0.2092 0.8131
vn 0.4639 0.5502 0.6943
vn 0.3626 0.7577 0.5426
vn 0.2718 0.8721 0.4068
vn 0.6943 0.5502 0.4639
vn 0.5426 0.7577 0.3626
vn 0.4068 0.8721 0.2718
vn 0.2939 0.9354 0.1964
vn 0.1987 0.9710 0.1328
vn 0.1150 0.9904 0.0768
vn 0.0377 0.9990 0.0252
vn 0.8131 0.2092 0.5433
vn 0.2344 0.9710 0.0466
vn 0.1357 0.9904 0.0270
vn 0.0444 0.9990 0.0088
vn 0.9591 0.2092 0.1908
vn 0.8190 0.5502 0.1629
vn 0.6401 0.7577 0.1273
vn 0.4799 0.8721 0.0955
vn 0.3467 0.9354 0.0690
vn 0.6401 0.7577 -0.1273
vn 0.4799 0.8721 -0.0955
vn 0.3467 0.9354 -0.0690
vn 0.2344 0.9710 -0.0466
vn 0.1357 0.9904 -0.0270
vn 0.0444 0.9990 -0.0088
vn 0.9591 0.2092 -0.1908
vn 0.8190 0.5502 -0.1629
vn 0.1150 0.9904 -0.0768
vn 0.0377 0.9990 -0.0252
vn 0.8131 0.2092 -0.5433
vn 0.6943 0.5502 -0.4639
vn 0.5426 0.7577 -0.3626
vn 0.4068 0.8721 -0.2718
vn 0.2939 0.9354 -0.1964
vn 0.1987 0.9710 -0.1328
vn 0.3626 0.7577 -0.5426
vn 0.2718 0.8721 -0.4068
vn 0.1964 0.9354 -0.2939
vn 0.1328 0.9710 -0.1987
vn 0.0768 0.9904 -0.1150
vn 0.0252 0.9990 -0.0377
vn 0.5433 0.2092 -0.8131
vn 0.4639 0.5502 -0.6943
vn 0.1629 0.5502 -0.8190
vn 0.1273 0.7577 -0.6401
vn 0.0955 0.8721 -0.4799
vn 0.0690 0.9354 -0.3467
vn 0.0466 0.9710 -0.2344
vn 0.0270 0.9904 -0.1357
vn 0.0088 0.9990 -0.0444
vn 0.1908 0.2092 -0.9591
vt 0.437500 0.312500
vt 0.437500 0.312500
s 0
f 762/21/483 763/21/483 880/21/483 756/21/483
f 763/21/484 764/21/484 881/21/484 880/21/484
f 764/21/485 882/21/485 881/21/485
f 757/21/486 758/21/486 877/21/486 754/21/486
f 758/21/487 759/21/487 878/21/487 877/21/487
f 759/21/488 760/21/488 755/21/488 878/21/488
f 760/21/489 761/21/489 879/21/489 755/21/489
f 761/21/490 762/21/490 756/21/490 879/21/490
f 767/21/491 768/21/491 760/21/491 759/21/491
f 768/21/492 769/21/492 761/21/492 760/21/492
f 769/21/493 770/21/493 762/21/493 761/21/493
f 770/21/494 771/21/494 763/21/494 762/21/494
f 771/21/495 772/21/495 764/21/495 763/21/495
f 772/21/496 882/21/496 764/21/496
f 765/21/497 766/21/497 758/21/497 757/21/497
f 766/21/498 767/21/498 759/21/498 758/21/498
f 779/21/499 780/21/499 772/21/499 771/21/499
f 780/21/500 882/21/500 772/21/500
f 773/21/501 774/21/501 766/21/501 765/21/501
f 774/21/502 775/21/502 767/21/502 766/21/502
f 775/21/503 776/21/503 768/21/503 767/21/503
f 776/21/504 777/21/504 769/21/504 768/21/504
f 777/21/505 778/21/505 770/21/505 769/21/505
f 778/21/506 779/21/506 771/21/506 770/21/506
f 784/21/507 785/21/507 777/21/507 776/21/507
f 785/21/508 786/21/508 778/21/508 777/21/508
f 786/21/509 787/21/509 779/21/509 778/21/509
f 787/21/510 788/21/510 780/21/510 779/21/510
f 788/21/511 882/21/511 780/21/511
f 781/21/512 782/21/512 774/21/512 773/21/512
f 782/21/513 783/21/513 775/21/513 774/21/513
f 783/21/514 784/21/514 776/21/514 775/21/514
f 796/21/515 882/21/515 788/21/515
f 789/21/516 790/21/516 782/21/516 781/21/516
f 790/21/517 791/21/517 783/21/517 782/21/517
f 791/21/518 792/21/518 784/21/518 783/21/518
f 792/21/519 793/21/519 785/21/519 784/21/519
f 793/21/520 794/21/520 786/21/520 785/21/520
f 794/21/521 795/21/521 787/21/521 786/21/521
f 795/21/522 796/21/522 788/21/522 787/21/522
f 800/21/523 801/21/523 793/21/523 792/21/523
f 801/21/524 802/21/524 794/21/524 793/21/524
f 802/21/525 803/21/525 795/21/525 794/21/525
f 803/21/526 804/21/526 796/21/526 795/21/526
f 804/21/527 882/21/527 796/21/527
f 797/21/528 798/21/528 790/21/528 789/21/528
f 798/21/529 799/21/529 791/21/529 790/21/529
f 799/21/530 800/21/530 792/21/530 791/21/530
f 812/21/531 882/21/531 804/21/531
f 805/22/532 806/22/532 798/22/532 797/22/532
f 806/21/533 807/21/533 799/21/533 798/21/533
f 807/21/534 808/21/534 800/21/534 799/21/534
f 808/21/535 809/21/535 801/21/535 800/21/535
f 809/21/536 810/21/536 802/21/536 801/21/536
f 810/21/537 811/21/537 803/21/537 802/21/537
f 811/21/538 812/21/538 804/21/538 803/21/538
f 817/21/539 818/21/539 810/21/539 809/21/539
f 818/21/540 819/21/540 811/21/540 810/21/540
f 819/21/541 820/21/541 812/21/541 811/21/541
f 820/21/542 882/21/542 812/21/542
f 813/21/543 814/21/543 806/21/543 805/21/543
f 814/21/544 815/21/544 807/21/544 806/21/544
f 815/21/545 816/21/545 808/21/545 807/21/545
f 816/21/546 817/21/546 809/21/546 808/21/546
f 821/21/547 822/21/547 814/21/547 813/21/547
f 822/21/548 823/21/548 815/21/548 814/21/548
f 823/21/549 824/21/549 816/21/549 815/21/549
f 824/21/550 825/21/550 817/21/550 816/21/550
f 825/21/551 826/21/551 818/21/551 817/21/551
f 826/21/552 827/21/552 819/21/552 818/21/552
f 827/21/553 828/21/553 820/21/553 819/21/553
f 828/21/554 882/21/554 820/21/554
f 833/21/555 834/21/555 826/21/555 825/21/555
f 834/21/556 835/21/556 827/21/556 826/21/556
f 835/21/557 836/21/557 828/21/557 827/21/557
f 836/21/558 882/21/558 828/21/558
f 829/21/559 830/21/559 822/21/559 821/21/559
f 830/21/560 831/21/560 823/21/560 822/21/560
f 831/21/561 832/21/561 824/21/561 823/21/561
f 832/21/562 833/21/562 825/21/562 824/21/562
f 838/21/563 839/21/563 831/21/563 830/21/563
f 839/21/564 840/21/564 832/21/564 831/21/564
f 840/21/565 841/21/565 833/21/565 832/21/565
f 841/21/566 842/21/566 834/21/566 833/21/566
f 842/21/567 843/21/567 835/21/567 834/21/567
f 843/21/568 844/21/568 836/21/568 835/21/568
f 844/21/569 882/21/569 836/21/569
f 837/21/570 838/21/570 830/22/570 829/21/570
f 850/21/571 851/21/571 843/21/571 842/21/571
f 851/21/572 852/21/572 844/21/572 843/21/572
f 852/21/573 882/21/573 844/21/573
f 845/21/574 846/21/574 838/21/574 837/21/574
f 846/21/575 847/21/575 839/21/575 838/21/575
f 847/21/576 848/21/576 840/21/576 839/21/576
f 848/21/577 849/21/577 841/21/577 840/21/577
f 849/21/578 850/21/578 842/21/578 841/21/578
f 855/21/579 856/21/579 848/21/579 847/21/579
f 856/21/580 857/21/580 849/21/580 848/21/580
f 857/21/581 858/21/581 850/21/581 849/21/581
f 858/21/582 859/21/582 851/21/582 850/21/582
f 859/21/583 860/21/583 852/21/583 851/21/583
f 860/21/584 882/21/584 852/21/584
f 853/21/585 854/21/585 846/21/585 845/21/585
f 854/21/586 855/21/586 847/21/586 846/21/586
f 867/21/587 868/21/587 860/21/587 859/21/587
f 868/21/588 882/21/588 860/21/588
f 861/21/589 862/21/589 854/21/589 853/21/589
f 862/21/590 863/21/590 855/21/590 854/21/590
f 863/21/591 864/21/591 856/21/591 855/21/591
f 864/21/592 865/21/592 857/21/592 856/21/592
f 865/21/593 866/21/593 858/21/593 857/21/593
f 866/21/594 867/21/594 859/21/594 858/21/594
f 871/21/595 872/21/595 864/21/595 863/21/595
f 872/21/596 873/21/596 865/21/596 864/21/596
f 873/21/597 874/21/597 866/21/597 865/21/597
f 874/21/598 875/21/598 867/21/598 866/21/598
f 875/21/599 876/21/599 868/21/599 867/21/599
f 876/21/600 882/21/600 868/21/600
f 869/21/601 870/21/601 862/21/601 861/21/601
f 870/21/602 871/21/602 863/21/602 862/21/602
f 877/21/603 878/21/603 871/21/603 870/21/603
f 878/21/604 755/21/604 872/21/604 871/21/604
f 755/21/605 879/21/605 873/21/605 872/21/605
f 879/21/606 756/21/606 874/21/606 873/21/606
f 756/21/607 880/21/607 875/21/607 874/21/607
f 880/21/608 881/21/608 876/21/608 875/21/608
f 881/21/609 882/21/609 876/21/609
f 754/21/610 877/21/610 870/21/610 869/21/610
o Icosphere.004
v 1.391646 1.337405 -2.226680
v 1.859275 1.694644 -1.886932
v 1.213032 1.694644 -1.676952
v 0.813622 1.694644 -2.226680
v 1.213032 1.694644 -2.776408
v 1.859275 1.694644 -2.566428
v 1.570261 2.272671 -1.676952
v 0.924018 2.272671 -1.886932
v 0.924018 2.272671 -2.566428
v 1.570261 2.272671 -2.776408
v 1.969671 2.272671 -2.226680
v 1.391646 2.629910 -2.226680
vn 0.1876 -0.7947 0.5774
vn 0.6071 -0.7947 -0.0000
vn -0.4911 -0.7947 0.3568
vn -0.4911 -0.7947 -0.3568
vn 0.1876 -0.7947 -0.5774
vn 0.9822 -0.1876 -0.0000
vn 0.3035 -0.1876 0.9342
vn -0.7946 -0.1876 0.5774
vn -0.7946 -0.1876 -0.5774
vn 0.3035 -0.1876 -0.9342
vn 0.7946 0.1876 0.5774
vn -0.3035 0.1876 0.9342
vn -0.9822 0.1876 -0.0000
vn -0.3035 0.1876 -0.9342
vn 0.7946 0.1876 -0.5774
vn 0.4911 0.7947 0.3568
vn -0.1876 0.7947 0.5774
vn -0.6071 0.7947 -0.0000
vn -0.1876 0.7947 -0.5774
vn 0.4911 0.7947 -0.3568
vt 0.437500 0.062500
s 0
f 883/23/611 884/23/611 885/23/611
f 884/23/612 883/23/612 888/23/612
f 883/23/613 885/23/613 886/23/613
f 883/23/614 886/23/614 887/23/614
f 883/23/615 887/23/615 888/23/615
f 884/23/616 888/23/616 893/23/616
f 885/23/617 884/23/617 889/23/617
f 886/23/618 885/23/618 890/23/618
f 887/23/619 886/23/619 891/23/619
f 888/23/620 887/23/620 892/23/620
f 884/23/621 893/23/621 889/23/621
f 885/23/622 889/23/622 890/23/622
f 886/23/623 890/23/623 891/23/623
f 887/23/624 891/23/624 892/23/624
f 888/23/625 892/23/625 893/23/625
f 889/23/626 893/23/626 894/23/626
f 890/23/627 889/23/627 894/23/627
f 891/23/628 890/23/628 894/23/628
f 892/23/629 891/23/629 894/23/629
f 893/23/630 892/23/630 894/23/630
o Icosphere.005
v 2.622591 1.337405 -2.226680
v 3.090219 1.694644 -1.886932
v 2.443977 1.694644 -1.676952
v 2.044567 1.694644 -2.226680
v 2.443977 1.694644 -2.776408
v 3.090219 1.694644 -2.566428
v 2.801206 2.272671 -1.676952
v 2.154963 2.272671 -1.886932
v 2.154963 2.272671 -2.566428
v 2.801206 2.272671 -2.776408
v 3.200615 2.272671 -2.226680
v 2.622591 2.629910 -2.226680
vn 0.1876 -0.7947 0.5774
vn 0.6071 -0.7947 -0.0000
vn -0.4911 -0.7947 0.3568
vn -0.4911 -0.7947 -0.3568
vn 0.1876 -0.7947 -0.5774
vn 0.9822 -0.1876 -0.0000
vn 0.3035 -0.1876 0.9342
vn -0.7946 -0.1876 0.5774
vn -0.7946 -0.1876 -0.5774
vn 0.3035 -0.1876 -0.9342
vn 0.7946 0.1876 0.5774
vn -0.3035 0.1876 0.9342
vn -0.9822 0.1876 -0.0000
vn -0.3035 0.1876 -0.9342
vn 0.7946 0.1876 -0.5774
vn 0.4911 0.7947 0.3568
vn -0.1876 0.7947 0.5774
vn -0.6071 0.7947 -0.0000
vn -0.1876 0.7947 -0.5774
vn 0.4911 0.7947 -0.3568
vt 0.437500 0.062500
vt 0.437500 0.062500
s 0
f 895/24/631 896/24/631 897/24/631
f 896/24/632 895/24/632 900/24/632
f 895/24/633 897/24/633 898/24/633
f 895/24/634 898/24/634 899/24/634
f 895/24/635 899/24/635 900/24/635
f 896/24/636 900/24/636 905/24/636
f 897/24/637 896/24/637 901/24/637
f 898/24/638 897/24/638 902/24/638
f 899/24/639 898/24/639 903/24/639
f 900/24/640 899/24/640 904/24/640
f 896/25/641 905/25/641 901/24/641
f 897/24/642 901/24/642 902/24/642
f 898/24/643 902/24/643 903/24/643
f 899/24/644 903/24/644 904/24/644
f 900/24/645 904/24/645 905/24/645
f 901/24/646 905/24/646 906/24/646
f 902/24/647 901/24/647 906/24/647
f 903/24/648 902/24/648 906/24/648
f 904/24/649 903/25/649 906/25/649
f 905/24/650 904/24/650 906/24/650
o Icosphere.007
v -2.801060 1.370013 1.950608
v -2.479829 1.370013 2.183993
v -2.923757 1.370013 2.328236
v -3.198126 1.370013 1.950608
v -2.923757 1.370013 1.572979
v -2.479829 1.370013 1.717222
v -2.700561 1.767081 2.259915
v -3.064173 1.767081 2.141768
v -3.064173 1.767081 1.759447
v -2.700561 1.767081 1.641301
v -2.475832 1.767081 1.950608
v -2.403994 1.767081 1.950608
v -2.678363 1.767081 2.328236
v -3.122291 1.767081 2.183993
v -3.122291 1.767081 1.717222
v -2.678363 1.767081 1.572979
v -2.801060 1.707967 1.950608
v -2.700561 1.707967 2.259915
v -2.475832 1.707967 1.950608
v -3.064173 1.707967 2.141768
v -3.064173 1.707967 1.759447
v -2.700561 1.707967 1.641301
vn -0.0000 -1.0000 -0.0000
vn 0.9822 -0.1876 -0.0000
vn 0.3035 -0.1876 0.9342
vn -0.7946 -0.1876 0.5774
vn -0.7946 -0.1876 -0.5774
vn 0.3035 -0.1876 -0.9342
vn 0.7946 0.1876 0.5774
vn -0.3035 0.1876 0.9342
vn -0.9822 0.1876 -0.0000
vn -0.3035 0.1876 -0.9342
vn 0.7946 0.1876 -0.5774
vn 0.3090 -0.0000 -0.9511
vn 0.3090 -0.0000 0.9511
vn -0.8090 -0.0000 -0.5878
vn 1.0000 -0.0000 -0.0000
vn -0.8090 -0.0000 0.5878
vn -0.0000 1.0000 -0.0000
vt 0.437500 0.312500
vt 0.437500 0.062500
vt 0.437500 0.062500
s 0
f 907/26/651 908/26/651 909/26/651
f 908/26/651 907/26/651 912/26/651
f 907/26/651 909/26/651 910/26/651
f 907/26/651 910/26/651 911/26/651
f 907/26/651 911/26/651 912/26/651
f 908/26/652 912/26/652 918/26/652
f 909/26/653 908/26/653 919/26/653
f 910/26/654 909/26/654 920/26/654
f 911/26/655 910/26/655 921/26/655
f 912/26/656 911/26/656 922/26/656
f 908/26/657 918/26/657 919/26/657
f 909/26/658 919/26/658 920/26/658
f 910/26/659 920/26/659 921/26/659
f 911/26/660 921/26/660 922/26/660
f 912/26/661 922/26/661 918/26/661
f 914/26/662 913/26/662 924/26/662 926/26/662
f 916/26/663 915/26/663 927/26/663 928/26/663
f 913/26/664 917/26/664 925/26/664 924/26/664
f 915/26/665 914/26/665 926/26/665 927/26/665
f 917/26/666 916/26/666 928/26/666 925/26/666
f 917/26/667 913/26/667 919/26/667 918/26/667
f 913/26/667 914/26/667 920/26/667 919/26/667
f 914/26/667 915/26/667 921/26/667 920/26/667
f 915/26/667 916/26/667 922/26/667 921/26/667
f 916/26/667 917/26/667 918/26/667 922/26/667
f 924/27/667 925/27/667 923/27/667
f 926/28/667 924/27/667 923/27/667
f 927/27/667 926/28/667 923/27/667
f 928/28/667 927/27/667 923/27/667
f 925/27/667 928/28/667 923/27/667
