# Blender 5.0.1
# www.blender.org
o Cube.018
v -2.831844 0.100724 2.603496
v -2.831844 2.167718 2.603496
v -2.831844 0.100724 -1.306528
v -2.831844 2.167718 -1.306528
v 2.392993 0.100724 2.603496
v 2.392993 2.167718 2.603496
v 2.392993 0.100724 -1.306528
v 2.392993 2.167718 -1.306528
v -2.831844 2.911295 -1.306528
v 2.392993 2.911295 -1.306528
v -2.831844 2.167718 -0.446559
v -2.831844 2.167718 1.743526
v -2.831844 0.100724 1.743526
v -2.831844 0.100724 -0.446559
v -2.831844 1.576723 2.603496
v -2.831844 0.691719 2.603496
v -2.831844 0.691719 -1.306528
v -2.831844 1.576723 -1.306528
v 2.392993 0.691719 -1.306528
v 2.392993 1.576723 -1.306528
v 2.392993 0.691719 2.603496
v 2.392993 1.576723 2.603496
v 2.392993 0.100724 1.743526
v 2.392993 0.100724 -0.446559
v 2.392993 2.167718 -0.446559
v 2.392993 2.167718 1.743526
v 2.392993 1.576723 -0.446559
v 2.392993 1.576723 1.743526
v 2.392993 0.691719 1.743526
v 2.392993 0.691719 -0.446559
v -2.831844 1.576723 1.743526
v -2.831844 1.576723 -0.446559
v -2.831844 0.691719 -0.446559
v -2.831844 0.691719 1.743526
v 2.692342 0.691719 1.743526
v 2.692342 0.691719 -0.446559
v 2.692342 1.523763 -0.393599
v 2.692342 1.523763 1.690566
v 2.692342 0.153684 1.690566
v 2.692342 0.153684 -0.393599
v -2.831844 -0.064821 1.743526
v -2.831844 -0.064821 2.603496
v 2.392993 -0.064821 -0.446559
v 2.692342 -0.064821 -0.446559
v 2.392993 -0.064821 -1.306528
v -2.831844 -0.064821 -1.306528
v 2.392993 -0.064821 2.603496
v 2.392993 -0.064821 1.743526
v -2.831844 -0.064821 -0.446559
v 2.692342 -0.064821 1.743526
v -3.036030 0.100724 1.743526
v -2.976225 0.100724 2.747877
v 2.537374 0.100724 -0.590940
v 2.836723 0.100724 -0.590940
v 2.537374 0.100724 -1.450910
v -2.976225 0.100724 -1.450910
v 2.537374 0.100724 2.747877
v 2.537374 0.100724 1.887907
v -3.036030 0.100724 -0.446559
v -3.036030 -0.064821 -0.446559
v 2.836723 -0.064821 1.887907
v 2.836723 0.100724 1.887907
v 2.537374 -0.064821 1.887907
v -3.036030 -0.064821 1.743526
v -2.976225 -0.064821 2.747877
v 2.537374 -0.064821 -0.590940
v 2.836723 -0.064821 -0.590940
v 2.537374 -0.064821 -1.450910
v -2.976225 -0.064821 -1.450910
v 2.537374 -0.064821 2.747877
v 1.086784 0.100724 -1.306528
v -0.219426 0.100724 -1.306528
v -1.525635 0.100724 -1.306528
v -1.525635 2.167718 -1.306528
v -0.219425 2.167718 -1.306528
v 1.086784 2.167718 -1.306528
v -1.525635 0.100724 2.603496
v -0.219425 0.100724 2.603496
v 1.086784 0.100724 2.603496
v 1.086784 2.167718 2.603496
v -0.219426 2.167718 2.603496
v -1.525635 2.167718 2.603496
v -1.525635 2.911295 -1.306528
v -0.219425 2.911295 -1.306528
v 1.086784 2.911295 -1.306528
v 1.086784 1.576723 2.603496
v -0.219426 1.576723 2.603496
v -1.525635 1.576723 2.603496
v -1.525635 0.691719 2.603496
v -0.219425 0.691719 2.603496
v 1.086784 0.691719 2.603496
v -1.525635 1.576723 -1.306528
v -0.219425 1.576723 -1.306528
v 1.086784 1.576723 -1.306528
v 1.086784 0.691719 -1.306528
v -0.219426 0.691719 -1.306528
v -1.525635 0.691719 -1.306528
v 1.086784 -0.064821 -1.306528
v -0.219426 -0.064821 -1.306528
v -1.525635 -0.064821 -1.306528
v -1.525635 -0.064821 2.603496
v -0.219425 -0.064821 2.603496
v 1.086784 -0.064821 2.603496
v 1.086784 -0.064821 -0.446559
v -0.219426 -0.064821 -0.446559
v -1.525635 -0.064821 -0.446559
v 1.086784 -0.064821 1.743526
v -0.219426 -0.064821 1.743526
v -1.525635 -0.064821 1.743526
v 1.158974 0.100724 -1.450910
v -0.219426 0.100724 -1.450910
v -1.597826 0.100724 -1.450910
v -1.597826 0.100724 2.747877
v -0.219425 0.100724 2.747877
v 1.158975 0.100724 2.747877
v 1.158974 -0.064821 -1.450910
v -0.219426 -0.064821 -1.450910
v -1.597826 -0.064821 -1.450910
v -1.597826 -0.064821 2.747877
v -0.219425 -0.064821 2.747877
v 1.158975 -0.064821 2.747877
v -1.607841 1.494516 2.603496
v -2.749638 1.494516 2.603496
v -2.749638 0.773926 2.603496
v -1.607841 0.773926 2.603496
v 2.310786 1.494516 2.603496
v 1.168990 1.494516 2.603496
v 1.168990 0.773926 2.603496
v 2.310786 0.773926 2.603496
v 1.004577 1.494516 2.603496
v -0.137219 1.494516 2.603496
v -0.137219 0.773926 2.603496
v 1.004577 0.773926 2.603496
v -0.301632 1.494516 2.603496
v -1.443428 1.494516 2.603496
v -1.443428 0.773926 2.603496
v -0.301632 0.773926 2.603496
v -1.607841 1.494516 2.641521
v -2.749638 1.494516 2.641521
v -1.607841 0.773926 2.641521
v -2.749638 0.773926 2.641521
v 2.310786 1.494516 2.641521
v 1.168990 1.494516 2.641521
v 2.310786 0.773926 2.641521
v 1.168990 0.773926 2.641521
v 1.004577 1.494516 2.641521
v -0.137219 1.494516 2.641521
v 1.004577 0.773926 2.641521
v -0.137219 0.773926 2.641521
v -0.301632 1.494516 2.641521
v -1.443428 1.494516 2.641521
v -0.301632 0.773926 2.641521
v -1.443428 0.773926 2.641521
v -1.669234 1.433124 2.641521
v -2.688245 1.433124 2.641521
v -2.688245 0.835319 2.641521
v -1.669234 0.835319 2.641521
v 2.249393 1.433124 2.641521
v 1.230383 1.433124 2.641521
v 1.230383 0.835319 2.641521
v 2.249393 0.835319 2.641521
v 0.943184 1.433124 2.641521
v -0.075826 1.433124 2.641521
v -0.075826 0.835319 2.641521
v 0.943184 0.835319 2.641521
v -0.363025 1.433124 2.641521
v -1.382035 1.433124 2.641521
v -1.382035 0.835319 2.641521
v -0.363025 0.835319 2.641521
v -1.669234 1.433124 2.582130
v -2.688245 1.433124 2.582130
v -1.669234 0.835319 2.582130
v -2.688245 0.835319 2.582130
v 2.249393 1.433124 2.582130
v 1.230383 1.433124 2.582130
v 2.249393 0.835319 2.582130
v 1.230383 0.835319 2.582130
v 0.943184 1.433124 2.582130
v -0.075826 1.433124 2.582130
v 0.943184 0.835319 2.582130
v -0.075826 0.835319 2.582130
v -0.363025 1.433124 2.582130
v -1.382035 1.433124 2.582130
v -0.363025 0.835319 2.582130
v -1.382035 0.835319 2.582130
v 2.692342 1.576723 -0.446559
v 2.692342 1.576723 1.743526
v 2.692342 0.100724 1.743526
v 2.692342 0.100724 -0.446559
v 2.692342 0.691719 -0.393599
v 2.692342 0.691719 1.690566
v 2.664117 0.691719 1.690566
v 2.664117 0.691719 -0.393599
v 2.664117 1.523763 -0.393599
v 2.664117 1.523763 1.690566
v 2.664117 0.153684 1.690566
v 2.664117 0.153684 -0.393599
vn -1.0000 -0.0000 -0.0000
vn -0.0000 1.0000 -0.0000
vn -0.0000 -1.0000 -0.0000
vn -0.0000 0.9824 0.1868
vn -0.0000 -0.0000 -1.0000
vn 1.0000 -0.0000 -0.0000
vn -0.0000 -0.0000 1.0000
vn -0.9982 -0.0000 -0.0594
vn -0.9982 -0.0000 0.0594
vt 0.562501 0.812500
vt 0.062500 0.812499
vt 0.312500 0.937501
vt 0.437500 0.562500
vt 0.187500 0.312500
s 0
f 1/1/1 16/1/1 34/1/1 13/1/1
f 15/1/1 2/1/1 12/1/1 31/1/1
f 27/1/2 28/1/2 187/1/2 186/1/2
f 31/1/1 12/1/1 11/1/1 32/1/1
f 47/2/3 48/2/3 63/2/3 70/2/3
f 83/1/4 9/1/4 2/1/4 82/1/4
f 74/1/5 4/1/5 9/1/5 83/1/5
f 6/1/6 26/1/6 25/1/6 8/1/6 10/1/6
f 4/1/1 11/1/1 12/1/1 2/1/1 9/1/1
f 13/1/1 34/1/1 33/1/1 14/1/1
f 27/1/6 25/1/6 26/1/6 28/1/6
f 20/1/6 8/1/6 25/1/6 27/1/6
f 7/1/6 19/1/6 30/1/6 24/1/6
f 131/3/1 132/3/1 149/3/1 147/3/1
f 28/1/6 22/1/6 21/1/6 29/1/6
f 94/1/5 20/1/5 19/1/5 95/1/5
f 32/1/1 18/1/1 17/1/1 33/1/1
f 88/1/7 82/1/7 2/1/7 15/1/7
f 14/1/1 33/1/1 17/1/1 3/1/1
f 32/1/1 11/1/1 4/1/1 18/1/1
f 77/1/7 89/1/7 16/1/7 1/1/7
f 94/1/5 76/1/5 8/1/5 20/1/5
f 71/1/5 95/1/5 19/1/5 7/1/5
f 28/1/6 26/1/6 6/1/6 22/1/6
f 23/1/6 29/1/6 21/1/6 5/1/6
f 15/1/1 31/1/1 34/1/1 16/1/1
f 31/1/1 32/1/1 33/1/1 34/1/1
f 20/1/6 27/1/6 30/1/6 19/1/6
f 188/2/2 23/2/2 58/2/2 62/2/2
f 100/2/3 46/2/3 69/2/3 118/2/3
f 77/2/2 1/2/2 52/2/2 113/2/2
f 38/1/5 191/1/5 192/1/5 195/1/5
f 37/1/3 38/1/3 195/1/3 194/1/3
f 29/1/7 23/1/7 188/1/7 35/1/7
f 30/1/5 27/1/5 186/1/5 36/1/5
f 28/1/7 29/1/7 35/1/7 187/1/7
f 24/1/5 30/1/5 36/1/5 189/1/5
f 107/2/3 48/2/3 47/2/3 103/2/3
f 48/2/3 43/2/3 44/2/3 50/2/3
f 98/2/3 45/2/3 43/2/3 104/2/3
f 104/2/3 43/2/3 48/2/3 107/2/3
f 44/2/3 43/2/3 66/2/3 67/2/3
f 13/2/2 14/2/2 59/2/2 51/2/2
f 41/2/3 42/2/3 65/2/3 64/2/3
f 24/2/2 189/2/2 54/2/2 53/2/2
f 46/2/3 49/2/3 60/2/3 69/2/3
f 1/2/2 13/2/2 51/2/2 52/2/2
f 59/2/8 56/2/8 69/2/8 60/2/8
f 58/2/6 57/2/6 70/2/6 63/2/6
f 51/2/1 59/2/1 60/2/1 64/2/1
f 62/2/7 58/2/7 63/2/7 61/2/7
f 113/2/7 52/2/7 65/2/7 119/2/7
f 52/2/9 51/2/9 64/2/9 65/2/9
f 55/2/6 53/2/6 66/2/6 68/2/6
f 54/2/6 62/2/6 61/2/6 67/2/6
f 110/2/5 55/2/5 68/2/5 116/2/5
f 53/2/5 54/2/5 67/2/5 66/2/5
f 71/2/2 7/2/2 55/2/2 110/2/2
f 50/2/3 44/2/3 67/2/3 61/2/3
f 43/2/3 45/2/3 68/2/3 66/2/3
f 14/2/2 3/2/2 56/2/2 59/2/2
f 48/2/3 50/2/3 61/2/3 63/2/3
f 189/2/2 188/2/2 62/2/2 54/2/2
f 49/2/3 41/2/3 64/2/3 60/2/3
f 23/2/2 5/2/2 57/2/2 58/2/2
f 103/2/3 47/2/3 70/2/3 121/2/3
f 7/2/2 24/2/2 53/2/2 55/2/2
f 42/2/3 101/2/3 119/2/3 65/2/3
f 101/2/3 102/2/3 120/2/3 119/2/3
f 102/2/3 103/2/3 121/2/3 120/2/3
f 3/2/2 73/2/2 112/2/2 56/2/2
f 73/2/2 72/2/2 111/2/2 112/2/2
f 72/2/2 71/2/2 110/2/2 111/2/2
f 56/2/5 112/2/5 118/2/5 69/2/5
f 112/2/5 111/2/5 117/2/5 118/2/5
f 111/2/5 110/2/5 116/2/5 117/2/5
f 57/2/7 115/2/7 121/2/7 70/2/7
f 115/2/7 114/2/7 120/2/7 121/2/7
f 114/2/7 113/2/7 119/2/7 120/2/7
f 49/2/3 106/2/3 109/2/3 41/2/3
f 106/2/3 105/2/3 108/2/3 109/2/3
f 105/2/3 104/2/3 107/2/3 108/2/3
f 46/2/3 100/2/3 106/2/3 49/2/3
f 100/2/3 99/2/3 105/2/3 106/2/3
f 99/2/3 98/2/3 104/2/3 105/2/3
f 41/2/3 109/2/3 101/2/3 42/2/3
f 109/2/3 108/2/3 102/2/3 101/2/3
f 108/2/3 107/2/3 103/2/3 102/2/3
f 5/2/2 79/2/2 115/2/2 57/2/2
f 79/2/2 78/2/2 114/2/2 115/2/2
f 78/2/2 77/2/2 113/2/2 114/2/2
f 45/2/3 98/2/3 116/2/3 68/2/3
f 98/2/3 99/2/3 117/2/3 116/2/3
f 99/2/3 100/2/3 118/2/3 117/2/3
f 3/1/5 17/1/5 97/1/5 73/1/5
f 73/1/5 97/1/5 96/1/5 72/1/5
f 72/1/5 96/1/5 95/1/5 71/1/5
f 18/1/5 4/1/5 74/1/5 92/1/5
f 92/1/5 74/1/5 75/1/5 93/1/5
f 93/1/5 75/1/5 76/1/5 94/1/5
f 5/1/7 21/1/7 91/1/7 79/1/7
f 79/1/7 91/1/7 90/1/7 78/1/7
f 78/1/7 90/1/7 89/1/7 77/1/7
f 22/1/7 6/1/7 80/1/7 86/1/7
f 86/1/7 80/1/7 81/1/7 87/1/7
f 87/1/7 81/1/7 82/1/7 88/1/7
f 18/1/5 92/1/5 97/1/5 17/1/5
f 92/1/5 93/1/5 96/1/5 97/1/5
f 93/1/5 94/1/5 95/1/5 96/1/5
f 124/3/3 125/3/3 140/3/3 141/3/3
f 137/3/6 134/3/6 150/3/6 152/3/6
f 127/3/1 128/3/1 145/3/1 143/3/1
f 8/1/5 76/1/5 85/1/5 10/1/5
f 76/1/5 75/1/5 84/1/5 85/1/5
f 75/1/5 74/1/5 83/1/5 84/1/5
f 10/1/4 85/1/4 80/1/4 6/1/4
f 85/1/4 84/1/4 81/1/4 80/1/4
f 84/1/4 83/1/4 82/1/4 81/1/4
f 88/1/7 15/1/7 123/1/7 122/1/7
f 15/1/7 16/1/7 124/1/7 123/1/7
f 16/1/7 89/1/7 125/1/7 124/1/7
f 89/1/7 88/1/7 122/1/7 125/1/7
f 22/1/7 86/1/7 127/1/7 126/1/7
f 86/1/7 91/1/7 128/1/7 127/1/7
f 91/1/7 21/1/7 129/1/7 128/1/7
f 21/1/7 22/1/7 126/1/7 129/1/7
f 86/1/7 87/1/7 131/1/7 130/1/7
f 87/1/7 90/1/7 132/1/7 131/1/7
f 90/1/7 91/1/7 133/1/7 132/1/7
f 91/1/7 86/1/7 130/1/7 133/1/7
f 87/1/7 88/1/7 135/1/7 134/1/7
f 88/1/7 89/1/7 136/1/7 135/1/7
f 89/1/7 90/1/7 137/1/7 136/1/7
f 90/1/7 87/1/7 134/1/7 137/1/7
f 161/3/1 158/3/1 174/3/1 176/3/1
f 162/3/3 163/3/3 179/3/3 178/3/3
f 157/3/1 154/3/1 170/3/1 172/3/1
f 158/3/3 159/3/3 175/3/3 174/3/3
f 128/3/3 129/3/3 144/3/3 145/3/3
f 135/3/1 136/3/1 153/3/1 151/3/1
f 132/3/3 133/3/3 148/3/3 149/3/3
f 136/3/3 137/3/3 152/3/3 153/3/3
f 122/3/2 123/3/2 139/3/2 138/3/2
f 126/3/2 127/3/2 143/3/2 142/3/2
f 125/3/6 122/3/6 138/3/6 140/3/6
f 130/3/2 131/3/2 147/3/2 146/3/2
f 129/3/6 126/3/6 142/3/6 144/3/6
f 134/3/2 135/3/2 151/3/2 150/3/2
f 123/3/1 124/3/1 141/3/1 139/3/1
f 133/3/6 130/3/6 146/3/6 148/3/6
f 138/3/7 139/3/7 155/3/7 154/3/7
f 139/3/7 141/3/7 156/3/7 155/3/7
f 141/3/7 140/3/7 157/3/7 156/3/7
f 140/3/7 138/3/7 154/3/7 157/3/7
f 142/3/7 143/3/7 159/3/7 158/3/7
f 143/3/7 145/3/7 160/3/7 159/3/7
f 145/3/7 144/3/7 161/3/7 160/3/7
f 144/3/7 142/3/7 158/3/7 161/3/7
f 146/3/7 147/3/7 163/3/7 162/3/7
f 147/3/7 149/3/7 164/3/7 163/3/7
f 149/3/7 148/3/7 165/3/7 164/3/7
f 148/3/7 146/3/7 162/3/7 165/3/7
f 150/3/7 151/3/7 167/3/7 166/3/7
f 151/3/7 153/3/7 168/3/7 167/3/7
f 153/3/7 152/3/7 169/3/7 168/3/7
f 152/3/7 150/3/7 166/3/7 169/3/7
f 170/4/7 171/4/7 173/4/7 172/4/7
f 174/4/7 175/4/7 177/4/7 176/4/7
f 178/4/7 179/4/7 181/4/7 180/4/7
f 182/4/7 183/4/7 185/4/7 184/4/7
f 166/3/3 167/3/3 183/3/3 182/3/3
f 155/3/6 156/3/6 173/3/6 171/3/6
f 165/3/1 162/3/1 178/3/1 180/3/1
f 159/3/6 160/3/6 177/3/6 175/3/6
f 169/3/1 166/3/1 182/3/1 184/3/1
f 156/3/2 157/3/2 172/3/2 173/3/2
f 163/3/6 164/3/6 181/3/6 179/3/6
f 160/3/2 161/3/2 176/3/2 177/3/2
f 167/3/6 168/3/6 185/3/6 183/3/6
f 164/3/2 165/3/2 180/3/2 181/3/2
f 168/3/2 169/3/2 184/3/2 185/3/2
f 154/3/3 155/3/3 171/3/3 170/3/3
f 38/1/6 37/1/6 186/1/6 187/1/6
f 40/1/6 39/1/6 188/1/6 189/1/6
f 190/1/6 40/1/6 189/1/6 36/1/6
f 39/1/6 191/1/6 35/1/6 188/1/6
f 37/1/6 190/1/6 36/1/6 186/1/6
f 191/1/6 38/1/6 187/1/6 35/1/6
f 197/5/6 193/5/6 192/5/6 196/5/6
f 194/5/6 195/5/6 192/5/6 193/5/6
f 191/1/5 39/1/5 196/1/5 192/1/5
f 39/1/2 40/1/2 197/1/2 196/1/2
f 190/1/7 37/1/7 194/1/7 193/1/7
f 40/1/7 190/1/7 193/1/7 197/1/7
o Cube.019
v -3.043712 1.913790 2.967156
v -3.043712 2.233217 3.025435
v -3.043712 2.761139 -1.677171
v -3.043712 3.080566 -1.618892
v 2.604861 1.913790 2.967156
v 2.604861 2.233217 3.025435
v 2.604861 2.761139 -1.677171
v 2.604861 3.080566 -1.618892
v -0.219425 2.761139 -1.677171
v -0.219425 3.080566 -1.618892
v -0.219425 1.913790 2.967156
v -0.219425 2.233217 3.025435
v -3.043712 2.478689 -0.129062
v -3.043712 2.196240 1.419047
v -3.043712 2.515666 1.477326
v -3.043712 2.798116 -0.070783
v 2.604861 2.196240 1.419047
v 2.604861 2.478689 -0.129062
v 2.604861 2.798116 -0.070783
v 2.604861 2.515666 1.477326
v -0.219425 2.798116 -0.070783
v -0.219425 2.515666 1.477326
v -0.219425 2.478689 -0.129062
v -0.219425 2.196240 1.419047
v -0.301743 2.501404 1.555497
v -2.902622 2.501404 1.555497
v -2.902622 2.258562 2.886516
v -0.301743 2.258562 2.886516
v 2.463771 2.501404 1.555497
v -0.137108 2.501404 1.555497
v -0.137108 2.258562 2.886516
v 2.463771 2.258562 2.886516
v 2.463771 3.055220 -1.479973
v -0.137108 3.055220 -1.479973
v -0.137108 2.812113 -0.147499
v 2.463771 2.812113 -0.147499
v 2.463771 2.784119 0.005933
v -0.137108 2.784119 0.005933
v -0.137108 2.529929 1.399155
v 2.463771 2.529929 1.399155
v -0.301743 3.055220 -1.479973
v -2.902622 3.055220 -1.479973
v -2.902622 2.812113 -0.147498
v -0.301743 2.812113 -0.147499
v -0.301743 2.784119 0.005933
v -2.902622 2.784119 0.005933
v -2.902622 2.529929 1.399155
v -0.301743 2.529929 1.399155
v -0.400506 2.483678 1.652656
v -2.803859 2.483678 1.652656
v -2.803859 2.276289 2.789358
v -0.400506 2.276289 2.789357
v 2.365008 2.483678 1.652656
v -0.038345 2.483678 1.652656
v -0.038345 2.276289 2.789357
v 2.365008 2.276289 2.789358
v 2.365008 3.037494 -1.382814
v -0.038345 3.037494 -1.382814
v -0.038345 2.829839 -0.244657
v 2.365008 2.829839 -0.244657
v 2.365008 2.766393 0.103091
v -0.038345 2.766393 0.103091
v -0.038345 2.547655 1.301996
v 2.365008 2.547655 1.301996
v -0.400506 3.037494 -1.382814
v -2.803859 3.037494 -1.382814
v -2.803859 2.829839 -0.244657
v -0.400506 2.829839 -0.244657
v -0.400506 2.766393 0.103091
v -2.803859 2.766393 0.103091
v -2.803859 2.547655 1.301996
v -0.400506 2.547655 1.301996
v -2.803859 2.578666 1.652656
v -2.767222 2.609025 1.688698
v -0.437143 2.609025 1.688698
v -0.400506 2.578666 1.652656
v -0.437143 2.414788 2.753315
v -0.400506 2.371278 2.789357
v -2.803859 2.371277 2.789358
v -2.767222 2.414788 2.753315
v -0.038345 2.578666 1.652656
v -0.001708 2.609025 1.688698
v 2.328371 2.609025 1.688698
v 2.365008 2.578666 1.652656
v 2.328371 2.414788 2.753315
v 2.365008 2.371277 2.789358
v -0.038345 2.371278 2.789357
v -0.001708 2.414788 2.753315
v -0.038345 3.132482 -1.382814
v -0.001708 3.162841 -1.346772
v 2.328371 3.162841 -1.346772
v 2.365008 3.132483 -1.382814
v 2.328371 2.968338 -0.280699
v 2.365008 2.924828 -0.244657
v -0.038345 2.924828 -0.244657
v -0.001708 2.968338 -0.280699
v -0.038345 2.861382 0.103091
v -0.001708 2.891740 0.139133
v 2.328371 2.891740 0.139133
v 2.365008 2.861382 0.103091
v 2.328371 2.686154 1.265954
v 2.365008 2.642644 1.301996
v -0.038345 2.642644 1.301996
v -0.001708 2.686154 1.265954
v -2.803859 3.132483 -1.382814
v -2.767222 3.162841 -1.346772
v -0.437143 3.162841 -1.346772
v -0.400506 3.132482 -1.382814
v -0.437143 2.968338 -0.280699
v -0.400506 2.924828 -0.244657
v -2.803859 2.924828 -0.244657
v -2.767222 2.968338 -0.280699
v -2.803859 2.861382 0.103091
v -2.767222 2.891740 0.139133
v -0.437143 2.891740 0.139133
v -0.400506 2.861382 0.103091
v -0.437143 2.686154 1.265954
v -0.400506 2.642644 1.301996
v -2.803859 2.642644 1.301996
v -2.767222 2.686154 1.265954
vn -1.0000 -0.0000 -0.0000
vn -0.0000 0.1795 -0.9838
vn 1.0000 -0.0000 -0.0000
vn -0.0000 -0.1795 0.9838
vn -0.0000 -0.9838 -0.1795
vn -0.0000 0.9838 0.1795
vn -0.0000 0.7648 -0.6442
vn 0.7042 0.6985 0.1274
vn -0.7042 0.6985 0.1274
vn -0.0000 0.6379 0.7701
vn -0.0000 -0.0000 -1.0000
vn -0.0000 -0.0000 1.0000
vt 0.437500 0.937500
s 0
f 210/6/10 213/6/10 201/6/10 200/6/10
f 206/6/11 207/6/11 205/6/11 204/6/11
f 214/6/12 217/6/12 203/6/12 202/6/12
f 208/6/13 209/6/13 199/6/13 198/6/13
f 221/6/14 214/6/14 202/6/14 208/6/14
f 211/6/14 221/6/14 208/6/14 198/6/14
f 202/6/13 203/6/13 209/6/13 208/6/13
f 200/6/11 201/6/11 207/6/11 206/6/11
f 200/6/14 206/6/14 220/6/14 210/6/14
f 210/6/14 220/6/14 221/6/14 211/6/14
f 206/6/14 204/6/14 215/6/14 220/6/14
f 220/6/14 215/6/14 214/6/14 221/6/14
f 204/6/12 205/6/12 216/6/12 215/6/12
f 215/6/12 216/6/12 217/6/12 214/6/12
f 198/6/10 199/6/10 212/6/10 211/6/10
f 211/6/10 212/6/10 213/6/10 210/6/10
f 219/6/15 212/6/15 223/6/15 222/6/15
f 212/6/15 199/6/15 224/6/15 223/6/15
f 199/6/15 209/6/15 225/6/15 224/6/15
f 209/6/15 219/6/15 222/6/15 225/6/15
f 217/6/15 219/6/15 227/6/15 226/6/15
f 219/6/15 209/6/15 228/6/15 227/6/15
f 209/6/15 203/6/15 229/6/15 228/6/15
f 203/6/15 217/6/15 226/6/15 229/6/15
f 205/6/15 207/6/15 231/6/15 230/6/15
f 207/6/15 218/6/15 232/6/15 231/6/15
f 218/6/15 216/6/15 233/6/15 232/6/15
f 216/6/15 205/6/15 230/6/15 233/6/15
f 216/6/15 218/6/15 235/6/15 234/6/15
f 218/6/15 219/6/15 236/6/15 235/6/15
f 219/6/15 217/6/15 237/6/15 236/6/15
f 217/6/15 216/6/15 234/6/15 237/6/15
f 207/6/15 201/6/15 239/6/15 238/6/15
f 201/6/15 213/6/15 240/6/15 239/6/15
f 213/6/15 218/6/15 241/6/15 240/6/15
f 218/6/15 207/6/15 238/6/15 241/6/15
f 218/6/15 213/6/15 243/6/15 242/6/15
f 213/6/15 212/6/15 244/6/15 243/6/15
f 212/6/15 219/6/15 245/6/15 244/6/15
f 219/6/15 218/6/15 242/6/15 245/6/15
f 222/6/15 223/6/15 247/6/15 246/6/15
f 223/6/15 224/6/15 248/6/15 247/6/15
f 224/6/15 225/6/15 249/6/15 248/6/15
f 225/6/15 222/6/15 246/6/15 249/6/15
f 226/6/15 227/6/15 251/6/15 250/6/15
f 227/6/15 228/6/15 252/6/15 251/6/15
f 228/6/15 229/6/15 253/6/15 252/6/15
f 229/6/15 226/6/15 250/6/15 253/6/15
f 230/6/15 231/6/15 255/6/15 254/6/15
f 231/6/15 232/6/15 256/6/15 255/6/15
f 232/6/15 233/6/15 257/6/15 256/6/15
f 233/6/15 230/6/15 254/6/15 257/6/15
f 234/6/15 235/6/15 259/6/15 258/6/15
f 235/6/15 236/6/15 260/6/15 259/6/15
f 236/6/15 237/6/15 261/6/15 260/6/15
f 237/6/15 234/6/15 258/6/15 261/6/15
f 238/6/15 239/6/15 263/6/15 262/6/15
f 239/6/15 240/6/15 264/6/15 263/6/15
f 240/6/15 241/6/15 265/6/15 264/6/15
f 241/6/15 238/6/15 262/6/15 265/6/15
f 242/6/15 243/6/15 267/6/15 266/6/15
f 243/6/15 244/6/15 268/6/15 267/6/15
f 244/6/15 245/6/15 269/6/15 268/6/15
f 245/6/15 242/6/15 266/6/15 269/6/15
f 271/6/16 272/6/16 273/6/16 270/6/16
f 272/6/17 274/6/17 275/6/17 273/6/17
f 277/6/18 271/6/18 270/6/18 276/6/18
f 274/6/19 277/6/19 276/6/19 275/6/19
f 279/6/16 280/6/16 281/6/16 278/6/16
f 280/6/17 282/6/17 283/6/17 281/6/17
f 278/6/18 284/6/18 285/6/18 279/6/18
f 282/6/19 285/6/19 284/6/19 283/6/19
f 287/6/16 288/6/16 289/6/16 286/6/16
f 288/6/17 290/6/17 291/6/17 289/6/17
f 286/6/18 292/6/18 293/6/18 287/6/18
f 292/6/19 291/6/19 290/6/19 293/6/19
f 295/6/16 296/6/16 297/6/16 294/6/16
f 296/6/17 298/6/17 299/6/17 297/6/17
f 294/6/18 300/6/18 301/6/18 295/6/18
f 300/6/19 299/6/19 298/6/19 301/6/19
f 303/6/16 304/6/16 305/6/16 302/6/16
f 304/6/17 306/6/17 307/6/17 305/6/17
f 309/6/18 303/6/18 302/6/18 308/6/18
f 308/6/19 307/6/19 306/6/19 309/6/19
f 311/6/16 312/6/16 313/6/16 310/6/16
f 312/6/17 314/6/17 315/6/17 313/6/17
f 317/6/18 311/6/18 310/6/18 316/6/18
f 316/6/19 315/6/19 314/6/19 317/6/19
f 246/6/20 247/6/20 270/6/20 273/6/20
f 272/6/15 271/6/15 277/6/15 274/6/15
f 247/6/10 248/6/10 276/6/10 270/6/10
f 249/6/12 246/6/12 273/6/12 275/6/12
f 248/6/21 249/6/21 275/6/21 276/6/21
f 250/6/20 251/6/20 278/6/20 281/6/20
f 280/6/15 279/6/15 285/6/15 282/6/15
f 251/6/10 252/6/10 284/6/10 278/6/10
f 253/6/12 250/6/12 281/6/12 283/6/12
f 252/6/21 253/6/21 283/6/21 284/6/21
f 288/6/15 287/6/15 293/6/15 290/6/15
f 255/6/10 256/6/10 292/6/10 286/6/10
f 254/6/20 255/6/20 286/6/20 289/6/20
f 257/6/12 254/6/12 289/6/12 291/6/12
f 256/6/21 257/6/21 291/6/21 292/6/21
f 296/6/15 295/6/15 301/6/15 298/6/15
f 259/6/10 260/6/10 300/6/10 294/6/10
f 258/6/20 259/6/20 294/6/20 297/6/20
f 261/6/12 258/6/12 297/6/12 299/6/12
f 260/6/21 261/6/21 299/6/21 300/6/21
f 304/6/15 303/6/15 309/6/15 306/6/15
f 263/6/10 264/6/10 308/6/10 302/6/10
f 262/6/20 263/6/20 302/6/20 305/6/20
f 265/6/12 262/6/12 305/6/12 307/6/12
f 264/6/21 265/6/21 307/6/21 308/6/21
f 266/6/20 267/6/20 310/6/20 313/6/20
f 312/6/15 311/6/15 317/6/15 314/6/15
f 267/6/10 268/6/10 316/6/10 310/6/10
f 269/6/12 266/6/12 313/6/12 315/6/12
f 268/6/21 269/6/21 315/6/21 316/6/21
o Cube.022
v 2.092775 1.435011 1.885237
v 2.092775 1.718435 1.885237
v 2.092775 1.435011 1.601813
v 2.092775 1.718435 1.601813
v 4.013570 1.435011 1.885237
v 4.013570 1.718435 1.885237
v 4.013570 1.435011 1.601813
v 4.013570 1.718435 1.601813
v 3.582047 1.850035 1.885237
v 3.865472 1.850035 1.885237
v 3.582047 1.850035 1.601813
v 3.865472 1.850035 1.601813
v 3.582047 -0.070759 1.885237
v 3.865472 -0.070759 1.885237
v 3.582047 -0.070759 1.601813
v 3.865472 -0.070759 1.601812
v 3.582047 1.718100 1.601813
v 3.865472 1.718100 1.601813
v 3.582047 1.718100 1.885237
v 3.865472 1.718100 1.885237
v 3.865472 1.434904 1.601813
v 3.582047 1.434904 1.885237
v 3.582047 1.434904 1.601813
v 3.865472 1.434904 1.885237
v 3.582047 1.434904 0.648484
v 3.582047 1.718100 0.648484
v 3.865472 1.434904 2.050169
v 3.865472 1.718100 2.050169
v 3.582047 1.718100 2.050169
v 3.865472 1.718100 0.648484
v 3.865472 1.434904 0.648484
v 3.582047 1.434904 2.050169
v 2.092775 1.435011 -0.588270
v 2.092775 1.718435 -0.588270
v 2.092775 1.435011 -0.304845
v 2.092775 1.718435 -0.304845
v 4.013570 1.435011 -0.588270
v 4.013570 1.718435 -0.588270
v 4.013570 1.435011 -0.304845
v 4.013570 1.718435 -0.304845
v 3.582047 1.850035 -0.588270
v 3.865472 1.850035 -0.588270
v 3.582047 1.850035 -0.304845
v 3.865472 1.850035 -0.304845
v 3.582047 -0.070759 -0.588270
v 3.865472 -0.070759 -0.588270
v 3.582047 -0.070759 -0.304845
v 3.865472 -0.070759 -0.304845
v 3.582047 1.718100 -0.304845
v 3.865472 1.718100 -0.304845
v 3.582047 1.718100 -0.588270
v 3.865472 1.718100 -0.588270
v 3.865472 1.434904 -0.304845
v 3.582047 1.434904 -0.588270
v 3.582047 1.434904 -0.304845
v 3.865472 1.434904 -0.588270
v 3.865472 1.434904 -0.753201
v 3.865472 1.718100 -0.753201
v 3.582047 1.718100 -0.753201
v 3.582047 1.434904 -0.753201
vn -1.0000 -0.0000 -0.0000
vn -0.0000 -0.0000 -1.0000
vn 1.0000 -0.0000 -0.0000
vn -0.0000 -0.0000 1.0000
vn -0.0000 -1.0000 -0.0000
vn -0.0000 1.0000 -0.0000
vt 0.187500 0.812500
s 0
f 318/7/22 319/7/22 321/7/22 320/7/22
f 320/7/23 321/7/23 325/7/23 324/7/23
f 324/7/24 325/7/24 323/7/24 322/7/24
f 322/7/25 323/7/25 319/7/25 318/7/25
f 320/7/26 324/7/26 322/7/26 318/7/26
f 325/7/27 321/7/27 319/7/27 323/7/27
f 326/7/27 327/7/27 329/7/27 328/7/27
f 340/7/23 338/7/23 333/7/23 332/7/23
f 332/7/26 333/7/26 331/7/26 330/7/26
f 336/7/25 337/7/25 327/7/25 326/7/25
f 340/7/22 332/7/22 330/7/22 339/7/22
f 335/7/24 329/7/24 327/7/24 337/7/24
f 338/7/24 335/7/24 337/7/24 341/7/24
f 328/7/22 334/7/22 336/7/22 326/7/22
f 334/7/27 335/7/27 347/7/27 343/7/27
f 328/7/23 329/7/23 335/7/23 334/7/23
f 330/7/25 331/7/25 341/7/25 339/7/25
f 333/7/24 338/7/24 341/7/24 331/7/24
f 334/7/22 340/7/22 339/7/22 336/7/22
f 336/7/22 339/7/22 349/7/22 346/7/22
f 349/7/25 344/7/25 345/7/25 346/7/25
f 343/7/23 347/7/23 348/7/23 342/7/23
f 341/7/24 337/7/24 345/7/24 344/7/24
f 339/7/26 341/7/26 344/7/26 349/7/26
f 335/7/24 338/7/24 348/7/24 347/7/24
f 337/7/27 336/7/27 346/7/27 345/7/27
f 338/7/26 340/7/26 342/7/26 348/7/26
f 340/7/22 334/7/22 343/7/22 342/7/22
f 350/7/22 352/7/22 353/7/22 351/7/22
f 352/7/25 356/7/25 357/7/25 353/7/25
f 356/7/24 354/7/24 355/7/24 357/7/24
f 354/7/23 350/7/23 351/7/23 355/7/23
f 352/7/26 350/7/26 354/7/26 356/7/26
f 357/7/27 355/7/27 351/7/27 353/7/27
f 358/7/27 360/7/27 361/7/27 359/7/27
f 372/7/25 364/7/25 365/7/25 370/7/25
f 364/7/26 362/7/26 363/7/26 365/7/26
f 368/7/23 358/7/23 359/7/23 369/7/23
f 372/7/22 371/7/22 362/7/22 364/7/22
f 367/7/24 369/7/24 359/7/24 361/7/24
f 370/7/24 373/7/24 369/7/24 367/7/24
f 360/7/22 358/7/22 368/7/22 366/7/22
f 366/7/27 343/7/27 347/7/27 367/7/27
f 360/7/25 366/7/25 367/7/25 361/7/25
f 362/7/23 371/7/23 373/7/23 363/7/23
f 365/7/24 363/7/24 373/7/24 370/7/24
f 366/7/22 368/7/22 371/7/22 372/7/22
f 368/7/22 376/7/22 377/7/22 371/7/22
f 377/7/23 376/7/23 375/7/23 374/7/23
f 373/7/24 374/7/24 375/7/24 369/7/24
f 371/7/26 377/7/26 374/7/26 373/7/26
f 367/7/24 347/7/24 348/7/24 370/7/24
f 369/7/27 375/7/27 376/7/27 368/7/27
f 370/7/26 348/7/26 342/7/26 372/7/26
f 372/7/22 342/7/22 343/7/22 366/7/22
o Cube.023
v 2.371750 1.450634 2.089582
v 2.371750 1.770061 2.147861
v 2.371750 1.977759 -0.799597
v 2.371750 2.297186 -0.741318
v 3.554801 1.450634 2.089582
v 3.554801 1.770061 2.147861
v 3.554801 1.977759 -0.799597
v 3.554801 2.297186 -0.741318
v 2.371750 1.927020 -0.521494
v 2.371750 2.246446 -0.463215
v 3.554801 1.927020 -0.521494
v 3.554801 2.246446 -0.463215
v 2.371750 1.906322 -0.408051
v 3.554801 2.225749 -0.349772
v 2.371750 2.225749 -0.349772
v 3.554801 1.906322 -0.408051
v 3.554801 1.673660 -0.408051
v 3.554801 1.694357 -0.521494
v 2.371750 1.694357 -0.521494
v 2.371750 1.673660 -0.408051
vn -0.0000 -0.1795 0.9838
vn -0.0000 -0.9838 -0.1795
vn -0.0000 0.1795 -0.9838
vn 1.0000 -0.0000 -0.0000
vn -1.0000 -0.0000 -0.0000
vn -0.0000 0.9838 0.1795
vn -0.0000 -0.0000 1.0000
vn -0.0000 -0.0000 -1.0000
vt 0.187500 0.312500
s 0
f 382/8/28 383/8/28 379/8/28 378/8/28
f 393/8/29 382/8/29 378/8/29 390/8/29
f 380/8/30 381/8/30 385/8/30 384/8/30
f 391/8/31 383/8/31 382/8/31 393/8/31
f 387/8/32 381/8/32 380/8/32 386/8/32
f 387/8/33 389/8/33 385/8/33 381/8/33
f 392/8/33 391/8/33 389/8/33 387/8/33
f 392/8/32 387/8/32 386/8/32 390/8/32
f 385/8/31 389/8/31 388/8/31 384/8/31
f 384/8/29 388/8/29 386/8/29 380/8/29
f 379/8/32 392/8/32 390/8/32 378/8/32
f 379/8/33 383/8/33 391/8/33 392/8/33
f 389/8/31 391/8/31 393/8/31 388/8/31
f 393/8/34 390/8/34 397/8/34 394/8/34
f 395/8/29 394/8/29 397/8/29 396/8/29
f 388/8/31 393/8/31 394/8/31 395/8/31
f 386/8/35 388/8/35 395/8/35 396/8/35
f 390/8/32 386/8/32 396/8/32 397/8/32
o Cube.024
v -1.021815 -0.064363 -1.863184
v -1.021815 1.523314 -1.863184
v -1.021815 -0.064363 -3.450861
v -1.021815 1.523314 -3.450861
v 0.565862 -0.064363 -1.863184
v 0.565862 1.523314 -1.863184
v 0.565862 -0.064363 -3.450861
v 0.565862 1.523314 -3.450861
vn -1.0000 -0.0000 -0.0000
vn -0.0000 -0.0000 -1.0000
vn 1.0000 -0.0000 -0.0000
vn -0.0000 -0.0000 1.0000
vn -0.0000 -1.0000 -0.0000
vn -0.0000 1.0000 -0.0000
vt 0.187500 0.187500
s 0
f 398/9/36 399/9/36 401/9/36 400/9/36
f 400/9/37 401/9/37 405/9/37 404/9/37
f 404/9/38 405/9/38 403/9/38 402/9/38
f 402/9/39 403/9/39 399/9/39 398/9/39
f 400/9/40 404/9/40 402/9/40 398/9/40
f 405/9/41 401/9/41 399/9/41 403/9/41
o Cube.025
v -0.984241 1.524924 -2.038359
v -0.984241 2.871200 -2.038359
v -0.879908 1.524924 -3.380586
v -0.879908 2.871200 -3.380586
v 0.357986 1.524924 -1.934026
v 0.357986 2.871200 -1.934026
v 0.462319 1.524924 -3.276253
v 0.462319 2.871200 -3.276253
vn -0.9970 -0.0000 -0.0775
vn 0.0775 -0.0000 -0.9970
vn 0.9970 -0.0000 0.0775
vn -0.0775 -0.0000 0.9970
vn -0.0000 -1.0000 -0.0000
vn -0.0000 1.0000 -0.0000
vt 0.187500 0.062500
s 0
f 406/10/42 407/10/42 409/10/42 408/10/42
f 408/10/43 409/10/43 413/10/43 412/10/43
f 412/10/44 413/10/44 411/10/44 410/10/44
f 410/10/45 411/10/45 407/10/45 406/10/45
f 408/10/46 412/10/46 410/10/46 406/10/46
f 413/10/47 409/10/47 407/10/47 411/10/47
o Cube.026
v -0.892049 2.881204 -2.050284
v -0.892049 4.170741 -2.050284
v -0.921231 2.881204 -3.339490
v -0.921231 4.170741 -3.339490
v 0.397158 2.881204 -2.079466
v 0.397158 4.170741 -2.079466
v 0.367976 2.881204 -3.368673
v 0.367976 4.170741 -3.368673
vn -0.9997 -0.0000 0.0226
vn -0.0226 -0.0000 -0.9997
vn 0.9997 -0.0000 -0.0226
vn 0.0226 -0.0000 0.9997
vn -0.0000 -1.0000 -0.0000
vn -0.0000 1.0000 -0.0000
vt 0.187500 0.062500
s 0
f 414/11/48 415/11/48 417/11/48 416/11/48
f 416/11/49 417/11/49 421/11/49 420/11/49
f 420/11/50 421/11/50 419/11/50 418/11/50
f 418/11/51 419/11/51 415/11/51 414/11/51
f 416/11/52 420/11/52 418/11/52 414/11/52
f 421/11/53 417/11/53 415/11/53 419/11/53
o Cube.027
v -2.856366 -0.064363 -1.855345
v -2.856366 1.523314 -1.855345
v -2.856366 -0.064363 -3.443021
v -2.856366 1.523314 -3.443021
v -1.268689 -0.064363 -1.855345
v -1.268689 1.523314 -1.855345
v -1.268689 -0.064363 -3.443021
v -1.268689 1.523314 -3.443021
vn -1.0000 -0.0000 -0.0000
vn -0.0000 -0.0000 -1.0000
vn 1.0000 -0.0000 -0.0000
vn -0.0000 -0.0000 1.0000
vn -0.0000 -1.0000 -0.0000
vn -0.0000 1.0000 -0.0000
vt 0.187500 0.062500
s 0
f 422/12/54 423/12/54 425/12/54 424/12/54
f 424/12/55 425/12/55 429/12/55 428/12/55
f 428/12/56 429/12/56 427/12/56 426/12/56
f 426/12/57 427/12/57 423/12/57 422/12/57
f 424/12/58 428/12/58 426/12/58 422/12/58
f 429/12/59 425/12/59 423/12/59 427/12/59
o Cube.028
v -2.674001 1.524924 -1.922063
v -2.674001 2.871200 -1.922063
v -2.828517 1.524924 -3.259442
v -2.828517 2.871200 -3.259442
v -1.336622 1.524924 -2.076579
v -1.336622 2.871200 -2.076579
v -1.491138 1.524924 -3.413958
v -1.491138 2.871200 -3.413958
vn -0.9934 -0.0000 0.1148
vn -0.1148 -0.0000 -0.9934
vn 0.9934 -0.0000 -0.1148
vn 0.1148 -0.0000 0.9934
vn -0.0000 -1.0000 -0.0000
vn -0.0000 1.0000 -0.0000
vt 0.187500 0.187500
s 0
f 430/13/60 431/13/60 433/13/60 432/13/60
f 432/13/61 433/13/61 437/13/61 436/13/61
f 436/13/62 437/13/62 435/13/62 434/13/62
f 434/13/63 435/13/63 431/13/63 430/13/63
f 432/13/64 436/13/64 434/13/64 430/13/64
f 437/13/65 433/13/65 431/13/65 435/13/65
o Cube.029
v -2.726005 2.874650 -2.146998
v -2.726005 4.069466 -2.146998
v -2.537158 2.874650 -3.326795
v -2.537158 4.069466 -3.326795
v -1.546208 2.874650 -1.958151
v -1.546208 4.069466 -1.958151
v -1.357361 2.874650 -3.137948
v -1.357361 4.069466 -3.137948
vn -0.9874 -0.0000 -0.1581
vn 0.1581 -0.0000 -0.9874
vn 0.9874 -0.0000 0.1581
vn -0.1581 -0.0000 0.9874
vn -0.0000 -1.0000 -0.0000
vn -0.0000 1.0000 -0.0000
vt 0.187500 0.062500
s 0
f 438/14/66 439/14/66 441/14/66 440/14/66
f 440/14/67 441/14/67 445/14/67 444/14/67
f 444/14/68 445/14/68 443/14/68 442/14/68
f 442/14/69 443/14/69 439/14/69 438/14/69
f 440/14/70 444/14/70 442/14/70 438/14/70
f 445/14/71 441/14/71 439/14/71 443/14/71
o Cube.017
v 0.796380 -0.064363 -1.837753
v 0.796380 1.523314 -1.837753
v 0.796380 -0.064363 -3.425430
v 0.796380 1.523314 -3.425430
v 2.384057 -0.064363 -1.837753
v 2.384057 1.523314 -1.837753
v 2.384057 -0.064363 -3.425430
v 2.384057 1.523314 -3.425430
vn -1.0000 -0.0000 -0.0000
vn -0.0000 -0.0000 -1.0000
vn 1.0000 -0.0000 -0.0000
vn -0.0000 -0.0000 1.0000
vn -0.0000 -1.0000 -0.0000
vn -0.0000 1.0000 -0.0000
vt 0.187500 0.062500
s 0
f 446/15/72 447/15/72 449/15/72 448/15/72
f 448/15/73 449/15/73 453/15/73 452/15/73
f 452/15/74 453/15/74 451/15/74 450/15/74
f 450/15/75 451/15/75 447/15/75 446/15/75
f 448/15/76 452/15/76 450/15/76 446/15/76
f 453/15/77 449/15/77 447/15/77 451/15/77
o Cube.020
v 0.731694 1.513690 -2.089704
v 0.731694 2.914244 -2.089704
v 1.026750 1.513690 -3.458826
v 1.026750 2.914244 -3.458826
v 2.100816 1.513690 -1.794649
v 2.100816 2.914244 -1.794649
v 2.395872 1.513690 -3.163771
v 2.395872 2.914244 -3.163771
vn -0.9776 -0.0000 -0.2107
vn 0.2107 -0.0000 -0.9776
vn 0.9776 -0.0000 0.2107
vn -0.2107 -0.0000 0.9776
vn -0.0000 -1.0000 -0.0000
vn -0.0000 1.0000 -0.0000
vt 0.187500 0.187500
s 0
f 454/16/78 455/16/78 457/16/78 456/16/78
f 456/16/79 457/16/79 461/16/79 460/16/79
f 460/16/80 461/16/80 459/16/80 458/16/80
f 458/16/81 459/16/81 455/16/81 454/16/81
f 456/16/82 460/16/82 458/16/82 454/16/82
f 461/16/83 457/16/83 455/16/83 459/16/83
o Cube.021
v 0.975289 2.910032 -1.952474
v 0.975289 4.244889 -1.952474
v 0.910674 2.910032 -3.285767
v 0.910674 4.244889 -3.285767
v 2.308581 2.910032 -2.017089
v 2.308581 4.244889 -2.017089
v 2.243967 2.910032 -3.350382
v 2.243967 4.244889 -3.350382
vn -0.9988 -0.0000 0.0484
vn -0.0484 -0.0000 -0.9988
vn 0.9988 -0.0000 -0.0484
vn 0.0484 -0.0000 0.9988
vn -0.0000 -1.0000 -0.0000
vn -0.0000 1.0000 -0.0000
vt 0.187500 0.062500
s 0
f 462/17/84 463/17/84 465/17/84 464/17/84
f 464/17/85 465/17/85 469/17/85 468/17/85
f 468/17/86 469/17/86 467/17/86 466/17/86
f 466/17/87 467/17/87 463/17/87 462/17/87
f 464/17/88 468/17/88 466/17/88 462/17/88
f 469/17/89 465/17/89 463/17/89 467/17/89
